M48
; DRILL file {KiCad 9.0.2} date 2025-06-20T14:11:30+0530
; FORMAT={-:-/ absolute / metric / decimal}
; #@! TF.CreationDate,2025-06-20T14:11:30+05:30
; #@! TF.GenerationSoftware,Kicad,Pcbnew,9.0.2
; #@! TF.FileFunction,Plated,1,2,PTH
FMAT,2
METRIC
; #@! TA.AperFunction,Plated,PTH,ViaDrill
T1C0.300
; #@! TA.AperFunction,Plated,PTH,ComponentDrill
T2C0.300
; #@! TA.AperFunction,Plated,PTH,ComponentDrill
T3C0.400
; #@! TA.AperFunction,Plated,PTH,ComponentDrill
T4C0.800
; #@! TA.AperFunction,Plated,PTH,ComponentDrill
T5C0.900
; #@! TA.AperFunction,Plated,PTH,ComponentDrill
T6C1.000
; #@! TA.AperFunction,Plated,PTH,ComponentDrill
T7C1.200
; #@! TA.AperFunction,Plated,PTH,ComponentDrill
T8C2.200
%
G90
G05
T1
X56.62Y-121.847
X57.52Y-121.847
X59.8Y-98.39
X64.7Y-97.39
X65.38Y-115.45
X67.69Y-125.57
X69.1Y-96.38
X81.5Y-116.8
X83.2Y-122.1
X83.99Y-98.39
X86.3Y-97.39
X88.59Y-96.38
X90.34Y-140.34
X92.24Y-105.3
X92.62Y-139.4
X92.96Y-116.48
X96.26Y-112.99
X99.5Y-112.3
X101.11Y-123.31
X101.47Y-116.38
X116.12Y-127.43
X117.66Y-98.57
X120.81Y-116.89
X122.7Y-97.77
X124.671Y-140.34
X125.89Y-96.9
X128.37Y-130.62
X128.44Y-139.39
X134.08Y-106.51
X134.16Y-102.97
X137.355Y-102.865
X137.72Y-110.19
X138.52Y-112.24
X138.815Y-108.655
X140.19Y-102.81
X142.02Y-126.35
X143.91Y-103.32
X144.32Y-122.93
X144.49Y-134.65
X144.83Y-130.27
X145.7Y-131.76
X145.72Y-127.64
X147.65Y-121.53
X148.47Y-114.45
X148.66Y-119.51
X148.66Y-125.35
X148.83Y-133.03
X149.34Y-106.73
X149.91Y-140.31
X151.38Y-125.74
X153.22Y-139.39
X153.44Y-122.69
X154.05Y-112.84
X154.28Y-111.5
X154.32Y-124.5
X155.21Y-119.68
X155.5Y-132.53
X155.7Y-106.7
X157.43Y-120.15
X157.8Y-102.76
X158.73Y-140.2
X159.5Y-124.24
X160.77Y-124.32
X161.96Y-135.69
X162.04Y-124.4
X162.45Y-138.15
X162.9Y-130.6
X163.3Y-106.83
X163.31Y-124.37
X163.59Y-127.95
X163.93Y-100.07
X164.58Y-109.95
X165.85Y-109.94
X166.06Y-100.19
X167.06Y-106.78
X169.65Y-110.14
X169.66Y-124.38
X169.92Y-135.92
T2
X160.795Y-116.897
X160.795Y-118.422
X161.558Y-116.135
X161.558Y-117.66
X161.558Y-119.185
X162.32Y-116.897
X162.32Y-118.422
X163.082Y-116.135
X163.082Y-117.66
X163.082Y-119.185
X163.845Y-116.897
X163.845Y-118.422
T3
X43.263Y-144.227
X43.35Y-95.08
X43.747Y-143.06
X43.747Y-145.393
X43.833Y-93.913
X43.833Y-96.247
X44.913Y-142.577
X44.913Y-145.877
X45.0Y-93.43
X45.0Y-96.73
X46.08Y-143.06
X46.08Y-145.393
X46.167Y-93.913
X46.167Y-96.247
X46.563Y-144.227
X46.65Y-95.08
X169.78Y-95.04
X169.82Y-144.26
X170.263Y-93.873
X170.263Y-96.207
X170.303Y-143.093
X170.303Y-145.427
X171.43Y-93.39
X171.43Y-96.69
X171.47Y-142.61
X171.47Y-145.91
X172.597Y-93.873
X172.597Y-96.207
X172.637Y-143.093
X172.637Y-145.427
X173.08Y-95.04
X173.12Y-144.26
T4
X68.59Y-110.828
X68.59Y-113.328
X84.6Y-126.7
X87.1Y-126.7
X113.75Y-114.95
X113.75Y-122.57
X116.29Y-114.95
X116.29Y-122.57
X118.83Y-114.95
X118.83Y-122.57
X121.37Y-114.95
X121.37Y-122.57
X123.91Y-114.95
X123.91Y-122.57
X126.45Y-114.95
X126.45Y-122.57
X128.99Y-114.95
X128.99Y-122.57
X131.53Y-114.95
X131.53Y-122.57
X134.07Y-114.95
X134.07Y-122.57
X136.61Y-114.95
X136.61Y-122.57
X139.15Y-114.95
X139.15Y-122.57
X141.69Y-114.95
X141.69Y-122.57
X164.85Y-96.8
X166.85Y-96.8
T5
X106.06Y-127.25
X106.1Y-107.68
X108.6Y-127.25
X108.64Y-107.68
T6
X55.27Y-101.282
X55.36Y-136.632
X57.81Y-101.282
X57.9Y-136.632
X60.35Y-101.282
X60.44Y-136.632
X62.89Y-101.282
X62.98Y-136.632
X65.43Y-101.282
X65.52Y-136.632
X84.65Y-101.29
X84.74Y-136.64
X87.19Y-101.29
X87.28Y-136.64
X89.73Y-101.29
X89.82Y-136.64
X92.27Y-101.29
X92.36Y-136.64
X94.81Y-101.29
X94.9Y-136.64
X119.425Y-101.235
X119.515Y-136.585
X121.965Y-101.235
X122.055Y-136.585
X124.505Y-101.235
X124.595Y-136.585
X127.045Y-101.235
X127.135Y-136.585
X129.585Y-101.235
X129.675Y-136.585
X132.67Y-94.23
X135.21Y-94.23
X136.51Y-143.08
X137.75Y-94.23
X139.05Y-143.08
X140.29Y-94.23
X141.59Y-143.08
X142.83Y-94.23
X144.13Y-143.08
X145.37Y-94.23
X146.67Y-143.08
X148.945Y-101.188
X149.035Y-136.537
X151.485Y-101.188
X151.575Y-136.537
X151.7Y-143.8
X154.025Y-101.188
X154.115Y-136.537
X154.24Y-143.8
X156.565Y-101.188
X156.655Y-136.537
X156.78Y-143.8
X159.105Y-101.188
X159.195Y-136.537
X159.32Y-143.8
X161.86Y-143.8
X164.4Y-143.8
X171.45Y-134.65
X171.45Y-139.15
T7
X168.95Y-133.4
X168.95Y-140.4
T8
X44.913Y-144.227
X45.0Y-95.08
X171.43Y-95.04
X171.47Y-144.26
T6
G00X50.64Y-110.25
M15
G01X50.64Y-108.05
M16
G05
G00X52.94Y-104.35
M15
G01X55.14Y-104.35
M16
G05
G00X56.94Y-110.45
M15
G01X56.94Y-107.85
M16
G05
M30
