%TF.GenerationSoftware,KiCad,Pcbnew,9.0.2*%
%TF.CreationDate,2025-06-17T23:20:14+05:30*%
%TF.ProjectId,clock,636c6f63-6b2e-46b6-9963-61645f706362,rev?*%
%TF.SameCoordinates,Original*%
%TF.FileFunction,Copper,L1,Top*%
%TF.FilePolarity,Positive*%
%FSLAX46Y46*%
G04 Gerber Fmt 4.6, Leading zero omitted, Abs format (unit mm)*
G04 Created by KiCad (PCBNEW 9.0.2) date 2025-06-17 23:20:14*
%MOMM*%
%LPD*%
G01*
G04 APERTURE LIST*
G04 Aperture macros list*
%AMRoundRect*
0 Rectangle with rounded corners*
0 $1 Rounding radius*
0 $2 $3 $4 $5 $6 $7 $8 $9 X,Y pos of 4 corners*
0 Add a 4 corners polygon primitive as box body*
4,1,4,$2,$3,$4,$5,$6,$7,$8,$9,$2,$3,0*
0 Add four circle primitives for the rounded corners*
1,1,$1+$1,$2,$3*
1,1,$1+$1,$4,$5*
1,1,$1+$1,$6,$7*
1,1,$1+$1,$8,$9*
0 Add four rect primitives between the rounded corners*
20,1,$1+$1,$2,$3,$4,$5,0*
20,1,$1+$1,$4,$5,$6,$7,0*
20,1,$1+$1,$6,$7,$8,$9,0*
20,1,$1+$1,$8,$9,$2,$3,0*%
G04 Aperture macros list end*
%TA.AperFunction,ComponentPad*%
%ADD10C,0.700000*%
%TD*%
%TA.AperFunction,ComponentPad*%
%ADD11C,4.400000*%
%TD*%
%TA.AperFunction,ComponentPad*%
%ADD12R,1.700000X1.700000*%
%TD*%
%TA.AperFunction,ComponentPad*%
%ADD13C,1.700000*%
%TD*%
%TA.AperFunction,ComponentPad*%
%ADD14R,1.800000X1.800000*%
%TD*%
%TA.AperFunction,ComponentPad*%
%ADD15C,1.800000*%
%TD*%
%TA.AperFunction,HeatsinkPad*%
%ADD16C,0.600000*%
%TD*%
%TA.AperFunction,ComponentPad*%
%ADD17C,2.000000*%
%TD*%
%TA.AperFunction,ComponentPad*%
%ADD18RoundRect,0.250000X-0.550000X0.550000X-0.550000X-0.550000X0.550000X-0.550000X0.550000X0.550000X0*%
%TD*%
%TA.AperFunction,ComponentPad*%
%ADD19C,1.600000*%
%TD*%
%TA.AperFunction,ComponentPad*%
%ADD20RoundRect,0.250000X-0.600000X0.600000X-0.600000X-0.600000X0.600000X-0.600000X0.600000X0.600000X0*%
%TD*%
%TA.AperFunction,ComponentPad*%
%ADD21R,2.000000X4.600000*%
%TD*%
%TA.AperFunction,ComponentPad*%
%ADD22O,2.000000X4.200000*%
%TD*%
%TA.AperFunction,ComponentPad*%
%ADD23O,4.200000X2.000000*%
%TD*%
%TA.AperFunction,ViaPad*%
%ADD24C,0.600000*%
%TD*%
%TA.AperFunction,Conductor*%
%ADD25C,0.200000*%
%TD*%
%TA.AperFunction,Conductor*%
%ADD26C,0.500000*%
%TD*%
G04 APERTURE END LIST*
D10*
%TO.P,REF\u002A\u002A,1*%
%TO.N,N/C*%
X169600000Y-144000000D03*
X170083274Y-142833274D03*
X170083274Y-145166726D03*
X171250000Y-142350000D03*
D11*
X171250000Y-144000000D03*
D10*
X171250000Y-145650000D03*
X172416726Y-142833274D03*
X172416726Y-145166726D03*
X172900000Y-144000000D03*
%TD*%
D12*
%TO.P,U5,1,CC*%
%TO.N,/DIG_3*%
X149035000Y-136537500D03*
D13*
%TO.P,U5,2,E*%
%TO.N,/E*%
X151575000Y-136537500D03*
%TO.P,U5,3,D*%
%TO.N,/D*%
X154115000Y-136537500D03*
%TO.P,U5,4,C*%
%TO.N,/C*%
X156655000Y-136537500D03*
%TO.P,U5,5,CC*%
%TO.N,unconnected-(U5-CC-Pad5)*%
X159195000Y-136537500D03*
%TO.P,U5,6,B*%
%TO.N,/B*%
X159105000Y-101187500D03*
%TO.P,U5,7,A*%
%TO.N,/A*%
X156565000Y-101187500D03*
%TO.P,U5,8,DP*%
%TO.N,unconnected-(U5-DP-Pad8)*%
X154025000Y-101187500D03*
%TO.P,U5,9,F*%
%TO.N,/F*%
X151485000Y-101187500D03*
%TO.P,U5,10,G*%
%TO.N,/G*%
X148945000Y-101187500D03*
%TD*%
D14*
%TO.P,D2,1,K*%
%TO.N,GND*%
X106060000Y-127250000D03*
D15*
%TO.P,D2,2,A*%
%TO.N,/Sec*%
X108600000Y-127250000D03*
%TD*%
D10*
%TO.P,REF\u002A\u002A,1*%
%TO.N,N/C*%
X43483274Y-95733274D03*
X43966548Y-94566548D03*
X43966548Y-96900000D03*
X45133274Y-94083274D03*
D11*
X45133274Y-95733274D03*
D10*
X45133274Y-97383274D03*
X46300000Y-94566548D03*
X46300000Y-96900000D03*
X46783274Y-95733274D03*
%TD*%
D12*
%TO.P,U1,1,CC*%
%TO.N,/DIG_0*%
X55360000Y-136632500D03*
D13*
%TO.P,U1,2,E*%
%TO.N,/E*%
X57900000Y-136632500D03*
%TO.P,U1,3,D*%
%TO.N,/D*%
X60440000Y-136632500D03*
%TO.P,U1,4,C*%
%TO.N,/C*%
X62980000Y-136632500D03*
%TO.P,U1,5,CC*%
%TO.N,unconnected-(U1-CC-Pad5)*%
X65520000Y-136632500D03*
%TO.P,U1,6,B*%
%TO.N,/B*%
X65430000Y-101282500D03*
%TO.P,U1,7,A*%
%TO.N,/A*%
X62890000Y-101282500D03*
%TO.P,U1,8,DP*%
%TO.N,unconnected-(U1-DP-Pad8)*%
X60350000Y-101282500D03*
%TO.P,U1,9,F*%
%TO.N,/F*%
X57810000Y-101282500D03*
%TO.P,U1,10,G*%
%TO.N,/G*%
X55270000Y-101282500D03*
%TD*%
D12*
%TO.P,U2,1,CC*%
%TO.N,/DIG_1*%
X84740000Y-136640000D03*
D13*
%TO.P,U2,2,E*%
%TO.N,/E*%
X87280000Y-136640000D03*
%TO.P,U2,3,D*%
%TO.N,/D*%
X89820000Y-136640000D03*
%TO.P,U2,4,C*%
%TO.N,/C*%
X92360000Y-136640000D03*
%TO.P,U2,5,CC*%
%TO.N,unconnected-(U2-CC-Pad5)*%
X94900000Y-136640000D03*
%TO.P,U2,6,B*%
%TO.N,/B*%
X94810000Y-101290000D03*
%TO.P,U2,7,A*%
%TO.N,/A*%
X92270000Y-101290000D03*
%TO.P,U2,8,DP*%
%TO.N,unconnected-(U2-DP-Pad8)*%
X89730000Y-101290000D03*
%TO.P,U2,9,F*%
%TO.N,/F*%
X87190000Y-101290000D03*
%TO.P,U2,10,G*%
%TO.N,/G*%
X84650000Y-101290000D03*
%TD*%
D14*
%TO.P,D1,1,K*%
%TO.N,GND*%
X106100000Y-107680000D03*
D15*
%TO.P,D1,2,A*%
%TO.N,/Sec*%
X108640000Y-107680000D03*
%TD*%
D12*
%TO.P,U3,1,CC*%
%TO.N,/DIG_2*%
X119515000Y-136585000D03*
D13*
%TO.P,U3,2,E*%
%TO.N,/E*%
X122055000Y-136585000D03*
%TO.P,U3,3,D*%
%TO.N,/D*%
X124595000Y-136585000D03*
%TO.P,U3,4,C*%
%TO.N,/C*%
X127135000Y-136585000D03*
%TO.P,U3,5,CC*%
%TO.N,unconnected-(U3-CC-Pad5)*%
X129675000Y-136585000D03*
%TO.P,U3,6,B*%
%TO.N,/B*%
X129585000Y-101235000D03*
%TO.P,U3,7,A*%
%TO.N,/A*%
X127045000Y-101235000D03*
%TO.P,U3,8,DP*%
%TO.N,unconnected-(U3-DP-Pad8)*%
X124505000Y-101235000D03*
%TO.P,U3,9,F*%
%TO.N,/F*%
X121965000Y-101235000D03*
%TO.P,U3,10,G*%
%TO.N,/G*%
X119425000Y-101235000D03*
%TD*%
D10*
%TO.P,REF\u002A\u002A,1*%
%TO.N,N/C*%
X169700000Y-95900000D03*
X170183274Y-94733274D03*
X170183274Y-97066726D03*
X171350000Y-94250000D03*
D11*
X171350000Y-95900000D03*
D10*
X171350000Y-97550000D03*
X172516726Y-94733274D03*
X172516726Y-97066726D03*
X173000000Y-95900000D03*
%TD*%
%TO.P,REF\u002A\u002A,1*%
%TO.N,N/C*%
X43800000Y-143740000D03*
X44283274Y-142573274D03*
X44283274Y-144906726D03*
X45450000Y-142090000D03*
D11*
X45450000Y-143740000D03*
D10*
X45450000Y-145390000D03*
X46616726Y-142573274D03*
X46616726Y-144906726D03*
X47100000Y-143740000D03*
%TD*%
D16*
%TO.P,U4,39,GND*%
%TO.N,GND*%
X161557500Y-119185000D03*
X163082500Y-119185000D03*
X160795000Y-118422500D03*
X162320000Y-118422500D03*
X163845000Y-118422500D03*
X161557500Y-117660000D03*
X163082500Y-117660000D03*
X160795000Y-116897500D03*
X162320000Y-116897500D03*
X163845000Y-116897500D03*
X161557500Y-116135000D03*
X163082500Y-116135000D03*
%TD*%
D15*
%TO.P,SW1,1,1*%
%TO.N,GND*%
X171450000Y-134650000D03*
%TO.P,SW1,2,2*%
%TO.N,/EN*%
X171450000Y-139150000D03*
D17*
%TO.P,SW1,M1,M1*%
%TO.N,unconnected-(SW1-PadM1)*%
X168950000Y-133400000D03*
%TO.P,SW1,M2,M2*%
%TO.N,unconnected-(SW1-PadM2)*%
X168950000Y-140400000D03*
%TD*%
D18*
%TO.P,U6,1,DIN*%
%TO.N,/MOSI*%
X113750000Y-114950000D03*
D19*
%TO.P,U6,2,DIG_0*%
%TO.N,/DIG_0*%
X116290000Y-114950000D03*
%TO.P,U6,3,DIG_4*%
%TO.N,unconnected-(U6-DIG_4-Pad3)*%
X118830000Y-114950000D03*
%TO.P,U6,4,GND*%
%TO.N,GND*%
X121370000Y-114950000D03*
%TO.P,U6,5,DIG_6*%
%TO.N,unconnected-(U6-DIG_6-Pad5)*%
X123910000Y-114950000D03*
%TO.P,U6,6,DIG_2*%
%TO.N,/DIG_2*%
X126450000Y-114950000D03*
%TO.P,U6,7,DIG_3*%
%TO.N,/DIG_3*%
X128990000Y-114950000D03*
%TO.P,U6,8,DIG_7*%
%TO.N,unconnected-(U6-DIG_7-Pad8)*%
X131530000Y-114950000D03*
%TO.P,U6,9,GND*%
%TO.N,GND*%
X134070000Y-114950000D03*
%TO.P,U6,10,DIG_5*%
%TO.N,unconnected-(U6-DIG_5-Pad10)*%
X136610000Y-114950000D03*
%TO.P,U6,11,DIG_1*%
%TO.N,/DIG_1*%
X139150000Y-114950000D03*
%TO.P,U6,12,~{CS}*%
%TO.N,/CS*%
X141690000Y-114950000D03*
%TO.P,U6,13,CLK*%
%TO.N,/CLK*%
X141690000Y-122570000D03*
%TO.P,U6,14,SEG_A*%
%TO.N,/A*%
X139150000Y-122570000D03*
%TO.P,U6,15,SEG_F*%
%TO.N,/F*%
X136610000Y-122570000D03*
%TO.P,U6,16,SEG_B*%
%TO.N,/B*%
X134070000Y-122570000D03*
%TO.P,U6,17,SEG_G*%
%TO.N,/G*%
X131530000Y-122570000D03*
%TO.P,U6,18,ISET*%
%TO.N,Net-(U6-ISET)*%
X128990000Y-122570000D03*
%TO.P,U6,19,V+*%
%TO.N,+5V*%
X126450000Y-122570000D03*
%TO.P,U6,20,SEG_C*%
%TO.N,/C*%
X123910000Y-122570000D03*
%TO.P,U6,21,SEG_E*%
%TO.N,/E*%
X121370000Y-122570000D03*
%TO.P,U6,22,SEG_DP*%
%TO.N,unconnected-(U6-SEG_DP-Pad22)*%
X118830000Y-122570000D03*
%TO.P,U6,23,SEG_D*%
%TO.N,/D*%
X116290000Y-122570000D03*
%TO.P,U6,24,DOUT*%
%TO.N,unconnected-(U6-DOUT-Pad24)*%
X113750000Y-122570000D03*
%TD*%
%TO.P,C3,1*%
%TO.N,/pwr_in*%
X68590000Y-113327500D03*
%TO.P,C3,2*%
%TO.N,GND*%
X68590000Y-110827500D03*
%TD*%
D20*
%TO.P,J2,1,Pin_1*%
%TO.N,/DTR*%
X157330000Y-141270000D03*
D13*
%TO.P,J2,2,Pin_2*%
%TO.N,/RXD0*%
X157330000Y-143810000D03*
%TO.P,J2,3,Pin_3*%
%TO.N,+5V*%
X159870000Y-141270000D03*
%TO.P,J2,4,Pin_4*%
%TO.N,/RTS*%
X159870000Y-143810000D03*
%TO.P,J2,5,Pin_5*%
%TO.N,/TXD0*%
X162410000Y-141270000D03*
%TO.P,J2,6,Pin_6*%
%TO.N,GND*%
X162410000Y-143810000D03*
%TD*%
D21*
%TO.P,J1,1*%
%TO.N,Net-(D3-A)*%
X58560000Y-109237500D03*
D22*
%TO.P,J1,2*%
%TO.N,GND*%
X52260000Y-109237500D03*
D23*
%TO.P,J1,3*%
X55660000Y-104437500D03*
%TD*%
D19*
%TO.P,C9,1*%
%TO.N,+5V*%
X87100000Y-126700000D03*
%TO.P,C9,2*%
%TO.N,GND*%
X84600000Y-126700000D03*
%TD*%
D24*
%TO.N,GND*%
X57520000Y-121847500D03*
X92960000Y-116480000D03*
X169660000Y-124380000D03*
X96260000Y-112990000D03*
X125250000Y-120770000D03*
X169650000Y-110140000D03*
X81500000Y-116800000D03*
X92240000Y-105300000D03*
X83200000Y-122100000D03*
X65380000Y-115450000D03*
X56620000Y-121847500D03*
X99500000Y-112300000D03*
X134080000Y-106510000D03*
X153440000Y-122690000D03*
X67690000Y-125570000D03*
%TO.N,/EN*%
X162150000Y-135500000D03*
X163590000Y-127950000D03*
%TO.N,/RXD0*%
X164580000Y-109950000D03*
%TO.N,/DTR*%
X155500000Y-132530000D03*
%TO.N,/TXD0*%
X165850000Y-109940000D03*
%TO.N,/RTS*%
X161120000Y-136380000D03*
X162900000Y-130600000D03*
%TO.N,/A*%
X64700000Y-97390000D03*
X122320000Y-97390000D03*
X86300000Y-97390000D03*
%TO.N,/F*%
X117480000Y-98390000D03*
X59800000Y-98390000D03*
X83990000Y-98390000D03*
%TO.N,/B*%
X69100000Y-96380000D03*
X88590000Y-96380000D03*
X125820000Y-96380000D03*
%TO.N,/E*%
X90340000Y-140340000D03*
X149910000Y-140310000D03*
X124671157Y-140339999D03*
%TO.N,/D*%
X153220000Y-139390000D03*
X92620000Y-139400000D03*
X128440000Y-139390000D03*
%TO.N,/DIG_2*%
X127820000Y-130070000D03*
%TO.N,/DIG_1*%
X121300000Y-117360000D03*
%TO.N,/Sec*%
X101470000Y-116380000D03*
%TO.N,/CLK*%
X153800000Y-124000000D03*
X145000000Y-126800000D03*
%TD*%
D25*
%TO.N,/EN*%
X164360000Y-128720000D02*
X164360000Y-132720000D01*
X163590000Y-127950000D02*
X164360000Y-128720000D01*
X164360000Y-133290000D02*
X162150000Y-135500000D01*
X164360000Y-132720000D02*
X164360000Y-133290000D01*
%TO.N,/RXD0*%
X161120000Y-140670000D02*
X161120000Y-142050000D01*
X161120000Y-142050000D02*
X160610000Y-142560000D01*
X164580000Y-109950000D02*
X165030000Y-110400000D01*
X165030000Y-110400000D02*
X165030000Y-136760000D01*
X158580000Y-142560000D02*
X157330000Y-143810000D01*
X160610000Y-142560000D02*
X158580000Y-142560000D01*
X165030000Y-136760000D02*
X161120000Y-140670000D01*
%TO.N,/DTR*%
X157860000Y-135360000D02*
X157860000Y-138510000D01*
X157350000Y-141250000D02*
X157330000Y-141270000D01*
X157350000Y-139020000D02*
X157350000Y-141250000D01*
X157860000Y-138510000D02*
X157350000Y-139020000D01*
X155500000Y-132530000D02*
X155500000Y-133000000D01*
X155500000Y-133000000D02*
X157860000Y-135360000D01*
%TO.N,/TXD0*%
X166430000Y-137250000D02*
X162410000Y-141270000D01*
X166430000Y-110520000D02*
X166430000Y-137250000D01*
X165850000Y-109940000D02*
X166430000Y-110520000D01*
%TO.N,/RTS*%
X161120000Y-135030000D02*
X161120000Y-136380000D01*
X163550000Y-131250000D02*
X163550000Y-132600000D01*
X163550000Y-132600000D02*
X161120000Y-135030000D01*
X162900000Y-130600000D02*
X163550000Y-131250000D01*
X162470000Y-130170000D02*
X162470000Y-130140000D01*
X162900000Y-130600000D02*
X162470000Y-130170000D01*
D26*
%TO.N,/C*%
X155600000Y-138510000D02*
X129410000Y-138510000D01*
X129410000Y-138510000D02*
X129060000Y-138510000D01*
D25*
X122900000Y-124800000D02*
X123910000Y-123790000D01*
D26*
X95100000Y-138510000D02*
X64857500Y-138510000D01*
D25*
X123910000Y-123790000D02*
X123910000Y-122570000D01*
X122900000Y-128493956D02*
X122900000Y-124800000D01*
X127135000Y-132728956D02*
X122900000Y-128493956D01*
D26*
X156655000Y-137455000D02*
X155600000Y-138510000D01*
X129060000Y-138510000D02*
X127135000Y-136585000D01*
X94230000Y-138510000D02*
X92360000Y-136640000D01*
X64857500Y-138510000D02*
X62980000Y-136632500D01*
X129410000Y-138510000D02*
X95100000Y-138510000D01*
X156655000Y-136537500D02*
X156655000Y-137455000D01*
X95100000Y-138510000D02*
X94230000Y-138510000D01*
D25*
X127135000Y-136585000D02*
X127135000Y-132728956D01*
%TO.N,/A*%
X127045000Y-101235000D02*
X127045000Y-105155000D01*
X139150000Y-121130000D02*
X139150000Y-122570000D01*
X135310000Y-113420000D02*
X135310000Y-117290000D01*
D26*
X122320000Y-97390000D02*
X154050000Y-97390000D01*
X64700000Y-97390000D02*
X86300000Y-97390000D01*
X154050000Y-97390000D02*
X156565000Y-99905000D01*
X86300000Y-97390000D02*
X86310000Y-97390000D01*
D25*
X135310000Y-117290000D02*
X139150000Y-121130000D01*
X127045000Y-105155000D02*
X135310000Y-113420000D01*
D26*
X156565000Y-99905000D02*
X156565000Y-101187500D01*
X86300000Y-97390000D02*
X122320000Y-97390000D01*
%TO.N,/F*%
X59800000Y-98390000D02*
X83990000Y-98390000D01*
D25*
X121965000Y-102955000D02*
X132810000Y-113800000D01*
X121965000Y-101235000D02*
X121965000Y-102955000D01*
X132810000Y-116870000D02*
X136610000Y-120670000D01*
D26*
X117480000Y-98390000D02*
X148687500Y-98390000D01*
X83990000Y-98390000D02*
X117480000Y-98390000D01*
D25*
X136610000Y-120670000D02*
X136610000Y-122570000D01*
X132810000Y-113800000D02*
X132810000Y-116870000D01*
D26*
X148687500Y-98390000D02*
X151485000Y-101187500D01*
D25*
%TO.N,/B*%
X129580000Y-101240000D02*
X129580000Y-104900000D01*
D26*
X125820000Y-96380000D02*
X156170000Y-96380000D01*
D25*
X136130000Y-111450000D02*
X142790000Y-111450000D01*
D26*
X88590000Y-96380000D02*
X125820000Y-96380000D01*
D25*
X142790000Y-111450000D02*
X146560000Y-115220000D01*
X146560000Y-123490000D02*
X144630000Y-125420000D01*
X136920000Y-125420000D02*
X134070000Y-122570000D01*
D26*
X159105000Y-99315000D02*
X159105000Y-101187500D01*
X156170000Y-96380000D02*
X159105000Y-99315000D01*
D25*
X129580000Y-104900000D02*
X136130000Y-111450000D01*
D26*
X69100000Y-96380000D02*
X88590000Y-96380000D01*
D25*
X129585000Y-101235000D02*
X129580000Y-101240000D01*
X144630000Y-125420000D02*
X136920000Y-125420000D01*
X146560000Y-115220000D02*
X146560000Y-123490000D01*
%TO.N,/E*%
X121370000Y-120670000D02*
X121370000Y-122570000D01*
D26*
X149910000Y-140310000D02*
X124660000Y-140310000D01*
D25*
X87280000Y-134330000D02*
X102010000Y-119600000D01*
D26*
X60290000Y-140340000D02*
X57900000Y-137950000D01*
X57900000Y-137950000D02*
X57900000Y-136632500D01*
X90340000Y-140340000D02*
X60290000Y-140340000D01*
X90340000Y-140340000D02*
X90340001Y-140339999D01*
D25*
X120300000Y-119600000D02*
X121370000Y-120670000D01*
D26*
X124671157Y-140339999D02*
X90340000Y-140340000D01*
D25*
X102010000Y-119600000D02*
X120300000Y-119600000D01*
X87280000Y-136640000D02*
X87280000Y-134330000D01*
%TO.N,/G*%
X119425000Y-103165000D02*
X130300000Y-114040000D01*
D26*
X82760000Y-99400000D02*
X84650000Y-101290000D01*
X147157500Y-99400000D02*
X148945000Y-101187500D01*
X55270000Y-101282500D02*
X55270000Y-100570000D01*
X82760000Y-99400000D02*
X117590000Y-99400000D01*
D25*
X130300000Y-114040000D02*
X130300000Y-117260000D01*
D26*
X55270000Y-100570000D02*
X56440000Y-99400000D01*
X117590000Y-99400000D02*
X147157500Y-99400000D01*
X56440000Y-99400000D02*
X82760000Y-99400000D01*
D25*
X130300000Y-117260000D02*
X131530000Y-118490000D01*
X119425000Y-101235000D02*
X119425000Y-103165000D01*
D26*
X117590000Y-99400000D02*
X119425000Y-101235000D01*
D25*
X131530000Y-118490000D02*
X131530000Y-122570000D01*
D26*
%TO.N,/D*%
X63207500Y-139400000D02*
X60440000Y-136632500D01*
D25*
X116290000Y-124300000D02*
X116290000Y-122570000D01*
D26*
X92620000Y-139400000D02*
X63207500Y-139400000D01*
X92630000Y-139390000D02*
X92620000Y-139400000D01*
X128440000Y-139390000D02*
X92630000Y-139390000D01*
D25*
X124595000Y-136585000D02*
X124595000Y-132605000D01*
X124595000Y-132605000D02*
X116290000Y-124300000D01*
D26*
X153220000Y-139390000D02*
X128440000Y-139390000D01*
D25*
%TO.N,/DIG_3*%
X129050000Y-115010000D02*
X128990000Y-114950000D01*
X130260000Y-119490000D02*
X129050000Y-118280000D01*
X129050000Y-118280000D02*
X129050000Y-115010000D01*
X149035000Y-136537500D02*
X143267500Y-136537500D01*
X143267500Y-136537500D02*
X130260000Y-123530000D01*
X130260000Y-123530000D02*
X130260000Y-119490000D01*
%TO.N,/DIG_2*%
X127820000Y-130070000D02*
X127750000Y-130000000D01*
X126450000Y-117670000D02*
X126450000Y-114950000D01*
X127750000Y-118970000D02*
X126450000Y-117670000D01*
X127750000Y-130000000D02*
X127750000Y-118970000D01*
%TO.N,/DIG_0*%
X116290000Y-113720000D02*
X116290000Y-114950000D01*
X103800000Y-117400000D02*
X108460000Y-112740000D01*
X56580000Y-133870000D02*
X83860000Y-133870000D01*
X83860000Y-133870000D02*
X100330000Y-117400000D01*
X108460000Y-112740000D02*
X115310000Y-112740000D01*
X115310000Y-112740000D02*
X116290000Y-113720000D01*
X55360000Y-135090000D02*
X56580000Y-133870000D01*
X55360000Y-136632500D02*
X55360000Y-135090000D01*
X100330000Y-117400000D02*
X103800000Y-117400000D01*
%TO.N,/DIG_1*%
X101240000Y-118400000D02*
X84740000Y-134900000D01*
X120260000Y-118400000D02*
X101240000Y-118400000D01*
X121300000Y-117360000D02*
X120260000Y-118400000D01*
X84740000Y-134900000D02*
X84740000Y-136640000D01*
%TO.N,/Sec*%
X103090000Y-116380000D02*
X108640000Y-110830000D01*
X108640000Y-110830000D02*
X108640000Y-107680000D01*
X101470000Y-116380000D02*
X103090000Y-116380000D01*
D26*
%TO.N,/CLK*%
X153800000Y-124000000D02*
X147800000Y-124000000D01*
X147800000Y-124000000D02*
X145000000Y-126800000D01*
%TD*%
%TA.AperFunction,Conductor*%
%TO.N,GND*%
G36*
X120066942Y-120220185D02*
G01*
X120087584Y-120236819D01*
X120733181Y-120882416D01*
X120766666Y-120943739D01*
X120769500Y-120970097D01*
X120769500Y-121340397D01*
X120749815Y-121407436D01*
X120701800Y-121450879D01*
X120688389Y-121457712D01*
X120522786Y-121578028D01*
X120378028Y-121722786D01*
X120257715Y-121888386D01*
X120210485Y-121981080D01*
X120162510Y-122031876D01*
X120094689Y-122048671D01*
X120028554Y-122026134D01*
X119989515Y-121981080D01*
X119988883Y-121979840D01*
X119942287Y-121888390D01*
X119934556Y-121877749D01*
X119821971Y-121722786D01*
X119677213Y-121578028D01*
X119511613Y-121457715D01*
X119511612Y-121457714D01*
X119511610Y-121457713D01*
X119435041Y-121418699D01*
X119329223Y-121364781D01*
X119134534Y-121301522D01*
X118959995Y-121273878D01*
X118932352Y-121269500D01*
X118727648Y-121269500D01*
X118703329Y-121273351D01*
X118525465Y-121301522D01*
X118330776Y-121364781D01*
X118148386Y-121457715D01*
X117982786Y-121578028D01*
X117838028Y-121722786D01*
X117717715Y-121888386D01*
X117670485Y-121981080D01*
X117622510Y-122031876D01*
X117554689Y-122048671D01*
X117488554Y-122026134D01*
X117449515Y-121981080D01*
X117448883Y-121979840D01*
X117402287Y-121888390D01*
X117394556Y-121877749D01*
X117281971Y-121722786D01*
X117137213Y-121578028D01*
X116971613Y-121457715D01*
X116971612Y-121457714D01*
X116971610Y-121457713D01*
X116895041Y-121418699D01*
X116789223Y-121364781D01*
X116594534Y-121301522D01*
X116419995Y-121273878D01*
X116392352Y-121269500D01*
X116187648Y-121269500D01*
X116163329Y-121273351D01*
X115985465Y-121301522D01*
X115790776Y-121364781D01*
X115608386Y-121457715D01*
X115442786Y-121578028D01*
X115298028Y-121722786D01*
X115177715Y-121888386D01*
X115130485Y-121981080D01*
X115082510Y-122031876D01*
X115014689Y-122048671D01*
X114948554Y-122026134D01*
X114909515Y-121981080D01*
X114908883Y-121979840D01*
X114862287Y-121888390D01*
X114854556Y-121877749D01*
X114741971Y-121722786D01*
X114597213Y-121578028D01*
X114431613Y-121457715D01*
X114431612Y-121457714D01*
X114431610Y-121457713D01*
X114355041Y-121418699D01*
X114249223Y-121364781D01*
X114054534Y-121301522D01*
X113879995Y-121273878D01*
X113852352Y-121269500D01*
X113647648Y-121269500D01*
X113623329Y-121273351D01*
X113445465Y-121301522D01*
X113250776Y-121364781D01*
X113068386Y-121457715D01*
X112902786Y-121578028D01*
X112758028Y-121722786D01*
X112637715Y-121888386D01*
X112544781Y-122070776D01*
X112481522Y-122265465D01*
X112449500Y-122467648D01*
X112449500Y-122672351D01*
X112481522Y-122874534D01*
X112544781Y-123069223D01*
X112637715Y-123251613D01*
X112758028Y-123417213D01*
X112902786Y-123561971D01*
X113033688Y-123657075D01*
X113068390Y-123682287D01*
X113167060Y-123732562D01*
X113250776Y-123775218D01*
X113250778Y-123775218D01*
X113250781Y-123775220D01*
X113299101Y-123790920D01*
X113445465Y-123838477D01*
X113546557Y-123854488D01*
X113647648Y-123870500D01*
X113647649Y-123870500D01*
X113852351Y-123870500D01*
X113852352Y-123870500D01*
X114054534Y-123838477D01*
X114249219Y-123775220D01*
X114431610Y-123682287D01*
X114524590Y-123614732D01*
X114597213Y-123561971D01*
X114597215Y-123561968D01*
X114597219Y-123561966D01*
X114741966Y-123417219D01*
X114741968Y-123417215D01*
X114741971Y-123417213D01*
X114862284Y-123251614D01*
X114862285Y-123251613D01*
X114862287Y-123251610D01*
X114909516Y-123158917D01*
X114957489Y-123108123D01*
X115025310Y-123091328D01*
X115091445Y-123113865D01*
X115130485Y-123158919D01*
X115177715Y-123251614D01*
X115298028Y-123417213D01*
X115298034Y-123417219D01*
X115442781Y-123561966D01*
X115608390Y-123682287D01*
X115621793Y-123689116D01*
X115672589Y-123737088D01*
X115689500Y-123799601D01*
X115689500Y-124213330D01*
X115689499Y-124213348D01*
X115689499Y-124379054D01*
X115689498Y-124379054D01*
X115730424Y-124531789D01*
X115730425Y-124531790D01*
X115751455Y-124568214D01*
X115751456Y-124568216D01*
X115809475Y-124668709D01*
X115809481Y-124668717D01*
X115928349Y-124787585D01*
X115928355Y-124787590D01*
X123958181Y-132817416D01*
X123991666Y-132878739D01*
X123994500Y-132905097D01*
X123994500Y-135299281D01*
X123974815Y-135366320D01*
X123926795Y-135409765D01*
X123887185Y-135429947D01*
X123887184Y-135429948D01*
X123715213Y-135554890D01*
X123564890Y-135705213D01*
X123439949Y-135877182D01*
X123435484Y-135885946D01*
X123387509Y-135936742D01*
X123319688Y-135953536D01*
X123253553Y-135930998D01*
X123214516Y-135885946D01*
X123210050Y-135877182D01*
X123085109Y-135705213D01*
X122934786Y-135554890D01*
X122762820Y-135429951D01*
X122573414Y-135333444D01*
X122573413Y-135333443D01*
X122573412Y-135333443D01*
X122371243Y-135267754D01*
X122371241Y-135267753D01*
X122371240Y-135267753D01*
X122209957Y-135242208D01*
X122161287Y-135234500D01*
X121948713Y-135234500D01*
X121900042Y-135242208D01*
X121738760Y-135267753D01*
X121536585Y-135333444D01*
X121347179Y-135429951D01*
X121175215Y-135554889D01*
X121061673Y-135668431D01*
X121000350Y-135701915D01*
X120930658Y-135696931D01*
X120874725Y-135655059D01*
X120857810Y-135624082D01*
X120808797Y-135492671D01*
X120808793Y-135492664D01*
X120722547Y-135377455D01*
X120722544Y-135377452D01*
X120607335Y-135291206D01*
X120607328Y-135291202D01*
X120472482Y-135240908D01*
X120472483Y-135240908D01*
X120412883Y-135234501D01*
X120412881Y-135234500D01*
X120412873Y-135234500D01*
X120412864Y-135234500D01*
X118617129Y-135234500D01*
X118617123Y-135234501D01*
X118557516Y-135240908D01*
X118422671Y-135291202D01*
X118422664Y-135291206D01*
X118307455Y-135377452D01*
X118307452Y-135377455D01*
X118221206Y-135492664D01*
X118221202Y-135492671D01*
X118170908Y-135627517D01*
X118164501Y-135687116D01*
X118164500Y-135687135D01*
X118164500Y-137482870D01*
X118164501Y-137482876D01*
X118170908Y-137542481D01*
X118170909Y-137542483D01*
X118188625Y-137589983D01*
X118189440Y-137592166D01*
X118194424Y-137661858D01*
X118160939Y-137723181D01*
X118099616Y-137756666D01*
X118073258Y-137759500D01*
X95989758Y-137759500D01*
X95922719Y-137739815D01*
X95876964Y-137687011D01*
X95867020Y-137617853D01*
X95896045Y-137554297D01*
X95902077Y-137547819D01*
X95912412Y-137537484D01*
X95930104Y-137519792D01*
X95930106Y-137519788D01*
X95930109Y-137519786D01*
X96055048Y-137347820D01*
X96055047Y-137347820D01*
X96055051Y-137347816D01*
X96151557Y-137158412D01*
X96217246Y-136956243D01*
X96250500Y-136746287D01*
X96250500Y-136533713D01*
X96217246Y-136323757D01*
X96151557Y-136121588D01*
X96055051Y-135932184D01*
X96055049Y-135932181D01*
X96055048Y-135932179D01*
X95930109Y-135760213D01*
X95779786Y-135609890D01*
X95607820Y-135484951D01*
X95418414Y-135388444D01*
X95418413Y-135388443D01*
X95418412Y-135388443D01*
X95216243Y-135322754D01*
X95216241Y-135322753D01*
X95216240Y-135322753D01*
X95054957Y-135297208D01*
X95006287Y-135289500D01*
X94793713Y-135289500D01*
X94745042Y-135297208D01*
X94583760Y-135322753D01*
X94381585Y-135388444D01*
X94192179Y-135484951D01*
X94020213Y-135609890D01*
X93869890Y-135760213D01*
X93744949Y-135932182D01*
X93740484Y-135940946D01*
X93692509Y-135991742D01*
X93624688Y-136008536D01*
X93558553Y-135985998D01*
X93519516Y-135940946D01*
X93515050Y-135932182D01*
X93390109Y-135760213D01*
X93239786Y-135609890D01*
X93067820Y-135484951D01*
X92878414Y-135388444D01*
X92878413Y-135388443D01*
X92878412Y-135388443D01*
X92676243Y-135322754D01*
X92676241Y-135322753D01*
X92676240Y-135322753D01*
X92514957Y-135297208D01*
X92466287Y-135289500D01*
X92253713Y-135289500D01*
X92205042Y-135297208D01*
X92043760Y-135322753D01*
X91841585Y-135388444D01*
X91652179Y-135484951D01*
X91480213Y-135609890D01*
X91329890Y-135760213D01*
X91204949Y-135932182D01*
X91200484Y-135940946D01*
X91152509Y-135991742D01*
X91084688Y-136008536D01*
X91018553Y-135985998D01*
X90979516Y-135940946D01*
X90975050Y-135932182D01*
X90850109Y-135760213D01*
X90699786Y-135609890D01*
X90527820Y-135484951D01*
X90338414Y-135388444D01*
X90338413Y-135388443D01*
X90338412Y-135388443D01*
X90136243Y-135322754D01*
X90136241Y-135322753D01*
X90136240Y-135322753D01*
X89974957Y-135297208D01*
X89926287Y-135289500D01*
X89713713Y-135289500D01*
X89665042Y-135297208D01*
X89503760Y-135322753D01*
X89301585Y-135388444D01*
X89112179Y-135484951D01*
X88940213Y-135609890D01*
X88789890Y-135760213D01*
X88664949Y-135932182D01*
X88660484Y-135940946D01*
X88612509Y-135991742D01*
X88544688Y-136008536D01*
X88478553Y-135985998D01*
X88439516Y-135940946D01*
X88435050Y-135932182D01*
X88310109Y-135760213D01*
X88159786Y-135609890D01*
X87987815Y-135484948D01*
X87987814Y-135484947D01*
X87948205Y-135464765D01*
X87897409Y-135416791D01*
X87880500Y-135354281D01*
X87880500Y-134630097D01*
X87900185Y-134563058D01*
X87916819Y-134542416D01*
X95319458Y-127139778D01*
X107199500Y-127139778D01*
X107199500Y-127360221D01*
X107233985Y-127577952D01*
X107302103Y-127787603D01*
X107302104Y-127787606D01*
X107344677Y-127871158D01*
X107394264Y-127968477D01*
X107402187Y-127984025D01*
X107531752Y-128162358D01*
X107531756Y-128162363D01*
X107687636Y-128318243D01*
X107687641Y-128318247D01*
X107810194Y-128407286D01*
X107865978Y-128447815D01*
X107994375Y-128513237D01*
X108062393Y-128547895D01*
X108062396Y-128547896D01*
X108135924Y-128571786D01*
X108272049Y-128616015D01*
X108489778Y-128650500D01*
X108489779Y-128650500D01*
X108710221Y-128650500D01*
X108710222Y-128650500D01*
X108927951Y-128616015D01*
X109137606Y-128547895D01*
X109334022Y-128447815D01*
X109512365Y-128318242D01*
X109668242Y-128162365D01*
X109797815Y-127984022D01*
X109897895Y-127787606D01*
X109966015Y-127577951D01*
X110000500Y-127360222D01*
X110000500Y-127139778D01*
X109966015Y-126922049D01*
X109897895Y-126712394D01*
X109897895Y-126712393D01*
X109839428Y-126597648D01*
X109797815Y-126515978D01*
X109728675Y-126420814D01*
X109668247Y-126337641D01*
X109668243Y-126337636D01*
X109512363Y-126181756D01*
X109512358Y-126181752D01*
X109334025Y-126052187D01*
X109334024Y-126052186D01*
X109334022Y-126052185D01*
X109265320Y-126017179D01*
X109137606Y-125952104D01*
X109137603Y-125952103D01*
X108927952Y-125883985D01*
X108819086Y-125866742D01*
X108710222Y-125849500D01*
X108489778Y-125849500D01*
X108417201Y-125860995D01*
X108272047Y-125883985D01*
X108062396Y-125952103D01*
X108062393Y-125952104D01*
X107865974Y-126052187D01*
X107687641Y-126181752D01*
X107687636Y-126181756D01*
X107531756Y-126337636D01*
X107531752Y-126337641D01*
X107402187Y-126515974D01*
X107302104Y-126712393D01*
X107302103Y-126712396D01*
X107233985Y-126922047D01*
X107199500Y-127139778D01*
X95319458Y-127139778D01*
X95412011Y-127047225D01*
X102222417Y-120236819D01*
X102283740Y-120203334D01*
X102310098Y-120200500D01*
X119999903Y-120200500D01*
X120066942Y-120220185D01*
G37*
%TD.AperFunction*%
%TA.AperFunction,Conductor*%
G36*
X125792226Y-101870524D02*
G01*
X125804810Y-101869985D01*
X125824674Y-101881581D01*
X125846444Y-101888999D01*
X125855719Y-101899703D01*
X125865151Y-101905209D01*
X125885484Y-101934053D01*
X125887627Y-101938259D01*
X125889951Y-101942820D01*
X126014890Y-102114786D01*
X126165213Y-102265109D01*
X126337184Y-102390051D01*
X126337184Y-102390052D01*
X126376793Y-102410233D01*
X126427590Y-102458206D01*
X126444500Y-102520718D01*
X126444500Y-105068330D01*
X126444499Y-105068348D01*
X126444499Y-105234054D01*
X126444498Y-105234054D01*
X126485423Y-105386785D01*
X126514358Y-105436900D01*
X126514359Y-105436904D01*
X126514360Y-105436904D01*
X126564479Y-105523714D01*
X126564481Y-105523717D01*
X126683349Y-105642585D01*
X126683355Y-105642590D01*
X134673181Y-113632416D01*
X134706666Y-113693739D01*
X134709500Y-113720097D01*
X134709500Y-117203330D01*
X134709499Y-117203348D01*
X134709499Y-117369054D01*
X134709498Y-117369054D01*
X134750423Y-117521785D01*
X134779358Y-117571900D01*
X134779359Y-117571904D01*
X134779360Y-117571904D01*
X134791826Y-117593497D01*
X134829479Y-117658714D01*
X134829481Y-117658717D01*
X134948349Y-117777585D01*
X134948355Y-117777590D01*
X138458449Y-121287684D01*
X138491934Y-121349007D01*
X138486950Y-121418699D01*
X138445078Y-121474632D01*
X138443654Y-121475683D01*
X138302782Y-121578032D01*
X138158028Y-121722786D01*
X138037715Y-121888386D01*
X137990485Y-121981080D01*
X137942510Y-122031876D01*
X137874689Y-122048671D01*
X137808554Y-122026134D01*
X137769515Y-121981080D01*
X137768883Y-121979840D01*
X137722287Y-121888390D01*
X137714556Y-121877749D01*
X137601971Y-121722786D01*
X137457213Y-121578028D01*
X137291610Y-121457712D01*
X137278200Y-121450879D01*
X137227406Y-121402903D01*
X137210500Y-121340397D01*
X137210500Y-120759060D01*
X137210501Y-120759047D01*
X137210501Y-120590944D01*
X137169576Y-120438214D01*
X137169573Y-120438209D01*
X137090524Y-120301290D01*
X137090518Y-120301282D01*
X133446819Y-116657583D01*
X133413334Y-116596260D01*
X133410500Y-116569902D01*
X133410500Y-113720941D01*
X133410499Y-113720940D01*
X133408956Y-113715179D01*
X133408955Y-113715178D01*
X133397194Y-113671285D01*
X133369577Y-113568215D01*
X133323389Y-113488216D01*
X133323388Y-113488214D01*
X133290521Y-113431286D01*
X133290520Y-113431284D01*
X133178716Y-113319480D01*
X133178715Y-113319479D01*
X133174385Y-113315149D01*
X133174374Y-113315139D01*
X122601819Y-102742584D01*
X122587115Y-102715656D01*
X122570523Y-102689838D01*
X122569631Y-102683637D01*
X122568334Y-102681261D01*
X122565500Y-102654903D01*
X122565500Y-102520718D01*
X122585185Y-102453679D01*
X122633207Y-102410233D01*
X122672815Y-102390052D01*
X122672815Y-102390051D01*
X122672816Y-102390051D01*
X122769084Y-102320109D01*
X122844786Y-102265109D01*
X122844788Y-102265106D01*
X122844792Y-102265104D01*
X122995104Y-102114792D01*
X122995106Y-102114788D01*
X122995109Y-102114786D01*
X123104086Y-101964789D01*
X123120051Y-101942816D01*
X123124514Y-101934054D01*
X123172488Y-101883259D01*
X123240308Y-101866463D01*
X123306444Y-101888999D01*
X123345484Y-101934054D01*
X123347627Y-101938259D01*
X123349951Y-101942820D01*
X123474890Y-102114786D01*
X123625213Y-102265109D01*
X123797179Y-102390048D01*
X123797181Y-102390049D01*
X123797184Y-102390051D01*
X123986588Y-102486557D01*
X124188757Y-102552246D01*
X124398713Y-102585500D01*
X124398714Y-102585500D01*
X124611286Y-102585500D01*
X124611287Y-102585500D01*
X124821243Y-102552246D01*
X125023412Y-102486557D01*
X125212816Y-102390051D01*
X125309084Y-102320109D01*
X125384786Y-102265109D01*
X125384788Y-102265106D01*
X125384792Y-102265104D01*
X125535104Y-102114792D01*
X125535106Y-102114788D01*
X125535109Y-102114786D01*
X125644086Y-101964789D01*
X125660051Y-101942816D01*
X125664514Y-101934054D01*
X125673160Y-101924900D01*
X125677897Y-101913232D01*
X125696696Y-101899979D01*
X125712488Y-101883259D01*
X125724710Y-101880231D01*
X125735004Y-101872976D01*
X125757985Y-101871991D01*
X125780308Y-101866463D01*
X125792226Y-101870524D01*
G37*
%TD.AperFunction*%
%TA.AperFunction,Conductor*%
G36*
X169726837Y-93460685D02*
G01*
X169727472Y-93460506D01*
X169760349Y-93470525D01*
X169793246Y-93480185D01*
X169793676Y-93480681D01*
X169794307Y-93480874D01*
X169816551Y-93507081D01*
X169839001Y-93532989D01*
X169839094Y-93533639D01*
X169839521Y-93534142D01*
X169844058Y-93568161D01*
X169848945Y-93602147D01*
X169848671Y-93602746D01*
X169848758Y-93603398D01*
X169834194Y-93634445D01*
X169819920Y-93665703D01*
X169819272Y-93666258D01*
X169819087Y-93666654D01*
X169792179Y-93689494D01*
X169784837Y-93694107D01*
X169547696Y-93883220D01*
X169333220Y-94097696D01*
X169144107Y-94334837D01*
X168982733Y-94591661D01*
X168851133Y-94864931D01*
X168750957Y-95151216D01*
X168750953Y-95151228D01*
X168683460Y-95446937D01*
X168683457Y-95446951D01*
X168649500Y-95748336D01*
X168649500Y-96051663D01*
X168683457Y-96353048D01*
X168683460Y-96353062D01*
X168750953Y-96648771D01*
X168750957Y-96648783D01*
X168851133Y-96935068D01*
X168982733Y-97208338D01*
X168982735Y-97208341D01*
X169144108Y-97465164D01*
X169333221Y-97702304D01*
X169547696Y-97916779D01*
X169784836Y-98105892D01*
X170041659Y-98267265D01*
X170314935Y-98398868D01*
X170514907Y-98468841D01*
X170601216Y-98499042D01*
X170601228Y-98499046D01*
X170896937Y-98566540D01*
X170896946Y-98566541D01*
X170896951Y-98566542D01*
X171097874Y-98589180D01*
X171198337Y-98600499D01*
X171198340Y-98600500D01*
X171198343Y-98600500D01*
X171501660Y-98600500D01*
X171501661Y-98600499D01*
X171655694Y-98583144D01*
X171803048Y-98566542D01*
X171803051Y-98566541D01*
X171803063Y-98566540D01*
X172098772Y-98499046D01*
X172385065Y-98398868D01*
X172658341Y-98267265D01*
X172915164Y-98105892D01*
X173152304Y-97916779D01*
X173366779Y-97702304D01*
X173458553Y-97587222D01*
X173515741Y-97547083D01*
X173585553Y-97544233D01*
X173645823Y-97579578D01*
X173677416Y-97641897D01*
X173679500Y-97664536D01*
X173679500Y-142360936D01*
X173659815Y-142427975D01*
X173607011Y-142473730D01*
X173537853Y-142483674D01*
X173474297Y-142454649D01*
X173458478Y-142437223D01*
X173458061Y-142437556D01*
X173450420Y-142427975D01*
X173266779Y-142197696D01*
X173052304Y-141983221D01*
X173045531Y-141977820D01*
X172902245Y-141863553D01*
X172815164Y-141794108D01*
X172558341Y-141632735D01*
X172558338Y-141632733D01*
X172285068Y-141501133D01*
X171998783Y-141400957D01*
X171998771Y-141400953D01*
X171770556Y-141348864D01*
X171703063Y-141333460D01*
X171703060Y-141333459D01*
X171703048Y-141333457D01*
X171401663Y-141299500D01*
X171401657Y-141299500D01*
X171098343Y-141299500D01*
X171098336Y-141299500D01*
X170796951Y-141333457D01*
X170796937Y-141333460D01*
X170501228Y-141400953D01*
X170501226Y-141400954D01*
X170307493Y-141468744D01*
X170237714Y-141472305D01*
X170177087Y-141437576D01*
X170144860Y-141375583D01*
X170151265Y-141306007D01*
X170166217Y-141278822D01*
X170233343Y-141186433D01*
X170340568Y-140975992D01*
X170413553Y-140751368D01*
X170434361Y-140619991D01*
X170450500Y-140518097D01*
X170450500Y-140398298D01*
X170470185Y-140331259D01*
X170522989Y-140285504D01*
X170592147Y-140275560D01*
X170647385Y-140297980D01*
X170693190Y-140331259D01*
X170715978Y-140347815D01*
X170840253Y-140411137D01*
X170912393Y-140447895D01*
X170912396Y-140447896D01*
X171017221Y-140481955D01*
X171122049Y-140516015D01*
X171339778Y-140550500D01*
X171339779Y-140550500D01*
X171560221Y-140550500D01*
X171560222Y-140550500D01*
X171777951Y-140516015D01*
X171987606Y-140447895D01*
X172184022Y-140347815D01*
X172362365Y-140218242D01*
X172518242Y-140062365D01*
X172647815Y-139884022D01*
X172747895Y-139687606D01*
X172816015Y-139477951D01*
X172850500Y-139260222D01*
X172850500Y-139039778D01*
X172816015Y-138822049D01*
X172760531Y-138651284D01*
X172747896Y-138612396D01*
X172747895Y-138612393D01*
X172691007Y-138500747D01*
X172647815Y-138415978D01*
X172567543Y-138305492D01*
X172518247Y-138237641D01*
X172518243Y-138237636D01*
X172362363Y-138081756D01*
X172362358Y-138081752D01*
X172184025Y-137952187D01*
X172184024Y-137952186D01*
X172184022Y-137952185D01*
X172083891Y-137901165D01*
X171987606Y-137852104D01*
X171987603Y-137852103D01*
X171777952Y-137783985D01*
X171617462Y-137758566D01*
X171560222Y-137749500D01*
X171339778Y-137749500D01*
X171282538Y-137758566D01*
X171122047Y-137783985D01*
X170912396Y-137852103D01*
X170912393Y-137852104D01*
X170715974Y-137952187D01*
X170537641Y-138081752D01*
X170537636Y-138081756D01*
X170381756Y-138237636D01*
X170381752Y-138237641D01*
X170252187Y-138415974D01*
X170152104Y-138612393D01*
X170152103Y-138612396D01*
X170083985Y-138822047D01*
X170049500Y-139039778D01*
X170049500Y-139100750D01*
X170029815Y-139167789D01*
X169977011Y-139213544D01*
X169907853Y-139223488D01*
X169852614Y-139201068D01*
X169816850Y-139175084D01*
X169736433Y-139116657D01*
X169701891Y-139099057D01*
X169525996Y-139009433D01*
X169301368Y-138936446D01*
X169068097Y-138899500D01*
X169068092Y-138899500D01*
X168831908Y-138899500D01*
X168831903Y-138899500D01*
X168598631Y-138936446D01*
X168374003Y-139009433D01*
X168163566Y-139116657D01*
X168054550Y-139195862D01*
X167972490Y-139255483D01*
X167972488Y-139255485D01*
X167972487Y-139255485D01*
X167805485Y-139422487D01*
X167805485Y-139422488D01*
X167805483Y-139422490D01*
X167745862Y-139504550D01*
X167666657Y-139613566D01*
X167559433Y-139824003D01*
X167486446Y-140048631D01*
X167449500Y-140281902D01*
X167449500Y-140518097D01*
X167486446Y-140751368D01*
X167559433Y-140975996D01*
X167666657Y-141186433D01*
X167805483Y-141377510D01*
X167972490Y-141544517D01*
X168163567Y-141683343D01*
X168241830Y-141723220D01*
X168374003Y-141790566D01*
X168374005Y-141790566D01*
X168374008Y-141790568D01*
X168494412Y-141829689D01*
X168598631Y-141863553D01*
X168831903Y-141900500D01*
X168831908Y-141900500D01*
X169068096Y-141900500D01*
X169162141Y-141885604D01*
X169240488Y-141873195D01*
X169309781Y-141882149D01*
X169363233Y-141927145D01*
X169383873Y-141993897D01*
X169365148Y-142061210D01*
X169347568Y-142083349D01*
X169233216Y-142197701D01*
X169044107Y-142434837D01*
X168882733Y-142691661D01*
X168751133Y-142964931D01*
X168650957Y-143251216D01*
X168650953Y-143251228D01*
X168583460Y-143546937D01*
X168583457Y-143546951D01*
X168549500Y-143848336D01*
X168549500Y-144151663D01*
X168583457Y-144453048D01*
X168583460Y-144453062D01*
X168650953Y-144748771D01*
X168650957Y-144748783D01*
X168751133Y-145035068D01*
X168882733Y-145308338D01*
X168882735Y-145308341D01*
X169044108Y-145565164D01*
X169130956Y-145674068D01*
X169233220Y-145802303D01*
X169447696Y-146016779D01*
X169537698Y-146088553D01*
X169577838Y-146145741D01*
X169580688Y-146215553D01*
X169545343Y-146275823D01*
X169483024Y-146307416D01*
X169460385Y-146309500D01*
X46866899Y-146309500D01*
X46799860Y-146289815D01*
X46754105Y-146237011D01*
X46744161Y-146167853D01*
X46773186Y-146104297D01*
X46800925Y-146080507D01*
X47015164Y-145945892D01*
X47252304Y-145756779D01*
X47466779Y-145542304D01*
X47655892Y-145305164D01*
X47817265Y-145048341D01*
X47948868Y-144775065D01*
X48049046Y-144488772D01*
X48116540Y-144193063D01*
X48121206Y-144151657D01*
X48150499Y-143891663D01*
X48150500Y-143891659D01*
X48150500Y-143588340D01*
X48150499Y-143588336D01*
X48116542Y-143286951D01*
X48116541Y-143286946D01*
X48116540Y-143286937D01*
X48049046Y-142991228D01*
X47948868Y-142704935D01*
X47820105Y-142437556D01*
X47817266Y-142431661D01*
X47817265Y-142431659D01*
X47655892Y-142174836D01*
X47466779Y-141937696D01*
X47252304Y-141723221D01*
X47015164Y-141534108D01*
X46765942Y-141377511D01*
X46758338Y-141372733D01*
X46485068Y-141241133D01*
X46198783Y-141140957D01*
X46198771Y-141140953D01*
X45970556Y-141088864D01*
X45903063Y-141073460D01*
X45903060Y-141073459D01*
X45903048Y-141073457D01*
X45601663Y-141039500D01*
X45601657Y-141039500D01*
X45298343Y-141039500D01*
X45298336Y-141039500D01*
X44996951Y-141073457D01*
X44996937Y-141073460D01*
X44701228Y-141140953D01*
X44701216Y-141140957D01*
X44414931Y-141241133D01*
X44141661Y-141372733D01*
X43884837Y-141534107D01*
X43647696Y-141723220D01*
X43433220Y-141937696D01*
X43244107Y-142174837D01*
X43099494Y-142404987D01*
X43047159Y-142451278D01*
X42978106Y-142461926D01*
X42914257Y-142433551D01*
X42875885Y-142375161D01*
X42870500Y-142339015D01*
X42870500Y-126597648D01*
X85799500Y-126597648D01*
X85799500Y-126802351D01*
X85831522Y-127004534D01*
X85894781Y-127199223D01*
X85958691Y-127324653D01*
X85976815Y-127360222D01*
X85987715Y-127381613D01*
X86108028Y-127547213D01*
X86252786Y-127691971D01*
X86384415Y-127787603D01*
X86418390Y-127812287D01*
X86533921Y-127871153D01*
X86600776Y-127905218D01*
X86600778Y-127905218D01*
X86600781Y-127905220D01*
X86705137Y-127939127D01*
X86795465Y-127968477D01*
X86893612Y-127984022D01*
X86997648Y-128000500D01*
X86997649Y-128000500D01*
X87202351Y-128000500D01*
X87202352Y-128000500D01*
X87404534Y-127968477D01*
X87599219Y-127905220D01*
X87781610Y-127812287D01*
X87913437Y-127716510D01*
X87947213Y-127691971D01*
X87947215Y-127691968D01*
X87947219Y-127691966D01*
X88091966Y-127547219D01*
X88091968Y-127547215D01*
X88091971Y-127547213D01*
X88144732Y-127474590D01*
X88212287Y-127381610D01*
X88305220Y-127199219D01*
X88368477Y-127004534D01*
X88400500Y-126802352D01*
X88400500Y-126597648D01*
X88368477Y-126395466D01*
X88305220Y-126200781D01*
X88305218Y-126200778D01*
X88305218Y-126200776D01*
X88229506Y-126052185D01*
X88212287Y-126018390D01*
X88164128Y-125952104D01*
X88091971Y-125852786D01*
X87947213Y-125708028D01*
X87781613Y-125587715D01*
X87781612Y-125587714D01*
X87781610Y-125587713D01*
X87724653Y-125558691D01*
X87599223Y-125494781D01*
X87404534Y-125431522D01*
X87229995Y-125403878D01*
X87202352Y-125399500D01*
X86997648Y-125399500D01*
X86973329Y-125403351D01*
X86795465Y-125431522D01*
X86600776Y-125494781D01*
X86418386Y-125587715D01*
X86252786Y-125708028D01*
X86108028Y-125852786D01*
X85987715Y-126018386D01*
X85894781Y-126200776D01*
X85831522Y-126395465D01*
X85799500Y-126597648D01*
X42870500Y-126597648D01*
X42870500Y-113225148D01*
X67289500Y-113225148D01*
X67289500Y-113429851D01*
X67321522Y-113632034D01*
X67384781Y-113826723D01*
X67477715Y-114009113D01*
X67598028Y-114174713D01*
X67742786Y-114319471D01*
X67862070Y-114406134D01*
X67908390Y-114439787D01*
X68024607Y-114499003D01*
X68090776Y-114532718D01*
X68090778Y-114532718D01*
X68090781Y-114532720D01*
X68163310Y-114556286D01*
X68285465Y-114595977D01*
X68386557Y-114611988D01*
X68487648Y-114628000D01*
X68487649Y-114628000D01*
X68692351Y-114628000D01*
X68692352Y-114628000D01*
X68894534Y-114595977D01*
X69089219Y-114532720D01*
X69271610Y-114439787D01*
X69379942Y-114361080D01*
X69437213Y-114319471D01*
X69437215Y-114319468D01*
X69437219Y-114319466D01*
X69581966Y-114174719D01*
X69581968Y-114174715D01*
X69581971Y-114174713D01*
X69650301Y-114080663D01*
X69702287Y-114009110D01*
X69795220Y-113826719D01*
X69858477Y-113632034D01*
X69890500Y-113429852D01*
X69890500Y-113225148D01*
X69858477Y-113022966D01*
X69795220Y-112828281D01*
X69795218Y-112828278D01*
X69795218Y-112828276D01*
X69761503Y-112762107D01*
X69702287Y-112645890D01*
X69694556Y-112635249D01*
X69581971Y-112480286D01*
X69437213Y-112335528D01*
X69271613Y-112215215D01*
X69271612Y-112215214D01*
X69271610Y-112215213D01*
X69203331Y-112180423D01*
X69089223Y-112122281D01*
X68894534Y-112059022D01*
X68719995Y-112031378D01*
X68692352Y-112027000D01*
X68487648Y-112027000D01*
X68463329Y-112030851D01*
X68285465Y-112059022D01*
X68090776Y-112122281D01*
X67908386Y-112215215D01*
X67742786Y-112335528D01*
X67598028Y-112480286D01*
X67477715Y-112645886D01*
X67384781Y-112828276D01*
X67321522Y-113022965D01*
X67289500Y-113225148D01*
X42870500Y-113225148D01*
X42870500Y-106889635D01*
X57059500Y-106889635D01*
X57059500Y-111585370D01*
X57059501Y-111585376D01*
X57065908Y-111644983D01*
X57116202Y-111779828D01*
X57116206Y-111779835D01*
X57202452Y-111895044D01*
X57202455Y-111895047D01*
X57317664Y-111981293D01*
X57317671Y-111981297D01*
X57452517Y-112031591D01*
X57452516Y-112031591D01*
X57459444Y-112032335D01*
X57512127Y-112038000D01*
X59607872Y-112037999D01*
X59667483Y-112031591D01*
X59802331Y-111981296D01*
X59917546Y-111895046D01*
X60003796Y-111779831D01*
X60054091Y-111644983D01*
X60060500Y-111585373D01*
X60060499Y-106889628D01*
X60054091Y-106830017D01*
X60030826Y-106767641D01*
X60003797Y-106695171D01*
X60003793Y-106695164D01*
X59917547Y-106579955D01*
X59917544Y-106579952D01*
X59802335Y-106493706D01*
X59802328Y-106493702D01*
X59667482Y-106443408D01*
X59667483Y-106443408D01*
X59607883Y-106437001D01*
X59607881Y-106437000D01*
X59607873Y-106437000D01*
X59607864Y-106437000D01*
X57512129Y-106437000D01*
X57512123Y-106437001D01*
X57452516Y-106443408D01*
X57317671Y-106493702D01*
X57317664Y-106493706D01*
X57202455Y-106579952D01*
X57202452Y-106579955D01*
X57116206Y-106695164D01*
X57116202Y-106695171D01*
X57065908Y-106830017D01*
X57059501Y-106889616D01*
X57059501Y-106889623D01*
X57059500Y-106889635D01*
X42870500Y-106889635D01*
X42870500Y-101176213D01*
X53919500Y-101176213D01*
X53919500Y-101388786D01*
X53945230Y-101551243D01*
X53952754Y-101598743D01*
X54003009Y-101753412D01*
X54018444Y-101800914D01*
X54114951Y-101990320D01*
X54239890Y-102162286D01*
X54390213Y-102312609D01*
X54562179Y-102437548D01*
X54562181Y-102437549D01*
X54562184Y-102437551D01*
X54751588Y-102534057D01*
X54953757Y-102599746D01*
X55163713Y-102633000D01*
X55163714Y-102633000D01*
X55376286Y-102633000D01*
X55376287Y-102633000D01*
X55586243Y-102599746D01*
X55788412Y-102534057D01*
X55977816Y-102437551D01*
X56043199Y-102390048D01*
X56149786Y-102312609D01*
X56149788Y-102312606D01*
X56149792Y-102312604D01*
X56300104Y-102162292D01*
X56300106Y-102162288D01*
X56300109Y-102162286D01*
X56425048Y-101990320D01*
X56425047Y-101990320D01*
X56425051Y-101990316D01*
X56429514Y-101981554D01*
X56477488Y-101930759D01*
X56545308Y-101913963D01*
X56611444Y-101936499D01*
X56650486Y-101981556D01*
X56654951Y-101990320D01*
X56779890Y-102162286D01*
X56930213Y-102312609D01*
X57102179Y-102437548D01*
X57102181Y-102437549D01*
X57102184Y-102437551D01*
X57291588Y-102534057D01*
X57493757Y-102599746D01*
X57703713Y-102633000D01*
X57703714Y-102633000D01*
X57916286Y-102633000D01*
X57916287Y-102633000D01*
X58126243Y-102599746D01*
X58328412Y-102534057D01*
X58517816Y-102437551D01*
X58583199Y-102390048D01*
X58689786Y-102312609D01*
X58689788Y-102312606D01*
X58689792Y-102312604D01*
X58840104Y-102162292D01*
X58840106Y-102162288D01*
X58840109Y-102162286D01*
X58965048Y-101990320D01*
X58965047Y-101990320D01*
X58965051Y-101990316D01*
X58969514Y-101981554D01*
X59017488Y-101930759D01*
X59085308Y-101913963D01*
X59151444Y-101936499D01*
X59190486Y-101981556D01*
X59194951Y-101990320D01*
X59319890Y-102162286D01*
X59470213Y-102312609D01*
X59642179Y-102437548D01*
X59642181Y-102437549D01*
X59642184Y-102437551D01*
X59831588Y-102534057D01*
X60033757Y-102599746D01*
X60243713Y-102633000D01*
X60243714Y-102633000D01*
X60456286Y-102633000D01*
X60456287Y-102633000D01*
X60666243Y-102599746D01*
X60868412Y-102534057D01*
X61057816Y-102437551D01*
X61123199Y-102390048D01*
X61229786Y-102312609D01*
X61229788Y-102312606D01*
X61229792Y-102312604D01*
X61380104Y-102162292D01*
X61380106Y-102162288D01*
X61380109Y-102162286D01*
X61505048Y-101990320D01*
X61505047Y-101990320D01*
X61505051Y-101990316D01*
X61509514Y-101981554D01*
X61557488Y-101930759D01*
X61625308Y-101913963D01*
X61691444Y-101936499D01*
X61730486Y-101981556D01*
X61734951Y-101990320D01*
X61859890Y-102162286D01*
X62010213Y-102312609D01*
X62182179Y-102437548D01*
X62182181Y-102437549D01*
X62182184Y-102437551D01*
X62371588Y-102534057D01*
X62573757Y-102599746D01*
X62783713Y-102633000D01*
X62783714Y-102633000D01*
X62996286Y-102633000D01*
X62996287Y-102633000D01*
X63206243Y-102599746D01*
X63408412Y-102534057D01*
X63597816Y-102437551D01*
X63663199Y-102390048D01*
X63769786Y-102312609D01*
X63769788Y-102312606D01*
X63769792Y-102312604D01*
X63920104Y-102162292D01*
X63920106Y-102162288D01*
X63920109Y-102162286D01*
X64045048Y-101990320D01*
X64045047Y-101990320D01*
X64045051Y-101990316D01*
X64049514Y-101981554D01*
X64097488Y-101930759D01*
X64165308Y-101913963D01*
X64231444Y-101936499D01*
X64270486Y-101981556D01*
X64274951Y-101990320D01*
X64399890Y-102162286D01*
X64550213Y-102312609D01*
X64722179Y-102437548D01*
X64722181Y-102437549D01*
X64722184Y-102437551D01*
X64911588Y-102534057D01*
X65113757Y-102599746D01*
X65323713Y-102633000D01*
X65323714Y-102633000D01*
X65536286Y-102633000D01*
X65536287Y-102633000D01*
X65746243Y-102599746D01*
X65948412Y-102534057D01*
X66137816Y-102437551D01*
X66203199Y-102390048D01*
X66309786Y-102312609D01*
X66309788Y-102312606D01*
X66309792Y-102312604D01*
X66460104Y-102162292D01*
X66460106Y-102162288D01*
X66460109Y-102162286D01*
X66585048Y-101990320D01*
X66585047Y-101990320D01*
X66585051Y-101990316D01*
X66681557Y-101800912D01*
X66747246Y-101598743D01*
X66780500Y-101388787D01*
X66780500Y-101176213D01*
X66747246Y-100966257D01*
X66681557Y-100764088D01*
X66585051Y-100574684D01*
X66585049Y-100574681D01*
X66585048Y-100574679D01*
X66460109Y-100402713D01*
X66419577Y-100362181D01*
X66386092Y-100300858D01*
X66391076Y-100231166D01*
X66432948Y-100175233D01*
X66498412Y-100150816D01*
X66507258Y-100150500D01*
X82397770Y-100150500D01*
X82464809Y-100170185D01*
X82485451Y-100186819D01*
X82885374Y-100586742D01*
X83279824Y-100981191D01*
X83313309Y-101042514D01*
X83314616Y-101088270D01*
X83299500Y-101183707D01*
X83299500Y-101183713D01*
X83299500Y-101396287D01*
X83332754Y-101606243D01*
X83380572Y-101753412D01*
X83398444Y-101808414D01*
X83494951Y-101997820D01*
X83619890Y-102169786D01*
X83770213Y-102320109D01*
X83942179Y-102445048D01*
X83942181Y-102445049D01*
X83942184Y-102445051D01*
X84131588Y-102541557D01*
X84333757Y-102607246D01*
X84543713Y-102640500D01*
X84543714Y-102640500D01*
X84756286Y-102640500D01*
X84756287Y-102640500D01*
X84966243Y-102607246D01*
X85168412Y-102541557D01*
X85357816Y-102445051D01*
X85433522Y-102390048D01*
X85529786Y-102320109D01*
X85529788Y-102320106D01*
X85529792Y-102320104D01*
X85680104Y-102169792D01*
X85680106Y-102169788D01*
X85680109Y-102169786D01*
X85805048Y-101997820D01*
X85805047Y-101997820D01*
X85805051Y-101997816D01*
X85809514Y-101989054D01*
X85857488Y-101938259D01*
X85925308Y-101921463D01*
X85991444Y-101943999D01*
X86030486Y-101989056D01*
X86034951Y-101997820D01*
X86159890Y-102169786D01*
X86310213Y-102320109D01*
X86482179Y-102445048D01*
X86482181Y-102445049D01*
X86482184Y-102445051D01*
X86671588Y-102541557D01*
X86873757Y-102607246D01*
X87083713Y-102640500D01*
X87083714Y-102640500D01*
X87296286Y-102640500D01*
X87296287Y-102640500D01*
X87506243Y-102607246D01*
X87708412Y-102541557D01*
X87897816Y-102445051D01*
X87973522Y-102390048D01*
X88069786Y-102320109D01*
X88069788Y-102320106D01*
X88069792Y-102320104D01*
X88220104Y-102169792D01*
X88220106Y-102169788D01*
X88220109Y-102169786D01*
X88345048Y-101997820D01*
X88345047Y-101997820D01*
X88345051Y-101997816D01*
X88349514Y-101989054D01*
X88397488Y-101938259D01*
X88465308Y-101921463D01*
X88531444Y-101943999D01*
X88570486Y-101989056D01*
X88574951Y-101997820D01*
X88699890Y-102169786D01*
X88850213Y-102320109D01*
X89022179Y-102445048D01*
X89022181Y-102445049D01*
X89022184Y-102445051D01*
X89211588Y-102541557D01*
X89413757Y-102607246D01*
X89623713Y-102640500D01*
X89623714Y-102640500D01*
X89836286Y-102640500D01*
X89836287Y-102640500D01*
X90046243Y-102607246D01*
X90248412Y-102541557D01*
X90437816Y-102445051D01*
X90513522Y-102390048D01*
X90609786Y-102320109D01*
X90609788Y-102320106D01*
X90609792Y-102320104D01*
X90760104Y-102169792D01*
X90760106Y-102169788D01*
X90760109Y-102169786D01*
X90885048Y-101997820D01*
X90885047Y-101997820D01*
X90885051Y-101997816D01*
X90889514Y-101989054D01*
X90937488Y-101938259D01*
X91005308Y-101921463D01*
X91071444Y-101943999D01*
X91110486Y-101989056D01*
X91114951Y-101997820D01*
X91239890Y-102169786D01*
X91390213Y-102320109D01*
X91562179Y-102445048D01*
X91562181Y-102445049D01*
X91562184Y-102445051D01*
X91751588Y-102541557D01*
X91953757Y-102607246D01*
X92163713Y-102640500D01*
X92163714Y-102640500D01*
X92376286Y-102640500D01*
X92376287Y-102640500D01*
X92586243Y-102607246D01*
X92788412Y-102541557D01*
X92977816Y-102445051D01*
X93053522Y-102390048D01*
X93149786Y-102320109D01*
X93149788Y-102320106D01*
X93149792Y-102320104D01*
X93300104Y-102169792D01*
X93300106Y-102169788D01*
X93300109Y-102169786D01*
X93425048Y-101997820D01*
X93425047Y-101997820D01*
X93425051Y-101997816D01*
X93429514Y-101989054D01*
X93477488Y-101938259D01*
X93545308Y-101921463D01*
X93611444Y-101943999D01*
X93650486Y-101989056D01*
X93654951Y-101997820D01*
X93779890Y-102169786D01*
X93930213Y-102320109D01*
X94102179Y-102445048D01*
X94102181Y-102445049D01*
X94102184Y-102445051D01*
X94291588Y-102541557D01*
X94493757Y-102607246D01*
X94703713Y-102640500D01*
X94703714Y-102640500D01*
X94916286Y-102640500D01*
X94916287Y-102640500D01*
X95126243Y-102607246D01*
X95328412Y-102541557D01*
X95517816Y-102445051D01*
X95593522Y-102390048D01*
X95689786Y-102320109D01*
X95689788Y-102320106D01*
X95689792Y-102320104D01*
X95840104Y-102169792D01*
X95840106Y-102169788D01*
X95840109Y-102169786D01*
X95965048Y-101997820D01*
X95965047Y-101997820D01*
X95965051Y-101997816D01*
X96061557Y-101808412D01*
X96127246Y-101606243D01*
X96160500Y-101396287D01*
X96160500Y-101183713D01*
X96127246Y-100973757D01*
X96061557Y-100771588D01*
X95965051Y-100582184D01*
X95965049Y-100582181D01*
X95965048Y-100582179D01*
X95840109Y-100410213D01*
X95792077Y-100362181D01*
X95758592Y-100300858D01*
X95763576Y-100231166D01*
X95805448Y-100175233D01*
X95870912Y-100150816D01*
X95879758Y-100150500D01*
X117227770Y-100150500D01*
X117294809Y-100170185D01*
X117315451Y-100186819D01*
X118054824Y-100926192D01*
X118088309Y-100987515D01*
X118089616Y-101033271D01*
X118074500Y-101128707D01*
X118074500Y-101341286D01*
X118100230Y-101503743D01*
X118107754Y-101551243D01*
X118172870Y-101751650D01*
X118173444Y-101753414D01*
X118269951Y-101942820D01*
X118394890Y-102114786D01*
X118545213Y-102265109D01*
X118717184Y-102390051D01*
X118717184Y-102390052D01*
X118756793Y-102410233D01*
X118807590Y-102458206D01*
X118824500Y-102520718D01*
X118824500Y-103078330D01*
X118824499Y-103078348D01*
X118824499Y-103244054D01*
X118824498Y-103244054D01*
X118865423Y-103396785D01*
X118887786Y-103435519D01*
X118887788Y-103435521D01*
X118944479Y-103533714D01*
X118944481Y-103533717D01*
X119063349Y-103652585D01*
X119063355Y-103652590D01*
X128864579Y-113453814D01*
X128898064Y-113515137D01*
X128893080Y-113584829D01*
X128851208Y-113640762D01*
X128796297Y-113663968D01*
X128685464Y-113681523D01*
X128490776Y-113744781D01*
X128308386Y-113837715D01*
X128142786Y-113958028D01*
X127998028Y-114102786D01*
X127877715Y-114268386D01*
X127830485Y-114361080D01*
X127782510Y-114411876D01*
X127714689Y-114428671D01*
X127648554Y-114406134D01*
X127609515Y-114361080D01*
X127588314Y-114319471D01*
X127562287Y-114268390D01*
X127494232Y-114174719D01*
X127441971Y-114102786D01*
X127297213Y-113958028D01*
X127131613Y-113837715D01*
X127131612Y-113837714D01*
X127131610Y-113837713D01*
X127071898Y-113807288D01*
X126949223Y-113744781D01*
X126754534Y-113681522D01*
X126579995Y-113653878D01*
X126552352Y-113649500D01*
X126347648Y-113649500D01*
X126323329Y-113653351D01*
X126145465Y-113681522D01*
X125950776Y-113744781D01*
X125768386Y-113837715D01*
X125602786Y-113958028D01*
X125458028Y-114102786D01*
X125337715Y-114268386D01*
X125290485Y-114361080D01*
X125242510Y-114411876D01*
X125174689Y-114428671D01*
X125108554Y-114406134D01*
X125069515Y-114361080D01*
X125048314Y-114319471D01*
X125022287Y-114268390D01*
X124954232Y-114174719D01*
X124901971Y-114102786D01*
X124757213Y-113958028D01*
X124591613Y-113837715D01*
X124591612Y-113837714D01*
X124591610Y-113837713D01*
X124531898Y-113807288D01*
X124409223Y-113744781D01*
X124214534Y-113681522D01*
X124039995Y-113653878D01*
X124012352Y-113649500D01*
X123807648Y-113649500D01*
X123783329Y-113653351D01*
X123605465Y-113681522D01*
X123410776Y-113744781D01*
X123228386Y-113837715D01*
X123062786Y-113958028D01*
X122918028Y-114102786D01*
X122797715Y-114268386D01*
X122704781Y-114450776D01*
X122641522Y-114645465D01*
X122609500Y-114847648D01*
X122609500Y-115052351D01*
X122641522Y-115254534D01*
X122704781Y-115449223D01*
X122797715Y-115631613D01*
X122918028Y-115797213D01*
X123062786Y-115941971D01*
X123200499Y-116042023D01*
X123228390Y-116062287D01*
X123309499Y-116103614D01*
X123410776Y-116155218D01*
X123410778Y-116155218D01*
X123410781Y-116155220D01*
X123442817Y-116165629D01*
X123605465Y-116218477D01*
X123706557Y-116234488D01*
X123807648Y-116250500D01*
X123807649Y-116250500D01*
X124012351Y-116250500D01*
X124012352Y-116250500D01*
X124214534Y-116218477D01*
X124409219Y-116155220D01*
X124591610Y-116062287D01*
X124720482Y-115968657D01*
X124757213Y-115941971D01*
X124757215Y-115941968D01*
X124757219Y-115941966D01*
X124901966Y-115797219D01*
X124901968Y-115797215D01*
X124901971Y-115797213D01*
X125022284Y-115631614D01*
X125022285Y-115631613D01*
X125022287Y-115631610D01*
X125069516Y-115538917D01*
X125117489Y-115488123D01*
X125185310Y-115471328D01*
X125251445Y-115493865D01*
X125290483Y-115538917D01*
X125296140Y-115550018D01*
X125337715Y-115631614D01*
X125458028Y-115797213D01*
X125458034Y-115797219D01*
X125602781Y-115941966D01*
X125768390Y-116062287D01*
X125781793Y-116069116D01*
X125832589Y-116117088D01*
X125849500Y-116179601D01*
X125849500Y-117583330D01*
X125849499Y-117583348D01*
X125849499Y-117749054D01*
X125849498Y-117749054D01*
X125881984Y-117870289D01*
X125890423Y-117901785D01*
X125910446Y-117936465D01*
X125935525Y-117979903D01*
X125969479Y-118038715D01*
X126088349Y-118157585D01*
X126088355Y-118157590D01*
X127113181Y-119182416D01*
X127146666Y-119243739D01*
X127149500Y-119270097D01*
X127149500Y-121264478D01*
X127129815Y-121331517D01*
X127077011Y-121377272D01*
X127007853Y-121387216D01*
X126969206Y-121374963D01*
X126949226Y-121364782D01*
X126754534Y-121301522D01*
X126579995Y-121273878D01*
X126552352Y-121269500D01*
X126347648Y-121269500D01*
X126323329Y-121273351D01*
X126145465Y-121301522D01*
X125950776Y-121364781D01*
X125768386Y-121457715D01*
X125602786Y-121578028D01*
X125458028Y-121722786D01*
X125337715Y-121888386D01*
X125290485Y-121981080D01*
X125242510Y-122031876D01*
X125174689Y-122048671D01*
X125108554Y-122026134D01*
X125069515Y-121981080D01*
X125068883Y-121979840D01*
X125022287Y-121888390D01*
X125014556Y-121877749D01*
X124901971Y-121722786D01*
X124757213Y-121578028D01*
X124591613Y-121457715D01*
X124591612Y-121457714D01*
X124591610Y-121457713D01*
X124515041Y-121418699D01*
X124409223Y-121364781D01*
X124214534Y-121301522D01*
X124039995Y-121273878D01*
X124012352Y-121269500D01*
X123807648Y-121269500D01*
X123783329Y-121273351D01*
X123605465Y-121301522D01*
X123410776Y-121364781D01*
X123228386Y-121457715D01*
X123062786Y-121578028D01*
X122918028Y-121722786D01*
X122797715Y-121888386D01*
X122750485Y-121981080D01*
X122702510Y-122031876D01*
X122634689Y-122048671D01*
X122568554Y-122026134D01*
X122529515Y-121981080D01*
X122528883Y-121979840D01*
X122482287Y-121888390D01*
X122474556Y-121877749D01*
X122361971Y-121722786D01*
X122217213Y-121578028D01*
X122051610Y-121457712D01*
X122038200Y-121450879D01*
X121987406Y-121402903D01*
X121970500Y-121340397D01*
X121970500Y-120759060D01*
X121970501Y-120759047D01*
X121970501Y-120590944D01*
X121929576Y-120438214D01*
X121929573Y-120438209D01*
X121850524Y-120301290D01*
X121850518Y-120301282D01*
X120790527Y-119241292D01*
X120780521Y-119231286D01*
X120780520Y-119231284D01*
X120668716Y-119119480D01*
X120617269Y-119089777D01*
X120608142Y-119081796D01*
X120595633Y-119062136D01*
X120579555Y-119045274D01*
X120577229Y-119033211D01*
X120570635Y-119022846D01*
X120570741Y-118999546D01*
X120566331Y-118976667D01*
X120570897Y-118965261D01*
X120570953Y-118952977D01*
X120583639Y-118933432D01*
X120592299Y-118911802D01*
X120604596Y-118901147D01*
X120608994Y-118894372D01*
X120616133Y-118891150D01*
X120622434Y-118885691D01*
X120622265Y-118885470D01*
X120625979Y-118882619D01*
X120627776Y-118881063D01*
X120628231Y-118880799D01*
X120628716Y-118880520D01*
X120740520Y-118768716D01*
X120740520Y-118768714D01*
X120750724Y-118758511D01*
X120750727Y-118758506D01*
X121314662Y-118194572D01*
X121375983Y-118161089D01*
X121378150Y-118160638D01*
X121436085Y-118149113D01*
X121533497Y-118129737D01*
X121679179Y-118069394D01*
X121810289Y-117981789D01*
X121921789Y-117870289D01*
X122009394Y-117739179D01*
X122069737Y-117593497D01*
X122100500Y-117438842D01*
X122100500Y-117281158D01*
X122100500Y-117281155D01*
X122100499Y-117281153D01*
X122086532Y-117210939D01*
X122069737Y-117126503D01*
X122069735Y-117126498D01*
X122009397Y-116980827D01*
X122009390Y-116980814D01*
X121921789Y-116849711D01*
X121921786Y-116849707D01*
X121810292Y-116738213D01*
X121810288Y-116738210D01*
X121679185Y-116650609D01*
X121679172Y-116650602D01*
X121533501Y-116590264D01*
X121533489Y-116590261D01*
X121378845Y-116559500D01*
X121378842Y-116559500D01*
X121221158Y-116559500D01*
X121221155Y-116559500D01*
X121066510Y-116590261D01*
X121066498Y-116590264D01*
X120920827Y-116650602D01*
X120920814Y-116650609D01*
X120789711Y-116738210D01*
X120789707Y-116738213D01*
X120678213Y-116849707D01*
X120678210Y-116849711D01*
X120590609Y-116980814D01*
X120590602Y-116980827D01*
X120530264Y-117126498D01*
X120530263Y-117126503D01*
X120499361Y-117281850D01*
X120466976Y-117343761D01*
X120465425Y-117345339D01*
X120047584Y-117763181D01*
X119986261Y-117796666D01*
X119959903Y-117799500D01*
X104549096Y-117799500D01*
X104482057Y-117779815D01*
X104436302Y-117727011D01*
X104426358Y-117657853D01*
X104455383Y-117594297D01*
X104461415Y-117587819D01*
X106499217Y-115550018D01*
X108672416Y-113376819D01*
X108733739Y-113343334D01*
X108760097Y-113340500D01*
X115009903Y-113340500D01*
X115076942Y-113360185D01*
X115097584Y-113376819D01*
X115476819Y-113756054D01*
X115510304Y-113817377D01*
X115505320Y-113887069D01*
X115463448Y-113943002D01*
X115462023Y-113944053D01*
X115442786Y-113958028D01*
X115298032Y-114102782D01*
X115298028Y-114102787D01*
X115229978Y-114196451D01*
X115174648Y-114239117D01*
X115105035Y-114245096D01*
X115043240Y-114212490D01*
X115011954Y-114162570D01*
X114992144Y-114102787D01*
X114984814Y-114080666D01*
X114892712Y-113931344D01*
X114768656Y-113807288D01*
X114628668Y-113720943D01*
X114619336Y-113715187D01*
X114619331Y-113715185D01*
X114554611Y-113693739D01*
X114452797Y-113660001D01*
X114452795Y-113660000D01*
X114350010Y-113649500D01*
X113149998Y-113649500D01*
X113149981Y-113649501D01*
X113047203Y-113660000D01*
X113047200Y-113660001D01*
X112880668Y-113715185D01*
X112880663Y-113715187D01*
X112731342Y-113807289D01*
X112607289Y-113931342D01*
X112515187Y-114080663D01*
X112515186Y-114080666D01*
X112460001Y-114247203D01*
X112460001Y-114247204D01*
X112460000Y-114247204D01*
X112449500Y-114349983D01*
X112449500Y-115550001D01*
X112449501Y-115550018D01*
X112460000Y-115652796D01*
X112460001Y-115652799D01*
X112476818Y-115703548D01*
X112515186Y-115819334D01*
X112607288Y-115968656D01*
X112731344Y-116092712D01*
X112880666Y-116184814D01*
X113047203Y-116239999D01*
X113149991Y-116250500D01*
X114350008Y-116250499D01*
X114452797Y-116239999D01*
X114619334Y-116184814D01*
X114768656Y-116092712D01*
X114892712Y-115968656D01*
X114984814Y-115819334D01*
X115011955Y-115737427D01*
X115051726Y-115679984D01*
X115116242Y-115653161D01*
X115185018Y-115665476D01*
X115229977Y-115703547D01*
X115298030Y-115797213D01*
X115298034Y-115797219D01*
X115442786Y-115941971D01*
X115580499Y-116042023D01*
X115608390Y-116062287D01*
X115689499Y-116103614D01*
X115790776Y-116155218D01*
X115790778Y-116155218D01*
X115790781Y-116155220D01*
X115822817Y-116165629D01*
X115985465Y-116218477D01*
X116086557Y-116234488D01*
X116187648Y-116250500D01*
X116187649Y-116250500D01*
X116392351Y-116250500D01*
X116392352Y-116250500D01*
X116594534Y-116218477D01*
X116789219Y-116155220D01*
X116971610Y-116062287D01*
X117100482Y-115968657D01*
X117137213Y-115941971D01*
X117137215Y-115941968D01*
X117137219Y-115941966D01*
X117281966Y-115797219D01*
X117281968Y-115797215D01*
X117281971Y-115797213D01*
X117402284Y-115631614D01*
X117402285Y-115631613D01*
X117402287Y-115631610D01*
X117449516Y-115538917D01*
X117497489Y-115488123D01*
X117565310Y-115471328D01*
X117631445Y-115493865D01*
X117670483Y-115538917D01*
X117676140Y-115550018D01*
X117717715Y-115631614D01*
X117838028Y-115797213D01*
X117982786Y-115941971D01*
X118120499Y-116042023D01*
X118148390Y-116062287D01*
X118229499Y-116103614D01*
X118330776Y-116155218D01*
X118330778Y-116155218D01*
X118330781Y-116155220D01*
X118362817Y-116165629D01*
X118525465Y-116218477D01*
X118626557Y-116234488D01*
X118727648Y-116250500D01*
X118727649Y-116250500D01*
X118932351Y-116250500D01*
X118932352Y-116250500D01*
X119134534Y-116218477D01*
X119329219Y-116155220D01*
X119511610Y-116062287D01*
X119640482Y-115968657D01*
X119677213Y-115941971D01*
X119677215Y-115941968D01*
X119677219Y-115941966D01*
X119821966Y-115797219D01*
X119821968Y-115797215D01*
X119821971Y-115797213D01*
X119890021Y-115703548D01*
X119942287Y-115631610D01*
X120035220Y-115449219D01*
X120098477Y-115254534D01*
X120130500Y-115052352D01*
X120130500Y-114847648D01*
X120098477Y-114645466D01*
X120035220Y-114450781D01*
X120035218Y-114450778D01*
X120035218Y-114450776D01*
X119983865Y-114349991D01*
X119942287Y-114268390D01*
X119874232Y-114174719D01*
X119821971Y-114102786D01*
X119677213Y-113958028D01*
X119511613Y-113837715D01*
X119511612Y-113837714D01*
X119511610Y-113837713D01*
X119451898Y-113807288D01*
X119329223Y-113744781D01*
X119134534Y-113681522D01*
X118959995Y-113653878D01*
X118932352Y-113649500D01*
X118727648Y-113649500D01*
X118703329Y-113653351D01*
X118525465Y-113681522D01*
X118330776Y-113744781D01*
X118148386Y-113837715D01*
X117982786Y-113958028D01*
X117838028Y-114102786D01*
X117717715Y-114268386D01*
X117670485Y-114361080D01*
X117622510Y-114411876D01*
X117554689Y-114428671D01*
X117488554Y-114406134D01*
X117449515Y-114361080D01*
X117428314Y-114319471D01*
X117402287Y-114268390D01*
X117334232Y-114174719D01*
X117281971Y-114102786D01*
X117137213Y-113958028D01*
X116971610Y-113837712D01*
X116958200Y-113830879D01*
X116907406Y-113782903D01*
X116890500Y-113720397D01*
X116890500Y-113640943D01*
X116890499Y-113640939D01*
X116876895Y-113590167D01*
X116871013Y-113568215D01*
X116849577Y-113488215D01*
X116815881Y-113429852D01*
X116770520Y-113351284D01*
X116658716Y-113239480D01*
X116658715Y-113239479D01*
X116654385Y-113235149D01*
X116654374Y-113235139D01*
X115797590Y-112378355D01*
X115797588Y-112378352D01*
X115678717Y-112259481D01*
X115678716Y-112259480D01*
X115591904Y-112209360D01*
X115591904Y-112209359D01*
X115591900Y-112209358D01*
X115541785Y-112180423D01*
X115389057Y-112139499D01*
X115230943Y-112139499D01*
X115223347Y-112139499D01*
X115223331Y-112139500D01*
X108479096Y-112139500D01*
X108412057Y-112119815D01*
X108366302Y-112067011D01*
X108356358Y-111997853D01*
X108385383Y-111934297D01*
X108391415Y-111927819D01*
X108674252Y-111644982D01*
X108998506Y-111320728D01*
X108998511Y-111320724D01*
X109008714Y-111310520D01*
X109008716Y-111310520D01*
X109120520Y-111198716D01*
X109188319Y-111081284D01*
X109199577Y-111061785D01*
X109240500Y-110909058D01*
X109240500Y-110750943D01*
X109240500Y-109021835D01*
X109260185Y-108954796D01*
X109308206Y-108911350D01*
X109308547Y-108911175D01*
X109374022Y-108877815D01*
X109552365Y-108748242D01*
X109708242Y-108592365D01*
X109837815Y-108414022D01*
X109937895Y-108217606D01*
X110006015Y-108007951D01*
X110040500Y-107790222D01*
X110040500Y-107569778D01*
X110006015Y-107352049D01*
X109937895Y-107142394D01*
X109937895Y-107142393D01*
X109903237Y-107074375D01*
X109837815Y-106945978D01*
X109753565Y-106830017D01*
X109708247Y-106767641D01*
X109708243Y-106767636D01*
X109552363Y-106611756D01*
X109552358Y-106611752D01*
X109374025Y-106482187D01*
X109374024Y-106482186D01*
X109374022Y-106482185D01*
X109297919Y-106443408D01*
X109177606Y-106382104D01*
X109177603Y-106382103D01*
X108967952Y-106313985D01*
X108859086Y-106296742D01*
X108750222Y-106279500D01*
X108529778Y-106279500D01*
X108457201Y-106290995D01*
X108312047Y-106313985D01*
X108102396Y-106382103D01*
X108102393Y-106382104D01*
X107905974Y-106482187D01*
X107727641Y-106611752D01*
X107727636Y-106611756D01*
X107571756Y-106767636D01*
X107571752Y-106767641D01*
X107442187Y-106945974D01*
X107342104Y-107142393D01*
X107342103Y-107142396D01*
X107273985Y-107352047D01*
X107239500Y-107569778D01*
X107239500Y-107790221D01*
X107273985Y-108007952D01*
X107342103Y-108217603D01*
X107342104Y-108217606D01*
X107442187Y-108414025D01*
X107571752Y-108592358D01*
X107571756Y-108592363D01*
X107727636Y-108748243D01*
X107727641Y-108748247D01*
X107905976Y-108877814D01*
X107971794Y-108911350D01*
X108022591Y-108959324D01*
X108039500Y-109021835D01*
X108039500Y-110529903D01*
X108019815Y-110596942D01*
X108003181Y-110617584D01*
X102877584Y-115743181D01*
X102816261Y-115776666D01*
X102789903Y-115779500D01*
X102049766Y-115779500D01*
X101982727Y-115759815D01*
X101980875Y-115758602D01*
X101849185Y-115670609D01*
X101849172Y-115670602D01*
X101703501Y-115610264D01*
X101703489Y-115610261D01*
X101548845Y-115579500D01*
X101548842Y-115579500D01*
X101391158Y-115579500D01*
X101391155Y-115579500D01*
X101236510Y-115610261D01*
X101236498Y-115610264D01*
X101090827Y-115670602D01*
X101090814Y-115670609D01*
X100959711Y-115758210D01*
X100959707Y-115758213D01*
X100848213Y-115869707D01*
X100848210Y-115869711D01*
X100760609Y-116000814D01*
X100760602Y-116000827D01*
X100700264Y-116146498D01*
X100700261Y-116146510D01*
X100669500Y-116301153D01*
X100669500Y-116458846D01*
X100700261Y-116613489D01*
X100700263Y-116613497D01*
X100706290Y-116628047D01*
X100713759Y-116697517D01*
X100682484Y-116759996D01*
X100622395Y-116795648D01*
X100591729Y-116799500D01*
X100250939Y-116799500D01*
X100213692Y-116809480D01*
X100213693Y-116809481D01*
X100098214Y-116840423D01*
X100098209Y-116840426D01*
X99961290Y-116919475D01*
X99961282Y-116919481D01*
X99849478Y-117031286D01*
X83647584Y-133233181D01*
X83586261Y-133266666D01*
X83559903Y-133269500D01*
X56666670Y-133269500D01*
X56666654Y-133269499D01*
X56659058Y-133269499D01*
X56500943Y-133269499D01*
X56424579Y-133289961D01*
X56348214Y-133310423D01*
X56348209Y-133310426D01*
X56211290Y-133389475D01*
X56211282Y-133389481D01*
X54879481Y-134721282D01*
X54879480Y-134721284D01*
X54835065Y-134798215D01*
X54829361Y-134808094D01*
X54829359Y-134808096D01*
X54800425Y-134858209D01*
X54800424Y-134858210D01*
X54784544Y-134917472D01*
X54759499Y-135010943D01*
X54759499Y-135010945D01*
X54759499Y-135158000D01*
X54739814Y-135225039D01*
X54687010Y-135270794D01*
X54635500Y-135282000D01*
X54462130Y-135282000D01*
X54462123Y-135282001D01*
X54402516Y-135288408D01*
X54267671Y-135338702D01*
X54267664Y-135338706D01*
X54152455Y-135424952D01*
X54152452Y-135424955D01*
X54066206Y-135540164D01*
X54066202Y-135540171D01*
X54015908Y-135675017D01*
X54009501Y-135734616D01*
X54009500Y-135734635D01*
X54009500Y-137530370D01*
X54009501Y-137530376D01*
X54015908Y-137589983D01*
X54066202Y-137724828D01*
X54066206Y-137724835D01*
X54152452Y-137840044D01*
X54152455Y-137840047D01*
X54267664Y-137926293D01*
X54267671Y-137926297D01*
X54402517Y-137976591D01*
X54402516Y-137976591D01*
X54404814Y-137976838D01*
X54462127Y-137983000D01*
X56257872Y-137982999D01*
X56317483Y-137976591D01*
X56452331Y-137926296D01*
X56567546Y-137840046D01*
X56653796Y-137724831D01*
X56702810Y-137593416D01*
X56744681Y-137537484D01*
X56810145Y-137513066D01*
X56878418Y-137527917D01*
X56906673Y-137549069D01*
X57020208Y-137662604D01*
X57098384Y-137719402D01*
X57141051Y-137774731D01*
X57149500Y-137819720D01*
X57149500Y-138023918D01*
X57149500Y-138023920D01*
X57149499Y-138023920D01*
X57178340Y-138168907D01*
X57178343Y-138168917D01*
X57234914Y-138305492D01*
X57267812Y-138354727D01*
X57267813Y-138354730D01*
X57317046Y-138428414D01*
X57317052Y-138428421D01*
X59119791Y-140231158D01*
X59707048Y-140818415D01*
X59707049Y-140818416D01*
X59800109Y-140911476D01*
X59811585Y-140922952D01*
X59934498Y-141005080D01*
X59934511Y-141005087D01*
X60068291Y-141060500D01*
X60071087Y-141061658D01*
X60071091Y-141061658D01*
X60071092Y-141061659D01*
X60216079Y-141090500D01*
X60216082Y-141090500D01*
X90035396Y-141090500D01*
X90082844Y-141099937D01*
X90106503Y-141109737D01*
X90106508Y-141109738D01*
X90106511Y-141109739D01*
X90261153Y-141140499D01*
X90261156Y-141140500D01*
X90261158Y-141140500D01*
X90418844Y-141140500D01*
X90418845Y-141140499D01*
X90573497Y-141109737D01*
X90597150Y-141099938D01*
X90644606Y-141090499D01*
X124366553Y-141090499D01*
X124414001Y-141099936D01*
X124437660Y-141109736D01*
X124437665Y-141109737D01*
X124437668Y-141109738D01*
X124592310Y-141140498D01*
X124592313Y-141140499D01*
X124592315Y-141140499D01*
X124750001Y-141140499D01*
X124750002Y-141140498D01*
X124904654Y-141109736D01*
X125000734Y-141069938D01*
X125048185Y-141060500D01*
X149605396Y-141060500D01*
X149652844Y-141069937D01*
X149676503Y-141079737D01*
X149676508Y-141079738D01*
X149676511Y-141079739D01*
X149831153Y-141110499D01*
X149831156Y-141110500D01*
X149831158Y-141110500D01*
X149988844Y-141110500D01*
X149988845Y-141110499D01*
X150143497Y-141079737D01*
X150289179Y-141019394D01*
X150420289Y-140931789D01*
X150531789Y-140820289D01*
X150619394Y-140689179D01*
X150679737Y-140543497D01*
X150710500Y-140388842D01*
X150710500Y-140264500D01*
X150730185Y-140197461D01*
X150782989Y-140151706D01*
X150834500Y-140140500D01*
X152915396Y-140140500D01*
X152962844Y-140149937D01*
X152986503Y-140159737D01*
X152986508Y-140159738D01*
X152986511Y-140159739D01*
X153141153Y-140190499D01*
X153141156Y-140190500D01*
X153141158Y-140190500D01*
X153298844Y-140190500D01*
X153298845Y-140190499D01*
X153453497Y-140159737D01*
X153566166Y-140113067D01*
X153599172Y-140099397D01*
X153599172Y-140099396D01*
X153599179Y-140099394D01*
X153730289Y-140011789D01*
X153841789Y-139900289D01*
X153929394Y-139769179D01*
X153989737Y-139623497D01*
X154020500Y-139468842D01*
X154020500Y-139384500D01*
X154040185Y-139317461D01*
X154092989Y-139271706D01*
X154144500Y-139260500D01*
X155673920Y-139260500D01*
X155815107Y-139232415D01*
X155818913Y-139231658D01*
X155955495Y-139175084D01*
X156004729Y-139142186D01*
X156078416Y-139092952D01*
X156683991Y-138487376D01*
X156701436Y-138477850D01*
X156715963Y-138464276D01*
X156731475Y-138461447D01*
X156745313Y-138453892D01*
X156765140Y-138455309D01*
X156784700Y-138451744D01*
X156799278Y-138457751D01*
X156815004Y-138458876D01*
X156830919Y-138470789D01*
X156849300Y-138478364D01*
X156858315Y-138491297D01*
X156870938Y-138500747D01*
X156877885Y-138519374D01*
X156889253Y-138535683D01*
X156889844Y-138551438D01*
X156895355Y-138566212D01*
X156891128Y-138585638D01*
X156891875Y-138605504D01*
X156882679Y-138624478D01*
X156880503Y-138634485D01*
X156878429Y-138638136D01*
X156872364Y-138648399D01*
X156869480Y-138651284D01*
X156819360Y-138738095D01*
X156819071Y-138738594D01*
X156819001Y-138738714D01*
X156790425Y-138788209D01*
X156790424Y-138788210D01*
X156781357Y-138822049D01*
X156749499Y-138940943D01*
X156749499Y-138940945D01*
X156749499Y-139109046D01*
X156749500Y-139109059D01*
X156749500Y-139800422D01*
X156729815Y-139867461D01*
X156677011Y-139913216D01*
X156638102Y-139923780D01*
X156577202Y-139930001D01*
X156577200Y-139930001D01*
X156410668Y-139985185D01*
X156410663Y-139985187D01*
X156261342Y-140077289D01*
X156137289Y-140201342D01*
X156045187Y-140350663D01*
X156045185Y-140350668D01*
X156032536Y-140388842D01*
X155990001Y-140517203D01*
X155990001Y-140517204D01*
X155990000Y-140517204D01*
X155979500Y-140619983D01*
X155979500Y-141920001D01*
X155979501Y-141920018D01*
X155990000Y-142022796D01*
X155990001Y-142022799D01*
X156045185Y-142189331D01*
X156045187Y-142189336D01*
X156050347Y-142197701D01*
X156137288Y-142338656D01*
X156261344Y-142462712D01*
X156410666Y-142554814D01*
X156421223Y-142558312D01*
X156478668Y-142598084D01*
X156505492Y-142662600D01*
X156493177Y-142731376D01*
X156455113Y-142776330D01*
X156450219Y-142779885D01*
X156450209Y-142779894D01*
X156299890Y-142930213D01*
X156174951Y-143102179D01*
X156078444Y-143291585D01*
X156012753Y-143493760D01*
X155997774Y-143588336D01*
X155979500Y-143703713D01*
X155979500Y-143916287D01*
X156012754Y-144126243D01*
X156034465Y-144193063D01*
X156078444Y-144328414D01*
X156174951Y-144517820D01*
X156299890Y-144689786D01*
X156450213Y-144840109D01*
X156622179Y-144965048D01*
X156622181Y-144965049D01*
X156622184Y-144965051D01*
X156811588Y-145061557D01*
X157013757Y-145127246D01*
X157223713Y-145160500D01*
X157223714Y-145160500D01*
X157436286Y-145160500D01*
X157436287Y-145160500D01*
X157646243Y-145127246D01*
X157848412Y-145061557D01*
X158037816Y-144965051D01*
X158059789Y-144949086D01*
X158209786Y-144840109D01*
X158209788Y-144840106D01*
X158209792Y-144840104D01*
X158360104Y-144689792D01*
X158360106Y-144689788D01*
X158360109Y-144689786D01*
X158485048Y-144517820D01*
X158485047Y-144517820D01*
X158485051Y-144517816D01*
X158489514Y-144509054D01*
X158537488Y-144458259D01*
X158605308Y-144441463D01*
X158671444Y-144463999D01*
X158710486Y-144509056D01*
X158714951Y-144517820D01*
X158839890Y-144689786D01*
X158990213Y-144840109D01*
X159162179Y-144965048D01*
X159162181Y-144965049D01*
X159162184Y-144965051D01*
X159351588Y-145061557D01*
X159553757Y-145127246D01*
X159763713Y-145160500D01*
X159763714Y-145160500D01*
X159976286Y-145160500D01*
X159976287Y-145160500D01*
X160186243Y-145127246D01*
X160388412Y-145061557D01*
X160577816Y-144965051D01*
X160599789Y-144949086D01*
X160749786Y-144840109D01*
X160749788Y-144840106D01*
X160749792Y-144840104D01*
X160900104Y-144689792D01*
X160900106Y-144689788D01*
X160900109Y-144689786D01*
X161025048Y-144517820D01*
X161025047Y-144517820D01*
X161025051Y-144517816D01*
X161121557Y-144328412D01*
X161187246Y-144126243D01*
X161220500Y-143916287D01*
X161220500Y-143703713D01*
X161187246Y-143493757D01*
X161121557Y-143291588D01*
X161029496Y-143110909D01*
X161024935Y-143086622D01*
X161016298Y-143063466D01*
X161018599Y-143052884D01*
X161016601Y-143042242D01*
X161025895Y-143019342D01*
X161031148Y-142995192D01*
X161041083Y-142981919D01*
X161042877Y-142977501D01*
X161052292Y-142966943D01*
X161090520Y-142928716D01*
X161090521Y-142928713D01*
X161478506Y-142540728D01*
X161478511Y-142540724D01*
X161488714Y-142530520D01*
X161488716Y-142530520D01*
X161566935Y-142452301D01*
X161628258Y-142418816D01*
X161697950Y-142423800D01*
X161710902Y-142429493D01*
X161891588Y-142521557D01*
X162093757Y-142587246D01*
X162303713Y-142620500D01*
X162303714Y-142620500D01*
X162516286Y-142620500D01*
X162516287Y-142620500D01*
X162726243Y-142587246D01*
X162928412Y-142521557D01*
X163117816Y-142425051D01*
X163192015Y-142371143D01*
X163289786Y-142300109D01*
X163289788Y-142300106D01*
X163289792Y-142300104D01*
X163440104Y-142149792D01*
X163440106Y-142149788D01*
X163440109Y-142149786D01*
X163565048Y-141977820D01*
X163565047Y-141977820D01*
X163565051Y-141977816D01*
X163661557Y-141788412D01*
X163727246Y-141586243D01*
X163760500Y-141376287D01*
X163760500Y-141163713D01*
X163727246Y-140953757D01*
X163713506Y-140911473D01*
X163711512Y-140841635D01*
X163743755Y-140785478D01*
X166910520Y-137618716D01*
X166989577Y-137481784D01*
X167030501Y-137329057D01*
X167030501Y-137170942D01*
X167030501Y-137163347D01*
X167030500Y-137163329D01*
X167030500Y-133281902D01*
X167449500Y-133281902D01*
X167449500Y-133518097D01*
X167486446Y-133751368D01*
X167559433Y-133975996D01*
X167666657Y-134186433D01*
X167805483Y-134377510D01*
X167972490Y-134544517D01*
X168163567Y-134683343D01*
X168262991Y-134734002D01*
X168374003Y-134790566D01*
X168374005Y-134790566D01*
X168374008Y-134790568D01*
X168494412Y-134829689D01*
X168598631Y-134863553D01*
X168831903Y-134900500D01*
X168831908Y-134900500D01*
X169068097Y-134900500D01*
X169301368Y-134863553D01*
X169525992Y-134790568D01*
X169736433Y-134683343D01*
X169927510Y-134544517D01*
X170094517Y-134377510D01*
X170233343Y-134186433D01*
X170340568Y-133975992D01*
X170413553Y-133751368D01*
X170450500Y-133518097D01*
X170450500Y-133281902D01*
X170413553Y-133048631D01*
X170368242Y-132909179D01*
X170340568Y-132824008D01*
X170340566Y-132824005D01*
X170340566Y-132824003D01*
X170274356Y-132694060D01*
X170233343Y-132613567D01*
X170094517Y-132422490D01*
X169927510Y-132255483D01*
X169736433Y-132116657D01*
X169525996Y-132009433D01*
X169301368Y-131936446D01*
X169068097Y-131899500D01*
X169068092Y-131899500D01*
X168831908Y-131899500D01*
X168831903Y-131899500D01*
X168598631Y-131936446D01*
X168374003Y-132009433D01*
X168163566Y-132116657D01*
X168116554Y-132150814D01*
X167972490Y-132255483D01*
X167972488Y-132255485D01*
X167972487Y-132255485D01*
X167805485Y-132422487D01*
X167805485Y-132422488D01*
X167805483Y-132422490D01*
X167751228Y-132497165D01*
X167666657Y-132613566D01*
X167559433Y-132824003D01*
X167486446Y-133048631D01*
X167449500Y-133281902D01*
X167030500Y-133281902D01*
X167030500Y-110609059D01*
X167030501Y-110609046D01*
X167030501Y-110440945D01*
X167030501Y-110440943D01*
X166989577Y-110288215D01*
X166955678Y-110229500D01*
X166910520Y-110151284D01*
X166798716Y-110039480D01*
X166798715Y-110039479D01*
X166794385Y-110035149D01*
X166794374Y-110035139D01*
X166684574Y-109925339D01*
X166651089Y-109864016D01*
X166650638Y-109861849D01*
X166632595Y-109771147D01*
X166619737Y-109706503D01*
X166563539Y-109570827D01*
X166559397Y-109560827D01*
X166559390Y-109560814D01*
X166471789Y-109429711D01*
X166471786Y-109429707D01*
X166360292Y-109318213D01*
X166360288Y-109318210D01*
X166229185Y-109230609D01*
X166229172Y-109230602D01*
X166083501Y-109170264D01*
X166083489Y-109170261D01*
X165928845Y-109139500D01*
X165928842Y-109139500D01*
X165771158Y-109139500D01*
X165771155Y-109139500D01*
X165616510Y-109170261D01*
X165616498Y-109170264D01*
X165470827Y-109230602D01*
X165470814Y-109230609D01*
X165339711Y-109318210D01*
X165339707Y-109318213D01*
X165297681Y-109360240D01*
X165236358Y-109393725D01*
X165166666Y-109388741D01*
X165122319Y-109360240D01*
X165090292Y-109328213D01*
X165090288Y-109328210D01*
X164959185Y-109240609D01*
X164959172Y-109240602D01*
X164813501Y-109180264D01*
X164813489Y-109180261D01*
X164658845Y-109149500D01*
X164658842Y-109149500D01*
X164501158Y-109149500D01*
X164501155Y-109149500D01*
X164346510Y-109180261D01*
X164346498Y-109180264D01*
X164200827Y-109240602D01*
X164200814Y-109240609D01*
X164069711Y-109328210D01*
X164069707Y-109328213D01*
X163958213Y-109439707D01*
X163958210Y-109439711D01*
X163870609Y-109570814D01*
X163870602Y-109570827D01*
X163810264Y-109716498D01*
X163810261Y-109716510D01*
X163779500Y-109871153D01*
X163779500Y-110028846D01*
X163810261Y-110183489D01*
X163810264Y-110183501D01*
X163870602Y-110329172D01*
X163870609Y-110329185D01*
X163958210Y-110460288D01*
X163958213Y-110460292D01*
X164069707Y-110571786D01*
X164069711Y-110571789D01*
X164200814Y-110659390D01*
X164200827Y-110659397D01*
X164352131Y-110722068D01*
X164351114Y-110724522D01*
X164399930Y-110756510D01*
X164428390Y-110820321D01*
X164429500Y-110836878D01*
X164429500Y-127358435D01*
X164409815Y-127425474D01*
X164357011Y-127471229D01*
X164287853Y-127481173D01*
X164224297Y-127452148D01*
X164216241Y-127443873D01*
X164216097Y-127444018D01*
X164100292Y-127328213D01*
X164100288Y-127328210D01*
X163969185Y-127240609D01*
X163969172Y-127240602D01*
X163823501Y-127180264D01*
X163823489Y-127180261D01*
X163668845Y-127149500D01*
X163668842Y-127149500D01*
X163511158Y-127149500D01*
X163511155Y-127149500D01*
X163356510Y-127180261D01*
X163356498Y-127180264D01*
X163210827Y-127240602D01*
X163210814Y-127240609D01*
X163079711Y-127328210D01*
X163079707Y-127328213D01*
X162968213Y-127439707D01*
X162968210Y-127439711D01*
X162880609Y-127570814D01*
X162880602Y-127570827D01*
X162820264Y-127716498D01*
X162820261Y-127716510D01*
X162789500Y-127871153D01*
X162789500Y-128028846D01*
X162820261Y-128183489D01*
X162820264Y-128183501D01*
X162880602Y-128329172D01*
X162880609Y-128329185D01*
X162968210Y-128460288D01*
X162968213Y-128460292D01*
X163079707Y-128571786D01*
X163079711Y-128571789D01*
X163210814Y-128659390D01*
X163210827Y-128659397D01*
X163356498Y-128719735D01*
X163356503Y-128719737D01*
X163421147Y-128732595D01*
X163511849Y-128750638D01*
X163528605Y-128759402D01*
X163547085Y-128763423D01*
X163572123Y-128782167D01*
X163573760Y-128783023D01*
X163575339Y-128784574D01*
X163723181Y-128932416D01*
X163756666Y-128993739D01*
X163759500Y-129020097D01*
X163759500Y-130036696D01*
X163739815Y-130103735D01*
X163687011Y-130149490D01*
X163617853Y-130159434D01*
X163554297Y-130130409D01*
X163532399Y-130105589D01*
X163521788Y-130089709D01*
X163410292Y-129978213D01*
X163410288Y-129978210D01*
X163279185Y-129890609D01*
X163279172Y-129890602D01*
X163133501Y-129830264D01*
X163133491Y-129830261D01*
X163015600Y-129806811D01*
X162953689Y-129774426D01*
X162952111Y-129772875D01*
X162838717Y-129659481D01*
X162838709Y-129659475D01*
X162701790Y-129580426D01*
X162701786Y-129580424D01*
X162701784Y-129580423D01*
X162549057Y-129539500D01*
X162390943Y-129539500D01*
X162238216Y-129580423D01*
X162238209Y-129580426D01*
X162101290Y-129659475D01*
X162101282Y-129659481D01*
X161989481Y-129771282D01*
X161989475Y-129771290D01*
X161910426Y-129908209D01*
X161910423Y-129908216D01*
X161869500Y-130060943D01*
X161869500Y-130083330D01*
X161869499Y-130083348D01*
X161869499Y-130249054D01*
X161869498Y-130249054D01*
X161869499Y-130249057D01*
X161910423Y-130401785D01*
X161937786Y-130449179D01*
X161989480Y-130538716D01*
X162071081Y-130620317D01*
X162075957Y-130626643D01*
X162085845Y-130652056D01*
X162098911Y-130675985D01*
X162099362Y-130678151D01*
X162130261Y-130833491D01*
X162130264Y-130833501D01*
X162190602Y-130979172D01*
X162190609Y-130979185D01*
X162278210Y-131110288D01*
X162278213Y-131110292D01*
X162389707Y-131221786D01*
X162389711Y-131221789D01*
X162520814Y-131309390D01*
X162520827Y-131309397D01*
X162666498Y-131369735D01*
X162666503Y-131369737D01*
X162731147Y-131382595D01*
X162821849Y-131400638D01*
X162838605Y-131409402D01*
X162857085Y-131413423D01*
X162882123Y-131432167D01*
X162883760Y-131433023D01*
X162885339Y-131434574D01*
X162913181Y-131462416D01*
X162946666Y-131523739D01*
X162949500Y-131550097D01*
X162949500Y-132299902D01*
X162929815Y-132366941D01*
X162913181Y-132387583D01*
X160639481Y-134661282D01*
X160639479Y-134661285D01*
X160635478Y-134668215D01*
X160604841Y-134721282D01*
X160589361Y-134748094D01*
X160589359Y-134748096D01*
X160560425Y-134798209D01*
X160560424Y-134798210D01*
X160557775Y-134808096D01*
X160519499Y-134950943D01*
X160519499Y-134950945D01*
X160519499Y-135119046D01*
X160519500Y-135119059D01*
X160519500Y-135681276D01*
X160499815Y-135748315D01*
X160447011Y-135794070D01*
X160377853Y-135804014D01*
X160314297Y-135774989D01*
X160295182Y-135754161D01*
X160225109Y-135657714D01*
X160225105Y-135657709D01*
X160074786Y-135507390D01*
X159902820Y-135382451D01*
X159713414Y-135285944D01*
X159713413Y-135285943D01*
X159713412Y-135285943D01*
X159511243Y-135220254D01*
X159511241Y-135220253D01*
X159511240Y-135220253D01*
X159349957Y-135194708D01*
X159301287Y-135187000D01*
X159088713Y-135187000D01*
X159040042Y-135194708D01*
X158878760Y-135220253D01*
X158676584Y-135285944D01*
X158624072Y-135312700D01*
X158608353Y-135315651D01*
X158594328Y-135323339D01*
X158574720Y-135321967D01*
X158555403Y-135325595D01*
X158540583Y-135319579D01*
X158524629Y-135318464D01*
X158508874Y-135306708D01*
X158490663Y-135299317D01*
X158480796Y-135285759D01*
X158468629Y-135276681D01*
X158457398Y-135253608D01*
X158451666Y-135245731D01*
X158449560Y-135240112D01*
X158419577Y-135128215D01*
X158390639Y-135078095D01*
X158340520Y-134991284D01*
X158228716Y-134879480D01*
X158228715Y-134879479D01*
X158224385Y-134875149D01*
X158224374Y-134875139D01*
X156282337Y-132933102D01*
X156248852Y-132871779D01*
X156253836Y-132802087D01*
X156255424Y-132798049D01*
X156269737Y-132763497D01*
X156300500Y-132608842D01*
X156300500Y-132451158D01*
X156300500Y-132451155D01*
X156300499Y-132451153D01*
X156269737Y-132296503D01*
X156249827Y-132248436D01*
X156209397Y-132150827D01*
X156209390Y-132150814D01*
X156121789Y-132019711D01*
X156121786Y-132019707D01*
X156010292Y-131908213D01*
X156010288Y-131908210D01*
X155879185Y-131820609D01*
X155879172Y-131820602D01*
X155733501Y-131760264D01*
X155733489Y-131760261D01*
X155578845Y-131729500D01*
X155578842Y-131729500D01*
X155421158Y-131729500D01*
X155421155Y-131729500D01*
X155266510Y-131760261D01*
X155266498Y-131760264D01*
X155120827Y-131820602D01*
X155120814Y-131820609D01*
X154989711Y-131908210D01*
X154989707Y-131908213D01*
X154878213Y-132019707D01*
X154878210Y-132019711D01*
X154790609Y-132150814D01*
X154790602Y-132150827D01*
X154730264Y-132296498D01*
X154730261Y-132296510D01*
X154699500Y-132451153D01*
X154699500Y-132608846D01*
X154730261Y-132763489D01*
X154730264Y-132763501D01*
X154790602Y-132909172D01*
X154790609Y-132909185D01*
X154881595Y-133045354D01*
X154881561Y-133045376D01*
X154882753Y-133046318D01*
X154890385Y-133062573D01*
X154898841Y-133077732D01*
X154900224Y-133081764D01*
X154940423Y-133231785D01*
X154962198Y-133269500D01*
X154968202Y-133279900D01*
X154968204Y-133279904D01*
X155019475Y-133368709D01*
X155019481Y-133368717D01*
X155138349Y-133487585D01*
X155138355Y-133487590D01*
X156626480Y-134975715D01*
X156659965Y-135037038D01*
X156654981Y-135106730D01*
X156613109Y-135162663D01*
X156553360Y-135185200D01*
X156553525Y-135186238D01*
X156548714Y-135187000D01*
X156548713Y-135187000D01*
X156505455Y-135193851D01*
X156338760Y-135220253D01*
X156136585Y-135285944D01*
X155947179Y-135382451D01*
X155775213Y-135507390D01*
X155624890Y-135657713D01*
X155499949Y-135829682D01*
X155495484Y-135838446D01*
X155447509Y-135889242D01*
X155379688Y-135906036D01*
X155313553Y-135883498D01*
X155274516Y-135838446D01*
X155270050Y-135829682D01*
X155145109Y-135657713D01*
X154994786Y-135507390D01*
X154822820Y-135382451D01*
X154633414Y-135285944D01*
X154633413Y-135285943D01*
X154633412Y-135285943D01*
X154431243Y-135220254D01*
X154431241Y-135220253D01*
X154431240Y-135220253D01*
X154269957Y-135194708D01*
X154221287Y-135187000D01*
X154008713Y-135187000D01*
X153960042Y-135194708D01*
X153798760Y-135220253D01*
X153596585Y-135285944D01*
X153407179Y-135382451D01*
X153235213Y-135507390D01*
X153084890Y-135657713D01*
X152959949Y-135829682D01*
X152955484Y-135838446D01*
X152907509Y-135889242D01*
X152839688Y-135906036D01*
X152773553Y-135883498D01*
X152734516Y-135838446D01*
X152730050Y-135829682D01*
X152605109Y-135657713D01*
X152454786Y-135507390D01*
X152282820Y-135382451D01*
X152093414Y-135285944D01*
X152093413Y-135285943D01*
X152093412Y-135285943D01*
X151891243Y-135220254D01*
X151891241Y-135220253D01*
X151891240Y-135220253D01*
X151729957Y-135194708D01*
X151681287Y-135187000D01*
X151468713Y-135187000D01*
X151420042Y-135194708D01*
X151258760Y-135220253D01*
X151056585Y-135285944D01*
X150867179Y-135382451D01*
X150695215Y-135507389D01*
X150581673Y-135620931D01*
X150520350Y-135654415D01*
X150450658Y-135649431D01*
X150394725Y-135607559D01*
X150377810Y-135576582D01*
X150328797Y-135445171D01*
X150328793Y-135445164D01*
X150242547Y-135329955D01*
X150242544Y-135329952D01*
X150127335Y-135243706D01*
X150127328Y-135243702D01*
X149992482Y-135193408D01*
X149992483Y-135193408D01*
X149932883Y-135187001D01*
X149932881Y-135187000D01*
X149932873Y-135187000D01*
X149932864Y-135187000D01*
X148137129Y-135187000D01*
X148137123Y-135187001D01*
X148077516Y-135193408D01*
X147942671Y-135243702D01*
X147942664Y-135243706D01*
X147827455Y-135329952D01*
X147827452Y-135329955D01*
X147741206Y-135445164D01*
X147741202Y-135445171D01*
X147690908Y-135580017D01*
X147684501Y-135639616D01*
X147684500Y-135639635D01*
X147684500Y-135813000D01*
X147664815Y-135880039D01*
X147612011Y-135925794D01*
X147560500Y-135937000D01*
X143567597Y-135937000D01*
X143500558Y-135917315D01*
X143479916Y-135900681D01*
X131646787Y-124067552D01*
X131613302Y-124006229D01*
X131618286Y-123936537D01*
X131660158Y-123880604D01*
X131715067Y-123857398D01*
X131834534Y-123838477D01*
X132029219Y-123775220D01*
X132211610Y-123682287D01*
X132304590Y-123614732D01*
X132377213Y-123561971D01*
X132377215Y-123561968D01*
X132377219Y-123561966D01*
X132521966Y-123417219D01*
X132521968Y-123417215D01*
X132521971Y-123417213D01*
X132642284Y-123251614D01*
X132642285Y-123251613D01*
X132642287Y-123251610D01*
X132689516Y-123158917D01*
X132737489Y-123108123D01*
X132805310Y-123091328D01*
X132871445Y-123113865D01*
X132910485Y-123158919D01*
X132957715Y-123251614D01*
X133078028Y-123417213D01*
X133222786Y-123561971D01*
X133353688Y-123657075D01*
X133388390Y-123682287D01*
X133487060Y-123732562D01*
X133570776Y-123775218D01*
X133570778Y-123775218D01*
X133570781Y-123775220D01*
X133619101Y-123790920D01*
X133765465Y-123838477D01*
X133866557Y-123854488D01*
X133967648Y-123870500D01*
X133967649Y-123870500D01*
X134172351Y-123870500D01*
X134172352Y-123870500D01*
X134374534Y-123838477D01*
X134388842Y-123833827D01*
X134458682Y-123831831D01*
X134514841Y-123864076D01*
X136551284Y-125900520D01*
X136551286Y-125900521D01*
X136551290Y-125900524D01*
X136688209Y-125979573D01*
X136688216Y-125979577D01*
X136840943Y-126020501D01*
X136840945Y-126020501D01*
X137006654Y-126020501D01*
X137006670Y-126020500D01*
X144348059Y-126020500D01*
X144415098Y-126040185D01*
X144460853Y-126092989D01*
X144470797Y-126162147D01*
X144441772Y-126225703D01*
X144435740Y-126232181D01*
X144378213Y-126289707D01*
X144378210Y-126289711D01*
X144290609Y-126420814D01*
X144290602Y-126420827D01*
X144230264Y-126566498D01*
X144230261Y-126566510D01*
X144199500Y-126721153D01*
X144199500Y-126878846D01*
X144230261Y-127033489D01*
X144230264Y-127033501D01*
X144290602Y-127179172D01*
X144290609Y-127179185D01*
X144378210Y-127310288D01*
X144378213Y-127310292D01*
X144489707Y-127421786D01*
X144489711Y-127421789D01*
X144620814Y-127509390D01*
X144620827Y-127509397D01*
X144712139Y-127547219D01*
X144766503Y-127569737D01*
X144921153Y-127600499D01*
X144921156Y-127600500D01*
X144921158Y-127600500D01*
X145078844Y-127600500D01*
X145078845Y-127600499D01*
X145233497Y-127569737D01*
X145379179Y-127509394D01*
X145510289Y-127421789D01*
X145621789Y-127310289D01*
X145709394Y-127179179D01*
X145719191Y-127155524D01*
X145746069Y-127115297D01*
X148074549Y-124786819D01*
X148135872Y-124753334D01*
X148162230Y-124750500D01*
X153495396Y-124750500D01*
X153542844Y-124759937D01*
X153566503Y-124769737D01*
X153566508Y-124769738D01*
X153566511Y-124769739D01*
X153721153Y-124800499D01*
X153721156Y-124800500D01*
X153721158Y-124800500D01*
X153878844Y-124800500D01*
X153878845Y-124800499D01*
X154033497Y-124769737D01*
X154179179Y-124709394D01*
X154310289Y-124621789D01*
X154421789Y-124510289D01*
X154509394Y-124379179D01*
X154569737Y-124233497D01*
X154600500Y-124078842D01*
X154600500Y-123921158D01*
X154600500Y-123921155D01*
X154600499Y-123921153D01*
X154587817Y-123857398D01*
X154569737Y-123766503D01*
X154567783Y-123761785D01*
X154509397Y-123620827D01*
X154509390Y-123620814D01*
X154421789Y-123489711D01*
X154421786Y-123489707D01*
X154310292Y-123378213D01*
X154310288Y-123378210D01*
X154179185Y-123290609D01*
X154179172Y-123290602D01*
X154033501Y-123230264D01*
X154033489Y-123230261D01*
X153878845Y-123199500D01*
X153878842Y-123199500D01*
X153721158Y-123199500D01*
X153721155Y-123199500D01*
X153566511Y-123230260D01*
X153566506Y-123230262D01*
X153566504Y-123230262D01*
X153566503Y-123230263D01*
X153542844Y-123240062D01*
X153495396Y-123249500D01*
X147726080Y-123249500D01*
X147581092Y-123278340D01*
X147581086Y-123278342D01*
X147444508Y-123334914D01*
X147444496Y-123334921D01*
X147395269Y-123367812D01*
X147395270Y-123367813D01*
X147353390Y-123395796D01*
X147286713Y-123416673D01*
X147219333Y-123398188D01*
X147172643Y-123346209D01*
X147160500Y-123292693D01*
X147160500Y-115140945D01*
X147160500Y-115140943D01*
X147119577Y-114988216D01*
X147119577Y-114988215D01*
X147086511Y-114930943D01*
X147040520Y-114851284D01*
X146928716Y-114739480D01*
X146928715Y-114739479D01*
X146924385Y-114735149D01*
X146924374Y-114735139D01*
X143277590Y-111088355D01*
X143277588Y-111088352D01*
X143158717Y-110969481D01*
X143158716Y-110969480D01*
X143054061Y-110909058D01*
X143054060Y-110909057D01*
X143021783Y-110890422D01*
X142965881Y-110875443D01*
X142869057Y-110849499D01*
X142710943Y-110849499D01*
X142703347Y-110849499D01*
X142703331Y-110849500D01*
X136430097Y-110849500D01*
X136363058Y-110829815D01*
X136342416Y-110813181D01*
X130216819Y-104687584D01*
X130183334Y-104626261D01*
X130180500Y-104599903D01*
X130180500Y-102523265D01*
X130200185Y-102456226D01*
X130248204Y-102412781D01*
X130292816Y-102390051D01*
X130464792Y-102265104D01*
X130615104Y-102114792D01*
X130615106Y-102114788D01*
X130615109Y-102114786D01*
X130724086Y-101964789D01*
X130740051Y-101942816D01*
X130836557Y-101753412D01*
X130902246Y-101551243D01*
X130935500Y-101341287D01*
X130935500Y-101128713D01*
X130902246Y-100918757D01*
X130836557Y-100716588D01*
X130740051Y-100527184D01*
X130740049Y-100527181D01*
X130740048Y-100527179D01*
X130615111Y-100355216D01*
X130614957Y-100355036D01*
X130614919Y-100354953D01*
X130612241Y-100351266D01*
X130613015Y-100350703D01*
X130586384Y-100291276D01*
X130596818Y-100222190D01*
X130642946Y-100169712D01*
X130709244Y-100150500D01*
X146795270Y-100150500D01*
X146862309Y-100170185D01*
X146882951Y-100186819D01*
X147574824Y-100878692D01*
X147608309Y-100940015D01*
X147609616Y-100985771D01*
X147594500Y-101081207D01*
X147594500Y-101293786D01*
X147610734Y-101396287D01*
X147627754Y-101503743D01*
X147661058Y-101606243D01*
X147693444Y-101705914D01*
X147789951Y-101895320D01*
X147914890Y-102067286D01*
X148065213Y-102217609D01*
X148237179Y-102342548D01*
X148237181Y-102342549D01*
X148237184Y-102342551D01*
X148426588Y-102439057D01*
X148628757Y-102504746D01*
X148838713Y-102538000D01*
X148838714Y-102538000D01*
X149051286Y-102538000D01*
X149051287Y-102538000D01*
X149261243Y-102504746D01*
X149463412Y-102439057D01*
X149652816Y-102342551D01*
X149759407Y-102265109D01*
X149824786Y-102217609D01*
X149824788Y-102217606D01*
X149824792Y-102217604D01*
X149975104Y-102067292D01*
X149975106Y-102067288D01*
X149975109Y-102067286D01*
X150100048Y-101895320D01*
X150100047Y-101895320D01*
X150100051Y-101895316D01*
X150104514Y-101886554D01*
X150152488Y-101835759D01*
X150220308Y-101818963D01*
X150286444Y-101841499D01*
X150325484Y-101886554D01*
X150329591Y-101894615D01*
X150329951Y-101895320D01*
X150454890Y-102067286D01*
X150605213Y-102217609D01*
X150777179Y-102342548D01*
X150777181Y-102342549D01*
X150777184Y-102342551D01*
X150966588Y-102439057D01*
X151168757Y-102504746D01*
X151378713Y-102538000D01*
X151378714Y-102538000D01*
X151591286Y-102538000D01*
X151591287Y-102538000D01*
X151801243Y-102504746D01*
X152003412Y-102439057D01*
X152192816Y-102342551D01*
X152299407Y-102265109D01*
X152364786Y-102217609D01*
X152364788Y-102217606D01*
X152364792Y-102217604D01*
X152515104Y-102067292D01*
X152515106Y-102067288D01*
X152515109Y-102067286D01*
X152640048Y-101895320D01*
X152640047Y-101895320D01*
X152640051Y-101895316D01*
X152644514Y-101886554D01*
X152692488Y-101835759D01*
X152760308Y-101818963D01*
X152826444Y-101841499D01*
X152865484Y-101886554D01*
X152869591Y-101894615D01*
X152869951Y-101895320D01*
X152994890Y-102067286D01*
X153145213Y-102217609D01*
X153317179Y-102342548D01*
X153317181Y-102342549D01*
X153317184Y-102342551D01*
X153506588Y-102439057D01*
X153708757Y-102504746D01*
X153918713Y-102538000D01*
X153918714Y-102538000D01*
X154131286Y-102538000D01*
X154131287Y-102538000D01*
X154341243Y-102504746D01*
X154543412Y-102439057D01*
X154732816Y-102342551D01*
X154839407Y-102265109D01*
X154904786Y-102217609D01*
X154904788Y-102217606D01*
X154904792Y-102217604D01*
X155055104Y-102067292D01*
X155055106Y-102067288D01*
X155055109Y-102067286D01*
X155180048Y-101895320D01*
X155180047Y-101895320D01*
X155180051Y-101895316D01*
X155184514Y-101886554D01*
X155232488Y-101835759D01*
X155300308Y-101818963D01*
X155366444Y-101841499D01*
X155405484Y-101886554D01*
X155409591Y-101894615D01*
X155409951Y-101895320D01*
X155534890Y-102067286D01*
X155685213Y-102217609D01*
X155857179Y-102342548D01*
X155857181Y-102342549D01*
X155857184Y-102342551D01*
X156046588Y-102439057D01*
X156248757Y-102504746D01*
X156458713Y-102538000D01*
X156458714Y-102538000D01*
X156671286Y-102538000D01*
X156671287Y-102538000D01*
X156881243Y-102504746D01*
X157083412Y-102439057D01*
X157272816Y-102342551D01*
X157379407Y-102265109D01*
X157444786Y-102217609D01*
X157444788Y-102217606D01*
X157444792Y-102217604D01*
X157595104Y-102067292D01*
X157595106Y-102067288D01*
X157595109Y-102067286D01*
X157720048Y-101895320D01*
X157720047Y-101895320D01*
X157720051Y-101895316D01*
X157724514Y-101886554D01*
X157772488Y-101835759D01*
X157840308Y-101818963D01*
X157906444Y-101841499D01*
X157945484Y-101886554D01*
X157949591Y-101894615D01*
X157949951Y-101895320D01*
X158074890Y-102067286D01*
X158225213Y-102217609D01*
X158397179Y-102342548D01*
X158397181Y-102342549D01*
X158397184Y-102342551D01*
X158586588Y-102439057D01*
X158788757Y-102504746D01*
X158998713Y-102538000D01*
X158998714Y-102538000D01*
X159211286Y-102538000D01*
X159211287Y-102538000D01*
X159421243Y-102504746D01*
X159623412Y-102439057D01*
X159812816Y-102342551D01*
X159919407Y-102265109D01*
X159984786Y-102217609D01*
X159984788Y-102217606D01*
X159984792Y-102217604D01*
X160135104Y-102067292D01*
X160135106Y-102067288D01*
X160135109Y-102067286D01*
X160260048Y-101895320D01*
X160260047Y-101895320D01*
X160260051Y-101895316D01*
X160356557Y-101705912D01*
X160422246Y-101503743D01*
X160455500Y-101293787D01*
X160455500Y-101081213D01*
X160422246Y-100871257D01*
X160356557Y-100669088D01*
X160260051Y-100479684D01*
X160260049Y-100479681D01*
X160260048Y-100479679D01*
X160135109Y-100307713D01*
X159984794Y-100157398D01*
X159984788Y-100157393D01*
X159906615Y-100100597D01*
X159863949Y-100045267D01*
X159855500Y-100000279D01*
X159855500Y-99241079D01*
X159826659Y-99096092D01*
X159826658Y-99096091D01*
X159826658Y-99096087D01*
X159770084Y-98959505D01*
X159727168Y-98895276D01*
X159727168Y-98895275D01*
X159687950Y-98836581D01*
X156648421Y-95797052D01*
X156648414Y-95797046D01*
X156574729Y-95747812D01*
X156574729Y-95747813D01*
X156525491Y-95714913D01*
X156388917Y-95658343D01*
X156388907Y-95658340D01*
X156243920Y-95629500D01*
X156243918Y-95629500D01*
X126124604Y-95629500D01*
X126077155Y-95620062D01*
X126053497Y-95610263D01*
X126053493Y-95610262D01*
X126053488Y-95610260D01*
X125898845Y-95579500D01*
X125898842Y-95579500D01*
X125741158Y-95579500D01*
X125741155Y-95579500D01*
X125586511Y-95610260D01*
X125586506Y-95610262D01*
X125586504Y-95610262D01*
X125586503Y-95610263D01*
X125562844Y-95620062D01*
X125515396Y-95629500D01*
X88894604Y-95629500D01*
X88847155Y-95620062D01*
X88823497Y-95610263D01*
X88823493Y-95610262D01*
X88823488Y-95610260D01*
X88668845Y-95579500D01*
X88668842Y-95579500D01*
X88511158Y-95579500D01*
X88511155Y-95579500D01*
X88356511Y-95610260D01*
X88356506Y-95610262D01*
X88356504Y-95610262D01*
X88356503Y-95610263D01*
X88332844Y-95620062D01*
X88285396Y-95629500D01*
X69404604Y-95629500D01*
X69357155Y-95620062D01*
X69333497Y-95610263D01*
X69333493Y-95610262D01*
X69333488Y-95610260D01*
X69178845Y-95579500D01*
X69178842Y-95579500D01*
X69021158Y-95579500D01*
X69021155Y-95579500D01*
X68866510Y-95610261D01*
X68866498Y-95610264D01*
X68720827Y-95670602D01*
X68720814Y-95670609D01*
X68589711Y-95758210D01*
X68589707Y-95758213D01*
X68478213Y-95869707D01*
X68478210Y-95869711D01*
X68390609Y-96000814D01*
X68390602Y-96000827D01*
X68330264Y-96146498D01*
X68330261Y-96146510D01*
X68299500Y-96301153D01*
X68299500Y-96458841D01*
X68305958Y-96491310D01*
X68299729Y-96560902D01*
X68256866Y-96616078D01*
X68190976Y-96639322D01*
X68184340Y-96639500D01*
X65004604Y-96639500D01*
X64957155Y-96630062D01*
X64933497Y-96620263D01*
X64933493Y-96620262D01*
X64933488Y-96620260D01*
X64778845Y-96589500D01*
X64778842Y-96589500D01*
X64621158Y-96589500D01*
X64621155Y-96589500D01*
X64466510Y-96620261D01*
X64466498Y-96620264D01*
X64320827Y-96680602D01*
X64320814Y-96680609D01*
X64189711Y-96768210D01*
X64189707Y-96768213D01*
X64078213Y-96879707D01*
X64078210Y-96879711D01*
X63990609Y-97010814D01*
X63990602Y-97010827D01*
X63930264Y-97156498D01*
X63930261Y-97156510D01*
X63899500Y-97311153D01*
X63899500Y-97468841D01*
X63903969Y-97491310D01*
X63897740Y-97560901D01*
X63854877Y-97616078D01*
X63788987Y-97639322D01*
X63782351Y-97639500D01*
X60104604Y-97639500D01*
X60057155Y-97630062D01*
X60033497Y-97620263D01*
X60033493Y-97620262D01*
X60033488Y-97620260D01*
X59878845Y-97589500D01*
X59878842Y-97589500D01*
X59721158Y-97589500D01*
X59721155Y-97589500D01*
X59566510Y-97620261D01*
X59566498Y-97620264D01*
X59420827Y-97680602D01*
X59420814Y-97680609D01*
X59289711Y-97768210D01*
X59289707Y-97768213D01*
X59178213Y-97879707D01*
X59178210Y-97879711D01*
X59090609Y-98010814D01*
X59090602Y-98010827D01*
X59030264Y-98156498D01*
X59030261Y-98156510D01*
X58999500Y-98311153D01*
X58999500Y-98468841D01*
X59005958Y-98501310D01*
X58999729Y-98570902D01*
X58956866Y-98626078D01*
X58890976Y-98649322D01*
X58884340Y-98649500D01*
X56366080Y-98649500D01*
X56221092Y-98678340D01*
X56221086Y-98678342D01*
X56084508Y-98734914D01*
X56084496Y-98734921D01*
X56035269Y-98767813D01*
X55961588Y-98817044D01*
X55961580Y-98817050D01*
X54757526Y-100021104D01*
X54726141Y-100043907D01*
X54562182Y-100127449D01*
X54390213Y-100252390D01*
X54239890Y-100402713D01*
X54114951Y-100574679D01*
X54018444Y-100764085D01*
X53952753Y-100966260D01*
X53919500Y-101176213D01*
X42870500Y-101176213D01*
X42870500Y-97581481D01*
X42890185Y-97514442D01*
X42942989Y-97468687D01*
X43012147Y-97458743D01*
X43075703Y-97487768D01*
X43091448Y-97504170D01*
X43116490Y-97535573D01*
X43116494Y-97535577D01*
X43116495Y-97535578D01*
X43330970Y-97750053D01*
X43568110Y-97939166D01*
X43824933Y-98100539D01*
X44098209Y-98232142D01*
X44266010Y-98290858D01*
X44384490Y-98332316D01*
X44384502Y-98332320D01*
X44680211Y-98399814D01*
X44680220Y-98399815D01*
X44680225Y-98399816D01*
X44881148Y-98422454D01*
X44981611Y-98433773D01*
X44981614Y-98433774D01*
X44981617Y-98433774D01*
X45284934Y-98433774D01*
X45284935Y-98433773D01*
X45438968Y-98416418D01*
X45586322Y-98399816D01*
X45586325Y-98399815D01*
X45586337Y-98399814D01*
X45882046Y-98332320D01*
X46168339Y-98232142D01*
X46441615Y-98100539D01*
X46698438Y-97939166D01*
X46935578Y-97750053D01*
X47150053Y-97535578D01*
X47339166Y-97298438D01*
X47500539Y-97041615D01*
X47632142Y-96768339D01*
X47732320Y-96482046D01*
X47799814Y-96186337D01*
X47804302Y-96146510D01*
X47833773Y-95884937D01*
X47833774Y-95884933D01*
X47833774Y-95581614D01*
X47833773Y-95581610D01*
X47799816Y-95280225D01*
X47799815Y-95280220D01*
X47799814Y-95280211D01*
X47732320Y-94984502D01*
X47632142Y-94698209D01*
X47500539Y-94424933D01*
X47339166Y-94168110D01*
X47150053Y-93930970D01*
X46935578Y-93716495D01*
X46935571Y-93716488D01*
X46891630Y-93681447D01*
X46851489Y-93624259D01*
X46848639Y-93554448D01*
X46883984Y-93494178D01*
X46946303Y-93462584D01*
X46968942Y-93460500D01*
X169726207Y-93460500D01*
X169726837Y-93460685D01*
G37*
%TD.AperFunction*%
%TD*%
M02*
