%TF.GenerationSoftware,KiCad,Pcbnew,9.0.2*%
%TF.CreationDate,2025-06-20T14:11:32+05:30*%
%TF.ProjectId,clock,636c6f63-6b2e-46b6-9963-61645f706362,rev?*%
%TF.SameCoordinates,Original*%
%TF.FileFunction,Soldermask,Top*%
%TF.FilePolarity,Negative*%
%FSLAX46Y46*%
G04 Gerber Fmt 4.6, Leading zero omitted, Abs format (unit mm)*
G04 Created by KiCad (PCBNEW 9.0.2) date 2025-06-20 14:11:32*
%MOMM*%
%LPD*%
G01*
G04 APERTURE LIST*
G04 Aperture macros list*
%AMRoundRect*
0 Rectangle with rounded corners*
0 $1 Rounding radius*
0 $2 $3 $4 $5 $6 $7 $8 $9 X,Y pos of 4 corners*
0 Add a 4 corners polygon primitive as box body*
4,1,4,$2,$3,$4,$5,$6,$7,$8,$9,$2,$3,0*
0 Add four circle primitives for the rounded corners*
1,1,$1+$1,$2,$3*
1,1,$1+$1,$4,$5*
1,1,$1+$1,$6,$7*
1,1,$1+$1,$8,$9*
0 Add four rect primitives between the rounded corners*
20,1,$1+$1,$2,$3,$4,$5,0*
20,1,$1+$1,$4,$5,$6,$7,0*
20,1,$1+$1,$6,$7,$8,$9,0*
20,1,$1+$1,$8,$9,$2,$3,0*%
G04 Aperture macros list end*
%ADD10C,1.700000*%
%ADD11R,1.700000X1.700000*%
%ADD12R,1.350000X1.350000*%
%ADD13C,1.350000*%
%ADD14C,0.700000*%
%ADD15C,4.400000*%
%ADD16R,1.800000X1.800000*%
%ADD17C,1.800000*%
%ADD18C,2.000000*%
%ADD19RoundRect,0.250000X-0.550000X0.550000X-0.550000X-0.550000X0.550000X-0.550000X0.550000X0.550000X0*%
%ADD20C,1.600000*%
%ADD21R,2.000000X4.600000*%
%ADD22O,2.000000X4.200000*%
%ADD23O,4.200000X2.000000*%
G04 APERTURE END LIST*
D10*
%TO.C,J5*%
X145370000Y-94230000D03*
X142830000Y-94230000D03*
X140290000Y-94230000D03*
X137750000Y-94230000D03*
X135210000Y-94230000D03*
D11*
X132670000Y-94230000D03*
%TD*%
D12*
%TO.C,J4*%
X164850000Y-96800000D03*
D13*
X166850000Y-96800000D03*
%TD*%
D11*
%TO.C,J2*%
X136510000Y-143080000D03*
D10*
X139050000Y-143080000D03*
X141590000Y-143080000D03*
X144130000Y-143080000D03*
X146670000Y-143080000D03*
%TD*%
D14*
%TO.C,REF\u002A\u002A*%
X169820000Y-144260000D03*
X170303274Y-143093274D03*
X170303274Y-145426726D03*
X171470000Y-142610000D03*
D15*
X171470000Y-144260000D03*
D14*
X171470000Y-145910000D03*
X172636726Y-143093274D03*
X172636726Y-145426726D03*
X173120000Y-144260000D03*
%TD*%
D11*
%TO.C,U5*%
X149035000Y-136537500D03*
D10*
X151575000Y-136537500D03*
X154115000Y-136537500D03*
X156655000Y-136537500D03*
X159195000Y-136537500D03*
X159105000Y-101187500D03*
X156565000Y-101187500D03*
X154025000Y-101187500D03*
X151485000Y-101187500D03*
X148945000Y-101187500D03*
%TD*%
D16*
%TO.C,D2*%
X106060000Y-127250000D03*
D17*
X108600000Y-127250000D03*
%TD*%
D14*
%TO.C,REF\u002A\u002A*%
X43350000Y-95080000D03*
X43833274Y-93913274D03*
X43833274Y-96246726D03*
X45000000Y-93430000D03*
D15*
X45000000Y-95080000D03*
D14*
X45000000Y-96730000D03*
X46166726Y-93913274D03*
X46166726Y-96246726D03*
X46650000Y-95080000D03*
%TD*%
D11*
%TO.C,U1*%
X55360000Y-136632500D03*
D10*
X57900000Y-136632500D03*
X60440000Y-136632500D03*
X62980000Y-136632500D03*
X65520000Y-136632500D03*
X65430000Y-101282500D03*
X62890000Y-101282500D03*
X60350000Y-101282500D03*
X57810000Y-101282500D03*
X55270000Y-101282500D03*
%TD*%
D11*
%TO.C,U2*%
X84740000Y-136640000D03*
D10*
X87280000Y-136640000D03*
X89820000Y-136640000D03*
X92360000Y-136640000D03*
X94900000Y-136640000D03*
X94810000Y-101290000D03*
X92270000Y-101290000D03*
X89730000Y-101290000D03*
X87190000Y-101290000D03*
X84650000Y-101290000D03*
%TD*%
D16*
%TO.C,D1*%
X106100000Y-107680000D03*
D17*
X108640000Y-107680000D03*
%TD*%
D11*
%TO.C,U3*%
X119515000Y-136585000D03*
D10*
X122055000Y-136585000D03*
X124595000Y-136585000D03*
X127135000Y-136585000D03*
X129675000Y-136585000D03*
X129585000Y-101235000D03*
X127045000Y-101235000D03*
X124505000Y-101235000D03*
X121965000Y-101235000D03*
X119425000Y-101235000D03*
%TD*%
D14*
%TO.C,REF\u002A\u002A*%
X169780000Y-95040000D03*
X170263274Y-93873274D03*
X170263274Y-96206726D03*
X171430000Y-93390000D03*
D15*
X171430000Y-95040000D03*
D14*
X171430000Y-96690000D03*
X172596726Y-93873274D03*
X172596726Y-96206726D03*
X173080000Y-95040000D03*
%TD*%
%TO.C,REF\u002A\u002A*%
X43263274Y-144226726D03*
X43746548Y-143060000D03*
X43746548Y-145393452D03*
X44913274Y-142576726D03*
D15*
X44913274Y-144226726D03*
D14*
X44913274Y-145876726D03*
X46080000Y-143060000D03*
X46080000Y-145393452D03*
X46563274Y-144226726D03*
%TD*%
D11*
%TO.C,J3*%
X164400000Y-143800000D03*
D10*
X161860000Y-143800000D03*
X159320000Y-143800000D03*
X156780000Y-143800000D03*
X154240000Y-143800000D03*
X151700000Y-143800000D03*
%TD*%
D17*
%TO.C,SW1*%
X171450000Y-134650000D03*
X171450000Y-139150000D03*
D18*
X168950000Y-133400000D03*
X168950000Y-140400000D03*
%TD*%
D19*
%TO.C,U6*%
X113750000Y-114950000D03*
D20*
X116290000Y-114950000D03*
X118830000Y-114950000D03*
X121370000Y-114950000D03*
X123910000Y-114950000D03*
X126450000Y-114950000D03*
X128990000Y-114950000D03*
X131530000Y-114950000D03*
X134070000Y-114950000D03*
X136610000Y-114950000D03*
X139150000Y-114950000D03*
X141690000Y-114950000D03*
X141690000Y-122570000D03*
X139150000Y-122570000D03*
X136610000Y-122570000D03*
X134070000Y-122570000D03*
X131530000Y-122570000D03*
X128990000Y-122570000D03*
X126450000Y-122570000D03*
X123910000Y-122570000D03*
X121370000Y-122570000D03*
X118830000Y-122570000D03*
X116290000Y-122570000D03*
X113750000Y-122570000D03*
%TD*%
%TO.C,C3*%
X68590000Y-113327500D03*
X68590000Y-110827500D03*
%TD*%
D21*
%TO.C,J1*%
X56940000Y-109150000D03*
D22*
X50640000Y-109150000D03*
D23*
X54040000Y-104350000D03*
%TD*%
D20*
%TO.C,C9*%
X87100000Y-126700000D03*
X84600000Y-126700000D03*
%TD*%
M02*
