M48
; DRILL file {KiCad 9.0.2} date 2025-06-17T23:20:12+0530
; FORMAT={-:-/ absolute / metric / decimal}
; #@! TF.CreationDate,2025-06-17T23:20:12+05:30
; #@! TF.GenerationSoftware,Kicad,Pcbnew,9.0.2
; #@! TF.FileFunction,Plated,1,2,PTH
FMAT,2
METRIC
; #@! TA.AperFunction,Plated,PTH,ViaDrill
T1C0.300
; #@! TA.AperFunction,Plated,PTH,ComponentDrill
T2C0.300
; #@! TA.AperFunction,Plated,PTH,ComponentDrill
T3C0.400
; #@! TA.AperFunction,Plated,PTH,ComponentDrill
T4C0.800
; #@! TA.AperFunction,Plated,PTH,ComponentDrill
T5C0.900
; #@! TA.AperFunction,Plated,PTH,ComponentDrill
T6C1.000
; #@! TA.AperFunction,Plated,PTH,ComponentDrill
T7C1.200
; #@! TA.AperFunction,Plated,PTH,ComponentDrill
T8C2.200
%
G90
G05
T1
X56.62Y-121.847
X57.52Y-121.847
X59.8Y-98.39
X64.7Y-97.39
X65.38Y-115.45
X67.69Y-125.57
X69.1Y-96.38
X81.5Y-116.8
X83.2Y-122.1
X83.99Y-98.39
X86.3Y-97.39
X88.59Y-96.38
X90.34Y-140.34
X92.24Y-105.3
X92.62Y-139.4
X92.96Y-116.48
X96.26Y-112.99
X99.5Y-112.3
X101.47Y-116.38
X117.48Y-98.39
X121.3Y-117.36
X122.32Y-97.39
X124.671Y-140.34
X125.25Y-120.77
X125.82Y-96.38
X127.82Y-130.07
X128.44Y-139.39
X134.08Y-106.51
X145.0Y-126.8
X149.91Y-140.31
X153.22Y-139.39
X153.44Y-122.69
X153.8Y-124.0
X155.5Y-132.53
X161.12Y-136.38
X162.15Y-135.5
X162.9Y-130.6
X163.59Y-127.95
X164.58Y-109.95
X165.85Y-109.94
X169.65Y-110.14
X169.66Y-124.38
T2
X160.795Y-116.897
X160.795Y-118.422
X161.558Y-116.135
X161.558Y-117.66
X161.558Y-119.185
X162.32Y-116.897
X162.32Y-118.422
X163.082Y-116.135
X163.082Y-117.66
X163.082Y-119.185
X163.845Y-116.897
X163.845Y-118.422
T3
X43.483Y-95.733
X43.8Y-143.74
X43.967Y-94.567
X43.967Y-96.9
X44.283Y-142.573
X44.283Y-144.907
X45.133Y-94.083
X45.133Y-97.383
X45.45Y-142.09
X45.45Y-145.39
X46.3Y-94.567
X46.3Y-96.9
X46.617Y-142.573
X46.617Y-144.907
X46.783Y-95.733
X47.1Y-143.74
X169.6Y-144.0
X169.7Y-95.9
X170.083Y-142.833
X170.083Y-145.167
X170.183Y-94.733
X170.183Y-97.067
X171.25Y-142.35
X171.25Y-145.65
X171.35Y-94.25
X171.35Y-97.55
X172.417Y-142.833
X172.417Y-145.167
X172.517Y-94.733
X172.517Y-97.067
X172.9Y-144.0
X173.0Y-95.9
T4
X68.59Y-110.828
X68.59Y-113.328
X84.6Y-126.7
X87.1Y-126.7
X113.75Y-114.95
X113.75Y-122.57
X116.29Y-114.95
X116.29Y-122.57
X118.83Y-114.95
X118.83Y-122.57
X121.37Y-114.95
X121.37Y-122.57
X123.91Y-114.95
X123.91Y-122.57
X126.45Y-114.95
X126.45Y-122.57
X128.99Y-114.95
X128.99Y-122.57
X131.53Y-114.95
X131.53Y-122.57
X134.07Y-114.95
X134.07Y-122.57
X136.61Y-114.95
X136.61Y-122.57
X139.15Y-114.95
X139.15Y-122.57
X141.69Y-114.95
X141.69Y-122.57
T5
X106.06Y-127.25
X106.1Y-107.68
X108.6Y-127.25
X108.64Y-107.68
T6
X55.27Y-101.282
X55.36Y-136.632
X57.81Y-101.282
X57.9Y-136.632
X60.35Y-101.282
X60.44Y-136.632
X62.89Y-101.282
X62.98Y-136.632
X65.43Y-101.282
X65.52Y-136.632
X84.65Y-101.29
X84.74Y-136.64
X87.19Y-101.29
X87.28Y-136.64
X89.73Y-101.29
X89.82Y-136.64
X92.27Y-101.29
X92.36Y-136.64
X94.81Y-101.29
X94.9Y-136.64
X119.425Y-101.235
X119.515Y-136.585
X121.965Y-101.235
X122.055Y-136.585
X124.505Y-101.235
X124.595Y-136.585
X127.045Y-101.235
X127.135Y-136.585
X129.585Y-101.235
X129.675Y-136.585
X148.945Y-101.188
X149.035Y-136.537
X151.485Y-101.188
X151.575Y-136.537
X154.025Y-101.188
X154.115Y-136.537
X156.565Y-101.188
X156.655Y-136.537
X157.33Y-141.27
X157.33Y-143.81
X159.105Y-101.188
X159.195Y-136.537
X159.87Y-141.27
X159.87Y-143.81
X162.41Y-141.27
X162.41Y-143.81
X171.45Y-134.65
X171.45Y-139.15
T7
X168.95Y-133.4
X168.95Y-140.4
T8
X45.133Y-95.733
X45.45Y-143.74
X171.25Y-144.0
X171.35Y-95.9
T6
G00X52.26Y-110.337
M15
G01X52.26Y-108.137
M16
G05
G00X54.56Y-104.438
M15
G01X56.76Y-104.438
M16
G05
G00X58.56Y-110.537
M15
G01X58.56Y-107.938
M16
G05
M30
