%TF.GenerationSoftware,KiCad,Pcbnew,9.0.2*%
%TF.CreationDate,2025-06-17T23:20:14+05:30*%
%TF.ProjectId,clock,636c6f63-6b2e-46b6-9963-61645f706362,rev?*%
%TF.SameCoordinates,Original*%
%TF.FileFunction,Legend,Top*%
%TF.FilePolarity,Positive*%
%FSLAX46Y46*%
G04 Gerber Fmt 4.6, Leading zero omitted, Abs format (unit mm)*
G04 Created by KiCad (PCBNEW 9.0.2) date 2025-06-17 23:20:14*
%MOMM*%
%LPD*%
G01*
G04 APERTURE LIST*
%ADD10C,0.150000*%
%ADD11C,0.100000*%
%ADD12C,0.120000*%
G04 APERTURE END LIST*
D10*
X169916666Y-141304819D02*
X169583333Y-140828628D01*
X169345238Y-141304819D02*
X169345238Y-140304819D01*
X169345238Y-140304819D02*
X169726190Y-140304819D01*
X169726190Y-140304819D02*
X169821428Y-140352438D01*
X169821428Y-140352438D02*
X169869047Y-140400057D01*
X169869047Y-140400057D02*
X169916666Y-140495295D01*
X169916666Y-140495295D02*
X169916666Y-140638152D01*
X169916666Y-140638152D02*
X169869047Y-140733390D01*
X169869047Y-140733390D02*
X169821428Y-140781009D01*
X169821428Y-140781009D02*
X169726190Y-140828628D01*
X169726190Y-140828628D02*
X169345238Y-140828628D01*
X170345238Y-140781009D02*
X170678571Y-140781009D01*
X170821428Y-141304819D02*
X170345238Y-141304819D01*
X170345238Y-141304819D02*
X170345238Y-140304819D01*
X170345238Y-140304819D02*
X170821428Y-140304819D01*
X171583333Y-140781009D02*
X171250000Y-140781009D01*
X171250000Y-141304819D02*
X171250000Y-140304819D01*
X171250000Y-140304819D02*
X171726190Y-140304819D01*
X172250000Y-140304819D02*
X172250000Y-140542914D01*
X172011905Y-140447676D02*
X172250000Y-140542914D01*
X172250000Y-140542914D02*
X172488095Y-140447676D01*
X172107143Y-140733390D02*
X172250000Y-140542914D01*
X172250000Y-140542914D02*
X172392857Y-140733390D01*
X173011905Y-140304819D02*
X173011905Y-140542914D01*
X172773810Y-140447676D02*
X173011905Y-140542914D01*
X173011905Y-140542914D02*
X173250000Y-140447676D01*
X172869048Y-140733390D02*
X173011905Y-140542914D01*
X173011905Y-140542914D02*
X173154762Y-140733390D01*
X138119819Y-138039404D02*
X138929342Y-138039404D01*
X138929342Y-138039404D02*
X139024580Y-137991785D01*
X139024580Y-137991785D02*
X139072200Y-137944166D01*
X139072200Y-137944166D02*
X139119819Y-137848928D01*
X139119819Y-137848928D02*
X139119819Y-137658452D01*
X139119819Y-137658452D02*
X139072200Y-137563214D01*
X139072200Y-137563214D02*
X139024580Y-137515595D01*
X139024580Y-137515595D02*
X138929342Y-137467976D01*
X138929342Y-137467976D02*
X138119819Y-137467976D01*
X138119819Y-136515595D02*
X138119819Y-136991785D01*
X138119819Y-136991785D02*
X138596009Y-137039404D01*
X138596009Y-137039404D02*
X138548390Y-136991785D01*
X138548390Y-136991785D02*
X138500771Y-136896547D01*
X138500771Y-136896547D02*
X138500771Y-136658452D01*
X138500771Y-136658452D02*
X138548390Y-136563214D01*
X138548390Y-136563214D02*
X138596009Y-136515595D01*
X138596009Y-136515595D02*
X138691247Y-136467976D01*
X138691247Y-136467976D02*
X138929342Y-136467976D01*
X138929342Y-136467976D02*
X139024580Y-136515595D01*
X139024580Y-136515595D02*
X139072200Y-136563214D01*
X139072200Y-136563214D02*
X139119819Y-136658452D01*
X139119819Y-136658452D02*
X139119819Y-136896547D01*
X139119819Y-136896547D02*
X139072200Y-136991785D01*
X139072200Y-136991785D02*
X139024580Y-137039404D01*
X106591905Y-124744819D02*
X106591905Y-123744819D01*
X106591905Y-123744819D02*
X106830000Y-123744819D01*
X106830000Y-123744819D02*
X106972857Y-123792438D01*
X106972857Y-123792438D02*
X107068095Y-123887676D01*
X107068095Y-123887676D02*
X107115714Y-123982914D01*
X107115714Y-123982914D02*
X107163333Y-124173390D01*
X107163333Y-124173390D02*
X107163333Y-124316247D01*
X107163333Y-124316247D02*
X107115714Y-124506723D01*
X107115714Y-124506723D02*
X107068095Y-124601961D01*
X107068095Y-124601961D02*
X106972857Y-124697200D01*
X106972857Y-124697200D02*
X106830000Y-124744819D01*
X106830000Y-124744819D02*
X106591905Y-124744819D01*
X107544286Y-123840057D02*
X107591905Y-123792438D01*
X107591905Y-123792438D02*
X107687143Y-123744819D01*
X107687143Y-123744819D02*
X107925238Y-123744819D01*
X107925238Y-123744819D02*
X108020476Y-123792438D01*
X108020476Y-123792438D02*
X108068095Y-123840057D01*
X108068095Y-123840057D02*
X108115714Y-123935295D01*
X108115714Y-123935295D02*
X108115714Y-124030533D01*
X108115714Y-124030533D02*
X108068095Y-124173390D01*
X108068095Y-124173390D02*
X107496667Y-124744819D01*
X107496667Y-124744819D02*
X108115714Y-124744819D01*
X43799940Y-93038093D02*
X43466607Y-92561902D01*
X43228512Y-93038093D02*
X43228512Y-92038093D01*
X43228512Y-92038093D02*
X43609464Y-92038093D01*
X43609464Y-92038093D02*
X43704702Y-92085712D01*
X43704702Y-92085712D02*
X43752321Y-92133331D01*
X43752321Y-92133331D02*
X43799940Y-92228569D01*
X43799940Y-92228569D02*
X43799940Y-92371426D01*
X43799940Y-92371426D02*
X43752321Y-92466664D01*
X43752321Y-92466664D02*
X43704702Y-92514283D01*
X43704702Y-92514283D02*
X43609464Y-92561902D01*
X43609464Y-92561902D02*
X43228512Y-92561902D01*
X44228512Y-92514283D02*
X44561845Y-92514283D01*
X44704702Y-93038093D02*
X44228512Y-93038093D01*
X44228512Y-93038093D02*
X44228512Y-92038093D01*
X44228512Y-92038093D02*
X44704702Y-92038093D01*
X45466607Y-92514283D02*
X45133274Y-92514283D01*
X45133274Y-93038093D02*
X45133274Y-92038093D01*
X45133274Y-92038093D02*
X45609464Y-92038093D01*
X46133274Y-92038093D02*
X46133274Y-92276188D01*
X45895179Y-92180950D02*
X46133274Y-92276188D01*
X46133274Y-92276188D02*
X46371369Y-92180950D01*
X45990417Y-92466664D02*
X46133274Y-92276188D01*
X46133274Y-92276188D02*
X46276131Y-92466664D01*
X46895179Y-92038093D02*
X46895179Y-92276188D01*
X46657084Y-92180950D02*
X46895179Y-92276188D01*
X46895179Y-92276188D02*
X47133274Y-92180950D01*
X46752322Y-92466664D02*
X46895179Y-92276188D01*
X46895179Y-92276188D02*
X47038036Y-92466664D01*
X44374819Y-139004404D02*
X45184342Y-139004404D01*
X45184342Y-139004404D02*
X45279580Y-138956785D01*
X45279580Y-138956785D02*
X45327200Y-138909166D01*
X45327200Y-138909166D02*
X45374819Y-138813928D01*
X45374819Y-138813928D02*
X45374819Y-138623452D01*
X45374819Y-138623452D02*
X45327200Y-138528214D01*
X45327200Y-138528214D02*
X45279580Y-138480595D01*
X45279580Y-138480595D02*
X45184342Y-138432976D01*
X45184342Y-138432976D02*
X44374819Y-138432976D01*
X45374819Y-137432976D02*
X45374819Y-138004404D01*
X45374819Y-137718690D02*
X44374819Y-137718690D01*
X44374819Y-137718690D02*
X44517676Y-137813928D01*
X44517676Y-137813928D02*
X44612914Y-137909166D01*
X44612914Y-137909166D02*
X44660533Y-138004404D01*
X73754819Y-138941904D02*
X74564342Y-138941904D01*
X74564342Y-138941904D02*
X74659580Y-138894285D01*
X74659580Y-138894285D02*
X74707200Y-138846666D01*
X74707200Y-138846666D02*
X74754819Y-138751428D01*
X74754819Y-138751428D02*
X74754819Y-138560952D01*
X74754819Y-138560952D02*
X74707200Y-138465714D01*
X74707200Y-138465714D02*
X74659580Y-138418095D01*
X74659580Y-138418095D02*
X74564342Y-138370476D01*
X74564342Y-138370476D02*
X73754819Y-138370476D01*
X73850057Y-137941904D02*
X73802438Y-137894285D01*
X73802438Y-137894285D02*
X73754819Y-137799047D01*
X73754819Y-137799047D02*
X73754819Y-137560952D01*
X73754819Y-137560952D02*
X73802438Y-137465714D01*
X73802438Y-137465714D02*
X73850057Y-137418095D01*
X73850057Y-137418095D02*
X73945295Y-137370476D01*
X73945295Y-137370476D02*
X74040533Y-137370476D01*
X74040533Y-137370476D02*
X74183390Y-137418095D01*
X74183390Y-137418095D02*
X74754819Y-137989523D01*
X74754819Y-137989523D02*
X74754819Y-137370476D01*
X106631905Y-105174819D02*
X106631905Y-104174819D01*
X106631905Y-104174819D02*
X106870000Y-104174819D01*
X106870000Y-104174819D02*
X107012857Y-104222438D01*
X107012857Y-104222438D02*
X107108095Y-104317676D01*
X107108095Y-104317676D02*
X107155714Y-104412914D01*
X107155714Y-104412914D02*
X107203333Y-104603390D01*
X107203333Y-104603390D02*
X107203333Y-104746247D01*
X107203333Y-104746247D02*
X107155714Y-104936723D01*
X107155714Y-104936723D02*
X107108095Y-105031961D01*
X107108095Y-105031961D02*
X107012857Y-105127200D01*
X107012857Y-105127200D02*
X106870000Y-105174819D01*
X106870000Y-105174819D02*
X106631905Y-105174819D01*
X108155714Y-105174819D02*
X107584286Y-105174819D01*
X107870000Y-105174819D02*
X107870000Y-104174819D01*
X107870000Y-104174819D02*
X107774762Y-104317676D01*
X107774762Y-104317676D02*
X107679524Y-104412914D01*
X107679524Y-104412914D02*
X107584286Y-104460533D01*
X108864819Y-139276904D02*
X109674342Y-139276904D01*
X109674342Y-139276904D02*
X109769580Y-139229285D01*
X109769580Y-139229285D02*
X109817200Y-139181666D01*
X109817200Y-139181666D02*
X109864819Y-139086428D01*
X109864819Y-139086428D02*
X109864819Y-138895952D01*
X109864819Y-138895952D02*
X109817200Y-138800714D01*
X109817200Y-138800714D02*
X109769580Y-138753095D01*
X109769580Y-138753095D02*
X109674342Y-138705476D01*
X109674342Y-138705476D02*
X108864819Y-138705476D01*
X108864819Y-138324523D02*
X108864819Y-137705476D01*
X108864819Y-137705476D02*
X109245771Y-138038809D01*
X109245771Y-138038809D02*
X109245771Y-137895952D01*
X109245771Y-137895952D02*
X109293390Y-137800714D01*
X109293390Y-137800714D02*
X109341009Y-137753095D01*
X109341009Y-137753095D02*
X109436247Y-137705476D01*
X109436247Y-137705476D02*
X109674342Y-137705476D01*
X109674342Y-137705476D02*
X109769580Y-137753095D01*
X109769580Y-137753095D02*
X109817200Y-137800714D01*
X109817200Y-137800714D02*
X109864819Y-137895952D01*
X109864819Y-137895952D02*
X109864819Y-138181666D01*
X109864819Y-138181666D02*
X109817200Y-138276904D01*
X109817200Y-138276904D02*
X109769580Y-138324523D01*
X166016666Y-94174819D02*
X165683333Y-93698628D01*
X165445238Y-94174819D02*
X165445238Y-93174819D01*
X165445238Y-93174819D02*
X165826190Y-93174819D01*
X165826190Y-93174819D02*
X165921428Y-93222438D01*
X165921428Y-93222438D02*
X165969047Y-93270057D01*
X165969047Y-93270057D02*
X166016666Y-93365295D01*
X166016666Y-93365295D02*
X166016666Y-93508152D01*
X166016666Y-93508152D02*
X165969047Y-93603390D01*
X165969047Y-93603390D02*
X165921428Y-93651009D01*
X165921428Y-93651009D02*
X165826190Y-93698628D01*
X165826190Y-93698628D02*
X165445238Y-93698628D01*
X166445238Y-93651009D02*
X166778571Y-93651009D01*
X166921428Y-94174819D02*
X166445238Y-94174819D01*
X166445238Y-94174819D02*
X166445238Y-93174819D01*
X166445238Y-93174819D02*
X166921428Y-93174819D01*
X167683333Y-93651009D02*
X167350000Y-93651009D01*
X167350000Y-94174819D02*
X167350000Y-93174819D01*
X167350000Y-93174819D02*
X167826190Y-93174819D01*
X168350000Y-93174819D02*
X168350000Y-93412914D01*
X168111905Y-93317676D02*
X168350000Y-93412914D01*
X168350000Y-93412914D02*
X168588095Y-93317676D01*
X168207143Y-93603390D02*
X168350000Y-93412914D01*
X168350000Y-93412914D02*
X168492857Y-93603390D01*
X169111905Y-93174819D02*
X169111905Y-93412914D01*
X168873810Y-93317676D02*
X169111905Y-93412914D01*
X169111905Y-93412914D02*
X169350000Y-93317676D01*
X168969048Y-93603390D02*
X169111905Y-93412914D01*
X169111905Y-93412914D02*
X169254762Y-93603390D01*
X42256666Y-141002319D02*
X41923333Y-140526128D01*
X41685238Y-141002319D02*
X41685238Y-140002319D01*
X41685238Y-140002319D02*
X42066190Y-140002319D01*
X42066190Y-140002319D02*
X42161428Y-140049938D01*
X42161428Y-140049938D02*
X42209047Y-140097557D01*
X42209047Y-140097557D02*
X42256666Y-140192795D01*
X42256666Y-140192795D02*
X42256666Y-140335652D01*
X42256666Y-140335652D02*
X42209047Y-140430890D01*
X42209047Y-140430890D02*
X42161428Y-140478509D01*
X42161428Y-140478509D02*
X42066190Y-140526128D01*
X42066190Y-140526128D02*
X41685238Y-140526128D01*
X42685238Y-140478509D02*
X43018571Y-140478509D01*
X43161428Y-141002319D02*
X42685238Y-141002319D01*
X42685238Y-141002319D02*
X42685238Y-140002319D01*
X42685238Y-140002319D02*
X43161428Y-140002319D01*
X43923333Y-140478509D02*
X43590000Y-140478509D01*
X43590000Y-141002319D02*
X43590000Y-140002319D01*
X43590000Y-140002319D02*
X44066190Y-140002319D01*
X44590000Y-140002319D02*
X44590000Y-140240414D01*
X44351905Y-140145176D02*
X44590000Y-140240414D01*
X44590000Y-140240414D02*
X44828095Y-140145176D01*
X44447143Y-140430890D02*
X44590000Y-140240414D01*
X44590000Y-140240414D02*
X44732857Y-140430890D01*
X45351905Y-140002319D02*
X45351905Y-140240414D01*
X45113810Y-140145176D02*
X45351905Y-140240414D01*
X45351905Y-140240414D02*
X45590000Y-140145176D01*
X45209048Y-140430890D02*
X45351905Y-140240414D01*
X45351905Y-140240414D02*
X45494762Y-140430890D01*
D11*
%TO.C,U5*%
X139745000Y-98567500D02*
X168545000Y-98567500D01*
X139745000Y-139377500D02*
X139745000Y-98577500D01*
X168545000Y-98577500D02*
X168545000Y-139377500D01*
X168545000Y-139377500D02*
X139745000Y-139377500D01*
D12*
%TO.C,D2*%
X105770000Y-126014000D02*
X105770000Y-126170000D01*
X105770000Y-128330000D02*
X105770000Y-128486000D01*
X105770000Y-126014484D02*
G75*
G02*
X109001437Y-126170000I1560000J-1235516D01*
G01*
X106289039Y-126170000D02*
G75*
G02*
X108370961Y-126170000I1040961J-1080000D01*
G01*
X108370961Y-128330000D02*
G75*
G02*
X106289039Y-128330000I-1040961J1080000D01*
G01*
X109001437Y-128330000D02*
G75*
G02*
X105770000Y-128485516I-1671437J1080000D01*
G01*
D11*
%TO.C,U1*%
X46070000Y-98662500D02*
X74870000Y-98662500D01*
X46070000Y-139472500D02*
X46070000Y-98672500D01*
X74870000Y-98672500D02*
X74870000Y-139472500D01*
X74870000Y-139472500D02*
X46070000Y-139472500D01*
%TO.C,U2*%
X75450000Y-98670000D02*
X104250000Y-98670000D01*
X75450000Y-139480000D02*
X75450000Y-98680000D01*
X104250000Y-98680000D02*
X104250000Y-139480000D01*
X104250000Y-139480000D02*
X75450000Y-139480000D01*
D12*
%TO.C,D1*%
X105810000Y-106444000D02*
X105810000Y-106600000D01*
X105810000Y-108760000D02*
X105810000Y-108916000D01*
X105810000Y-106444484D02*
G75*
G02*
X109041437Y-106600000I1560000J-1235516D01*
G01*
X106329039Y-106600000D02*
G75*
G02*
X108410961Y-106600000I1040961J-1080000D01*
G01*
X108410961Y-108760000D02*
G75*
G02*
X106329039Y-108760000I-1040961J1080000D01*
G01*
X109041437Y-108760000D02*
G75*
G02*
X105810000Y-108915516I-1671437J1080000D01*
G01*
D11*
%TO.C,U3*%
X110225000Y-98615000D02*
X139025000Y-98615000D01*
X110225000Y-139425000D02*
X110225000Y-98625000D01*
X139025000Y-98625000D02*
X139025000Y-139425000D01*
X139025000Y-139425000D02*
X110225000Y-139425000D01*
%TD*%
M02*
