%TF.GenerationSoftware,KiCad,Pcbnew,9.0.2*%
%TF.CreationDate,2025-06-17T23:20:14+05:30*%
%TF.ProjectId,clock,636c6f63-6b2e-46b6-9963-61645f706362,rev?*%
%TF.SameCoordinates,Original*%
%TF.FileFunction,Legend,Bot*%
%TF.FilePolarity,Positive*%
%FSLAX46Y46*%
G04 Gerber Fmt 4.6, Leading zero omitted, Abs format (unit mm)*
G04 Created by KiCad (PCBNEW 9.0.2) date 2025-06-17 23:20:14*
%MOMM*%
%LPD*%
G01*
G04 APERTURE LIST*
%ADD10C,0.150000*%
%ADD11C,0.120000*%
%ADD12C,0.203200*%
%ADD13C,0.050000*%
G04 APERTURE END LIST*
D10*
X85636666Y-113977080D02*
X85684285Y-114024700D01*
X85684285Y-114024700D02*
X85827142Y-114072319D01*
X85827142Y-114072319D02*
X85922380Y-114072319D01*
X85922380Y-114072319D02*
X86065237Y-114024700D01*
X86065237Y-114024700D02*
X86160475Y-113929461D01*
X86160475Y-113929461D02*
X86208094Y-113834223D01*
X86208094Y-113834223D02*
X86255713Y-113643747D01*
X86255713Y-113643747D02*
X86255713Y-113500890D01*
X86255713Y-113500890D02*
X86208094Y-113310414D01*
X86208094Y-113310414D02*
X86160475Y-113215176D01*
X86160475Y-113215176D02*
X86065237Y-113119938D01*
X86065237Y-113119938D02*
X85922380Y-113072319D01*
X85922380Y-113072319D02*
X85827142Y-113072319D01*
X85827142Y-113072319D02*
X85684285Y-113119938D01*
X85684285Y-113119938D02*
X85636666Y-113167557D01*
X84684285Y-114072319D02*
X85255713Y-114072319D01*
X84969999Y-114072319D02*
X84969999Y-113072319D01*
X84969999Y-113072319D02*
X85065237Y-113215176D01*
X85065237Y-113215176D02*
X85160475Y-113310414D01*
X85160475Y-113310414D02*
X85255713Y-113358033D01*
X153741904Y-127044819D02*
X153741904Y-127854342D01*
X153741904Y-127854342D02*
X153694285Y-127949580D01*
X153694285Y-127949580D02*
X153646666Y-127997200D01*
X153646666Y-127997200D02*
X153551428Y-128044819D01*
X153551428Y-128044819D02*
X153360952Y-128044819D01*
X153360952Y-128044819D02*
X153265714Y-127997200D01*
X153265714Y-127997200D02*
X153218095Y-127949580D01*
X153218095Y-127949580D02*
X153170476Y-127854342D01*
X153170476Y-127854342D02*
X153170476Y-127044819D01*
X152265714Y-127378152D02*
X152265714Y-128044819D01*
X152503809Y-126997200D02*
X152741904Y-127711485D01*
X152741904Y-127711485D02*
X152122857Y-127711485D01*
X89841904Y-104272319D02*
X89841904Y-105081842D01*
X89841904Y-105081842D02*
X89794285Y-105177080D01*
X89794285Y-105177080D02*
X89746666Y-105224700D01*
X89746666Y-105224700D02*
X89651428Y-105272319D01*
X89651428Y-105272319D02*
X89460952Y-105272319D01*
X89460952Y-105272319D02*
X89365714Y-105224700D01*
X89365714Y-105224700D02*
X89318095Y-105177080D01*
X89318095Y-105177080D02*
X89270476Y-105081842D01*
X89270476Y-105081842D02*
X89270476Y-104272319D01*
X88889523Y-104272319D02*
X88222857Y-104272319D01*
X88222857Y-104272319D02*
X88651428Y-105272319D01*
X110874819Y-117998095D02*
X111684342Y-117998095D01*
X111684342Y-117998095D02*
X111779580Y-118045714D01*
X111779580Y-118045714D02*
X111827200Y-118093333D01*
X111827200Y-118093333D02*
X111874819Y-118188571D01*
X111874819Y-118188571D02*
X111874819Y-118379047D01*
X111874819Y-118379047D02*
X111827200Y-118474285D01*
X111827200Y-118474285D02*
X111779580Y-118521904D01*
X111779580Y-118521904D02*
X111684342Y-118569523D01*
X111684342Y-118569523D02*
X110874819Y-118569523D01*
X110874819Y-119474285D02*
X110874819Y-119283809D01*
X110874819Y-119283809D02*
X110922438Y-119188571D01*
X110922438Y-119188571D02*
X110970057Y-119140952D01*
X110970057Y-119140952D02*
X111112914Y-119045714D01*
X111112914Y-119045714D02*
X111303390Y-118998095D01*
X111303390Y-118998095D02*
X111684342Y-118998095D01*
X111684342Y-118998095D02*
X111779580Y-119045714D01*
X111779580Y-119045714D02*
X111827200Y-119093333D01*
X111827200Y-119093333D02*
X111874819Y-119188571D01*
X111874819Y-119188571D02*
X111874819Y-119379047D01*
X111874819Y-119379047D02*
X111827200Y-119474285D01*
X111827200Y-119474285D02*
X111779580Y-119521904D01*
X111779580Y-119521904D02*
X111684342Y-119569523D01*
X111684342Y-119569523D02*
X111446247Y-119569523D01*
X111446247Y-119569523D02*
X111351009Y-119521904D01*
X111351009Y-119521904D02*
X111303390Y-119474285D01*
X111303390Y-119474285D02*
X111255771Y-119379047D01*
X111255771Y-119379047D02*
X111255771Y-119188571D01*
X111255771Y-119188571D02*
X111303390Y-119093333D01*
X111303390Y-119093333D02*
X111351009Y-119045714D01*
X111351009Y-119045714D02*
X111446247Y-118998095D01*
X73349580Y-111910833D02*
X73397200Y-111863214D01*
X73397200Y-111863214D02*
X73444819Y-111720357D01*
X73444819Y-111720357D02*
X73444819Y-111625119D01*
X73444819Y-111625119D02*
X73397200Y-111482262D01*
X73397200Y-111482262D02*
X73301961Y-111387024D01*
X73301961Y-111387024D02*
X73206723Y-111339405D01*
X73206723Y-111339405D02*
X73016247Y-111291786D01*
X73016247Y-111291786D02*
X72873390Y-111291786D01*
X72873390Y-111291786D02*
X72682914Y-111339405D01*
X72682914Y-111339405D02*
X72587676Y-111387024D01*
X72587676Y-111387024D02*
X72492438Y-111482262D01*
X72492438Y-111482262D02*
X72444819Y-111625119D01*
X72444819Y-111625119D02*
X72444819Y-111720357D01*
X72444819Y-111720357D02*
X72492438Y-111863214D01*
X72492438Y-111863214D02*
X72540057Y-111910833D01*
X72444819Y-112244167D02*
X72444819Y-112863214D01*
X72444819Y-112863214D02*
X72825771Y-112529881D01*
X72825771Y-112529881D02*
X72825771Y-112672738D01*
X72825771Y-112672738D02*
X72873390Y-112767976D01*
X72873390Y-112767976D02*
X72921009Y-112815595D01*
X72921009Y-112815595D02*
X73016247Y-112863214D01*
X73016247Y-112863214D02*
X73254342Y-112863214D01*
X73254342Y-112863214D02*
X73349580Y-112815595D01*
X73349580Y-112815595D02*
X73397200Y-112767976D01*
X73397200Y-112767976D02*
X73444819Y-112672738D01*
X73444819Y-112672738D02*
X73444819Y-112387024D01*
X73444819Y-112387024D02*
X73397200Y-112291786D01*
X73397200Y-112291786D02*
X73349580Y-112244167D01*
X150684819Y-147151666D02*
X151399104Y-147151666D01*
X151399104Y-147151666D02*
X151541961Y-147104047D01*
X151541961Y-147104047D02*
X151637200Y-147008809D01*
X151637200Y-147008809D02*
X151684819Y-146865952D01*
X151684819Y-146865952D02*
X151684819Y-146770714D01*
X150780057Y-147580238D02*
X150732438Y-147627857D01*
X150732438Y-147627857D02*
X150684819Y-147723095D01*
X150684819Y-147723095D02*
X150684819Y-147961190D01*
X150684819Y-147961190D02*
X150732438Y-148056428D01*
X150732438Y-148056428D02*
X150780057Y-148104047D01*
X150780057Y-148104047D02*
X150875295Y-148151666D01*
X150875295Y-148151666D02*
X150970533Y-148151666D01*
X150970533Y-148151666D02*
X151113390Y-148104047D01*
X151113390Y-148104047D02*
X151684819Y-147532619D01*
X151684819Y-147532619D02*
X151684819Y-148151666D01*
X53581904Y-114652319D02*
X53581904Y-115461842D01*
X53581904Y-115461842D02*
X53534285Y-115557080D01*
X53534285Y-115557080D02*
X53486666Y-115604700D01*
X53486666Y-115604700D02*
X53391428Y-115652319D01*
X53391428Y-115652319D02*
X53200952Y-115652319D01*
X53200952Y-115652319D02*
X53105714Y-115604700D01*
X53105714Y-115604700D02*
X53058095Y-115557080D01*
X53058095Y-115557080D02*
X53010476Y-115461842D01*
X53010476Y-115461842D02*
X53010476Y-114652319D01*
X52391428Y-115080890D02*
X52486666Y-115033271D01*
X52486666Y-115033271D02*
X52534285Y-114985652D01*
X52534285Y-114985652D02*
X52581904Y-114890414D01*
X52581904Y-114890414D02*
X52581904Y-114842795D01*
X52581904Y-114842795D02*
X52534285Y-114747557D01*
X52534285Y-114747557D02*
X52486666Y-114699938D01*
X52486666Y-114699938D02*
X52391428Y-114652319D01*
X52391428Y-114652319D02*
X52200952Y-114652319D01*
X52200952Y-114652319D02*
X52105714Y-114699938D01*
X52105714Y-114699938D02*
X52058095Y-114747557D01*
X52058095Y-114747557D02*
X52010476Y-114842795D01*
X52010476Y-114842795D02*
X52010476Y-114890414D01*
X52010476Y-114890414D02*
X52058095Y-114985652D01*
X52058095Y-114985652D02*
X52105714Y-115033271D01*
X52105714Y-115033271D02*
X52200952Y-115080890D01*
X52200952Y-115080890D02*
X52391428Y-115080890D01*
X52391428Y-115080890D02*
X52486666Y-115128509D01*
X52486666Y-115128509D02*
X52534285Y-115176128D01*
X52534285Y-115176128D02*
X52581904Y-115271366D01*
X52581904Y-115271366D02*
X52581904Y-115461842D01*
X52581904Y-115461842D02*
X52534285Y-115557080D01*
X52534285Y-115557080D02*
X52486666Y-115604700D01*
X52486666Y-115604700D02*
X52391428Y-115652319D01*
X52391428Y-115652319D02*
X52200952Y-115652319D01*
X52200952Y-115652319D02*
X52105714Y-115604700D01*
X52105714Y-115604700D02*
X52058095Y-115557080D01*
X52058095Y-115557080D02*
X52010476Y-115461842D01*
X52010476Y-115461842D02*
X52010476Y-115271366D01*
X52010476Y-115271366D02*
X52058095Y-115176128D01*
X52058095Y-115176128D02*
X52105714Y-115128509D01*
X52105714Y-115128509D02*
X52200952Y-115080890D01*
X60514819Y-108904166D02*
X61229104Y-108904166D01*
X61229104Y-108904166D02*
X61371961Y-108856547D01*
X61371961Y-108856547D02*
X61467200Y-108761309D01*
X61467200Y-108761309D02*
X61514819Y-108618452D01*
X61514819Y-108618452D02*
X61514819Y-108523214D01*
X61514819Y-109904166D02*
X61514819Y-109332738D01*
X61514819Y-109618452D02*
X60514819Y-109618452D01*
X60514819Y-109618452D02*
X60657676Y-109523214D01*
X60657676Y-109523214D02*
X60752914Y-109427976D01*
X60752914Y-109427976D02*
X60800533Y-109332738D01*
X81999580Y-124263333D02*
X82047200Y-124215714D01*
X82047200Y-124215714D02*
X82094819Y-124072857D01*
X82094819Y-124072857D02*
X82094819Y-123977619D01*
X82094819Y-123977619D02*
X82047200Y-123834762D01*
X82047200Y-123834762D02*
X81951961Y-123739524D01*
X81951961Y-123739524D02*
X81856723Y-123691905D01*
X81856723Y-123691905D02*
X81666247Y-123644286D01*
X81666247Y-123644286D02*
X81523390Y-123644286D01*
X81523390Y-123644286D02*
X81332914Y-123691905D01*
X81332914Y-123691905D02*
X81237676Y-123739524D01*
X81237676Y-123739524D02*
X81142438Y-123834762D01*
X81142438Y-123834762D02*
X81094819Y-123977619D01*
X81094819Y-123977619D02*
X81094819Y-124072857D01*
X81094819Y-124072857D02*
X81142438Y-124215714D01*
X81142438Y-124215714D02*
X81190057Y-124263333D01*
X82094819Y-124739524D02*
X82094819Y-124930000D01*
X82094819Y-124930000D02*
X82047200Y-125025238D01*
X82047200Y-125025238D02*
X81999580Y-125072857D01*
X81999580Y-125072857D02*
X81856723Y-125168095D01*
X81856723Y-125168095D02*
X81666247Y-125215714D01*
X81666247Y-125215714D02*
X81285295Y-125215714D01*
X81285295Y-125215714D02*
X81190057Y-125168095D01*
X81190057Y-125168095D02*
X81142438Y-125120476D01*
X81142438Y-125120476D02*
X81094819Y-125025238D01*
X81094819Y-125025238D02*
X81094819Y-124834762D01*
X81094819Y-124834762D02*
X81142438Y-124739524D01*
X81142438Y-124739524D02*
X81190057Y-124691905D01*
X81190057Y-124691905D02*
X81285295Y-124644286D01*
X81285295Y-124644286D02*
X81523390Y-124644286D01*
X81523390Y-124644286D02*
X81618628Y-124691905D01*
X81618628Y-124691905D02*
X81666247Y-124739524D01*
X81666247Y-124739524D02*
X81713866Y-124834762D01*
X81713866Y-124834762D02*
X81713866Y-125025238D01*
X81713866Y-125025238D02*
X81666247Y-125120476D01*
X81666247Y-125120476D02*
X81618628Y-125168095D01*
X81618628Y-125168095D02*
X81523390Y-125215714D01*
X65454819Y-110566905D02*
X64454819Y-110566905D01*
X64454819Y-110566905D02*
X64454819Y-110805000D01*
X64454819Y-110805000D02*
X64502438Y-110947857D01*
X64502438Y-110947857D02*
X64597676Y-111043095D01*
X64597676Y-111043095D02*
X64692914Y-111090714D01*
X64692914Y-111090714D02*
X64883390Y-111138333D01*
X64883390Y-111138333D02*
X65026247Y-111138333D01*
X65026247Y-111138333D02*
X65216723Y-111090714D01*
X65216723Y-111090714D02*
X65311961Y-111043095D01*
X65311961Y-111043095D02*
X65407200Y-110947857D01*
X65407200Y-110947857D02*
X65454819Y-110805000D01*
X65454819Y-110805000D02*
X65454819Y-110566905D01*
X64454819Y-111471667D02*
X64454819Y-112090714D01*
X64454819Y-112090714D02*
X64835771Y-111757381D01*
X64835771Y-111757381D02*
X64835771Y-111900238D01*
X64835771Y-111900238D02*
X64883390Y-111995476D01*
X64883390Y-111995476D02*
X64931009Y-112043095D01*
X64931009Y-112043095D02*
X65026247Y-112090714D01*
X65026247Y-112090714D02*
X65264342Y-112090714D01*
X65264342Y-112090714D02*
X65359580Y-112043095D01*
X65359580Y-112043095D02*
X65407200Y-111995476D01*
X65407200Y-111995476D02*
X65454819Y-111900238D01*
X65454819Y-111900238D02*
X65454819Y-111614524D01*
X65454819Y-111614524D02*
X65407200Y-111519286D01*
X65407200Y-111519286D02*
X65359580Y-111471667D01*
X68414819Y-124020833D02*
X68414819Y-123544643D01*
X68414819Y-123544643D02*
X67414819Y-123544643D01*
X68414819Y-124877976D02*
X68414819Y-124306548D01*
X68414819Y-124592262D02*
X67414819Y-124592262D01*
X67414819Y-124592262D02*
X67557676Y-124497024D01*
X67557676Y-124497024D02*
X67652914Y-124401786D01*
X67652914Y-124401786D02*
X67700533Y-124306548D01*
X162720238Y-133725057D02*
X162815476Y-133677438D01*
X162815476Y-133677438D02*
X162910714Y-133582200D01*
X162910714Y-133582200D02*
X163053571Y-133439342D01*
X163053571Y-133439342D02*
X163148809Y-133391723D01*
X163148809Y-133391723D02*
X163244047Y-133391723D01*
X163196428Y-133629819D02*
X163291666Y-133582200D01*
X163291666Y-133582200D02*
X163386904Y-133486961D01*
X163386904Y-133486961D02*
X163434523Y-133296485D01*
X163434523Y-133296485D02*
X163434523Y-132963152D01*
X163434523Y-132963152D02*
X163386904Y-132772676D01*
X163386904Y-132772676D02*
X163291666Y-132677438D01*
X163291666Y-132677438D02*
X163196428Y-132629819D01*
X163196428Y-132629819D02*
X163005952Y-132629819D01*
X163005952Y-132629819D02*
X162910714Y-132677438D01*
X162910714Y-132677438D02*
X162815476Y-132772676D01*
X162815476Y-132772676D02*
X162767857Y-132963152D01*
X162767857Y-132963152D02*
X162767857Y-133296485D01*
X162767857Y-133296485D02*
X162815476Y-133486961D01*
X162815476Y-133486961D02*
X162910714Y-133582200D01*
X162910714Y-133582200D02*
X163005952Y-133629819D01*
X163005952Y-133629819D02*
X163196428Y-133629819D01*
X161815476Y-133629819D02*
X162386904Y-133629819D01*
X162101190Y-133629819D02*
X162101190Y-132629819D01*
X162101190Y-132629819D02*
X162196428Y-132772676D01*
X162196428Y-132772676D02*
X162291666Y-132867914D01*
X162291666Y-132867914D02*
X162386904Y-132915533D01*
X154645238Y-128737557D02*
X154740476Y-128689938D01*
X154740476Y-128689938D02*
X154835714Y-128594700D01*
X154835714Y-128594700D02*
X154978571Y-128451842D01*
X154978571Y-128451842D02*
X155073809Y-128404223D01*
X155073809Y-128404223D02*
X155169047Y-128404223D01*
X155121428Y-128642319D02*
X155216666Y-128594700D01*
X155216666Y-128594700D02*
X155311904Y-128499461D01*
X155311904Y-128499461D02*
X155359523Y-128308985D01*
X155359523Y-128308985D02*
X155359523Y-127975652D01*
X155359523Y-127975652D02*
X155311904Y-127785176D01*
X155311904Y-127785176D02*
X155216666Y-127689938D01*
X155216666Y-127689938D02*
X155121428Y-127642319D01*
X155121428Y-127642319D02*
X154930952Y-127642319D01*
X154930952Y-127642319D02*
X154835714Y-127689938D01*
X154835714Y-127689938D02*
X154740476Y-127785176D01*
X154740476Y-127785176D02*
X154692857Y-127975652D01*
X154692857Y-127975652D02*
X154692857Y-128308985D01*
X154692857Y-128308985D02*
X154740476Y-128499461D01*
X154740476Y-128499461D02*
X154835714Y-128594700D01*
X154835714Y-128594700D02*
X154930952Y-128642319D01*
X154930952Y-128642319D02*
X155121428Y-128642319D01*
X154311904Y-127737557D02*
X154264285Y-127689938D01*
X154264285Y-127689938D02*
X154169047Y-127642319D01*
X154169047Y-127642319D02*
X153930952Y-127642319D01*
X153930952Y-127642319D02*
X153835714Y-127689938D01*
X153835714Y-127689938D02*
X153788095Y-127737557D01*
X153788095Y-127737557D02*
X153740476Y-127832795D01*
X153740476Y-127832795D02*
X153740476Y-127928033D01*
X153740476Y-127928033D02*
X153788095Y-128070890D01*
X153788095Y-128070890D02*
X154359523Y-128642319D01*
X154359523Y-128642319D02*
X153740476Y-128642319D01*
D11*
%TO.C,C1*%
X83210000Y-114557500D02*
X83210000Y-115757500D01*
X83210000Y-119077500D02*
X83210000Y-117877500D01*
X86665563Y-114557500D02*
X83210000Y-114557500D01*
X86665563Y-119077500D02*
X83210000Y-119077500D01*
X87730000Y-115621937D02*
X86665563Y-114557500D01*
X87730000Y-115621937D02*
X87730000Y-115757500D01*
X87730000Y-118013063D02*
X86665563Y-119077500D01*
X87730000Y-118013063D02*
X87730000Y-117877500D01*
X88220000Y-115007500D02*
X88220000Y-115507500D01*
X88470000Y-115257500D02*
X87970000Y-115257500D01*
%TO.C,C12*%
X125901252Y-124840000D02*
X125378748Y-124840000D01*
X125901252Y-126310000D02*
X125378748Y-126310000D01*
%TO.C,U4*%
X151530000Y-107860000D02*
X151530000Y-108860000D01*
X151530000Y-126100000D02*
X151530000Y-125100000D01*
X152310000Y-107860000D02*
X151530000Y-107860000D01*
X152310000Y-126100000D02*
X151530000Y-126100000D01*
X177270000Y-107860000D02*
X170855000Y-107860000D01*
X177270000Y-126100000D02*
X171110000Y-126100000D01*
X177270000Y-126100000D02*
X177270000Y-107860000D01*
X170385000Y-126605000D02*
X170385000Y-126105000D01*
X170885000Y-126105000D01*
X170385000Y-126605000D01*
G36*
X170385000Y-126605000D02*
G01*
X170385000Y-126105000D01*
X170885000Y-126105000D01*
X170385000Y-126605000D01*
G37*
D12*
%TO.C,SW1*%
X167650000Y-133150000D02*
X167050000Y-133150000D01*
X167650000Y-140650000D02*
X167050000Y-140650000D01*
X173800000Y-133150000D02*
X170300000Y-133150000D01*
X173800000Y-133150000D02*
X173800000Y-140650000D01*
X173800000Y-140650000D02*
X170450000Y-140650000D01*
D13*
X166850000Y-141600000D02*
X177950000Y-141600000D01*
X177950000Y-132200000D01*
X166850000Y-132200000D01*
X166850000Y-141600000D01*
D11*
%TO.C,U7*%
X87170000Y-105907500D02*
X87170000Y-107167500D01*
X87170000Y-112727500D02*
X87170000Y-111467500D01*
X90930000Y-105907500D02*
X87170000Y-105907500D01*
X90930000Y-112727500D02*
X87170000Y-112727500D01*
X92210000Y-106007500D02*
X91970000Y-105677500D01*
X92450000Y-105677500D01*
X92210000Y-106007500D01*
G36*
X92210000Y-106007500D02*
G01*
X91970000Y-105677500D01*
X92450000Y-105677500D01*
X92210000Y-106007500D01*
G37*
%TO.C,C8*%
X168763748Y-127460000D02*
X169286252Y-127460000D01*
X168763748Y-128930000D02*
X169286252Y-128930000D01*
%TO.C,C2*%
X90655000Y-115236248D02*
X90655000Y-115758752D01*
X92125000Y-115236248D02*
X92125000Y-115758752D01*
%TO.C,U6*%
X112420000Y-116110000D02*
X143020000Y-116110000D01*
X112420000Y-117760000D02*
X112420000Y-116110000D01*
X112420000Y-121410000D02*
X112420000Y-119760000D01*
X143020000Y-116110000D02*
X143020000Y-121410000D01*
X143020000Y-121410000D02*
X112420000Y-121410000D01*
X112420000Y-117760000D02*
G75*
G02*
X112420000Y-119760000I0J-1000000D01*
G01*
%TO.C,C3*%
X71860000Y-112077500D02*
G75*
G02*
X65320000Y-112077500I-3270000J0D01*
G01*
X65320000Y-112077500D02*
G75*
G02*
X71860000Y-112077500I3270000J0D01*
G01*
%TO.C,J2*%
X152120000Y-145540000D02*
X152120000Y-154660000D01*
X152120000Y-154660000D02*
X167620000Y-154660000D01*
X156830000Y-138920000D02*
X157830000Y-138920000D01*
X157330000Y-139920000D02*
X156830000Y-138920000D01*
X157820000Y-145540000D02*
X157820000Y-154660000D01*
X157830000Y-138920000D02*
X157330000Y-139920000D01*
X161920000Y-145540000D02*
X161920000Y-154660000D01*
X167620000Y-145540000D02*
X152120000Y-145540000D01*
X167620000Y-154660000D02*
X167620000Y-145540000D01*
%TO.C,C11*%
X164641252Y-137435000D02*
X164118748Y-137435000D01*
X164641252Y-138905000D02*
X164118748Y-138905000D01*
%TO.C,C4*%
X64645000Y-117708752D02*
X64645000Y-117186248D01*
X66115000Y-117708752D02*
X66115000Y-117186248D01*
%TO.C,U8*%
X56280000Y-116647500D02*
X57645000Y-116647500D01*
X56280000Y-127047500D02*
X57645000Y-127047500D01*
X57645000Y-116647500D02*
X57645000Y-117597500D01*
X57645000Y-127047500D02*
X57645000Y-126097500D01*
X60470000Y-117637500D02*
X60130000Y-117167500D01*
X60810000Y-117167500D01*
X60470000Y-117637500D01*
G36*
X60470000Y-117637500D02*
G01*
X60130000Y-117167500D01*
X60810000Y-117167500D01*
X60470000Y-117637500D01*
G37*
%TO.C,C10*%
X86061252Y-121365000D02*
X85538748Y-121365000D01*
X86061252Y-122835000D02*
X85538748Y-122835000D01*
%TO.C,J1*%
X44760000Y-104637500D02*
X44760000Y-113837500D01*
X44760000Y-113837500D02*
X59260000Y-113837500D01*
X53360000Y-104637500D02*
X44760000Y-104637500D01*
X59260000Y-104637500D02*
X57960000Y-104637500D01*
X59260000Y-106637500D02*
X59260000Y-104637500D01*
X59260000Y-113837500D02*
X59260000Y-111837500D01*
X59560000Y-112437500D02*
X59560000Y-114137500D01*
X59560000Y-114137500D02*
X58260000Y-114137500D01*
%TO.C,C9*%
X89120000Y-126700000D02*
G75*
G02*
X82580000Y-126700000I-3270000J0D01*
G01*
X82580000Y-126700000D02*
G75*
G02*
X89120000Y-126700000I3270000J0D01*
G01*
%TO.C,C6*%
X98765000Y-109946248D02*
X98765000Y-110468752D01*
X100235000Y-109946248D02*
X100235000Y-110468752D01*
%TO.C,D3*%
X60850000Y-114815000D02*
X60850000Y-109305000D01*
X64150000Y-114815000D02*
X60850000Y-114815000D01*
X64150000Y-114815000D02*
X64150000Y-109305000D01*
D10*
%TO.C,D4*%
X64150000Y-120047500D02*
X64150000Y-125557500D01*
X64150000Y-120047500D02*
X67450000Y-120047500D01*
X67450000Y-120047500D02*
X67450000Y-125557500D01*
D11*
%TO.C,L1*%
X69060000Y-117887500D02*
X69060000Y-130487500D01*
X69060000Y-130487500D02*
X72060000Y-130487500D01*
X72060000Y-117887500D02*
X69060000Y-117887500D01*
X78660000Y-130487500D02*
X81660000Y-130487500D01*
X81660000Y-117887500D02*
X78660000Y-117887500D01*
X81660000Y-130487500D02*
X81660000Y-117887500D01*
%TO.C,Q1*%
X163407500Y-129070000D02*
X162757500Y-129070000D01*
X163407500Y-129070000D02*
X164057500Y-129070000D01*
X163407500Y-132190000D02*
X162757500Y-132190000D01*
X163407500Y-132190000D02*
X164057500Y-132190000D01*
X162485000Y-132470000D02*
X162005000Y-132470000D01*
X162245000Y-132140000D01*
X162485000Y-132470000D01*
G36*
X162485000Y-132470000D02*
G01*
X162005000Y-132470000D01*
X162245000Y-132140000D01*
X162485000Y-132470000D01*
G37*
%TO.C,Q2*%
X154550000Y-129027500D02*
X153900000Y-129027500D01*
X154550000Y-129027500D02*
X155200000Y-129027500D01*
X154550000Y-132147500D02*
X153900000Y-132147500D01*
X154550000Y-132147500D02*
X155200000Y-132147500D01*
X155712500Y-129077500D02*
X155472500Y-128747500D01*
X155952500Y-128747500D01*
X155712500Y-129077500D01*
G36*
X155712500Y-129077500D02*
G01*
X155472500Y-128747500D01*
X155952500Y-128747500D01*
X155712500Y-129077500D01*
G37*
%TD*%
M02*
