%TF.GenerationSoftware,KiCad,Pcbnew,9.0.2*%
%TF.CreationDate,2025-06-20T14:11:32+05:30*%
%TF.ProjectId,clock,636c6f63-6b2e-46b6-9963-61645f706362,rev?*%
%TF.SameCoordinates,Original*%
%TF.FileFunction,Soldermask,Bot*%
%TF.FilePolarity,Negative*%
%FSLAX46Y46*%
G04 Gerber Fmt 4.6, Leading zero omitted, Abs format (unit mm)*
G04 Created by KiCad (PCBNEW 9.0.2) date 2025-06-20 14:11:32*
%MOMM*%
%LPD*%
G01*
G04 APERTURE LIST*
G04 Aperture macros list*
%AMRoundRect*
0 Rectangle with rounded corners*
0 $1 Rounding radius*
0 $2 $3 $4 $5 $6 $7 $8 $9 X,Y pos of 4 corners*
0 Add a 4 corners polygon primitive as box body*
4,1,4,$2,$3,$4,$5,$6,$7,$8,$9,$2,$3,0*
0 Add four circle primitives for the rounded corners*
1,1,$1+$1,$2,$3*
1,1,$1+$1,$4,$5*
1,1,$1+$1,$6,$7*
1,1,$1+$1,$8,$9*
0 Add four rect primitives between the rounded corners*
20,1,$1+$1,$2,$3,$4,$5,0*
20,1,$1+$1,$4,$5,$6,$7,0*
20,1,$1+$1,$6,$7,$8,$9,0*
20,1,$1+$1,$8,$9,$2,$3,0*%
G04 Aperture macros list end*
%ADD10C,1.700000*%
%ADD11R,1.700000X1.700000*%
%ADD12R,5.400000X2.900000*%
%ADD13R,1.350000X1.350000*%
%ADD14C,1.350000*%
%ADD15C,0.700000*%
%ADD16C,4.400000*%
%ADD17R,1.800000X1.800000*%
%ADD18C,1.800000*%
%ADD19RoundRect,0.250000X1.050000X0.550000X-1.050000X0.550000X-1.050000X-0.550000X1.050000X-0.550000X0*%
%ADD20RoundRect,0.200000X-0.275000X0.200000X-0.275000X-0.200000X0.275000X-0.200000X0.275000X0.200000X0*%
%ADD21RoundRect,0.250000X0.250000X0.475000X-0.250000X0.475000X-0.250000X-0.475000X0.250000X-0.475000X0*%
%ADD22R,1.800000X1.600000*%
%ADD23R,0.900000X1.500000*%
%ADD24R,1.500000X0.900000*%
%ADD25C,0.600000*%
%ADD26R,4.200000X4.200000*%
%ADD27C,2.000000*%
%ADD28RoundRect,0.375000X0.625000X0.375000X-0.625000X0.375000X-0.625000X-0.375000X0.625000X-0.375000X0*%
%ADD29RoundRect,0.500000X0.500000X1.400000X-0.500000X1.400000X-0.500000X-1.400000X0.500000X-1.400000X0*%
%ADD30RoundRect,0.250000X-0.250000X-0.475000X0.250000X-0.475000X0.250000X0.475000X-0.250000X0.475000X0*%
%ADD31RoundRect,0.267317X-0.280683X-0.470683X0.280683X-0.470683X0.280683X0.470683X-0.280683X0.470683X0*%
%ADD32RoundRect,0.250000X-0.475000X0.250000X-0.475000X-0.250000X0.475000X-0.250000X0.475000X0.250000X0*%
%ADD33RoundRect,0.250000X-0.550000X0.550000X-0.550000X-0.550000X0.550000X-0.550000X0.550000X0.550000X0*%
%ADD34C,1.600000*%
%ADD35RoundRect,0.250000X0.475000X-0.250000X0.475000X0.250000X-0.475000X0.250000X-0.475000X-0.250000X0*%
%ADD36RoundRect,0.267317X0.280683X0.470683X-0.280683X0.470683X-0.280683X-0.470683X0.280683X-0.470683X0*%
%ADD37RoundRect,0.267317X-0.470683X0.280683X-0.470683X-0.280683X0.470683X-0.280683X0.470683X0.280683X0*%
%ADD38RoundRect,0.250000X2.050000X0.300000X-2.050000X0.300000X-2.050000X-0.300000X2.050000X-0.300000X0*%
%ADD39RoundRect,0.250002X4.449998X5.149998X-4.449998X5.149998X-4.449998X-5.149998X4.449998X-5.149998X0*%
%ADD40R,2.000000X4.600000*%
%ADD41O,2.000000X4.200000*%
%ADD42O,4.200000X2.000000*%
%ADD43RoundRect,0.250000X-0.337500X-0.475000X0.337500X-0.475000X0.337500X0.475000X-0.337500X0.475000X0*%
%ADD44RoundRect,0.218750X-0.256250X0.218750X-0.256250X-0.218750X0.256250X-0.218750X0.256250X0.218750X0*%
%ADD45RoundRect,0.250000X0.650000X-1.000000X0.650000X1.000000X-0.650000X1.000000X-0.650000X-1.000000X0*%
%ADD46RoundRect,0.260556X-0.677444X1.027444X-0.677444X-1.027444X0.677444X-1.027444X0.677444X1.027444X0*%
%ADD47RoundRect,0.150000X-0.587500X-0.150000X0.587500X-0.150000X0.587500X0.150000X-0.587500X0.150000X0*%
%ADD48RoundRect,0.150000X0.587500X0.150000X-0.587500X0.150000X-0.587500X-0.150000X0.587500X-0.150000X0*%
G04 APERTURE END LIST*
D10*
%TO.C,J5*%
X145370000Y-94230000D03*
X142830000Y-94230000D03*
X140290000Y-94230000D03*
X137750000Y-94230000D03*
X135210000Y-94230000D03*
D11*
X132670000Y-94230000D03*
%TD*%
D12*
%TO.C,L1*%
X75360000Y-129137500D03*
X75360000Y-119237500D03*
%TD*%
D13*
%TO.C,J4*%
X164850000Y-96800000D03*
D14*
X166850000Y-96800000D03*
%TD*%
D11*
%TO.C,J2*%
X136510000Y-143080000D03*
D10*
X139050000Y-143080000D03*
X141590000Y-143080000D03*
X144130000Y-143080000D03*
X146670000Y-143080000D03*
%TD*%
D15*
%TO.C,REF\u002A\u002A*%
X169820000Y-144260000D03*
X170303274Y-143093274D03*
X170303274Y-145426726D03*
X171470000Y-142610000D03*
D16*
X171470000Y-144260000D03*
D15*
X171470000Y-145910000D03*
X172636726Y-143093274D03*
X172636726Y-145426726D03*
X173120000Y-144260000D03*
%TD*%
D11*
%TO.C,U5*%
X149035000Y-136537500D03*
D10*
X151575000Y-136537500D03*
X154115000Y-136537500D03*
X156655000Y-136537500D03*
X159195000Y-136537500D03*
X159105000Y-101187500D03*
X156565000Y-101187500D03*
X154025000Y-101187500D03*
X151485000Y-101187500D03*
X148945000Y-101187500D03*
%TD*%
D17*
%TO.C,D2*%
X106060000Y-127250000D03*
D18*
X108600000Y-127250000D03*
%TD*%
D15*
%TO.C,REF\u002A\u002A*%
X43350000Y-95080000D03*
X43833274Y-93913274D03*
X43833274Y-96246726D03*
X45000000Y-93430000D03*
D16*
X45000000Y-95080000D03*
D15*
X45000000Y-96730000D03*
X46166726Y-93913274D03*
X46166726Y-96246726D03*
X46650000Y-95080000D03*
%TD*%
D11*
%TO.C,U1*%
X55360000Y-136632500D03*
D10*
X57900000Y-136632500D03*
X60440000Y-136632500D03*
X62980000Y-136632500D03*
X65520000Y-136632500D03*
X65430000Y-101282500D03*
X62890000Y-101282500D03*
X60350000Y-101282500D03*
X57810000Y-101282500D03*
X55270000Y-101282500D03*
%TD*%
D11*
%TO.C,U2*%
X84740000Y-136640000D03*
D10*
X87280000Y-136640000D03*
X89820000Y-136640000D03*
X92360000Y-136640000D03*
X94900000Y-136640000D03*
X94810000Y-101290000D03*
X92270000Y-101290000D03*
X89730000Y-101290000D03*
X87190000Y-101290000D03*
X84650000Y-101290000D03*
%TD*%
D17*
%TO.C,D1*%
X106100000Y-107680000D03*
D18*
X108640000Y-107680000D03*
%TD*%
D11*
%TO.C,U3*%
X119515000Y-136585000D03*
D10*
X122055000Y-136585000D03*
X124595000Y-136585000D03*
X127135000Y-136585000D03*
X129675000Y-136585000D03*
X129585000Y-101235000D03*
X127045000Y-101235000D03*
X124505000Y-101235000D03*
X121965000Y-101235000D03*
X119425000Y-101235000D03*
%TD*%
D15*
%TO.C,REF\u002A\u002A*%
X169780000Y-95040000D03*
X170263274Y-93873274D03*
X170263274Y-96206726D03*
X171430000Y-93390000D03*
D16*
X171430000Y-95040000D03*
D15*
X171430000Y-96690000D03*
X172596726Y-93873274D03*
X172596726Y-96206726D03*
X173080000Y-95040000D03*
%TD*%
%TO.C,REF\u002A\u002A*%
X43263274Y-144226726D03*
X43746548Y-143060000D03*
X43746548Y-145393452D03*
X44913274Y-142576726D03*
D16*
X44913274Y-144226726D03*
D15*
X44913274Y-145876726D03*
X46080000Y-143060000D03*
X46080000Y-145393452D03*
X46563274Y-144226726D03*
%TD*%
D11*
%TO.C,J3*%
X164400000Y-143800000D03*
D10*
X161860000Y-143800000D03*
X159320000Y-143800000D03*
X156780000Y-143800000D03*
X154240000Y-143800000D03*
X151700000Y-143800000D03*
%TD*%
D19*
%TO.C,C1*%
X87270000Y-116817500D03*
X83670000Y-116817500D03*
%TD*%
D20*
%TO.C,R7*%
X167040000Y-99405000D03*
X167040000Y-101055000D03*
%TD*%
D21*
%TO.C,C12*%
X126590000Y-125575000D03*
X124690000Y-125575000D03*
%TD*%
D22*
%TO.C,C5*%
X96260000Y-108787500D03*
X96260000Y-111587500D03*
%TD*%
D23*
%TO.C,U4*%
X169660000Y-125730000D03*
X168390000Y-125730000D03*
X167120000Y-125730000D03*
X165850000Y-125730000D03*
X164580000Y-125730000D03*
X163310000Y-125730000D03*
X162040000Y-125730000D03*
X160770000Y-125730000D03*
X159500000Y-125730000D03*
X158230000Y-125730000D03*
X156960000Y-125730000D03*
X155690000Y-125730000D03*
X154420000Y-125730000D03*
X153150000Y-125730000D03*
D24*
X151900000Y-122690000D03*
X151900000Y-121420000D03*
X151900000Y-120150000D03*
X151900000Y-118880000D03*
X151900000Y-117610000D03*
X151900000Y-116340000D03*
X151900000Y-115070000D03*
X151900000Y-113800000D03*
X151900000Y-112530000D03*
X151900000Y-111260000D03*
D23*
X153150000Y-108230000D03*
X154420000Y-108230000D03*
X155690000Y-108230000D03*
X156960000Y-108230000D03*
X158230000Y-108230000D03*
X159500000Y-108230000D03*
X160770000Y-108230000D03*
X162040000Y-108230000D03*
X163310000Y-108230000D03*
X164580000Y-108230000D03*
X165850000Y-108230000D03*
X167120000Y-108230000D03*
X168390000Y-108230000D03*
X169660000Y-108230000D03*
D25*
X161557500Y-119185000D03*
X163082500Y-119185000D03*
X160795000Y-118422500D03*
X162320000Y-118422500D03*
X163845000Y-118422500D03*
X161557500Y-117660000D03*
D26*
X162320000Y-117660000D03*
D25*
X163082500Y-117660000D03*
X160795000Y-116897500D03*
X162320000Y-116897500D03*
X163845000Y-116897500D03*
X161557500Y-116135000D03*
X163082500Y-116135000D03*
%TD*%
D18*
%TO.C,SW1*%
X171450000Y-134650000D03*
X171450000Y-139150000D03*
D27*
X168950000Y-133400000D03*
X168950000Y-140400000D03*
%TD*%
D28*
%TO.C,U7*%
X92230000Y-107017500D03*
X92230000Y-109317500D03*
D29*
X85930000Y-109317500D03*
D28*
X92230000Y-111617500D03*
%TD*%
D30*
%TO.C,C8*%
X168075000Y-128195000D03*
X169975000Y-128195000D03*
%TD*%
D31*
%TO.C,R3*%
X157980000Y-131800000D03*
X159800000Y-131800000D03*
%TD*%
D32*
%TO.C,C2*%
X91390000Y-114547500D03*
X91390000Y-116447500D03*
%TD*%
D33*
%TO.C,U6*%
X113750000Y-114950000D03*
D34*
X116290000Y-114950000D03*
X118830000Y-114950000D03*
X121370000Y-114950000D03*
X123910000Y-114950000D03*
X126450000Y-114950000D03*
X128990000Y-114950000D03*
X131530000Y-114950000D03*
X134070000Y-114950000D03*
X136610000Y-114950000D03*
X139150000Y-114950000D03*
X141690000Y-114950000D03*
X141690000Y-122570000D03*
X139150000Y-122570000D03*
X136610000Y-122570000D03*
X134070000Y-122570000D03*
X131530000Y-122570000D03*
X128990000Y-122570000D03*
X126450000Y-122570000D03*
X123910000Y-122570000D03*
X121370000Y-122570000D03*
X118830000Y-122570000D03*
X116290000Y-122570000D03*
X113750000Y-122570000D03*
%TD*%
%TO.C,C3*%
X68590000Y-113327500D03*
X68590000Y-110827500D03*
%TD*%
D21*
%TO.C,C11*%
X165330000Y-138170000D03*
X163430000Y-138170000D03*
%TD*%
D35*
%TO.C,C4*%
X65380000Y-118397500D03*
X65380000Y-116497500D03*
%TD*%
D36*
%TO.C,R2*%
X159750000Y-129370000D03*
X157930000Y-129370000D03*
%TD*%
D37*
%TO.C,R1*%
X129030000Y-125065000D03*
X129030000Y-126885000D03*
%TD*%
D38*
%TO.C,U8*%
X60470000Y-118447500D03*
X60470000Y-120147500D03*
X60470000Y-121847500D03*
D39*
X51320000Y-121847500D03*
D38*
X60470000Y-123547500D03*
X60470000Y-125247500D03*
%TD*%
D31*
%TO.C,R4*%
X163430000Y-135450000D03*
X165250000Y-135450000D03*
%TD*%
D21*
%TO.C,C10*%
X86750000Y-122100000D03*
X84850000Y-122100000D03*
%TD*%
D40*
%TO.C,J1*%
X56940000Y-109150000D03*
D41*
X50640000Y-109150000D03*
D42*
X54040000Y-104350000D03*
%TD*%
D34*
%TO.C,C9*%
X87100000Y-126700000D03*
X84600000Y-126700000D03*
%TD*%
D43*
%TO.C,C7*%
X166962500Y-130800000D03*
X169037500Y-130800000D03*
%TD*%
D44*
%TO.C,D5*%
X148450000Y-108155000D03*
X148450000Y-109730000D03*
%TD*%
D32*
%TO.C,C6*%
X99500000Y-109257500D03*
X99500000Y-111157500D03*
%TD*%
D45*
%TO.C,D3*%
X61230000Y-113317500D03*
X61230000Y-109317500D03*
%TD*%
D46*
%TO.C,D4*%
X65800000Y-121557500D03*
X65800000Y-125557500D03*
%TD*%
D20*
%TO.C,R6*%
X164730000Y-99365000D03*
X164730000Y-101015000D03*
%TD*%
D47*
%TO.C,Q1*%
X162470000Y-131580000D03*
X162470000Y-129680000D03*
X164345000Y-130630000D03*
%TD*%
D48*
%TO.C,Q2*%
X155487500Y-129637500D03*
X155487500Y-131537500D03*
X153612500Y-130587500D03*
%TD*%
D20*
%TO.C,R5*%
X148480000Y-111865000D03*
X148480000Y-113515000D03*
%TD*%
M02*
