%TF.GenerationSoftware,KiCad,Pcbnew,9.0.2*%
%TF.CreationDate,2025-06-17T19:12:47+05:30*%
%TF.ProjectId,clock,636c6f63-6b2e-46b6-9963-61645f706362,rev?*%
%TF.SameCoordinates,Original*%
%TF.FileFunction,Paste,Bot*%
%TF.FilePolarity,Positive*%
%FSLAX46Y46*%
G04 Gerber Fmt 4.6, Leading zero omitted, Abs format (unit mm)*
G04 Created by KiCad (PCBNEW 9.0.2) date 2025-06-17 19:12:47*
%MOMM*%
%LPD*%
G01*
G04 APERTURE LIST*
G04 Aperture macros list*
%AMRoundRect*
0 Rectangle with rounded corners*
0 $1 Rounding radius*
0 $2 $3 $4 $5 $6 $7 $8 $9 X,Y pos of 4 corners*
0 Add a 4 corners polygon primitive as box body*
4,1,4,$2,$3,$4,$5,$6,$7,$8,$9,$2,$3,0*
0 Add four circle primitives for the rounded corners*
1,1,$1+$1,$2,$3*
1,1,$1+$1,$4,$5*
1,1,$1+$1,$6,$7*
1,1,$1+$1,$8,$9*
0 Add four rect primitives between the rounded corners*
20,1,$1+$1,$2,$3,$4,$5,0*
20,1,$1+$1,$4,$5,$6,$7,0*
20,1,$1+$1,$6,$7,$8,$9,0*
20,1,$1+$1,$8,$9,$2,$3,0*%
G04 Aperture macros list end*
%ADD10RoundRect,0.250000X-0.337500X-0.475000X0.337500X-0.475000X0.337500X0.475000X-0.337500X0.475000X0*%
%ADD11RoundRect,0.250000X0.250000X0.475000X-0.250000X0.475000X-0.250000X-0.475000X0.250000X-0.475000X0*%
%ADD12R,0.900000X1.500000*%
%ADD13R,1.500000X0.900000*%
%ADD14R,1.050000X1.050000*%
%ADD15RoundRect,0.250000X1.050000X0.550000X-1.050000X0.550000X-1.050000X-0.550000X1.050000X-0.550000X0*%
%ADD16R,1.800000X1.600000*%
%ADD17RoundRect,0.375000X0.625000X0.375000X-0.625000X0.375000X-0.625000X-0.375000X0.625000X-0.375000X0*%
%ADD18RoundRect,0.500000X0.500000X1.400000X-0.500000X1.400000X-0.500000X-1.400000X0.500000X-1.400000X0*%
%ADD19RoundRect,0.250000X-0.250000X-0.475000X0.250000X-0.475000X0.250000X0.475000X-0.250000X0.475000X0*%
%ADD20RoundRect,0.248780X-0.261220X-0.451220X0.261220X-0.451220X0.261220X0.451220X-0.261220X0.451220X0*%
%ADD21RoundRect,0.250000X-0.475000X0.250000X-0.475000X-0.250000X0.475000X-0.250000X0.475000X0.250000X0*%
%ADD22RoundRect,0.250000X0.475000X-0.250000X0.475000X0.250000X-0.475000X0.250000X-0.475000X-0.250000X0*%
%ADD23RoundRect,0.248780X0.261220X0.451220X-0.261220X0.451220X-0.261220X-0.451220X0.261220X-0.451220X0*%
%ADD24RoundRect,0.248780X-0.451220X0.261220X-0.451220X-0.261220X0.451220X-0.261220X0.451220X0.261220X0*%
%ADD25RoundRect,0.250000X2.025000X2.375000X-2.025000X2.375000X-2.025000X-2.375000X2.025000X-2.375000X0*%
%ADD26RoundRect,0.250000X2.050000X0.300000X-2.050000X0.300000X-2.050000X-0.300000X2.050000X-0.300000X0*%
%ADD27RoundRect,0.250000X0.650000X-1.000000X0.650000X1.000000X-0.650000X1.000000X-0.650000X-1.000000X0*%
%ADD28RoundRect,0.250000X-0.650000X1.000000X-0.650000X-1.000000X0.650000X-1.000000X0.650000X1.000000X0*%
%ADD29R,5.400000X2.900000*%
%ADD30RoundRect,0.150000X-0.587500X-0.150000X0.587500X-0.150000X0.587500X0.150000X-0.587500X0.150000X0*%
%ADD31RoundRect,0.150000X0.587500X0.150000X-0.587500X0.150000X-0.587500X-0.150000X0.587500X-0.150000X0*%
G04 APERTURE END LIST*
D10*
%TO.C,C7*%
X166962500Y-130800000D03*
X169037500Y-130800000D03*
%TD*%
D11*
%TO.C,C10*%
X84850000Y-122100000D03*
X86750000Y-122100000D03*
%TD*%
D12*
%TO.C,U4*%
X169660000Y-125730000D03*
X168390000Y-125730000D03*
X167120000Y-125730000D03*
X165850000Y-125730000D03*
X164580000Y-125730000D03*
X163310000Y-125730000D03*
X162040000Y-125730000D03*
X160770000Y-125730000D03*
X159500000Y-125730000D03*
X158230000Y-125730000D03*
X156960000Y-125730000D03*
X155690000Y-125730000D03*
X154420000Y-125730000D03*
X153150000Y-125730000D03*
D13*
X151900000Y-122690000D03*
X151900000Y-121420000D03*
X151900000Y-120150000D03*
X151900000Y-118880000D03*
X151900000Y-117610000D03*
X151900000Y-116340000D03*
X151900000Y-115070000D03*
X151900000Y-113800000D03*
X151900000Y-112530000D03*
X151900000Y-111260000D03*
D12*
X153150000Y-108230000D03*
X154420000Y-108230000D03*
X155690000Y-108230000D03*
X156960000Y-108230000D03*
X158230000Y-108230000D03*
X159500000Y-108230000D03*
X160770000Y-108230000D03*
X162040000Y-108230000D03*
X163310000Y-108230000D03*
X164580000Y-108230000D03*
X165850000Y-108230000D03*
X167120000Y-108230000D03*
X168390000Y-108230000D03*
X169660000Y-108230000D03*
D14*
X160795000Y-119185000D03*
X162320000Y-119185000D03*
X163845000Y-119185000D03*
X160795000Y-117660000D03*
X162320000Y-117660000D03*
X163845000Y-117660000D03*
X160795000Y-116135000D03*
X162320000Y-116135000D03*
X163845000Y-116135000D03*
%TD*%
D15*
%TO.C,C1*%
X87270000Y-116817500D03*
X83670000Y-116817500D03*
%TD*%
D11*
%TO.C,C12*%
X126590000Y-125575000D03*
X124690000Y-125575000D03*
%TD*%
D16*
%TO.C,C5*%
X96260000Y-108787500D03*
X96260000Y-111587500D03*
%TD*%
D17*
%TO.C,U7*%
X92230000Y-107017500D03*
X92230000Y-109317500D03*
D18*
X85930000Y-109317500D03*
D17*
X92230000Y-111617500D03*
%TD*%
D19*
%TO.C,C8*%
X168075000Y-128195000D03*
X169975000Y-128195000D03*
%TD*%
D20*
%TO.C,R3*%
X157980000Y-132270000D03*
X159800000Y-132270000D03*
%TD*%
D21*
%TO.C,C2*%
X91390000Y-114547500D03*
X91390000Y-116447500D03*
%TD*%
D11*
%TO.C,C11*%
X165330000Y-138170000D03*
X163430000Y-138170000D03*
%TD*%
D22*
%TO.C,C4*%
X65380000Y-118397500D03*
X65380000Y-116497500D03*
%TD*%
D23*
%TO.C,R2*%
X159750000Y-129840000D03*
X157930000Y-129840000D03*
%TD*%
D24*
%TO.C,R1*%
X129030000Y-125065000D03*
X129030000Y-126885000D03*
%TD*%
D25*
%TO.C,U8*%
X53745000Y-124622500D03*
X53745000Y-119072500D03*
X48895000Y-124622500D03*
X48895000Y-119072500D03*
D26*
X60470000Y-118447500D03*
X60470000Y-120147500D03*
X60470000Y-121847500D03*
X60470000Y-123547500D03*
X60470000Y-125247500D03*
%TD*%
D20*
%TO.C,R4*%
X163430000Y-135450000D03*
X165250000Y-135450000D03*
%TD*%
D21*
%TO.C,C6*%
X99500000Y-109257500D03*
X99500000Y-111157500D03*
%TD*%
D27*
%TO.C,D3*%
X62500000Y-113305000D03*
X62500000Y-109305000D03*
%TD*%
D28*
%TO.C,D4*%
X65800000Y-121557500D03*
X65800000Y-125557500D03*
%TD*%
D29*
%TO.C,L1*%
X75360000Y-119237500D03*
X75360000Y-129137500D03*
%TD*%
D30*
%TO.C,Q1*%
X162470000Y-132050000D03*
X162470000Y-130150000D03*
X164345000Y-131100000D03*
%TD*%
D31*
%TO.C,Q2*%
X155487500Y-130107500D03*
X155487500Y-132007500D03*
X153612500Y-131057500D03*
%TD*%
M02*
