%TF.GenerationSoftware,KiCad,Pcbnew,9.0.2*%
%TF.CreationDate,2025-06-17T19:12:47+05:30*%
%TF.ProjectId,clock,636c6f63-6b2e-46b6-9963-61645f706362,rev?*%
%TF.SameCoordinates,Original*%
%TF.FileFunction,Legend,Top*%
%TF.FilePolarity,Positive*%
%FSLAX46Y46*%
G04 Gerber Fmt 4.6, Leading zero omitted, Abs format (unit mm)*
G04 Created by KiCad (PCBNEW 9.0.2) date 2025-06-17 19:12:47*
%MOMM*%
%LPD*%
G01*
G04 APERTURE LIST*
%ADD10C,0.150000*%
%ADD11C,0.120000*%
%ADD12C,0.100000*%
G04 APERTURE END LIST*
D10*
X106591905Y-124744819D02*
X106591905Y-123744819D01*
X106591905Y-123744819D02*
X106830000Y-123744819D01*
X106830000Y-123744819D02*
X106972857Y-123792438D01*
X106972857Y-123792438D02*
X107068095Y-123887676D01*
X107068095Y-123887676D02*
X107115714Y-123982914D01*
X107115714Y-123982914D02*
X107163333Y-124173390D01*
X107163333Y-124173390D02*
X107163333Y-124316247D01*
X107163333Y-124316247D02*
X107115714Y-124506723D01*
X107115714Y-124506723D02*
X107068095Y-124601961D01*
X107068095Y-124601961D02*
X106972857Y-124697200D01*
X106972857Y-124697200D02*
X106830000Y-124744819D01*
X106830000Y-124744819D02*
X106591905Y-124744819D01*
X107544286Y-123840057D02*
X107591905Y-123792438D01*
X107591905Y-123792438D02*
X107687143Y-123744819D01*
X107687143Y-123744819D02*
X107925238Y-123744819D01*
X107925238Y-123744819D02*
X108020476Y-123792438D01*
X108020476Y-123792438D02*
X108068095Y-123840057D01*
X108068095Y-123840057D02*
X108115714Y-123935295D01*
X108115714Y-123935295D02*
X108115714Y-124030533D01*
X108115714Y-124030533D02*
X108068095Y-124173390D01*
X108068095Y-124173390D02*
X107496667Y-124744819D01*
X107496667Y-124744819D02*
X108115714Y-124744819D01*
X106631905Y-105174819D02*
X106631905Y-104174819D01*
X106631905Y-104174819D02*
X106870000Y-104174819D01*
X106870000Y-104174819D02*
X107012857Y-104222438D01*
X107012857Y-104222438D02*
X107108095Y-104317676D01*
X107108095Y-104317676D02*
X107155714Y-104412914D01*
X107155714Y-104412914D02*
X107203333Y-104603390D01*
X107203333Y-104603390D02*
X107203333Y-104746247D01*
X107203333Y-104746247D02*
X107155714Y-104936723D01*
X107155714Y-104936723D02*
X107108095Y-105031961D01*
X107108095Y-105031961D02*
X107012857Y-105127200D01*
X107012857Y-105127200D02*
X106870000Y-105174819D01*
X106870000Y-105174819D02*
X106631905Y-105174819D01*
X108155714Y-105174819D02*
X107584286Y-105174819D01*
X107870000Y-105174819D02*
X107870000Y-104174819D01*
X107870000Y-104174819D02*
X107774762Y-104317676D01*
X107774762Y-104317676D02*
X107679524Y-104412914D01*
X107679524Y-104412914D02*
X107584286Y-104460533D01*
X138119819Y-138039404D02*
X138929342Y-138039404D01*
X138929342Y-138039404D02*
X139024580Y-137991785D01*
X139024580Y-137991785D02*
X139072200Y-137944166D01*
X139072200Y-137944166D02*
X139119819Y-137848928D01*
X139119819Y-137848928D02*
X139119819Y-137658452D01*
X139119819Y-137658452D02*
X139072200Y-137563214D01*
X139072200Y-137563214D02*
X139024580Y-137515595D01*
X139024580Y-137515595D02*
X138929342Y-137467976D01*
X138929342Y-137467976D02*
X138119819Y-137467976D01*
X138119819Y-136515595D02*
X138119819Y-136991785D01*
X138119819Y-136991785D02*
X138596009Y-137039404D01*
X138596009Y-137039404D02*
X138548390Y-136991785D01*
X138548390Y-136991785D02*
X138500771Y-136896547D01*
X138500771Y-136896547D02*
X138500771Y-136658452D01*
X138500771Y-136658452D02*
X138548390Y-136563214D01*
X138548390Y-136563214D02*
X138596009Y-136515595D01*
X138596009Y-136515595D02*
X138691247Y-136467976D01*
X138691247Y-136467976D02*
X138929342Y-136467976D01*
X138929342Y-136467976D02*
X139024580Y-136515595D01*
X139024580Y-136515595D02*
X139072200Y-136563214D01*
X139072200Y-136563214D02*
X139119819Y-136658452D01*
X139119819Y-136658452D02*
X139119819Y-136896547D01*
X139119819Y-136896547D02*
X139072200Y-136991785D01*
X139072200Y-136991785D02*
X139024580Y-137039404D01*
X44374819Y-139004404D02*
X45184342Y-139004404D01*
X45184342Y-139004404D02*
X45279580Y-138956785D01*
X45279580Y-138956785D02*
X45327200Y-138909166D01*
X45327200Y-138909166D02*
X45374819Y-138813928D01*
X45374819Y-138813928D02*
X45374819Y-138623452D01*
X45374819Y-138623452D02*
X45327200Y-138528214D01*
X45327200Y-138528214D02*
X45279580Y-138480595D01*
X45279580Y-138480595D02*
X45184342Y-138432976D01*
X45184342Y-138432976D02*
X44374819Y-138432976D01*
X45374819Y-137432976D02*
X45374819Y-138004404D01*
X45374819Y-137718690D02*
X44374819Y-137718690D01*
X44374819Y-137718690D02*
X44517676Y-137813928D01*
X44517676Y-137813928D02*
X44612914Y-137909166D01*
X44612914Y-137909166D02*
X44660533Y-138004404D01*
X108864819Y-139276904D02*
X109674342Y-139276904D01*
X109674342Y-139276904D02*
X109769580Y-139229285D01*
X109769580Y-139229285D02*
X109817200Y-139181666D01*
X109817200Y-139181666D02*
X109864819Y-139086428D01*
X109864819Y-139086428D02*
X109864819Y-138895952D01*
X109864819Y-138895952D02*
X109817200Y-138800714D01*
X109817200Y-138800714D02*
X109769580Y-138753095D01*
X109769580Y-138753095D02*
X109674342Y-138705476D01*
X109674342Y-138705476D02*
X108864819Y-138705476D01*
X108864819Y-138324523D02*
X108864819Y-137705476D01*
X108864819Y-137705476D02*
X109245771Y-138038809D01*
X109245771Y-138038809D02*
X109245771Y-137895952D01*
X109245771Y-137895952D02*
X109293390Y-137800714D01*
X109293390Y-137800714D02*
X109341009Y-137753095D01*
X109341009Y-137753095D02*
X109436247Y-137705476D01*
X109436247Y-137705476D02*
X109674342Y-137705476D01*
X109674342Y-137705476D02*
X109769580Y-137753095D01*
X109769580Y-137753095D02*
X109817200Y-137800714D01*
X109817200Y-137800714D02*
X109864819Y-137895952D01*
X109864819Y-137895952D02*
X109864819Y-138181666D01*
X109864819Y-138181666D02*
X109817200Y-138276904D01*
X109817200Y-138276904D02*
X109769580Y-138324523D01*
X42256666Y-141002319D02*
X41923333Y-140526128D01*
X41685238Y-141002319D02*
X41685238Y-140002319D01*
X41685238Y-140002319D02*
X42066190Y-140002319D01*
X42066190Y-140002319D02*
X42161428Y-140049938D01*
X42161428Y-140049938D02*
X42209047Y-140097557D01*
X42209047Y-140097557D02*
X42256666Y-140192795D01*
X42256666Y-140192795D02*
X42256666Y-140335652D01*
X42256666Y-140335652D02*
X42209047Y-140430890D01*
X42209047Y-140430890D02*
X42161428Y-140478509D01*
X42161428Y-140478509D02*
X42066190Y-140526128D01*
X42066190Y-140526128D02*
X41685238Y-140526128D01*
X42685238Y-140478509D02*
X43018571Y-140478509D01*
X43161428Y-141002319D02*
X42685238Y-141002319D01*
X42685238Y-141002319D02*
X42685238Y-140002319D01*
X42685238Y-140002319D02*
X43161428Y-140002319D01*
X43923333Y-140478509D02*
X43590000Y-140478509D01*
X43590000Y-141002319D02*
X43590000Y-140002319D01*
X43590000Y-140002319D02*
X44066190Y-140002319D01*
X44590000Y-140002319D02*
X44590000Y-140240414D01*
X44351905Y-140145176D02*
X44590000Y-140240414D01*
X44590000Y-140240414D02*
X44828095Y-140145176D01*
X44447143Y-140430890D02*
X44590000Y-140240414D01*
X44590000Y-140240414D02*
X44732857Y-140430890D01*
X45351905Y-140002319D02*
X45351905Y-140240414D01*
X45113810Y-140145176D02*
X45351905Y-140240414D01*
X45351905Y-140240414D02*
X45590000Y-140145176D01*
X45209048Y-140430890D02*
X45351905Y-140240414D01*
X45351905Y-140240414D02*
X45494762Y-140430890D01*
X44066666Y-93244819D02*
X43733333Y-92768628D01*
X43495238Y-93244819D02*
X43495238Y-92244819D01*
X43495238Y-92244819D02*
X43876190Y-92244819D01*
X43876190Y-92244819D02*
X43971428Y-92292438D01*
X43971428Y-92292438D02*
X44019047Y-92340057D01*
X44019047Y-92340057D02*
X44066666Y-92435295D01*
X44066666Y-92435295D02*
X44066666Y-92578152D01*
X44066666Y-92578152D02*
X44019047Y-92673390D01*
X44019047Y-92673390D02*
X43971428Y-92721009D01*
X43971428Y-92721009D02*
X43876190Y-92768628D01*
X43876190Y-92768628D02*
X43495238Y-92768628D01*
X44495238Y-92721009D02*
X44828571Y-92721009D01*
X44971428Y-93244819D02*
X44495238Y-93244819D01*
X44495238Y-93244819D02*
X44495238Y-92244819D01*
X44495238Y-92244819D02*
X44971428Y-92244819D01*
X45733333Y-92721009D02*
X45400000Y-92721009D01*
X45400000Y-93244819D02*
X45400000Y-92244819D01*
X45400000Y-92244819D02*
X45876190Y-92244819D01*
X46400000Y-92244819D02*
X46400000Y-92482914D01*
X46161905Y-92387676D02*
X46400000Y-92482914D01*
X46400000Y-92482914D02*
X46638095Y-92387676D01*
X46257143Y-92673390D02*
X46400000Y-92482914D01*
X46400000Y-92482914D02*
X46542857Y-92673390D01*
X47161905Y-92244819D02*
X47161905Y-92482914D01*
X46923810Y-92387676D02*
X47161905Y-92482914D01*
X47161905Y-92482914D02*
X47400000Y-92387676D01*
X47019048Y-92673390D02*
X47161905Y-92482914D01*
X47161905Y-92482914D02*
X47304762Y-92673390D01*
X165746666Y-94494819D02*
X165413333Y-94018628D01*
X165175238Y-94494819D02*
X165175238Y-93494819D01*
X165175238Y-93494819D02*
X165556190Y-93494819D01*
X165556190Y-93494819D02*
X165651428Y-93542438D01*
X165651428Y-93542438D02*
X165699047Y-93590057D01*
X165699047Y-93590057D02*
X165746666Y-93685295D01*
X165746666Y-93685295D02*
X165746666Y-93828152D01*
X165746666Y-93828152D02*
X165699047Y-93923390D01*
X165699047Y-93923390D02*
X165651428Y-93971009D01*
X165651428Y-93971009D02*
X165556190Y-94018628D01*
X165556190Y-94018628D02*
X165175238Y-94018628D01*
X166175238Y-93971009D02*
X166508571Y-93971009D01*
X166651428Y-94494819D02*
X166175238Y-94494819D01*
X166175238Y-94494819D02*
X166175238Y-93494819D01*
X166175238Y-93494819D02*
X166651428Y-93494819D01*
X167413333Y-93971009D02*
X167080000Y-93971009D01*
X167080000Y-94494819D02*
X167080000Y-93494819D01*
X167080000Y-93494819D02*
X167556190Y-93494819D01*
X168080000Y-93494819D02*
X168080000Y-93732914D01*
X167841905Y-93637676D02*
X168080000Y-93732914D01*
X168080000Y-93732914D02*
X168318095Y-93637676D01*
X167937143Y-93923390D02*
X168080000Y-93732914D01*
X168080000Y-93732914D02*
X168222857Y-93923390D01*
X168841905Y-93494819D02*
X168841905Y-93732914D01*
X168603810Y-93637676D02*
X168841905Y-93732914D01*
X168841905Y-93732914D02*
X169080000Y-93637676D01*
X168699048Y-93923390D02*
X168841905Y-93732914D01*
X168841905Y-93732914D02*
X168984762Y-93923390D01*
X169756666Y-141204819D02*
X169423333Y-140728628D01*
X169185238Y-141204819D02*
X169185238Y-140204819D01*
X169185238Y-140204819D02*
X169566190Y-140204819D01*
X169566190Y-140204819D02*
X169661428Y-140252438D01*
X169661428Y-140252438D02*
X169709047Y-140300057D01*
X169709047Y-140300057D02*
X169756666Y-140395295D01*
X169756666Y-140395295D02*
X169756666Y-140538152D01*
X169756666Y-140538152D02*
X169709047Y-140633390D01*
X169709047Y-140633390D02*
X169661428Y-140681009D01*
X169661428Y-140681009D02*
X169566190Y-140728628D01*
X169566190Y-140728628D02*
X169185238Y-140728628D01*
X170185238Y-140681009D02*
X170518571Y-140681009D01*
X170661428Y-141204819D02*
X170185238Y-141204819D01*
X170185238Y-141204819D02*
X170185238Y-140204819D01*
X170185238Y-140204819D02*
X170661428Y-140204819D01*
X171423333Y-140681009D02*
X171090000Y-140681009D01*
X171090000Y-141204819D02*
X171090000Y-140204819D01*
X171090000Y-140204819D02*
X171566190Y-140204819D01*
X172090000Y-140204819D02*
X172090000Y-140442914D01*
X171851905Y-140347676D02*
X172090000Y-140442914D01*
X172090000Y-140442914D02*
X172328095Y-140347676D01*
X171947143Y-140633390D02*
X172090000Y-140442914D01*
X172090000Y-140442914D02*
X172232857Y-140633390D01*
X172851905Y-140204819D02*
X172851905Y-140442914D01*
X172613810Y-140347676D02*
X172851905Y-140442914D01*
X172851905Y-140442914D02*
X173090000Y-140347676D01*
X172709048Y-140633390D02*
X172851905Y-140442914D01*
X172851905Y-140442914D02*
X172994762Y-140633390D01*
X73754819Y-138941904D02*
X74564342Y-138941904D01*
X74564342Y-138941904D02*
X74659580Y-138894285D01*
X74659580Y-138894285D02*
X74707200Y-138846666D01*
X74707200Y-138846666D02*
X74754819Y-138751428D01*
X74754819Y-138751428D02*
X74754819Y-138560952D01*
X74754819Y-138560952D02*
X74707200Y-138465714D01*
X74707200Y-138465714D02*
X74659580Y-138418095D01*
X74659580Y-138418095D02*
X74564342Y-138370476D01*
X74564342Y-138370476D02*
X73754819Y-138370476D01*
X73850057Y-137941904D02*
X73802438Y-137894285D01*
X73802438Y-137894285D02*
X73754819Y-137799047D01*
X73754819Y-137799047D02*
X73754819Y-137560952D01*
X73754819Y-137560952D02*
X73802438Y-137465714D01*
X73802438Y-137465714D02*
X73850057Y-137418095D01*
X73850057Y-137418095D02*
X73945295Y-137370476D01*
X73945295Y-137370476D02*
X74040533Y-137370476D01*
X74040533Y-137370476D02*
X74183390Y-137418095D01*
X74183390Y-137418095D02*
X74754819Y-137989523D01*
X74754819Y-137989523D02*
X74754819Y-137370476D01*
D11*
%TO.C,D2*%
X105770000Y-126014000D02*
X105770000Y-126170000D01*
X105770000Y-128330000D02*
X105770000Y-128486000D01*
X105770000Y-126014484D02*
G75*
G02*
X109001437Y-126170000I1560000J-1235516D01*
G01*
X106289039Y-126170000D02*
G75*
G02*
X108370961Y-126170000I1040961J-1080000D01*
G01*
X108370961Y-128330000D02*
G75*
G02*
X106289039Y-128330000I-1040961J1080000D01*
G01*
X109001437Y-128330000D02*
G75*
G02*
X105770000Y-128485516I-1671437J1080000D01*
G01*
%TO.C,D1*%
X105810000Y-106444000D02*
X105810000Y-106600000D01*
X105810000Y-108760000D02*
X105810000Y-108916000D01*
X105810000Y-106444484D02*
G75*
G02*
X109041437Y-106600000I1560000J-1235516D01*
G01*
X106329039Y-106600000D02*
G75*
G02*
X108410961Y-106600000I1040961J-1080000D01*
G01*
X108410961Y-108760000D02*
G75*
G02*
X106329039Y-108760000I-1040961J1080000D01*
G01*
X109041437Y-108760000D02*
G75*
G02*
X105810000Y-108915516I-1671437J1080000D01*
G01*
D12*
%TO.C,U5*%
X139745000Y-98567500D02*
X168545000Y-98567500D01*
X139745000Y-139377500D02*
X139745000Y-98577500D01*
X168545000Y-98577500D02*
X168545000Y-139377500D01*
X168545000Y-139377500D02*
X139745000Y-139377500D01*
%TO.C,U1*%
X46070000Y-98662500D02*
X74870000Y-98662500D01*
X46070000Y-139472500D02*
X46070000Y-98672500D01*
X74870000Y-98672500D02*
X74870000Y-139472500D01*
X74870000Y-139472500D02*
X46070000Y-139472500D01*
%TO.C,U3*%
X110225000Y-98615000D02*
X139025000Y-98615000D01*
X110225000Y-139425000D02*
X110225000Y-98625000D01*
X139025000Y-98625000D02*
X139025000Y-139425000D01*
X139025000Y-139425000D02*
X110225000Y-139425000D01*
%TO.C,U2*%
X75450000Y-98670000D02*
X104250000Y-98670000D01*
X75450000Y-139480000D02*
X75450000Y-98680000D01*
X104250000Y-98680000D02*
X104250000Y-139480000D01*
X104250000Y-139480000D02*
X75450000Y-139480000D01*
%TD*%
M02*
