%TF.GenerationSoftware,KiCad,Pcbnew,9.0.2*%
%TF.CreationDate,2025-06-17T23:20:14+05:30*%
%TF.ProjectId,clock,636c6f63-6b2e-46b6-9963-61645f706362,rev?*%
%TF.SameCoordinates,Original*%
%TF.FileFunction,Copper,L2,Bot*%
%TF.FilePolarity,Positive*%
%FSLAX46Y46*%
G04 Gerber Fmt 4.6, Leading zero omitted, Abs format (unit mm)*
G04 Created by KiCad (PCBNEW 9.0.2) date 2025-06-17 23:20:14*
%MOMM*%
%LPD*%
G01*
G04 APERTURE LIST*
G04 Aperture macros list*
%AMRoundRect*
0 Rectangle with rounded corners*
0 $1 Rounding radius*
0 $2 $3 $4 $5 $6 $7 $8 $9 X,Y pos of 4 corners*
0 Add a 4 corners polygon primitive as box body*
4,1,4,$2,$3,$4,$5,$6,$7,$8,$9,$2,$3,0*
0 Add four circle primitives for the rounded corners*
1,1,$1+$1,$2,$3*
1,1,$1+$1,$4,$5*
1,1,$1+$1,$6,$7*
1,1,$1+$1,$8,$9*
0 Add four rect primitives between the rounded corners*
20,1,$1+$1,$2,$3,$4,$5,0*
20,1,$1+$1,$4,$5,$6,$7,0*
20,1,$1+$1,$6,$7,$8,$9,0*
20,1,$1+$1,$8,$9,$2,$3,0*%
G04 Aperture macros list end*
%TA.AperFunction,SMDPad,CuDef*%
%ADD10R,1.600000X1.800000*%
%TD*%
%TA.AperFunction,ComponentPad*%
%ADD11C,0.700000*%
%TD*%
%TA.AperFunction,ComponentPad*%
%ADD12C,4.400000*%
%TD*%
%TA.AperFunction,ComponentPad*%
%ADD13R,1.700000X1.700000*%
%TD*%
%TA.AperFunction,ComponentPad*%
%ADD14C,1.700000*%
%TD*%
%TA.AperFunction,ComponentPad*%
%ADD15R,1.800000X1.800000*%
%TD*%
%TA.AperFunction,ComponentPad*%
%ADD16C,1.800000*%
%TD*%
%TA.AperFunction,SMDPad,CuDef*%
%ADD17RoundRect,0.250000X1.050000X0.550000X-1.050000X0.550000X-1.050000X-0.550000X1.050000X-0.550000X0*%
%TD*%
%TA.AperFunction,SMDPad,CuDef*%
%ADD18RoundRect,0.250000X0.250000X0.475000X-0.250000X0.475000X-0.250000X-0.475000X0.250000X-0.475000X0*%
%TD*%
%TA.AperFunction,SMDPad,CuDef*%
%ADD19R,1.800000X1.600000*%
%TD*%
%TA.AperFunction,SMDPad,CuDef*%
%ADD20R,0.900000X1.500000*%
%TD*%
%TA.AperFunction,SMDPad,CuDef*%
%ADD21R,1.500000X0.900000*%
%TD*%
%TA.AperFunction,SMDPad,CuDef*%
%ADD22R,1.050000X1.050000*%
%TD*%
%TA.AperFunction,HeatsinkPad*%
%ADD23C,0.600000*%
%TD*%
%TA.AperFunction,HeatsinkPad*%
%ADD24R,4.200000X4.200000*%
%TD*%
%TA.AperFunction,ComponentPad*%
%ADD25C,2.000000*%
%TD*%
%TA.AperFunction,SMDPad,CuDef*%
%ADD26RoundRect,0.375000X0.625000X0.375000X-0.625000X0.375000X-0.625000X-0.375000X0.625000X-0.375000X0*%
%TD*%
%TA.AperFunction,SMDPad,CuDef*%
%ADD27RoundRect,0.500000X0.500000X1.400000X-0.500000X1.400000X-0.500000X-1.400000X0.500000X-1.400000X0*%
%TD*%
%TA.AperFunction,SMDPad,CuDef*%
%ADD28RoundRect,0.250000X-0.250000X-0.475000X0.250000X-0.475000X0.250000X0.475000X-0.250000X0.475000X0*%
%TD*%
%TA.AperFunction,SMDPad,CuDef*%
%ADD29RoundRect,0.248780X-0.261220X-0.451220X0.261220X-0.451220X0.261220X0.451220X-0.261220X0.451220X0*%
%TD*%
%TA.AperFunction,SMDPad,CuDef*%
%ADD30RoundRect,0.250000X-0.475000X0.250000X-0.475000X-0.250000X0.475000X-0.250000X0.475000X0.250000X0*%
%TD*%
%TA.AperFunction,ComponentPad*%
%ADD31RoundRect,0.250000X-0.550000X0.550000X-0.550000X-0.550000X0.550000X-0.550000X0.550000X0.550000X0*%
%TD*%
%TA.AperFunction,ComponentPad*%
%ADD32C,1.600000*%
%TD*%
%TA.AperFunction,ComponentPad*%
%ADD33RoundRect,0.250000X-0.600000X0.600000X-0.600000X-0.600000X0.600000X-0.600000X0.600000X0.600000X0*%
%TD*%
%TA.AperFunction,SMDPad,CuDef*%
%ADD34RoundRect,0.250000X0.475000X-0.250000X0.475000X0.250000X-0.475000X0.250000X-0.475000X-0.250000X0*%
%TD*%
%TA.AperFunction,SMDPad,CuDef*%
%ADD35RoundRect,0.248780X0.261220X0.451220X-0.261220X0.451220X-0.261220X-0.451220X0.261220X-0.451220X0*%
%TD*%
%TA.AperFunction,SMDPad,CuDef*%
%ADD36RoundRect,0.248780X-0.451220X0.261220X-0.451220X-0.261220X0.451220X-0.261220X0.451220X0.261220X0*%
%TD*%
%TA.AperFunction,SMDPad,CuDef*%
%ADD37RoundRect,0.250000X2.050000X0.300000X-2.050000X0.300000X-2.050000X-0.300000X2.050000X-0.300000X0*%
%TD*%
%TA.AperFunction,SMDPad,CuDef*%
%ADD38RoundRect,0.250002X4.449998X5.149998X-4.449998X5.149998X-4.449998X-5.149998X4.449998X-5.149998X0*%
%TD*%
%TA.AperFunction,ComponentPad*%
%ADD39R,2.000000X4.600000*%
%TD*%
%TA.AperFunction,ComponentPad*%
%ADD40O,2.000000X4.200000*%
%TD*%
%TA.AperFunction,ComponentPad*%
%ADD41O,4.200000X2.000000*%
%TD*%
%TA.AperFunction,SMDPad,CuDef*%
%ADD42RoundRect,0.250000X0.650000X-1.000000X0.650000X1.000000X-0.650000X1.000000X-0.650000X-1.000000X0*%
%TD*%
%TA.AperFunction,SMDPad,CuDef*%
%ADD43RoundRect,0.250000X-0.650000X1.000000X-0.650000X-1.000000X0.650000X-1.000000X0.650000X1.000000X0*%
%TD*%
%TA.AperFunction,SMDPad,CuDef*%
%ADD44R,5.400000X2.900000*%
%TD*%
%TA.AperFunction,SMDPad,CuDef*%
%ADD45RoundRect,0.150000X-0.587500X-0.150000X0.587500X-0.150000X0.587500X0.150000X-0.587500X0.150000X0*%
%TD*%
%TA.AperFunction,SMDPad,CuDef*%
%ADD46RoundRect,0.150000X0.587500X0.150000X-0.587500X0.150000X-0.587500X-0.150000X0.587500X-0.150000X0*%
%TD*%
%TA.AperFunction,ViaPad*%
%ADD47C,0.600000*%
%TD*%
%TA.AperFunction,Conductor*%
%ADD48C,0.200000*%
%TD*%
%TA.AperFunction,Conductor*%
%ADD49C,1.000000*%
%TD*%
%TA.AperFunction,Conductor*%
%ADD50C,0.500000*%
%TD*%
%TA.AperFunction,Conductor*%
%ADD51C,1.100000*%
%TD*%
G04 APERTURE END LIST*
D10*
%TO.P,C7,1*%
%TO.N,3.3V*%
X166600000Y-130800000D03*
%TO.P,C7,2*%
%TO.N,GND*%
X169400000Y-130800000D03*
%TD*%
D11*
%TO.P,REF\u002A\u002A,1*%
%TO.N,N/C*%
X169600000Y-144000000D03*
X170083274Y-142833274D03*
X170083274Y-145166726D03*
X171250000Y-142350000D03*
D12*
X171250000Y-144000000D03*
D11*
X171250000Y-145650000D03*
X172416726Y-142833274D03*
X172416726Y-145166726D03*
X172900000Y-144000000D03*
%TD*%
D13*
%TO.P,U5,1,CC*%
%TO.N,/DIG_3*%
X149035000Y-136537500D03*
D14*
%TO.P,U5,2,E*%
%TO.N,/E*%
X151575000Y-136537500D03*
%TO.P,U5,3,D*%
%TO.N,/D*%
X154115000Y-136537500D03*
%TO.P,U5,4,C*%
%TO.N,/C*%
X156655000Y-136537500D03*
%TO.P,U5,5,CC*%
%TO.N,unconnected-(U5-CC-Pad5)*%
X159195000Y-136537500D03*
%TO.P,U5,6,B*%
%TO.N,/B*%
X159105000Y-101187500D03*
%TO.P,U5,7,A*%
%TO.N,/A*%
X156565000Y-101187500D03*
%TO.P,U5,8,DP*%
%TO.N,unconnected-(U5-DP-Pad8)*%
X154025000Y-101187500D03*
%TO.P,U5,9,F*%
%TO.N,/F*%
X151485000Y-101187500D03*
%TO.P,U5,10,G*%
%TO.N,/G*%
X148945000Y-101187500D03*
%TD*%
D15*
%TO.P,D2,1,K*%
%TO.N,GND*%
X106060000Y-127250000D03*
D16*
%TO.P,D2,2,A*%
%TO.N,/Sec*%
X108600000Y-127250000D03*
%TD*%
D11*
%TO.P,REF\u002A\u002A,1*%
%TO.N,N/C*%
X43483274Y-95733274D03*
X43966548Y-94566548D03*
X43966548Y-96900000D03*
X45133274Y-94083274D03*
D12*
X45133274Y-95733274D03*
D11*
X45133274Y-97383274D03*
X46300000Y-94566548D03*
X46300000Y-96900000D03*
X46783274Y-95733274D03*
%TD*%
D13*
%TO.P,U1,1,CC*%
%TO.N,/DIG_0*%
X55360000Y-136632500D03*
D14*
%TO.P,U1,2,E*%
%TO.N,/E*%
X57900000Y-136632500D03*
%TO.P,U1,3,D*%
%TO.N,/D*%
X60440000Y-136632500D03*
%TO.P,U1,4,C*%
%TO.N,/C*%
X62980000Y-136632500D03*
%TO.P,U1,5,CC*%
%TO.N,unconnected-(U1-CC-Pad5)*%
X65520000Y-136632500D03*
%TO.P,U1,6,B*%
%TO.N,/B*%
X65430000Y-101282500D03*
%TO.P,U1,7,A*%
%TO.N,/A*%
X62890000Y-101282500D03*
%TO.P,U1,8,DP*%
%TO.N,unconnected-(U1-DP-Pad8)*%
X60350000Y-101282500D03*
%TO.P,U1,9,F*%
%TO.N,/F*%
X57810000Y-101282500D03*
%TO.P,U1,10,G*%
%TO.N,/G*%
X55270000Y-101282500D03*
%TD*%
D13*
%TO.P,U2,1,CC*%
%TO.N,/DIG_1*%
X84740000Y-136640000D03*
D14*
%TO.P,U2,2,E*%
%TO.N,/E*%
X87280000Y-136640000D03*
%TO.P,U2,3,D*%
%TO.N,/D*%
X89820000Y-136640000D03*
%TO.P,U2,4,C*%
%TO.N,/C*%
X92360000Y-136640000D03*
%TO.P,U2,5,CC*%
%TO.N,unconnected-(U2-CC-Pad5)*%
X94900000Y-136640000D03*
%TO.P,U2,6,B*%
%TO.N,/B*%
X94810000Y-101290000D03*
%TO.P,U2,7,A*%
%TO.N,/A*%
X92270000Y-101290000D03*
%TO.P,U2,8,DP*%
%TO.N,unconnected-(U2-DP-Pad8)*%
X89730000Y-101290000D03*
%TO.P,U2,9,F*%
%TO.N,/F*%
X87190000Y-101290000D03*
%TO.P,U2,10,G*%
%TO.N,/G*%
X84650000Y-101290000D03*
%TD*%
D15*
%TO.P,D1,1,K*%
%TO.N,GND*%
X106100000Y-107680000D03*
D16*
%TO.P,D1,2,A*%
%TO.N,/Sec*%
X108640000Y-107680000D03*
%TD*%
D13*
%TO.P,U3,1,CC*%
%TO.N,/DIG_2*%
X119515000Y-136585000D03*
D14*
%TO.P,U3,2,E*%
%TO.N,/E*%
X122055000Y-136585000D03*
%TO.P,U3,3,D*%
%TO.N,/D*%
X124595000Y-136585000D03*
%TO.P,U3,4,C*%
%TO.N,/C*%
X127135000Y-136585000D03*
%TO.P,U3,5,CC*%
%TO.N,unconnected-(U3-CC-Pad5)*%
X129675000Y-136585000D03*
%TO.P,U3,6,B*%
%TO.N,/B*%
X129585000Y-101235000D03*
%TO.P,U3,7,A*%
%TO.N,/A*%
X127045000Y-101235000D03*
%TO.P,U3,8,DP*%
%TO.N,unconnected-(U3-DP-Pad8)*%
X124505000Y-101235000D03*
%TO.P,U3,9,F*%
%TO.N,/F*%
X121965000Y-101235000D03*
%TO.P,U3,10,G*%
%TO.N,/G*%
X119425000Y-101235000D03*
%TD*%
D11*
%TO.P,REF\u002A\u002A,1*%
%TO.N,N/C*%
X169700000Y-95900000D03*
X170183274Y-94733274D03*
X170183274Y-97066726D03*
X171350000Y-94250000D03*
D12*
X171350000Y-95900000D03*
D11*
X171350000Y-97550000D03*
X172516726Y-94733274D03*
X172516726Y-97066726D03*
X173000000Y-95900000D03*
%TD*%
%TO.P,REF\u002A\u002A,1*%
%TO.N,N/C*%
X43800000Y-143740000D03*
X44283274Y-142573274D03*
X44283274Y-144906726D03*
X45450000Y-142090000D03*
D12*
X45450000Y-143740000D03*
D11*
X45450000Y-145390000D03*
X46616726Y-142573274D03*
X46616726Y-144906726D03*
X47100000Y-143740000D03*
%TD*%
D17*
%TO.P,C1,1*%
%TO.N,+5V*%
X87270000Y-116817500D03*
%TO.P,C1,2*%
%TO.N,GND*%
X83670000Y-116817500D03*
%TD*%
D18*
%TO.P,C12,1*%
%TO.N,+5V*%
X126590000Y-125575000D03*
%TO.P,C12,2*%
%TO.N,GND*%
X124690000Y-125575000D03*
%TD*%
D19*
%TO.P,C5,1*%
%TO.N,3.3V*%
X96260000Y-108787500D03*
%TO.P,C5,2*%
%TO.N,GND*%
X96260000Y-111587500D03*
%TD*%
D20*
%TO.P,U4,1,GND*%
%TO.N,GND*%
X169660000Y-125730000D03*
%TO.P,U4,2,VDD*%
%TO.N,3.3V*%
X168390000Y-125730000D03*
%TO.P,U4,3,EN*%
%TO.N,/EN*%
X167120000Y-125730000D03*
%TO.P,U4,4,SENSOR_VP*%
%TO.N,unconnected-(U4-SENSOR_VP-Pad4)*%
X165850000Y-125730000D03*
%TO.P,U4,5,SENSOR_VN*%
%TO.N,unconnected-(U4-SENSOR_VN-Pad5)*%
X164580000Y-125730000D03*
%TO.P,U4,6,IO34*%
%TO.N,unconnected-(U4-IO34-Pad6)*%
X163310000Y-125730000D03*
%TO.P,U4,7,IO35*%
%TO.N,unconnected-(U4-IO35-Pad7)*%
X162040000Y-125730000D03*
%TO.P,U4,8,IO32*%
%TO.N,unconnected-(U4-IO32-Pad8)*%
X160770000Y-125730000D03*
%TO.P,U4,9,IO33*%
%TO.N,unconnected-(U4-IO33-Pad9)*%
X159500000Y-125730000D03*
%TO.P,U4,10,IO25*%
%TO.N,unconnected-(U4-IO25-Pad10)*%
X158230000Y-125730000D03*
%TO.P,U4,11,IO26*%
%TO.N,unconnected-(U4-IO26-Pad11)*%
X156960000Y-125730000D03*
%TO.P,U4,12,IO27*%
%TO.N,unconnected-(U4-IO27-Pad12)*%
X155690000Y-125730000D03*
%TO.P,U4,13,IO14*%
%TO.N,unconnected-(U4-IO14-Pad13)*%
X154420000Y-125730000D03*
%TO.P,U4,14,IO12*%
%TO.N,unconnected-(U4-IO12-Pad14)*%
X153150000Y-125730000D03*
D21*
%TO.P,U4,15,GND*%
%TO.N,GND*%
X151900000Y-122690000D03*
%TO.P,U4,16,IO13*%
%TO.N,unconnected-(U4-IO13-Pad16)*%
X151900000Y-121420000D03*
%TO.P,U4,17,SHD/SD2*%
%TO.N,unconnected-(U4-SHD{slash}SD2-Pad17)*%
X151900000Y-120150000D03*
%TO.P,U4,18,SWP/SD3*%
%TO.N,unconnected-(U4-SWP{slash}SD3-Pad18)*%
X151900000Y-118880000D03*
%TO.P,U4,19,SCS/CMD*%
%TO.N,unconnected-(U4-SCS{slash}CMD-Pad19)*%
X151900000Y-117610000D03*
%TO.P,U4,20,SCK/CLK*%
%TO.N,unconnected-(U4-SCK{slash}CLK-Pad20)*%
X151900000Y-116340000D03*
%TO.P,U4,21,SDO/SD0*%
%TO.N,unconnected-(U4-SDO{slash}SD0-Pad21)*%
X151900000Y-115070000D03*
%TO.P,U4,22,SDI/SD1*%
%TO.N,unconnected-(U4-SDI{slash}SD1-Pad22)*%
X151900000Y-113800000D03*
%TO.P,U4,23,IO15*%
%TO.N,unconnected-(U4-IO15-Pad23)*%
X151900000Y-112530000D03*
%TO.P,U4,24,IO2*%
%TO.N,unconnected-(U4-IO2-Pad24)*%
X151900000Y-111260000D03*
D20*
%TO.P,U4,25,IO0*%
%TO.N,/IO0*%
X153150000Y-108230000D03*
%TO.P,U4,26,IO4*%
%TO.N,unconnected-(U4-IO4-Pad26)*%
X154420000Y-108230000D03*
%TO.P,U4,27,IO16*%
%TO.N,unconnected-(U4-IO16-Pad27)*%
X155690000Y-108230000D03*
%TO.P,U4,28,IO17*%
%TO.N,unconnected-(U4-IO17-Pad28)*%
X156960000Y-108230000D03*
%TO.P,U4,29,IO5*%
%TO.N,/CS*%
X158230000Y-108230000D03*
%TO.P,U4,30,IO18*%
%TO.N,/CLK*%
X159500000Y-108230000D03*
%TO.P,U4,31,IO19*%
%TO.N,unconnected-(U4-IO19-Pad31)*%
X160770000Y-108230000D03*
%TO.P,U4,32,NC*%
%TO.N,unconnected-(U4-NC-Pad32)*%
X162040000Y-108230000D03*
%TO.P,U4,33,IO21*%
%TO.N,unconnected-(U4-IO21-Pad33)*%
X163310000Y-108230000D03*
%TO.P,U4,34,RXD0/IO3*%
%TO.N,/RXD0*%
X164580000Y-108230000D03*
%TO.P,U4,35,TXD0/IO1*%
%TO.N,/TXD0*%
X165850000Y-108230000D03*
%TO.P,U4,36,IO22*%
%TO.N,unconnected-(U4-IO22-Pad36)*%
X167120000Y-108230000D03*
%TO.P,U4,37,IO23*%
%TO.N,/MOSI*%
X168390000Y-108230000D03*
%TO.P,U4,38,GND*%
%TO.N,GND*%
X169660000Y-108230000D03*
D22*
%TO.P,U4,39,GND*%
X160795000Y-119185000D03*
D23*
X161557500Y-119185000D03*
D22*
X162320000Y-119185000D03*
D23*
X163082500Y-119185000D03*
D22*
X163845000Y-119185000D03*
D23*
X160795000Y-118422500D03*
X162320000Y-118422500D03*
X163845000Y-118422500D03*
D22*
X160795000Y-117660000D03*
D23*
X161557500Y-117660000D03*
D22*
X162320000Y-117660000D03*
D24*
X162320000Y-117660000D03*
D23*
X163082500Y-117660000D03*
D22*
X163845000Y-117660000D03*
D23*
X160795000Y-116897500D03*
X162320000Y-116897500D03*
X163845000Y-116897500D03*
D22*
X160795000Y-116135000D03*
D23*
X161557500Y-116135000D03*
D22*
X162320000Y-116135000D03*
D23*
X163082500Y-116135000D03*
D22*
X163845000Y-116135000D03*
%TD*%
D16*
%TO.P,SW1,1,1*%
%TO.N,GND*%
X171450000Y-134650000D03*
%TO.P,SW1,2,2*%
%TO.N,/EN*%
X171450000Y-139150000D03*
D25*
%TO.P,SW1,M1,M1*%
%TO.N,unconnected-(SW1-PadM1)*%
X168950000Y-133400000D03*
%TO.P,SW1,M2,M2*%
%TO.N,unconnected-(SW1-PadM2)*%
X168950000Y-140400000D03*
%TD*%
D26*
%TO.P,U7,1,GND*%
%TO.N,GND*%
X92230000Y-107017500D03*
%TO.P,U7,2,VO*%
%TO.N,3.3V*%
X92230000Y-109317500D03*
D27*
X85930000Y-109317500D03*
D26*
%TO.P,U7,3,VI*%
%TO.N,+5V*%
X92230000Y-111617500D03*
%TD*%
D28*
%TO.P,C8,1*%
%TO.N,3.3V*%
X168075000Y-128195000D03*
%TO.P,C8,2*%
%TO.N,GND*%
X169975000Y-128195000D03*
%TD*%
D29*
%TO.P,R3,1*%
%TO.N,/DTR*%
X157980000Y-131800000D03*
%TO.P,R3,2*%
%TO.N,Net-(Q1-B)*%
X159800000Y-131800000D03*
%TD*%
D30*
%TO.P,C2,1*%
%TO.N,+5V*%
X91390000Y-114547500D03*
%TO.P,C2,2*%
%TO.N,GND*%
X91390000Y-116447500D03*
%TD*%
D31*
%TO.P,U6,1,DIN*%
%TO.N,/MOSI*%
X113750000Y-114950000D03*
D32*
%TO.P,U6,2,DIG_0*%
%TO.N,/DIG_0*%
X116290000Y-114950000D03*
%TO.P,U6,3,DIG_4*%
%TO.N,unconnected-(U6-DIG_4-Pad3)*%
X118830000Y-114950000D03*
%TO.P,U6,4,GND*%
%TO.N,GND*%
X121370000Y-114950000D03*
%TO.P,U6,5,DIG_6*%
%TO.N,unconnected-(U6-DIG_6-Pad5)*%
X123910000Y-114950000D03*
%TO.P,U6,6,DIG_2*%
%TO.N,/DIG_2*%
X126450000Y-114950000D03*
%TO.P,U6,7,DIG_3*%
%TO.N,/DIG_3*%
X128990000Y-114950000D03*
%TO.P,U6,8,DIG_7*%
%TO.N,unconnected-(U6-DIG_7-Pad8)*%
X131530000Y-114950000D03*
%TO.P,U6,9,GND*%
%TO.N,GND*%
X134070000Y-114950000D03*
%TO.P,U6,10,DIG_5*%
%TO.N,unconnected-(U6-DIG_5-Pad10)*%
X136610000Y-114950000D03*
%TO.P,U6,11,DIG_1*%
%TO.N,/DIG_1*%
X139150000Y-114950000D03*
%TO.P,U6,12,~{CS}*%
%TO.N,/CS*%
X141690000Y-114950000D03*
%TO.P,U6,13,CLK*%
%TO.N,/CLK*%
X141690000Y-122570000D03*
%TO.P,U6,14,SEG_A*%
%TO.N,/A*%
X139150000Y-122570000D03*
%TO.P,U6,15,SEG_F*%
%TO.N,/F*%
X136610000Y-122570000D03*
%TO.P,U6,16,SEG_B*%
%TO.N,/B*%
X134070000Y-122570000D03*
%TO.P,U6,17,SEG_G*%
%TO.N,/G*%
X131530000Y-122570000D03*
%TO.P,U6,18,ISET*%
%TO.N,Net-(U6-ISET)*%
X128990000Y-122570000D03*
%TO.P,U6,19,V+*%
%TO.N,+5V*%
X126450000Y-122570000D03*
%TO.P,U6,20,SEG_C*%
%TO.N,/C*%
X123910000Y-122570000D03*
%TO.P,U6,21,SEG_E*%
%TO.N,/E*%
X121370000Y-122570000D03*
%TO.P,U6,22,SEG_DP*%
%TO.N,unconnected-(U6-SEG_DP-Pad22)*%
X118830000Y-122570000D03*
%TO.P,U6,23,SEG_D*%
%TO.N,/D*%
X116290000Y-122570000D03*
%TO.P,U6,24,DOUT*%
%TO.N,unconnected-(U6-DOUT-Pad24)*%
X113750000Y-122570000D03*
%TD*%
%TO.P,C3,1*%
%TO.N,/pwr_in*%
X68590000Y-113327500D03*
%TO.P,C3,2*%
%TO.N,GND*%
X68590000Y-110827500D03*
%TD*%
D33*
%TO.P,J2,1,Pin_1*%
%TO.N,/DTR*%
X157330000Y-141270000D03*
D14*
%TO.P,J2,2,Pin_2*%
%TO.N,/RXD0*%
X157330000Y-143810000D03*
%TO.P,J2,3,Pin_3*%
%TO.N,+5V*%
X159870000Y-141270000D03*
%TO.P,J2,4,Pin_4*%
%TO.N,/RTS*%
X159870000Y-143810000D03*
%TO.P,J2,5,Pin_5*%
%TO.N,/TXD0*%
X162410000Y-141270000D03*
%TO.P,J2,6,Pin_6*%
%TO.N,GND*%
X162410000Y-143810000D03*
%TD*%
D18*
%TO.P,C11,1*%
%TO.N,/EN*%
X165330000Y-138170000D03*
%TO.P,C11,2*%
%TO.N,GND*%
X163430000Y-138170000D03*
%TD*%
D34*
%TO.P,C4,1*%
%TO.N,/pwr_in*%
X65380000Y-118397500D03*
%TO.P,C4,2*%
%TO.N,GND*%
X65380000Y-116497500D03*
%TD*%
D35*
%TO.P,R2,1*%
%TO.N,/RTS*%
X159750000Y-129370000D03*
%TO.P,R2,2*%
%TO.N,Net-(Q2-B)*%
X157930000Y-129370000D03*
%TD*%
D36*
%TO.P,R1,1*%
%TO.N,Net-(U6-ISET)*%
X129030000Y-125065000D03*
%TO.P,R1,2*%
%TO.N,+5V*%
X129030000Y-126885000D03*
%TD*%
D37*
%TO.P,U8,1,VIN*%
%TO.N,/pwr_in*%
X60470000Y-118447500D03*
%TO.P,U8,2,OUT*%
%TO.N,Net-(U8-OUT)*%
X60470000Y-120147500D03*
%TO.P,U8,3,GND*%
%TO.N,GND*%
X60470000Y-121847500D03*
D38*
X51320000Y-121847500D03*
D37*
%TO.P,U8,4,FB*%
%TO.N,+5V*%
X60470000Y-123547500D03*
%TO.P,U8,5,~{ON}/OFF*%
%TO.N,GND*%
X60470000Y-125247500D03*
%TD*%
D29*
%TO.P,R4,1*%
%TO.N,/EN*%
X163430000Y-135450000D03*
%TO.P,R4,2*%
%TO.N,3.3V*%
X165250000Y-135450000D03*
%TD*%
D18*
%TO.P,C10,1*%
%TO.N,+5V*%
X86750000Y-122100000D03*
%TO.P,C10,2*%
%TO.N,GND*%
X84850000Y-122100000D03*
%TD*%
D39*
%TO.P,J1,1*%
%TO.N,Net-(D3-A)*%
X58560000Y-109237500D03*
D40*
%TO.P,J1,2*%
%TO.N,GND*%
X52260000Y-109237500D03*
D41*
%TO.P,J1,3*%
X55660000Y-104437500D03*
%TD*%
D32*
%TO.P,C9,1*%
%TO.N,+5V*%
X87100000Y-126700000D03*
%TO.P,C9,2*%
%TO.N,GND*%
X84600000Y-126700000D03*
%TD*%
D30*
%TO.P,C6,1*%
%TO.N,3.3V*%
X99500000Y-109257500D03*
%TO.P,C6,2*%
%TO.N,GND*%
X99500000Y-111157500D03*
%TD*%
D42*
%TO.P,D3,1,K*%
%TO.N,/pwr_in*%
X62500000Y-113305000D03*
%TO.P,D3,2,A*%
%TO.N,Net-(D3-A)*%
X62500000Y-109305000D03*
%TD*%
D43*
%TO.P,D4,1*%
%TO.N,Net-(U8-OUT)*%
X65800000Y-121557500D03*
%TO.P,D4,2*%
%TO.N,GND*%
X65800000Y-125557500D03*
%TD*%
D44*
%TO.P,L1,1,1*%
%TO.N,Net-(U8-OUT)*%
X75360000Y-119237500D03*
%TO.P,L1,2,2*%
%TO.N,+5V*%
X75360000Y-129137500D03*
%TD*%
D45*
%TO.P,Q1,1,B*%
%TO.N,Net-(Q1-B)*%
X162470000Y-131580000D03*
%TO.P,Q1,2,E*%
%TO.N,/RTS*%
X162470000Y-129680000D03*
%TO.P,Q1,3,C*%
%TO.N,/EN*%
X164345000Y-130630000D03*
%TD*%
D46*
%TO.P,Q2,1,B*%
%TO.N,Net-(Q2-B)*%
X155487500Y-129637500D03*
%TO.P,Q2,2,E*%
%TO.N,/DTR*%
X155487500Y-131537500D03*
%TO.P,Q2,3,C*%
%TO.N,/IO0*%
X153612500Y-130587500D03*
%TD*%
D47*
%TO.N,GND*%
X57520000Y-121847500D03*
X92960000Y-116480000D03*
X169660000Y-124380000D03*
X96260000Y-112990000D03*
X125250000Y-120770000D03*
X169650000Y-110140000D03*
X81500000Y-116800000D03*
X92240000Y-105300000D03*
X83200000Y-122100000D03*
X65380000Y-115450000D03*
X56620000Y-121847500D03*
X99500000Y-112300000D03*
X134080000Y-106510000D03*
X153440000Y-122690000D03*
X67690000Y-125570000D03*
%TO.N,/EN*%
X162150000Y-135500000D03*
X163590000Y-127950000D03*
%TO.N,/RXD0*%
X164580000Y-109950000D03*
%TO.N,/DTR*%
X155500000Y-132530000D03*
%TO.N,/TXD0*%
X165850000Y-109940000D03*
%TO.N,/RTS*%
X161120000Y-136380000D03*
X162900000Y-130600000D03*
%TO.N,/A*%
X64700000Y-97390000D03*
X122320000Y-97390000D03*
X86300000Y-97390000D03*
%TO.N,/F*%
X117480000Y-98390000D03*
X59800000Y-98390000D03*
X83990000Y-98390000D03*
%TO.N,/B*%
X69100000Y-96380000D03*
X88590000Y-96380000D03*
X125820000Y-96380000D03*
%TO.N,/E*%
X90340000Y-140340000D03*
X149910000Y-140310000D03*
X124671157Y-140339999D03*
%TO.N,/D*%
X153220000Y-139390000D03*
X92620000Y-139400000D03*
X128440000Y-139390000D03*
%TO.N,/DIG_2*%
X127820000Y-130070000D03*
%TO.N,/DIG_1*%
X121300000Y-117360000D03*
%TO.N,/Sec*%
X101470000Y-116380000D03*
%TO.N,/CLK*%
X153800000Y-124000000D03*
X145000000Y-126800000D03*
%TD*%
D48*
%TO.N,/EN*%
X167120000Y-127200000D02*
X167120000Y-125730000D01*
X165770000Y-128540000D02*
X165780000Y-128540000D01*
X165770000Y-128550000D02*
X165770000Y-128540000D01*
X164560000Y-128920000D02*
X165400000Y-128920000D01*
X165400000Y-128920000D02*
X165770000Y-128550000D01*
X165780000Y-128540000D02*
X167120000Y-127200000D01*
X163590000Y-127950000D02*
X164560000Y-128920000D01*
D49*
%TO.N,+5V*%
X159870000Y-140040000D02*
X159870000Y-141270000D01*
X158950000Y-139120000D02*
X159870000Y-140040000D01*
X152690000Y-142300000D02*
X155870000Y-139120000D01*
X146430000Y-142300000D02*
X152690000Y-142300000D01*
X131015000Y-126885000D02*
X146430000Y-142300000D01*
X129030000Y-126885000D02*
X131015000Y-126885000D01*
X155870000Y-139120000D02*
X158950000Y-139120000D01*
X128645000Y-127270000D02*
X129030000Y-126885000D01*
X126590000Y-127270000D02*
X128645000Y-127270000D01*
X114800000Y-127900000D02*
X125960000Y-127900000D01*
X111900000Y-130800000D02*
X114800000Y-127900000D01*
X96500000Y-130800000D02*
X111900000Y-130800000D01*
X87800000Y-122100000D02*
X96500000Y-130800000D01*
X86750000Y-122100000D02*
X87800000Y-122100000D01*
X125960000Y-127900000D02*
X126590000Y-127270000D01*
D48*
%TO.N,GND*%
X134070000Y-114950000D02*
X134070000Y-106520000D01*
D50*
X169975000Y-128195000D02*
X169975000Y-127355000D01*
D49*
X60470000Y-121847500D02*
X57520000Y-121847500D01*
D50*
X151900000Y-122690000D02*
X153440000Y-122690000D01*
D48*
X164200000Y-143220000D02*
X164200000Y-140190000D01*
X164200000Y-140190000D02*
X163430000Y-139420000D01*
D50*
X92960000Y-116480000D02*
X94180000Y-116480000D01*
D49*
X67677500Y-125557500D02*
X67690000Y-125570000D01*
D50*
X83670000Y-116817500D02*
X81517500Y-116817500D01*
X104950000Y-127250000D02*
X106060000Y-127250000D01*
X94180000Y-116480000D02*
X104950000Y-127250000D01*
X169660000Y-127040000D02*
X169660000Y-125730000D01*
D49*
X65490000Y-125247500D02*
X65800000Y-125557500D01*
D48*
X134070000Y-106520000D02*
X134080000Y-106510000D01*
X163430000Y-139420000D02*
X163430000Y-138170000D01*
D49*
X56620000Y-121847500D02*
X51320000Y-121847500D01*
D48*
X125250000Y-123810000D02*
X124690000Y-124370000D01*
D49*
X60470000Y-125247500D02*
X65490000Y-125247500D01*
D50*
X169975000Y-128195000D02*
X169975000Y-129862500D01*
X169660000Y-125730000D02*
X169660000Y-124380000D01*
X92927500Y-116447500D02*
X91390000Y-116447500D01*
X84850000Y-122100000D02*
X83200000Y-122100000D01*
X169660000Y-108230000D02*
X169660000Y-110130000D01*
X99500000Y-111157500D02*
X99500000Y-112300000D01*
X92230000Y-107017500D02*
X92230000Y-105310000D01*
X92960000Y-116480000D02*
X92927500Y-116447500D01*
D49*
X65800000Y-125557500D02*
X67677500Y-125557500D01*
D48*
X163610000Y-143810000D02*
X164200000Y-143220000D01*
D49*
X57520000Y-121847500D02*
X56620000Y-121847500D01*
D50*
X169660000Y-110130000D02*
X169650000Y-110140000D01*
X92230000Y-105310000D02*
X92240000Y-105300000D01*
D48*
X162410000Y-143810000D02*
X163610000Y-143810000D01*
D50*
X96260000Y-111587500D02*
X96260000Y-112990000D01*
D48*
X65380000Y-116497500D02*
X65380000Y-115450000D01*
D50*
X169975000Y-127355000D02*
X169660000Y-127040000D01*
D48*
X125250000Y-120770000D02*
X125250000Y-123810000D01*
D50*
X169975000Y-129862500D02*
X169037500Y-130800000D01*
D48*
X124690000Y-124370000D02*
X124690000Y-125575000D01*
D51*
%TO.N,/pwr_in*%
X65380000Y-118397500D02*
X66830000Y-118397500D01*
X68590000Y-116637500D02*
X68590000Y-113327500D01*
X68567500Y-113305000D02*
X68590000Y-113327500D01*
X65330000Y-118447500D02*
X65380000Y-118397500D01*
X60470000Y-118447500D02*
X65330000Y-118447500D01*
X62500000Y-113305000D02*
X68567500Y-113305000D01*
X66830000Y-118397500D02*
X68590000Y-116637500D01*
D50*
%TO.N,3.3V*%
X167010000Y-129480000D02*
X167015000Y-129485000D01*
D49*
X94612500Y-108787500D02*
X96260000Y-108787500D01*
D50*
X147600000Y-132690000D02*
X148920000Y-134010000D01*
X168075000Y-128415000D02*
X167010000Y-129480000D01*
X168075000Y-128195000D02*
X168075000Y-128415000D01*
X168390000Y-125730000D02*
X168390000Y-126790000D01*
X147600000Y-124250000D02*
X147600000Y-132690000D01*
X166480000Y-133020000D02*
X166480000Y-134540000D01*
X166900000Y-131030000D02*
X166900000Y-132600000D01*
D49*
X96260000Y-108787500D02*
X97187500Y-108787500D01*
D50*
X166900000Y-132600000D02*
X166480000Y-133020000D01*
X101887500Y-109257500D02*
X111760000Y-119130000D01*
X111760000Y-119130000D02*
X142480000Y-119130000D01*
X168075000Y-127105000D02*
X168075000Y-128195000D01*
X168390000Y-126790000D02*
X168075000Y-127105000D01*
D49*
X94082500Y-109317500D02*
X94612500Y-108787500D01*
D50*
X167015000Y-129485000D02*
X167015000Y-130915000D01*
X166480000Y-134540000D02*
X165570000Y-135450000D01*
D49*
X97187500Y-108787500D02*
X97657500Y-109257500D01*
D50*
X165250000Y-134550000D02*
X165250000Y-135450000D01*
D49*
X92230000Y-109317500D02*
X94082500Y-109317500D01*
X97657500Y-109257500D02*
X99500000Y-109257500D01*
D50*
X99500000Y-109257500D02*
X101887500Y-109257500D01*
X164710000Y-134010000D02*
X165250000Y-134550000D01*
D49*
X85930000Y-109317500D02*
X92230000Y-109317500D01*
D50*
X148920000Y-134010000D02*
X164710000Y-134010000D01*
X165570000Y-135450000D02*
X165250000Y-135450000D01*
X142480000Y-119130000D02*
X147600000Y-124250000D01*
D48*
%TO.N,/EN*%
X165330000Y-138170000D02*
X165330000Y-137930000D01*
X165330000Y-138170000D02*
X170470000Y-138170000D01*
X165150000Y-137990000D02*
X165330000Y-138170000D01*
X164345000Y-128705000D02*
X163590000Y-127950000D01*
X170470000Y-138170000D02*
X171450000Y-139150000D01*
X163430000Y-136030000D02*
X163430000Y-135450000D01*
X164345000Y-130630000D02*
X164345000Y-128705000D01*
X162150000Y-135500000D02*
X163380000Y-135500000D01*
X163380000Y-135500000D02*
X163430000Y-135450000D01*
X165330000Y-137930000D02*
X163430000Y-136030000D01*
D51*
%TO.N,Net-(D3-A)*%
X58560000Y-109237500D02*
X62432500Y-109237500D01*
X62432500Y-109237500D02*
X62500000Y-109305000D01*
%TO.N,Net-(U8-OUT)*%
X65800000Y-121557500D02*
X67690000Y-121557500D01*
D49*
X60470000Y-120147500D02*
X64390000Y-120147500D01*
D51*
X67690000Y-121557500D02*
X70010000Y-119237500D01*
X70010000Y-119237500D02*
X75360000Y-119237500D01*
D49*
X64390000Y-120147500D02*
X65800000Y-121557500D01*
D48*
%TO.N,/RXD0*%
X164580000Y-108230000D02*
X164580000Y-109950000D01*
%TO.N,/DTR*%
X156800000Y-131810000D02*
X157970000Y-131810000D01*
X157970000Y-131810000D02*
X157980000Y-131800000D01*
X155500000Y-132530000D02*
X155500000Y-132270000D01*
X155487500Y-131537500D02*
X156527500Y-131537500D01*
X156527500Y-131537500D02*
X156800000Y-131810000D01*
X155500000Y-132270000D02*
X155487500Y-132257500D01*
X155487500Y-132257500D02*
X155487500Y-131537500D01*
%TO.N,/TXD0*%
X165850000Y-108230000D02*
X165850000Y-109940000D01*
%TO.N,/RTS*%
X160050000Y-143810000D02*
X159870000Y-143810000D01*
X161120000Y-136380000D02*
X161120000Y-142740000D01*
X160840000Y-129370000D02*
X159750000Y-129370000D01*
X161120000Y-142740000D02*
X160050000Y-143810000D01*
X161150000Y-129680000D02*
X160840000Y-129370000D01*
X162900000Y-130600000D02*
X162470000Y-130170000D01*
X162470000Y-130170000D02*
X162470000Y-129680000D01*
X162470000Y-129680000D02*
X161150000Y-129680000D01*
%TO.N,Net-(Q1-B)*%
X162470000Y-131580000D02*
X161210000Y-131580000D01*
X161210000Y-131580000D02*
X160990000Y-131800000D01*
X160990000Y-131800000D02*
X159800000Y-131800000D01*
%TO.N,/IO0*%
X149770000Y-128330000D02*
X149770000Y-108130000D01*
X152027500Y-130587500D02*
X149770000Y-128330000D01*
X152600000Y-106800000D02*
X153150000Y-107350000D01*
X153612500Y-130587500D02*
X152027500Y-130587500D01*
X153150000Y-107350000D02*
X153150000Y-108230000D01*
X151100000Y-106800000D02*
X152600000Y-106800000D01*
X149770000Y-108130000D02*
X151100000Y-106800000D01*
%TO.N,Net-(Q2-B)*%
X155487500Y-129637500D02*
X156392500Y-129637500D01*
X156660000Y-129370000D02*
X157930000Y-129370000D01*
X156392500Y-129637500D02*
X156660000Y-129370000D01*
D50*
%TO.N,Net-(U6-ISET)*%
X129030000Y-122610000D02*
X128990000Y-122570000D01*
X129030000Y-125065000D02*
X129030000Y-122610000D01*
D51*
%TO.N,+5V*%
X60470000Y-123547500D02*
X57850000Y-123547500D01*
D49*
X87270000Y-116817500D02*
X87270000Y-115530000D01*
X87300000Y-119800000D02*
X87300000Y-116847500D01*
D51*
X57850000Y-123547500D02*
X57130000Y-124267500D01*
D49*
X87100000Y-125000000D02*
X87100000Y-126700000D01*
X88252500Y-114547500D02*
X91390000Y-114547500D01*
X87100000Y-127800000D02*
X87100000Y-126700000D01*
D51*
X57130000Y-124267500D02*
X57130000Y-127587500D01*
D49*
X87300000Y-116847500D02*
X87270000Y-116817500D01*
X87270000Y-115530000D02*
X88252500Y-114547500D01*
D51*
X91390000Y-114547500D02*
X91440000Y-114547500D01*
D49*
X91390000Y-114547500D02*
X92230000Y-113707500D01*
X92230000Y-113707500D02*
X92230000Y-111617500D01*
D51*
X58680000Y-129137500D02*
X75360000Y-129137500D01*
D49*
X86750000Y-124650000D02*
X87100000Y-125000000D01*
D50*
X126590000Y-127270000D02*
X126590000Y-125575000D01*
X126590000Y-125575000D02*
X126590000Y-122710000D01*
D49*
X91342500Y-114500000D02*
X91390000Y-114547500D01*
X85762500Y-129137500D02*
X87100000Y-127800000D01*
X75360000Y-129137500D02*
X85762500Y-129137500D01*
X86750000Y-122100000D02*
X86750000Y-124650000D01*
D50*
X126400000Y-122520000D02*
X126450000Y-122570000D01*
X126590000Y-122710000D02*
X126450000Y-122570000D01*
D49*
X86750000Y-120350000D02*
X87300000Y-119800000D01*
D51*
X91370000Y-114527500D02*
X91390000Y-114547500D01*
D49*
X86750000Y-122100000D02*
X86750000Y-120350000D01*
D51*
X57130000Y-127587500D02*
X58680000Y-129137500D01*
D50*
%TO.N,/A*%
X124890000Y-97390000D02*
X127030000Y-99530000D01*
X127030000Y-99530000D02*
X127030000Y-101220000D01*
X92200000Y-100240000D02*
X92200000Y-101220000D01*
X127030000Y-101220000D02*
X127045000Y-101235000D01*
X89350000Y-97390000D02*
X92200000Y-100240000D01*
X86300000Y-97390000D02*
X89350000Y-97390000D01*
X64020000Y-97390000D02*
X62890000Y-98520000D01*
X122320000Y-97390000D02*
X124890000Y-97390000D01*
X62890000Y-98520000D02*
X62890000Y-101282500D01*
X64700000Y-97390000D02*
X64020000Y-97390000D01*
X92200000Y-101220000D02*
X92270000Y-101290000D01*
%TO.N,/F*%
X87190000Y-99670000D02*
X87190000Y-101290000D01*
X117480000Y-98390000D02*
X120790000Y-98390000D01*
X59800000Y-98390000D02*
X59140000Y-98390000D01*
X85910000Y-98390000D02*
X87190000Y-99670000D01*
X83990000Y-98390000D02*
X85910000Y-98390000D01*
X121965000Y-99565000D02*
X121965000Y-101235000D01*
X57810000Y-99720000D02*
X57810000Y-101282500D01*
X59140000Y-98390000D02*
X57810000Y-99720000D01*
X120790000Y-98390000D02*
X121965000Y-99565000D01*
%TO.N,/B*%
X127380000Y-96380000D02*
X129600000Y-98600000D01*
X69100000Y-96380000D02*
X67720000Y-96380000D01*
X88590000Y-96380000D02*
X91600000Y-96380000D01*
X91600000Y-96380000D02*
X94810000Y-99590000D01*
X67720000Y-96380000D02*
X65430000Y-98670000D01*
X94810000Y-99590000D02*
X94810000Y-101290000D01*
X125820000Y-96380000D02*
X127380000Y-96380000D01*
X129585000Y-98615000D02*
X129585000Y-101235000D01*
X65430000Y-98670000D02*
X65430000Y-101282500D01*
X129600000Y-98600000D02*
X129585000Y-98615000D01*
%TO.N,/E*%
X87280000Y-138340000D02*
X87280000Y-136640000D01*
X151575000Y-136537500D02*
X151575000Y-138645000D01*
X89280000Y-140340000D02*
X87280000Y-138340000D01*
X90340000Y-140340000D02*
X89280000Y-140340000D01*
X124671157Y-140339999D02*
X124029999Y-140339999D01*
X122055000Y-138365000D02*
X122055000Y-136585000D01*
X151575000Y-138645000D02*
X149910000Y-140310000D01*
X124029999Y-140339999D02*
X122055000Y-138365000D01*
%TO.N,/D*%
X91420000Y-139400000D02*
X89820000Y-137800000D01*
X89820000Y-137800000D02*
X89820000Y-136640000D01*
X154115000Y-138495000D02*
X153220000Y-139390000D01*
X92620000Y-139400000D02*
X91420000Y-139400000D01*
X154115000Y-136537500D02*
X154115000Y-138495000D01*
X124595000Y-137915000D02*
X124595000Y-136585000D01*
X126070000Y-139390000D02*
X124595000Y-137915000D01*
X128440000Y-139390000D02*
X126070000Y-139390000D01*
D48*
%TO.N,/DIG_2*%
X124700000Y-129610000D02*
X127350000Y-129610000D01*
X127810000Y-130070000D02*
X127820000Y-130070000D01*
X119520000Y-136580000D02*
X119520000Y-134790000D01*
X119520000Y-134790000D02*
X124700000Y-129610000D01*
X127350000Y-129610000D02*
X127810000Y-130070000D01*
X119515000Y-136585000D02*
X119520000Y-136580000D01*
%TO.N,/DIG_1*%
X121430000Y-117490000D02*
X137950000Y-117490000D01*
X137950000Y-117490000D02*
X139150000Y-116290000D01*
X139150000Y-116290000D02*
X139150000Y-114950000D01*
X121300000Y-117360000D02*
X121430000Y-117490000D01*
%TO.N,/Sec*%
X108710000Y-127140000D02*
X108710000Y-125440000D01*
X102280000Y-116380000D02*
X101390000Y-116380000D01*
X108600000Y-127250000D02*
X108710000Y-127140000D01*
X105600000Y-119700000D02*
X102280000Y-116380000D01*
X105600000Y-122330000D02*
X105600000Y-119700000D01*
X108710000Y-125440000D02*
X105600000Y-122330000D01*
D50*
%TO.N,/CS*%
X158230000Y-106830000D02*
X158230000Y-108230000D01*
X141690000Y-114950000D02*
X141700000Y-114940000D01*
X149050000Y-105650000D02*
X157050000Y-105650000D01*
X141700000Y-113000000D02*
X149050000Y-105650000D01*
X157050000Y-105650000D02*
X158230000Y-106830000D01*
X141700000Y-114940000D02*
X141700000Y-113000000D01*
%TO.N,/CLK*%
X157400000Y-121300000D02*
X154700000Y-124000000D01*
X159500000Y-111100000D02*
X157400000Y-113200000D01*
X143890000Y-126800000D02*
X141690000Y-124600000D01*
X141690000Y-124600000D02*
X141690000Y-122570000D01*
X154700000Y-124000000D02*
X153800000Y-124000000D01*
X145000000Y-126800000D02*
X143890000Y-126800000D01*
X159500000Y-108230000D02*
X159500000Y-111100000D01*
X157400000Y-113200000D02*
X157400000Y-121300000D01*
%TO.N,/MOSI*%
X121100000Y-104400000D02*
X166500000Y-104400000D01*
X113750000Y-114950000D02*
X113750000Y-111750000D01*
X166500000Y-104400000D02*
X168390000Y-106290000D01*
X168390000Y-106290000D02*
X168390000Y-108230000D01*
X113750000Y-111750000D02*
X121100000Y-104400000D01*
%TD*%
M02*
