%TF.GenerationSoftware,KiCad,Pcbnew,9.0.2*%
%TF.CreationDate,2025-06-20T14:11:32+05:30*%
%TF.ProjectId,clock,636c6f63-6b2e-46b6-9963-61645f706362,rev?*%
%TF.SameCoordinates,Original*%
%TF.FileFunction,Copper,L1,Top*%
%TF.FilePolarity,Positive*%
%FSLAX46Y46*%
G04 Gerber Fmt 4.6, Leading zero omitted, Abs format (unit mm)*
G04 Created by KiCad (PCBNEW 9.0.2) date 2025-06-20 14:11:32*
%MOMM*%
%LPD*%
G01*
G04 APERTURE LIST*
G04 Aperture macros list*
%AMRoundRect*
0 Rectangle with rounded corners*
0 $1 Rounding radius*
0 $2 $3 $4 $5 $6 $7 $8 $9 X,Y pos of 4 corners*
0 Add a 4 corners polygon primitive as box body*
4,1,4,$2,$3,$4,$5,$6,$7,$8,$9,$2,$3,0*
0 Add four circle primitives for the rounded corners*
1,1,$1+$1,$2,$3*
1,1,$1+$1,$4,$5*
1,1,$1+$1,$6,$7*
1,1,$1+$1,$8,$9*
0 Add four rect primitives between the rounded corners*
20,1,$1+$1,$2,$3,$4,$5,0*
20,1,$1+$1,$4,$5,$6,$7,0*
20,1,$1+$1,$6,$7,$8,$9,0*
20,1,$1+$1,$8,$9,$2,$3,0*%
G04 Aperture macros list end*
%TA.AperFunction,ComponentPad*%
%ADD10C,1.700000*%
%TD*%
%TA.AperFunction,ComponentPad*%
%ADD11R,1.700000X1.700000*%
%TD*%
%TA.AperFunction,ComponentPad*%
%ADD12R,1.350000X1.350000*%
%TD*%
%TA.AperFunction,ComponentPad*%
%ADD13C,1.350000*%
%TD*%
%TA.AperFunction,ComponentPad*%
%ADD14C,0.700000*%
%TD*%
%TA.AperFunction,ComponentPad*%
%ADD15C,4.400000*%
%TD*%
%TA.AperFunction,ComponentPad*%
%ADD16R,1.800000X1.800000*%
%TD*%
%TA.AperFunction,ComponentPad*%
%ADD17C,1.800000*%
%TD*%
%TA.AperFunction,HeatsinkPad*%
%ADD18C,0.600000*%
%TD*%
%TA.AperFunction,ComponentPad*%
%ADD19C,2.000000*%
%TD*%
%TA.AperFunction,ComponentPad*%
%ADD20RoundRect,0.250000X-0.550000X0.550000X-0.550000X-0.550000X0.550000X-0.550000X0.550000X0.550000X0*%
%TD*%
%TA.AperFunction,ComponentPad*%
%ADD21C,1.600000*%
%TD*%
%TA.AperFunction,ComponentPad*%
%ADD22R,2.000000X4.600000*%
%TD*%
%TA.AperFunction,ComponentPad*%
%ADD23O,2.000000X4.200000*%
%TD*%
%TA.AperFunction,ComponentPad*%
%ADD24O,4.200000X2.000000*%
%TD*%
%TA.AperFunction,ViaPad*%
%ADD25C,0.600000*%
%TD*%
%TA.AperFunction,Conductor*%
%ADD26C,0.200000*%
%TD*%
%TA.AperFunction,Conductor*%
%ADD27C,0.300000*%
%TD*%
%TA.AperFunction,Conductor*%
%ADD28C,0.500000*%
%TD*%
G04 APERTURE END LIST*
D10*
%TO.P,J5,6,Pin_6*%
%TO.N,GND*%
X145370000Y-94230000D03*
%TO.P,J5,5,Pin_5*%
%TO.N,/16*%
X142830000Y-94230000D03*
%TO.P,J5,4,Pin_4*%
%TO.N,/15*%
X140290000Y-94230000D03*
%TO.P,J5,3,Pin_3*%
%TO.N,/14*%
X137750000Y-94230000D03*
%TO.P,J5,2,Pin_2*%
%TO.N,/13*%
X135210000Y-94230000D03*
D11*
%TO.P,J5,1,Pin_1*%
%TO.N,/12*%
X132670000Y-94230000D03*
%TD*%
D12*
%TO.P,J4,1,Pin_1*%
%TO.N,/SDA*%
X164850000Y-96800000D03*
D13*
%TO.P,J4,2,Pin_2*%
%TO.N,/SCL*%
X166850000Y-96800000D03*
%TD*%
D11*
%TO.P,J2,1,Pin_1*%
%TO.N,/ADC_1*%
X136510000Y-143080000D03*
D10*
%TO.P,J2,2,Pin_2*%
%TO.N,/ADC_2*%
X139050000Y-143080000D03*
%TO.P,J2,3,Pin_3*%
%TO.N,/ADC_3*%
X141590000Y-143080000D03*
%TO.P,J2,4,Pin_4*%
%TO.N,/ADC_4*%
X144130000Y-143080000D03*
%TO.P,J2,5,Pin_5*%
%TO.N,GND*%
X146670000Y-143080000D03*
%TD*%
D14*
%TO.P,REF\u002A\u002A,1*%
%TO.N,N/C*%
X169820000Y-144260000D03*
X170303274Y-143093274D03*
X170303274Y-145426726D03*
X171470000Y-142610000D03*
D15*
X171470000Y-144260000D03*
D14*
X171470000Y-145910000D03*
X172636726Y-143093274D03*
X172636726Y-145426726D03*
X173120000Y-144260000D03*
%TD*%
D11*
%TO.P,U5,1,CC*%
%TO.N,/DIG_3*%
X149035000Y-136537500D03*
D10*
%TO.P,U5,2,E*%
%TO.N,/E*%
X151575000Y-136537500D03*
%TO.P,U5,3,D*%
%TO.N,/D*%
X154115000Y-136537500D03*
%TO.P,U5,4,C*%
%TO.N,/C*%
X156655000Y-136537500D03*
%TO.P,U5,5,CC*%
%TO.N,unconnected-(U5-CC-Pad5)*%
X159195000Y-136537500D03*
%TO.P,U5,6,B*%
%TO.N,/B*%
X159105000Y-101187500D03*
%TO.P,U5,7,A*%
%TO.N,/A*%
X156565000Y-101187500D03*
%TO.P,U5,8,DP*%
%TO.N,unconnected-(U5-DP-Pad8)*%
X154025000Y-101187500D03*
%TO.P,U5,9,F*%
%TO.N,/F*%
X151485000Y-101187500D03*
%TO.P,U5,10,G*%
%TO.N,/G*%
X148945000Y-101187500D03*
%TD*%
D16*
%TO.P,D2,1,K*%
%TO.N,GND*%
X106060000Y-127250000D03*
D17*
%TO.P,D2,2,A*%
%TO.N,/Sec*%
X108600000Y-127250000D03*
%TD*%
D14*
%TO.P,REF\u002A\u002A,1*%
%TO.N,N/C*%
X43350000Y-95080000D03*
X43833274Y-93913274D03*
X43833274Y-96246726D03*
X45000000Y-93430000D03*
D15*
X45000000Y-95080000D03*
D14*
X45000000Y-96730000D03*
X46166726Y-93913274D03*
X46166726Y-96246726D03*
X46650000Y-95080000D03*
%TD*%
D11*
%TO.P,U1,1,CC*%
%TO.N,/DIG_0*%
X55360000Y-136632500D03*
D10*
%TO.P,U1,2,E*%
%TO.N,/E*%
X57900000Y-136632500D03*
%TO.P,U1,3,D*%
%TO.N,/D*%
X60440000Y-136632500D03*
%TO.P,U1,4,C*%
%TO.N,/C*%
X62980000Y-136632500D03*
%TO.P,U1,5,CC*%
%TO.N,unconnected-(U1-CC-Pad5)*%
X65520000Y-136632500D03*
%TO.P,U1,6,B*%
%TO.N,/B*%
X65430000Y-101282500D03*
%TO.P,U1,7,A*%
%TO.N,/A*%
X62890000Y-101282500D03*
%TO.P,U1,8,DP*%
%TO.N,unconnected-(U1-DP-Pad8)*%
X60350000Y-101282500D03*
%TO.P,U1,9,F*%
%TO.N,/F*%
X57810000Y-101282500D03*
%TO.P,U1,10,G*%
%TO.N,/G*%
X55270000Y-101282500D03*
%TD*%
D11*
%TO.P,U2,1,CC*%
%TO.N,/DIG_1*%
X84740000Y-136640000D03*
D10*
%TO.P,U2,2,E*%
%TO.N,/E*%
X87280000Y-136640000D03*
%TO.P,U2,3,D*%
%TO.N,/D*%
X89820000Y-136640000D03*
%TO.P,U2,4,C*%
%TO.N,/C*%
X92360000Y-136640000D03*
%TO.P,U2,5,CC*%
%TO.N,unconnected-(U2-CC-Pad5)*%
X94900000Y-136640000D03*
%TO.P,U2,6,B*%
%TO.N,/B*%
X94810000Y-101290000D03*
%TO.P,U2,7,A*%
%TO.N,/A*%
X92270000Y-101290000D03*
%TO.P,U2,8,DP*%
%TO.N,unconnected-(U2-DP-Pad8)*%
X89730000Y-101290000D03*
%TO.P,U2,9,F*%
%TO.N,/F*%
X87190000Y-101290000D03*
%TO.P,U2,10,G*%
%TO.N,/G*%
X84650000Y-101290000D03*
%TD*%
D16*
%TO.P,D1,1,K*%
%TO.N,GND*%
X106100000Y-107680000D03*
D17*
%TO.P,D1,2,A*%
%TO.N,/Sec*%
X108640000Y-107680000D03*
%TD*%
D11*
%TO.P,U3,1,CC*%
%TO.N,/DIG_2*%
X119515000Y-136585000D03*
D10*
%TO.P,U3,2,E*%
%TO.N,/E*%
X122055000Y-136585000D03*
%TO.P,U3,3,D*%
%TO.N,/D*%
X124595000Y-136585000D03*
%TO.P,U3,4,C*%
%TO.N,/C*%
X127135000Y-136585000D03*
%TO.P,U3,5,CC*%
%TO.N,unconnected-(U3-CC-Pad5)*%
X129675000Y-136585000D03*
%TO.P,U3,6,B*%
%TO.N,/B*%
X129585000Y-101235000D03*
%TO.P,U3,7,A*%
%TO.N,/A*%
X127045000Y-101235000D03*
%TO.P,U3,8,DP*%
%TO.N,unconnected-(U3-DP-Pad8)*%
X124505000Y-101235000D03*
%TO.P,U3,9,F*%
%TO.N,/F*%
X121965000Y-101235000D03*
%TO.P,U3,10,G*%
%TO.N,/G*%
X119425000Y-101235000D03*
%TD*%
D14*
%TO.P,REF\u002A\u002A,1*%
%TO.N,N/C*%
X169780000Y-95040000D03*
X170263274Y-93873274D03*
X170263274Y-96206726D03*
X171430000Y-93390000D03*
D15*
X171430000Y-95040000D03*
D14*
X171430000Y-96690000D03*
X172596726Y-93873274D03*
X172596726Y-96206726D03*
X173080000Y-95040000D03*
%TD*%
%TO.P,REF\u002A\u002A,1*%
%TO.N,N/C*%
X43263274Y-144226726D03*
X43746548Y-143060000D03*
X43746548Y-145393452D03*
X44913274Y-142576726D03*
D15*
X44913274Y-144226726D03*
D14*
X44913274Y-145876726D03*
X46080000Y-143060000D03*
X46080000Y-145393452D03*
X46563274Y-144226726D03*
%TD*%
D11*
%TO.P,J3,1,Pin_1*%
%TO.N,/DTR*%
X164400000Y-143800000D03*
D10*
%TO.P,J3,2,Pin_2*%
%TO.N,/RTS*%
X161860000Y-143800000D03*
%TO.P,J3,3,Pin_3*%
%TO.N,/RXD0*%
X159320000Y-143800000D03*
%TO.P,J3,4,Pin_4*%
%TO.N,/TXD0*%
X156780000Y-143800000D03*
%TO.P,J3,5,Pin_5*%
%TO.N,+5V*%
X154240000Y-143800000D03*
%TO.P,J3,6,Pin_6*%
%TO.N,GND*%
X151700000Y-143800000D03*
%TD*%
D18*
%TO.P,U4,39,GND*%
%TO.N,GND*%
X161557500Y-119185000D03*
X163082500Y-119185000D03*
X160795000Y-118422500D03*
X162320000Y-118422500D03*
X163845000Y-118422500D03*
X161557500Y-117660000D03*
X163082500Y-117660000D03*
X160795000Y-116897500D03*
X162320000Y-116897500D03*
X163845000Y-116897500D03*
X161557500Y-116135000D03*
X163082500Y-116135000D03*
%TD*%
D17*
%TO.P,SW1,1,1*%
%TO.N,GND*%
X171450000Y-134650000D03*
%TO.P,SW1,2,2*%
%TO.N,/EN*%
X171450000Y-139150000D03*
D19*
%TO.P,SW1,M1,M1*%
%TO.N,unconnected-(SW1-PadM1)*%
X168950000Y-133400000D03*
%TO.P,SW1,M2,M2*%
%TO.N,unconnected-(SW1-PadM2)*%
X168950000Y-140400000D03*
%TD*%
D20*
%TO.P,U6,1,DIN*%
%TO.N,/MOSI*%
X113750000Y-114950000D03*
D21*
%TO.P,U6,2,DIG_0*%
%TO.N,/DIG_0*%
X116290000Y-114950000D03*
%TO.P,U6,3,DIG_4*%
%TO.N,unconnected-(U6-DIG_4-Pad3)*%
X118830000Y-114950000D03*
%TO.P,U6,4,GND*%
%TO.N,GND*%
X121370000Y-114950000D03*
%TO.P,U6,5,DIG_6*%
%TO.N,unconnected-(U6-DIG_6-Pad5)*%
X123910000Y-114950000D03*
%TO.P,U6,6,DIG_2*%
%TO.N,/DIG_2*%
X126450000Y-114950000D03*
%TO.P,U6,7,DIG_3*%
%TO.N,/DIG_3*%
X128990000Y-114950000D03*
%TO.P,U6,8,DIG_7*%
%TO.N,unconnected-(U6-DIG_7-Pad8)*%
X131530000Y-114950000D03*
%TO.P,U6,9,GND*%
%TO.N,GND*%
X134070000Y-114950000D03*
%TO.P,U6,10,DIG_5*%
%TO.N,unconnected-(U6-DIG_5-Pad10)*%
X136610000Y-114950000D03*
%TO.P,U6,11,DIG_1*%
%TO.N,/DIG_1*%
X139150000Y-114950000D03*
%TO.P,U6,12,~{CS}*%
%TO.N,/CS*%
X141690000Y-114950000D03*
%TO.P,U6,13,CLK*%
%TO.N,/CLK*%
X141690000Y-122570000D03*
%TO.P,U6,14,SEG_A*%
%TO.N,/A*%
X139150000Y-122570000D03*
%TO.P,U6,15,SEG_F*%
%TO.N,/F*%
X136610000Y-122570000D03*
%TO.P,U6,16,SEG_B*%
%TO.N,/B*%
X134070000Y-122570000D03*
%TO.P,U6,17,SEG_G*%
%TO.N,/G*%
X131530000Y-122570000D03*
%TO.P,U6,18,ISET*%
%TO.N,Net-(U6-ISET)*%
X128990000Y-122570000D03*
%TO.P,U6,19,V+*%
%TO.N,+5V*%
X126450000Y-122570000D03*
%TO.P,U6,20,SEG_C*%
%TO.N,/C*%
X123910000Y-122570000D03*
%TO.P,U6,21,SEG_E*%
%TO.N,/E*%
X121370000Y-122570000D03*
%TO.P,U6,22,SEG_DP*%
%TO.N,unconnected-(U6-SEG_DP-Pad22)*%
X118830000Y-122570000D03*
%TO.P,U6,23,SEG_D*%
%TO.N,/D*%
X116290000Y-122570000D03*
%TO.P,U6,24,DOUT*%
%TO.N,unconnected-(U6-DOUT-Pad24)*%
X113750000Y-122570000D03*
%TD*%
%TO.P,C3,1*%
%TO.N,/pwr_in*%
X68590000Y-113327500D03*
%TO.P,C3,2*%
%TO.N,GND*%
X68590000Y-110827500D03*
%TD*%
D22*
%TO.P,J1,1*%
%TO.N,Net-(D3-A)*%
X56940000Y-109150000D03*
D23*
%TO.P,J1,2*%
%TO.N,GND*%
X50640000Y-109150000D03*
D24*
%TO.P,J1,3*%
X54040000Y-104350000D03*
%TD*%
D21*
%TO.P,C9,1*%
%TO.N,+5V*%
X87100000Y-126700000D03*
%TO.P,C9,2*%
%TO.N,GND*%
X84600000Y-126700000D03*
%TD*%
D25*
%TO.N,GND*%
X169920000Y-135920000D03*
%TO.N,/2*%
X149340000Y-106730000D03*
X154280000Y-111500000D03*
%TO.N,GND*%
X116120000Y-127430000D03*
%TO.N,/12*%
X144320000Y-122930000D03*
X142020000Y-126350000D03*
X151380000Y-125740000D03*
X138520000Y-112240000D03*
X137720000Y-110190000D03*
X134160000Y-102970000D03*
%TO.N,/13*%
X147650000Y-121530000D03*
X138815000Y-108655000D03*
X137355000Y-102865000D03*
X155210000Y-119680000D03*
%TO.N,/14*%
X154320000Y-124500000D03*
X148660000Y-125350000D03*
X148660000Y-119510000D03*
X140190000Y-102810000D03*
%TO.N,/15*%
X154050000Y-112840000D03*
X143910000Y-103320000D03*
%TO.N,/16*%
X155700000Y-106700000D03*
X157800000Y-102760000D03*
%TO.N,GND*%
X101110000Y-123310000D03*
X162450000Y-138150000D03*
X57520000Y-121847500D03*
X92960000Y-116480000D03*
X169660000Y-124380000D03*
X96260000Y-112990000D03*
X169650000Y-110140000D03*
X81500000Y-116800000D03*
X92240000Y-105300000D03*
X83200000Y-122100000D03*
X65380000Y-115450000D03*
X56620000Y-121847500D03*
X99500000Y-112300000D03*
X134080000Y-106510000D03*
X153440000Y-122690000D03*
X148470000Y-114450000D03*
X67690000Y-125570000D03*
%TO.N,/EN*%
X161960000Y-135690000D03*
X163590000Y-127950000D03*
%TO.N,/RXD0*%
X164580000Y-109950000D03*
%TO.N,/DTR*%
X155500000Y-132530000D03*
X158730000Y-140200000D03*
%TO.N,/TXD0*%
X165850000Y-109940000D03*
%TO.N,/RTS*%
X162900000Y-130600000D03*
%TO.N,/A*%
X64700000Y-97390000D03*
X122700000Y-97770000D03*
X86300000Y-97390000D03*
%TO.N,/F*%
X117660000Y-98570000D03*
X59800000Y-98390000D03*
X83990000Y-98390000D03*
%TO.N,/B*%
X69100000Y-96380000D03*
X88590000Y-96380000D03*
X125890000Y-96900000D03*
%TO.N,/E*%
X90340000Y-140340000D03*
X149910000Y-140310000D03*
X124671157Y-140339999D03*
%TO.N,/D*%
X153220000Y-139390000D03*
X92620000Y-139400000D03*
X128440000Y-139390000D03*
%TO.N,/DIG_2*%
X128370000Y-130620000D03*
%TO.N,/DIG_1*%
X120810000Y-116890000D03*
%TO.N,/Sec*%
X101470000Y-116380000D03*
%TO.N,/CLK*%
X157430000Y-120150000D03*
X145720000Y-127640000D03*
%TO.N,/ADC_4*%
X162040000Y-124400000D03*
X148830000Y-133030000D03*
%TO.N,/ADC_1*%
X144830000Y-130270000D03*
X160770000Y-124320000D03*
%TO.N,/ADC_3*%
X144490000Y-134650000D03*
X163310000Y-124370000D03*
%TO.N,/ADC_2*%
X145700000Y-131760000D03*
X159500000Y-124240000D03*
%TO.N,/SDA*%
X163300000Y-106830000D03*
X163930000Y-100070000D03*
%TO.N,/SCL*%
X166060000Y-100190000D03*
X167060000Y-106780000D03*
%TD*%
D26*
%TO.N,GND*%
X170180000Y-135920000D02*
X169920000Y-135920000D01*
X171450000Y-134650000D02*
X170180000Y-135920000D01*
%TO.N,/2*%
X151330000Y-109900000D02*
X152680000Y-109900000D01*
X152680000Y-109900000D02*
X154280000Y-111500000D01*
X149680000Y-108250000D02*
X151330000Y-109900000D01*
X149680000Y-107070000D02*
X149680000Y-108250000D01*
X149340000Y-106730000D02*
X149680000Y-107070000D01*
D27*
%TO.N,/15*%
X153700000Y-112490000D02*
X154050000Y-112840000D01*
X148810000Y-112490000D02*
X153700000Y-112490000D01*
X143910000Y-107590000D02*
X148810000Y-112490000D01*
X143910000Y-103320000D02*
X143910000Y-107590000D01*
%TO.N,/14*%
X148660000Y-116010000D02*
X148660000Y-119510000D01*
X140620000Y-107970000D02*
X148660000Y-116010000D01*
X140620000Y-103240000D02*
X140620000Y-107970000D01*
X140190000Y-102810000D02*
X140620000Y-103240000D01*
%TO.N,/13*%
X137750000Y-107590000D02*
X138815000Y-108655000D01*
X137750000Y-103260000D02*
X137750000Y-107590000D01*
X137355000Y-102865000D02*
X137750000Y-103260000D01*
%TO.N,/ADC_3*%
X163310000Y-125840000D02*
X163310000Y-124370000D01*
X154770000Y-131080000D02*
X158070000Y-131080000D01*
X158070000Y-131080000D02*
X163310000Y-125840000D01*
X144490000Y-134650000D02*
X145270000Y-133870000D01*
X145270000Y-133870000D02*
X151980000Y-133870000D01*
X151980000Y-133870000D02*
X154770000Y-131080000D01*
%TO.N,/ADC_4*%
X150680000Y-133030000D02*
X148830000Y-133030000D01*
X153740000Y-129970000D02*
X150680000Y-133030000D01*
X157690000Y-129970000D02*
X153740000Y-129970000D01*
X162040000Y-124400000D02*
X162040000Y-125620000D01*
X162040000Y-125620000D02*
X157690000Y-129970000D01*
%TO.N,/ADC_1*%
X148940000Y-130270000D02*
X144830000Y-130270000D01*
X153400000Y-125810000D02*
X148940000Y-130270000D01*
X157990000Y-123170000D02*
X155350000Y-125810000D01*
X155350000Y-125810000D02*
X153400000Y-125810000D01*
X160770000Y-123950000D02*
X159990000Y-123170000D01*
X159990000Y-123170000D02*
X157990000Y-123170000D01*
X160770000Y-124320000D02*
X160770000Y-123950000D01*
%TO.N,/ADC_2*%
X149150000Y-131760000D02*
X145700000Y-131760000D01*
X153730000Y-127180000D02*
X149150000Y-131760000D01*
X157920000Y-127180000D02*
X153730000Y-127180000D01*
X159500000Y-125600000D02*
X157920000Y-127180000D01*
X159500000Y-124240000D02*
X159500000Y-125600000D01*
%TO.N,/16*%
X155700000Y-104140000D02*
X155700000Y-106700000D01*
X156600000Y-103240000D02*
X155700000Y-104140000D01*
X157330000Y-103240000D02*
X156600000Y-103240000D01*
X157800000Y-102770000D02*
X157330000Y-103240000D01*
X157800000Y-102760000D02*
X157800000Y-102770000D01*
%TO.N,/14*%
X149930000Y-124080000D02*
X148660000Y-125350000D01*
X153900000Y-124080000D02*
X149930000Y-124080000D01*
X154320000Y-124500000D02*
X153900000Y-124080000D01*
%TO.N,/12*%
X150390000Y-125740000D02*
X147260000Y-128870000D01*
X151380000Y-125740000D02*
X150390000Y-125740000D01*
X147260000Y-128870000D02*
X144540000Y-128870000D01*
X144540000Y-128870000D02*
X142020000Y-126350000D01*
%TO.N,/13*%
X148820000Y-121530000D02*
X150670000Y-119680000D01*
X147650000Y-121530000D02*
X148820000Y-121530000D01*
X150670000Y-119680000D02*
X155210000Y-119680000D01*
%TO.N,/12*%
X143790000Y-114160000D02*
X143790000Y-114230000D01*
X141870000Y-112240000D02*
X143790000Y-114160000D01*
X138520000Y-112240000D02*
X141870000Y-112240000D01*
X143790000Y-122400000D02*
X144320000Y-122930000D01*
X143790000Y-114230000D02*
X143790000Y-122400000D01*
X135950000Y-108420000D02*
X135950000Y-104760000D01*
X135950000Y-104760000D02*
X134160000Y-102970000D01*
X137720000Y-110190000D02*
X135950000Y-108420000D01*
D28*
%TO.N,/B*%
X159105000Y-99315000D02*
X159105000Y-101187500D01*
X125890000Y-96900000D02*
X156690000Y-96900000D01*
X156690000Y-96900000D02*
X159105000Y-99315000D01*
X125880000Y-96890000D02*
X125890000Y-96900000D01*
X89100000Y-96890000D02*
X125880000Y-96890000D01*
X88590000Y-96380000D02*
X89100000Y-96890000D01*
%TO.N,/A*%
X86680000Y-97770000D02*
X86300000Y-97390000D01*
X122700000Y-97770000D02*
X86680000Y-97770000D01*
X156565000Y-99905000D02*
X156565000Y-101187500D01*
X154430000Y-97770000D02*
X156565000Y-99905000D01*
X122700000Y-97770000D02*
X154430000Y-97770000D01*
%TO.N,/F*%
X117650000Y-98560000D02*
X117660000Y-98570000D01*
X83990000Y-98390000D02*
X84160000Y-98560000D01*
X84160000Y-98560000D02*
X117650000Y-98560000D01*
X117660000Y-98570000D02*
X148867500Y-98570000D01*
X148867500Y-98570000D02*
X151485000Y-101187500D01*
D26*
%TO.N,/TXD0*%
X158100000Y-145800000D02*
X156780000Y-144480000D01*
X165550000Y-145800000D02*
X158100000Y-145800000D01*
X156780000Y-144480000D02*
X156780000Y-143800000D01*
X166590000Y-144760000D02*
X165550000Y-145800000D01*
X166590000Y-110680000D02*
X166590000Y-144760000D01*
X165850000Y-109940000D02*
X166590000Y-110680000D01*
%TO.N,/RXD0*%
X165200000Y-145300000D02*
X160820000Y-145300000D01*
X165930000Y-144570000D02*
X165200000Y-145300000D01*
X165930000Y-111300000D02*
X165930000Y-144570000D01*
X164580000Y-109950000D02*
X165930000Y-111300000D01*
X160820000Y-145300000D02*
X159320000Y-143800000D01*
%TO.N,/EN*%
X164360000Y-128720000D02*
X163590000Y-127950000D01*
X164360000Y-133290000D02*
X164360000Y-128720000D01*
X161960000Y-135690000D02*
X164360000Y-133290000D01*
%TO.N,/RXD0*%
X159970000Y-144350000D02*
X159970000Y-143590000D01*
%TO.N,/DTR*%
X157950000Y-139420000D02*
X158730000Y-140200000D01*
X157950000Y-135450000D02*
X157950000Y-139420000D01*
X155500000Y-133000000D02*
X157950000Y-135450000D01*
X155500000Y-132530000D02*
X155500000Y-133000000D01*
%TO.N,/RTS*%
X161000000Y-141250000D02*
X161860000Y-142110000D01*
X163550000Y-132600000D02*
X161000000Y-135150000D01*
X161860000Y-142110000D02*
X161860000Y-143800000D01*
X161000000Y-135150000D02*
X161000000Y-141250000D01*
X162900000Y-130600000D02*
X163550000Y-131250000D01*
X163550000Y-131250000D02*
X163550000Y-132600000D01*
D28*
%TO.N,/C*%
X155600000Y-138510000D02*
X129410000Y-138510000D01*
X129410000Y-138510000D02*
X129060000Y-138510000D01*
D26*
X122900000Y-124800000D02*
X123910000Y-123790000D01*
D28*
X95100000Y-138510000D02*
X64857500Y-138510000D01*
D26*
X123910000Y-123790000D02*
X123910000Y-122570000D01*
X122900000Y-128493956D02*
X122900000Y-124800000D01*
X127135000Y-132728956D02*
X122900000Y-128493956D01*
D28*
X156655000Y-137455000D02*
X155600000Y-138510000D01*
X129060000Y-138510000D02*
X127135000Y-136585000D01*
X94230000Y-138510000D02*
X92360000Y-136640000D01*
X64857500Y-138510000D02*
X62980000Y-136632500D01*
X129410000Y-138510000D02*
X95100000Y-138510000D01*
X156655000Y-136537500D02*
X156655000Y-137455000D01*
X95100000Y-138510000D02*
X94230000Y-138510000D01*
D26*
X127135000Y-136585000D02*
X127135000Y-132728956D01*
%TO.N,/A*%
X127045000Y-101235000D02*
X127045000Y-105155000D01*
X139150000Y-121130000D02*
X139150000Y-122570000D01*
X135310000Y-113420000D02*
X135310000Y-117290000D01*
D28*
X64700000Y-97390000D02*
X86300000Y-97390000D01*
X86300000Y-97390000D02*
X86310000Y-97390000D01*
D26*
X135310000Y-117290000D02*
X139150000Y-121130000D01*
X127045000Y-105155000D02*
X135310000Y-113420000D01*
D28*
%TO.N,/F*%
X59800000Y-98390000D02*
X83990000Y-98390000D01*
D26*
X121965000Y-102955000D02*
X132810000Y-113800000D01*
X121965000Y-101235000D02*
X121965000Y-102955000D01*
X132810000Y-116870000D02*
X136610000Y-120670000D01*
X136610000Y-120670000D02*
X136610000Y-122570000D01*
X132810000Y-113800000D02*
X132810000Y-116870000D01*
%TO.N,/B*%
X129580000Y-101240000D02*
X129580000Y-104900000D01*
X136130000Y-111450000D02*
X142790000Y-111450000D01*
X142790000Y-111450000D02*
X146560000Y-115220000D01*
X146560000Y-123490000D02*
X144630000Y-125420000D01*
X136920000Y-125420000D02*
X134070000Y-122570000D01*
X129580000Y-104900000D02*
X136130000Y-111450000D01*
D28*
X69100000Y-96380000D02*
X88590000Y-96380000D01*
D26*
X129585000Y-101235000D02*
X129580000Y-101240000D01*
X144630000Y-125420000D02*
X136920000Y-125420000D01*
X146560000Y-115220000D02*
X146560000Y-123490000D01*
%TO.N,/E*%
X121370000Y-120670000D02*
X121370000Y-122570000D01*
D28*
X149910000Y-140310000D02*
X124660000Y-140310000D01*
D26*
X87280000Y-134330000D02*
X102010000Y-119600000D01*
D28*
X60290000Y-140340000D02*
X57900000Y-137950000D01*
X57900000Y-137950000D02*
X57900000Y-136632500D01*
X90340000Y-140340000D02*
X60290000Y-140340000D01*
X90340000Y-140340000D02*
X90340001Y-140339999D01*
D26*
X120300000Y-119600000D02*
X121370000Y-120670000D01*
D28*
X124671157Y-140339999D02*
X90340000Y-140340000D01*
D26*
X102010000Y-119600000D02*
X120300000Y-119600000D01*
X87280000Y-136640000D02*
X87280000Y-134330000D01*
%TO.N,/G*%
X119425000Y-103165000D02*
X130300000Y-114040000D01*
D28*
X82760000Y-99400000D02*
X84650000Y-101290000D01*
X147157500Y-99400000D02*
X148945000Y-101187500D01*
X55270000Y-101282500D02*
X55270000Y-100570000D01*
X82760000Y-99400000D02*
X117590000Y-99400000D01*
D26*
X130300000Y-114040000D02*
X130300000Y-117260000D01*
D28*
X55270000Y-100570000D02*
X56440000Y-99400000D01*
X117590000Y-99400000D02*
X147157500Y-99400000D01*
X56440000Y-99400000D02*
X82760000Y-99400000D01*
D26*
X130300000Y-117260000D02*
X131530000Y-118490000D01*
X119425000Y-101235000D02*
X119425000Y-103165000D01*
D28*
X117590000Y-99400000D02*
X119425000Y-101235000D01*
D26*
X131530000Y-118490000D02*
X131530000Y-122570000D01*
D28*
%TO.N,/D*%
X63207500Y-139400000D02*
X60440000Y-136632500D01*
D26*
X116290000Y-124300000D02*
X116290000Y-122570000D01*
D28*
X92620000Y-139400000D02*
X63207500Y-139400000D01*
X92630000Y-139390000D02*
X92620000Y-139400000D01*
X128440000Y-139390000D02*
X92630000Y-139390000D01*
D26*
X124595000Y-136585000D02*
X124595000Y-132605000D01*
X124595000Y-132605000D02*
X116290000Y-124300000D01*
D28*
X153220000Y-139390000D02*
X128440000Y-139390000D01*
D26*
%TO.N,/DIG_3*%
X129050000Y-115010000D02*
X128990000Y-114950000D01*
X130260000Y-119490000D02*
X129050000Y-118280000D01*
X129050000Y-118280000D02*
X129050000Y-115010000D01*
X149035000Y-136537500D02*
X143267500Y-136537500D01*
X143267500Y-136537500D02*
X130260000Y-123530000D01*
X130260000Y-123530000D02*
X130260000Y-119490000D01*
%TO.N,/DIG_2*%
X127720000Y-129970000D02*
X127720000Y-118940000D01*
X127720000Y-118940000D02*
X126450000Y-117670000D01*
X128370000Y-130620000D02*
X127720000Y-129970000D01*
X126450000Y-117670000D02*
X126450000Y-114950000D01*
%TO.N,/DIG_0*%
X116290000Y-113720000D02*
X116290000Y-114950000D01*
X103800000Y-117400000D02*
X108460000Y-112740000D01*
X56580000Y-133870000D02*
X83860000Y-133870000D01*
X83860000Y-133870000D02*
X100330000Y-117400000D01*
X108460000Y-112740000D02*
X115310000Y-112740000D01*
X115310000Y-112740000D02*
X116290000Y-113720000D01*
X55360000Y-135090000D02*
X56580000Y-133870000D01*
X55360000Y-136632500D02*
X55360000Y-135090000D01*
X100330000Y-117400000D02*
X103800000Y-117400000D01*
%TO.N,/DIG_1*%
X121290000Y-117950000D02*
X120840000Y-118400000D01*
X101240000Y-118400000D02*
X84740000Y-134900000D01*
X120810000Y-116890000D02*
X121290000Y-117370000D01*
X121290000Y-117370000D02*
X121290000Y-117950000D01*
X84740000Y-134900000D02*
X84740000Y-136640000D01*
X120840000Y-118400000D02*
X101240000Y-118400000D01*
%TO.N,/Sec*%
X103090000Y-116380000D02*
X108640000Y-110830000D01*
X108640000Y-110830000D02*
X108640000Y-107680000D01*
X101470000Y-116380000D02*
X103090000Y-116380000D01*
D28*
%TO.N,/CLK*%
X145720000Y-126080000D02*
X150570000Y-121230000D01*
X150570000Y-121230000D02*
X156350000Y-121230000D01*
X145720000Y-127640000D02*
X145720000Y-126080000D01*
X156350000Y-121230000D02*
X157430000Y-120150000D01*
D26*
%TO.N,/SDA*%
X163300000Y-100670000D02*
X163890000Y-100080000D01*
X163300000Y-106830000D02*
X163300000Y-100670000D01*
%TO.N,/SCL*%
X165840000Y-101430000D02*
X165840000Y-100410000D01*
X167060000Y-106780000D02*
X165840000Y-105560000D01*
X165840000Y-100410000D02*
X166060000Y-100190000D01*
X167060000Y-106570000D02*
X167060000Y-106780000D01*
X165840000Y-105560000D02*
X165840000Y-101430000D01*
%TD*%
%TA.AperFunction,Conductor*%
%TO.N,GND*%
G36*
X169873246Y-92620185D02*
G01*
X169919001Y-92672989D01*
X169928945Y-92742147D01*
X169899920Y-92805703D01*
X169872179Y-92829494D01*
X169864837Y-92834107D01*
X169627696Y-93023220D01*
X169413220Y-93237696D01*
X169224107Y-93474837D01*
X169062733Y-93731661D01*
X168931133Y-94004931D01*
X168830957Y-94291216D01*
X168830953Y-94291228D01*
X168763460Y-94586937D01*
X168763457Y-94586951D01*
X168729500Y-94888336D01*
X168729500Y-95191663D01*
X168763457Y-95493048D01*
X168763460Y-95493062D01*
X168830953Y-95788771D01*
X168830957Y-95788783D01*
X168931133Y-96075068D01*
X169062733Y-96348338D01*
X169062735Y-96348341D01*
X169224108Y-96605164D01*
X169413221Y-96842304D01*
X169627696Y-97056779D01*
X169864836Y-97245892D01*
X170121659Y-97407265D01*
X170394935Y-97538868D01*
X170572844Y-97601120D01*
X170679598Y-97638476D01*
X170736374Y-97679197D01*
X170762121Y-97744150D01*
X170762643Y-97755476D01*
X170775886Y-137845988D01*
X170756224Y-137913034D01*
X170719606Y-137948891D01*
X170719919Y-137949321D01*
X170717006Y-137951436D01*
X170716687Y-137951750D01*
X170715975Y-137952186D01*
X170537641Y-138081752D01*
X170537636Y-138081756D01*
X170381756Y-138237636D01*
X170381752Y-138237641D01*
X170252187Y-138415974D01*
X170152104Y-138612393D01*
X170152103Y-138612396D01*
X170083985Y-138822047D01*
X170049500Y-139039778D01*
X170049500Y-139100750D01*
X170029815Y-139167789D01*
X169977011Y-139213544D01*
X169907853Y-139223488D01*
X169852614Y-139201068D01*
X169816850Y-139175084D01*
X169736433Y-139116657D01*
X169705214Y-139100750D01*
X169525996Y-139009433D01*
X169301368Y-138936446D01*
X169068097Y-138899500D01*
X169068092Y-138899500D01*
X168831908Y-138899500D01*
X168831903Y-138899500D01*
X168598631Y-138936446D01*
X168374003Y-139009433D01*
X168163566Y-139116657D01*
X168054550Y-139195862D01*
X167972490Y-139255483D01*
X167972488Y-139255485D01*
X167972487Y-139255485D01*
X167805485Y-139422487D01*
X167805485Y-139422488D01*
X167805483Y-139422490D01*
X167749856Y-139499054D01*
X167666657Y-139613566D01*
X167559433Y-139824003D01*
X167486446Y-140048631D01*
X167449500Y-140281902D01*
X167449500Y-140518097D01*
X167486446Y-140751368D01*
X167559433Y-140975996D01*
X167658762Y-141170939D01*
X167666657Y-141186433D01*
X167805483Y-141377510D01*
X167972490Y-141544517D01*
X168163567Y-141683343D01*
X168250933Y-141727858D01*
X168374003Y-141790566D01*
X168374005Y-141790566D01*
X168374008Y-141790568D01*
X168490575Y-141828443D01*
X168598631Y-141863553D01*
X168831903Y-141900500D01*
X168831908Y-141900500D01*
X169068097Y-141900500D01*
X169301368Y-141863553D01*
X169313968Y-141859459D01*
X169525992Y-141790568D01*
X169736433Y-141683343D01*
X169927510Y-141544517D01*
X170094517Y-141377510D01*
X170233343Y-141186433D01*
X170340568Y-140975992D01*
X170413553Y-140751368D01*
X170420059Y-140710289D01*
X170450500Y-140518097D01*
X170450500Y-140398298D01*
X170453952Y-140386540D01*
X170452837Y-140374337D01*
X170463612Y-140353642D01*
X170470185Y-140331259D01*
X170479445Y-140323235D01*
X170485105Y-140312365D01*
X170505358Y-140300780D01*
X170522989Y-140285504D01*
X170535117Y-140283760D01*
X170545755Y-140277676D01*
X170569054Y-140278880D01*
X170592147Y-140275560D01*
X170605007Y-140280739D01*
X170615531Y-140281283D01*
X170645936Y-140297220D01*
X170646836Y-140297583D01*
X170647113Y-140297782D01*
X170715978Y-140347815D01*
X170718720Y-140349212D01*
X170725083Y-140353782D01*
X170743888Y-140377896D01*
X170764406Y-140400568D01*
X170765584Y-140405715D01*
X170768051Y-140408878D01*
X170769207Y-140421535D01*
X170776747Y-140454456D01*
X170777110Y-141553376D01*
X170757448Y-141620422D01*
X170704659Y-141666194D01*
X170694065Y-141670458D01*
X170434931Y-141761133D01*
X170161661Y-141892733D01*
X169904837Y-142054107D01*
X169667696Y-142243220D01*
X169453220Y-142457696D01*
X169264107Y-142694837D01*
X169102733Y-142951661D01*
X168971133Y-143224931D01*
X168870957Y-143511216D01*
X168870953Y-143511228D01*
X168803460Y-143806937D01*
X168803457Y-143806951D01*
X168769500Y-144108336D01*
X168769500Y-144411663D01*
X168803457Y-144713048D01*
X168803460Y-144713062D01*
X168870953Y-145008771D01*
X168870957Y-145008783D01*
X168971133Y-145295068D01*
X169102733Y-145568338D01*
X169102735Y-145568341D01*
X169264108Y-145825164D01*
X169453221Y-146062304D01*
X169667696Y-146276779D01*
X169822838Y-146400501D01*
X169845475Y-146418553D01*
X169885615Y-146475741D01*
X169888465Y-146545553D01*
X169853120Y-146605823D01*
X169790801Y-146637416D01*
X169768162Y-146639500D01*
X165678973Y-146639500D01*
X165665400Y-146635514D01*
X165651279Y-146636368D01*
X165632540Y-146625865D01*
X165611934Y-146619815D01*
X165602671Y-146609125D01*
X165590329Y-146602208D01*
X165580242Y-146583241D01*
X165566179Y-146567011D01*
X165564165Y-146553010D01*
X165557523Y-146540519D01*
X165559291Y-146519112D01*
X165556235Y-146497853D01*
X165562112Y-146484983D01*
X165563277Y-146470887D01*
X165576336Y-146453837D01*
X165585260Y-146434297D01*
X165597998Y-146425556D01*
X165605763Y-146415419D01*
X165628977Y-146404299D01*
X165636924Y-146398847D01*
X165641831Y-146397077D01*
X165781785Y-146359577D01*
X165831904Y-146330639D01*
X165918716Y-146280520D01*
X166030520Y-146168716D01*
X166030520Y-146168714D01*
X166040728Y-146158507D01*
X166040730Y-146158504D01*
X166948506Y-145250728D01*
X166948511Y-145250724D01*
X166958714Y-145240520D01*
X166958716Y-145240520D01*
X167070520Y-145128716D01*
X167129692Y-145026226D01*
X167149577Y-144991785D01*
X167190500Y-144839057D01*
X167190500Y-144680943D01*
X167190500Y-133281902D01*
X167449500Y-133281902D01*
X167449500Y-133518097D01*
X167486446Y-133751368D01*
X167559433Y-133975996D01*
X167642849Y-134139707D01*
X167666657Y-134186433D01*
X167805483Y-134377510D01*
X167972490Y-134544517D01*
X168163567Y-134683343D01*
X168238042Y-134721290D01*
X168374003Y-134790566D01*
X168374005Y-134790566D01*
X168374008Y-134790568D01*
X168494412Y-134829689D01*
X168598631Y-134863553D01*
X168831903Y-134900500D01*
X168831908Y-134900500D01*
X169068097Y-134900500D01*
X169301368Y-134863553D01*
X169525992Y-134790568D01*
X169736433Y-134683343D01*
X169927510Y-134544517D01*
X170094517Y-134377510D01*
X170233343Y-134186433D01*
X170340568Y-133975992D01*
X170413553Y-133751368D01*
X170450500Y-133518097D01*
X170450500Y-133281902D01*
X170413553Y-133048631D01*
X170368242Y-132909179D01*
X170340568Y-132824008D01*
X170340566Y-132824005D01*
X170340566Y-132824003D01*
X170274356Y-132694060D01*
X170233343Y-132613567D01*
X170094517Y-132422490D01*
X169927510Y-132255483D01*
X169736433Y-132116657D01*
X169525996Y-132009433D01*
X169301368Y-131936446D01*
X169068097Y-131899500D01*
X169068092Y-131899500D01*
X168831908Y-131899500D01*
X168831903Y-131899500D01*
X168598631Y-131936446D01*
X168374003Y-132009433D01*
X168163566Y-132116657D01*
X168054550Y-132195862D01*
X167972490Y-132255483D01*
X167972488Y-132255485D01*
X167972487Y-132255485D01*
X167805485Y-132422487D01*
X167805485Y-132422488D01*
X167805483Y-132422490D01*
X167771408Y-132469390D01*
X167666657Y-132613566D01*
X167559433Y-132824003D01*
X167486446Y-133048631D01*
X167449500Y-133281902D01*
X167190500Y-133281902D01*
X167190500Y-110769059D01*
X167190501Y-110769046D01*
X167190501Y-110600945D01*
X167190501Y-110600943D01*
X167149577Y-110448215D01*
X167110045Y-110379744D01*
X167070520Y-110311284D01*
X166958716Y-110199480D01*
X166958715Y-110199479D01*
X166954385Y-110195149D01*
X166954374Y-110195139D01*
X166684574Y-109925339D01*
X166651089Y-109864016D01*
X166650638Y-109861849D01*
X166632595Y-109771147D01*
X166619737Y-109706503D01*
X166619735Y-109706498D01*
X166559397Y-109560827D01*
X166559390Y-109560814D01*
X166471789Y-109429711D01*
X166471786Y-109429707D01*
X166360292Y-109318213D01*
X166360288Y-109318210D01*
X166229185Y-109230609D01*
X166229172Y-109230602D01*
X166083501Y-109170264D01*
X166083489Y-109170261D01*
X165928845Y-109139500D01*
X165928842Y-109139500D01*
X165771158Y-109139500D01*
X165771155Y-109139500D01*
X165616510Y-109170261D01*
X165616498Y-109170264D01*
X165470827Y-109230602D01*
X165470814Y-109230609D01*
X165339711Y-109318210D01*
X165339707Y-109318213D01*
X165297681Y-109360240D01*
X165236358Y-109393725D01*
X165166666Y-109388741D01*
X165122319Y-109360240D01*
X165090292Y-109328213D01*
X165090288Y-109328210D01*
X164959185Y-109240609D01*
X164959172Y-109240602D01*
X164813501Y-109180264D01*
X164813489Y-109180261D01*
X164658845Y-109149500D01*
X164658842Y-109149500D01*
X164501158Y-109149500D01*
X164501155Y-109149500D01*
X164346510Y-109180261D01*
X164346498Y-109180264D01*
X164200827Y-109240602D01*
X164200814Y-109240609D01*
X164069711Y-109328210D01*
X164069707Y-109328213D01*
X163958213Y-109439707D01*
X163958210Y-109439711D01*
X163870609Y-109570814D01*
X163870602Y-109570827D01*
X163810264Y-109716498D01*
X163810261Y-109716510D01*
X163779500Y-109871153D01*
X163779500Y-110028846D01*
X163810261Y-110183489D01*
X163810264Y-110183501D01*
X163870602Y-110329172D01*
X163870609Y-110329185D01*
X163958210Y-110460288D01*
X163958213Y-110460292D01*
X164069707Y-110571786D01*
X164069711Y-110571789D01*
X164200814Y-110659390D01*
X164200827Y-110659397D01*
X164317812Y-110707853D01*
X164346503Y-110719737D01*
X164411147Y-110732595D01*
X164501849Y-110750638D01*
X164563760Y-110783023D01*
X164565339Y-110784574D01*
X165293181Y-111512416D01*
X165326666Y-111573739D01*
X165329500Y-111600097D01*
X165329500Y-142325500D01*
X165309815Y-142392539D01*
X165257011Y-142438294D01*
X165205500Y-142449500D01*
X163502129Y-142449500D01*
X163502123Y-142449501D01*
X163442516Y-142455908D01*
X163307671Y-142506202D01*
X163307664Y-142506206D01*
X163192455Y-142592452D01*
X163192452Y-142592455D01*
X163106206Y-142707664D01*
X163106203Y-142707669D01*
X163057189Y-142839083D01*
X163015317Y-142895016D01*
X162949853Y-142919433D01*
X162881580Y-142904581D01*
X162853326Y-142883430D01*
X162739786Y-142769890D01*
X162567815Y-142644948D01*
X162567814Y-142644947D01*
X162528205Y-142624765D01*
X162477409Y-142576791D01*
X162460500Y-142514281D01*
X162460500Y-142199060D01*
X162460501Y-142199047D01*
X162460501Y-142030944D01*
X162448906Y-141987671D01*
X162419577Y-141878216D01*
X162408748Y-141859459D01*
X162340524Y-141741290D01*
X162340518Y-141741282D01*
X161636819Y-141037583D01*
X161603334Y-140976260D01*
X161600500Y-140949902D01*
X161600500Y-136585768D01*
X161620185Y-136518729D01*
X161672989Y-136472974D01*
X161742147Y-136463030D01*
X161748692Y-136464151D01*
X161881155Y-136490500D01*
X161881158Y-136490500D01*
X162038844Y-136490500D01*
X162038845Y-136490499D01*
X162193497Y-136459737D01*
X162339179Y-136399394D01*
X162470289Y-136311789D01*
X162581789Y-136200289D01*
X162669394Y-136069179D01*
X162670469Y-136066585D01*
X162694513Y-136008536D01*
X162729737Y-135923497D01*
X162760500Y-135768842D01*
X162760638Y-135768150D01*
X162793023Y-135706239D01*
X162794517Y-135704717D01*
X164840520Y-133658716D01*
X164919577Y-133521784D01*
X164960501Y-133369057D01*
X164960501Y-133210942D01*
X164960501Y-133203347D01*
X164960500Y-133203329D01*
X164960500Y-128640945D01*
X164960500Y-128640943D01*
X164919577Y-128488216D01*
X164903455Y-128460292D01*
X164840524Y-128351290D01*
X164840521Y-128351286D01*
X164840520Y-128351284D01*
X164728716Y-128239480D01*
X164728715Y-128239479D01*
X164724385Y-128235149D01*
X164724374Y-128235139D01*
X164424574Y-127935339D01*
X164391089Y-127874016D01*
X164390638Y-127871849D01*
X164360203Y-127718846D01*
X164359737Y-127716503D01*
X164302348Y-127577952D01*
X164299397Y-127570827D01*
X164299390Y-127570814D01*
X164211789Y-127439711D01*
X164211786Y-127439707D01*
X164100292Y-127328213D01*
X164100288Y-127328210D01*
X163969185Y-127240609D01*
X163969172Y-127240602D01*
X163823501Y-127180264D01*
X163823489Y-127180261D01*
X163668845Y-127149500D01*
X163668842Y-127149500D01*
X163511158Y-127149500D01*
X163511155Y-127149500D01*
X163356510Y-127180261D01*
X163356498Y-127180264D01*
X163210827Y-127240602D01*
X163210809Y-127240612D01*
X163107979Y-127309321D01*
X163041302Y-127330199D01*
X162973922Y-127311714D01*
X162927232Y-127259735D01*
X162916056Y-127190765D01*
X162943942Y-127126702D01*
X162951408Y-127118538D01*
X163815273Y-126254673D01*
X163815277Y-126254669D01*
X163886465Y-126148127D01*
X163935501Y-126029744D01*
X163937340Y-126020500D01*
X163942902Y-125992539D01*
X163960500Y-125904071D01*
X163960500Y-124874935D01*
X163980185Y-124807896D01*
X163981366Y-124806090D01*
X164019394Y-124749179D01*
X164079737Y-124603497D01*
X164110500Y-124448842D01*
X164110500Y-124291158D01*
X164110500Y-124291155D01*
X164110499Y-124291153D01*
X164096532Y-124220939D01*
X164079737Y-124136503D01*
X164073241Y-124120821D01*
X164019397Y-123990827D01*
X164019390Y-123990814D01*
X163931789Y-123859711D01*
X163931786Y-123859707D01*
X163820292Y-123748213D01*
X163820288Y-123748210D01*
X163689185Y-123660609D01*
X163689172Y-123660602D01*
X163543501Y-123600264D01*
X163543489Y-123600261D01*
X163388845Y-123569500D01*
X163388842Y-123569500D01*
X163231158Y-123569500D01*
X163231155Y-123569500D01*
X163076510Y-123600261D01*
X163076498Y-123600264D01*
X162930827Y-123660602D01*
X162930814Y-123660609D01*
X162799711Y-123748210D01*
X162799707Y-123748213D01*
X162747681Y-123800240D01*
X162686358Y-123833725D01*
X162616666Y-123828741D01*
X162572319Y-123800240D01*
X162550292Y-123778213D01*
X162550288Y-123778210D01*
X162419185Y-123690609D01*
X162419172Y-123690602D01*
X162273501Y-123630264D01*
X162273489Y-123630261D01*
X162118845Y-123599500D01*
X162118842Y-123599500D01*
X161961158Y-123599500D01*
X161961155Y-123599500D01*
X161806510Y-123630261D01*
X161806498Y-123630264D01*
X161660827Y-123690602D01*
X161660816Y-123690608D01*
X161556048Y-123760612D01*
X161489371Y-123781489D01*
X161421991Y-123763004D01*
X161375301Y-123711025D01*
X161372595Y-123704957D01*
X161370433Y-123699738D01*
X161369801Y-123698211D01*
X161366652Y-123690609D01*
X161346469Y-123641881D01*
X161346468Y-123641880D01*
X161346466Y-123641874D01*
X161344806Y-123639390D01*
X161275278Y-123535332D01*
X161275272Y-123535325D01*
X160404673Y-122664726D01*
X160373211Y-122643704D01*
X160298127Y-122593535D01*
X160179744Y-122544499D01*
X160179738Y-122544497D01*
X160054071Y-122519500D01*
X160054069Y-122519500D01*
X157925931Y-122519500D01*
X157925929Y-122519500D01*
X157800261Y-122544497D01*
X157800255Y-122544499D01*
X157691030Y-122589741D01*
X157691025Y-122589744D01*
X157681873Y-122593535D01*
X157681871Y-122593536D01*
X157681869Y-122593537D01*
X157575326Y-122664726D01*
X157575325Y-122664727D01*
X155235804Y-125004249D01*
X155174481Y-125037734D01*
X155104789Y-125032750D01*
X155048856Y-124990878D01*
X155024439Y-124925414D01*
X155033561Y-124869117D01*
X155089737Y-124733497D01*
X155120500Y-124578842D01*
X155120500Y-124421158D01*
X155120500Y-124421155D01*
X155120499Y-124421153D01*
X155089737Y-124266503D01*
X155035888Y-124136498D01*
X155029397Y-124120827D01*
X155029390Y-124120814D01*
X154941789Y-123989711D01*
X154941786Y-123989707D01*
X154830292Y-123878213D01*
X154830288Y-123878210D01*
X154699185Y-123790609D01*
X154699172Y-123790602D01*
X154553501Y-123730264D01*
X154553489Y-123730261D01*
X154486420Y-123716920D01*
X154424509Y-123684535D01*
X154422983Y-123683037D01*
X154314669Y-123574723D01*
X154208127Y-123503535D01*
X154089744Y-123454499D01*
X154071867Y-123450943D01*
X154069982Y-123450568D01*
X153964071Y-123429500D01*
X153964069Y-123429500D01*
X149865931Y-123429500D01*
X149865929Y-123429500D01*
X149760013Y-123450568D01*
X149759980Y-123450575D01*
X149758133Y-123450943D01*
X149740256Y-123454499D01*
X149736777Y-123455939D01*
X149727352Y-123458119D01*
X149696478Y-123456313D01*
X149665547Y-123456588D01*
X149661901Y-123454290D01*
X149657601Y-123454039D01*
X149632604Y-123435827D01*
X149606436Y-123419337D01*
X149604611Y-123415434D01*
X149601129Y-123412897D01*
X149589944Y-123384057D01*
X149576848Y-123356042D01*
X149577423Y-123351772D01*
X149575865Y-123347755D01*
X149582048Y-123317443D01*
X149586177Y-123286797D01*
X149589194Y-123282409D01*
X149589830Y-123279295D01*
X149594951Y-123274038D01*
X149611740Y-123249627D01*
X150844549Y-122016819D01*
X150905872Y-121983334D01*
X150932230Y-121980500D01*
X156423920Y-121980500D01*
X156521462Y-121961096D01*
X156568913Y-121951658D01*
X156705495Y-121895084D01*
X156754729Y-121862186D01*
X156828416Y-121812952D01*
X157745297Y-120896069D01*
X157785522Y-120869192D01*
X157809179Y-120859394D01*
X157940289Y-120771789D01*
X158051789Y-120660289D01*
X158139394Y-120529179D01*
X158199737Y-120383497D01*
X158230500Y-120228842D01*
X158230500Y-120071158D01*
X158230500Y-120071155D01*
X158230499Y-120071153D01*
X158199738Y-119916510D01*
X158199737Y-119916503D01*
X158149194Y-119794480D01*
X158139397Y-119770827D01*
X158139390Y-119770814D01*
X158051789Y-119639711D01*
X158051786Y-119639707D01*
X157940292Y-119528213D01*
X157940288Y-119528210D01*
X157809185Y-119440609D01*
X157809172Y-119440602D01*
X157663501Y-119380264D01*
X157663489Y-119380261D01*
X157508845Y-119349500D01*
X157508842Y-119349500D01*
X157351158Y-119349500D01*
X157351155Y-119349500D01*
X157196510Y-119380261D01*
X157196498Y-119380264D01*
X157050827Y-119440602D01*
X157050814Y-119440609D01*
X156919711Y-119528210D01*
X156919707Y-119528213D01*
X156808213Y-119639707D01*
X156808207Y-119639715D01*
X156720607Y-119770818D01*
X156720606Y-119770819D01*
X156710805Y-119794480D01*
X156683927Y-119834703D01*
X156075451Y-120443181D01*
X156048523Y-120457884D01*
X156022705Y-120474477D01*
X156016504Y-120475368D01*
X156014128Y-120476666D01*
X155987770Y-120479500D01*
X155841941Y-120479500D01*
X155774902Y-120459815D01*
X155729147Y-120407011D01*
X155719203Y-120337853D01*
X155748228Y-120274297D01*
X155754260Y-120267819D01*
X155831786Y-120190292D01*
X155831789Y-120190289D01*
X155919394Y-120059179D01*
X155979737Y-119913497D01*
X156010500Y-119758842D01*
X156010500Y-119601158D01*
X156010500Y-119601155D01*
X156010499Y-119601153D01*
X155995990Y-119528211D01*
X155979737Y-119446503D01*
X155952299Y-119380261D01*
X155919397Y-119300827D01*
X155919390Y-119300814D01*
X155831789Y-119169711D01*
X155831786Y-119169707D01*
X155720292Y-119058213D01*
X155720288Y-119058210D01*
X155589185Y-118970609D01*
X155589172Y-118970602D01*
X155443501Y-118910264D01*
X155443489Y-118910261D01*
X155288845Y-118879500D01*
X155288842Y-118879500D01*
X155131158Y-118879500D01*
X155131155Y-118879500D01*
X154976510Y-118910261D01*
X154976498Y-118910264D01*
X154830827Y-118970602D01*
X154830820Y-118970606D01*
X154801928Y-118989911D01*
X154773955Y-119008602D01*
X154707279Y-119029480D01*
X154705065Y-119029500D01*
X150605929Y-119029500D01*
X150480261Y-119054497D01*
X150480255Y-119054499D01*
X150361874Y-119103534D01*
X150255326Y-119174726D01*
X150255325Y-119174727D01*
X149655014Y-119775039D01*
X149593691Y-119808524D01*
X149523999Y-119803540D01*
X149468066Y-119761668D01*
X149443649Y-119696204D01*
X149445716Y-119663166D01*
X149460500Y-119588844D01*
X149460500Y-119431155D01*
X149460499Y-119431153D01*
X149434574Y-119300821D01*
X149429737Y-119276503D01*
X149411007Y-119231284D01*
X149369397Y-119130828D01*
X149369396Y-119130827D01*
X149369394Y-119130821D01*
X149331396Y-119073953D01*
X149310520Y-119007276D01*
X149310500Y-119005064D01*
X149310500Y-115945928D01*
X149285502Y-115820261D01*
X149285501Y-115820260D01*
X149285501Y-115820256D01*
X149236465Y-115701873D01*
X149203674Y-115652797D01*
X149203674Y-115652796D01*
X149165275Y-115595328D01*
X141306819Y-107736872D01*
X141273334Y-107675549D01*
X141270500Y-107649191D01*
X141270500Y-103241153D01*
X143109500Y-103241153D01*
X143109500Y-103398846D01*
X143140261Y-103553489D01*
X143140264Y-103553501D01*
X143200602Y-103699172D01*
X143200606Y-103699179D01*
X143238602Y-103756044D01*
X143259480Y-103822721D01*
X143259500Y-103824935D01*
X143259500Y-107654071D01*
X143283280Y-107773616D01*
X143283281Y-107773621D01*
X143284498Y-107779741D01*
X143284498Y-107779742D01*
X143328207Y-107885263D01*
X143333535Y-107898127D01*
X143365259Y-107945606D01*
X143404726Y-108004673D01*
X148395327Y-112995274D01*
X148479154Y-113051285D01*
X148501873Y-113066465D01*
X148620256Y-113115501D01*
X148620260Y-113115501D01*
X148620261Y-113115502D01*
X148745928Y-113140500D01*
X148745931Y-113140500D01*
X153225162Y-113140500D01*
X153292201Y-113160185D01*
X153337956Y-113212989D01*
X153339715Y-113217029D01*
X153340606Y-113219179D01*
X153340607Y-113219180D01*
X153340609Y-113219185D01*
X153428210Y-113350288D01*
X153428213Y-113350292D01*
X153539707Y-113461786D01*
X153539711Y-113461789D01*
X153670814Y-113549390D01*
X153670827Y-113549397D01*
X153756369Y-113584829D01*
X153816503Y-113609737D01*
X153960691Y-113638418D01*
X153971153Y-113640499D01*
X153971156Y-113640500D01*
X153971158Y-113640500D01*
X154128844Y-113640500D01*
X154128845Y-113640499D01*
X154283497Y-113609737D01*
X154429179Y-113549394D01*
X154560289Y-113461789D01*
X154671789Y-113350289D01*
X154759394Y-113219179D01*
X154760276Y-113217051D01*
X154802338Y-113115502D01*
X154819737Y-113073497D01*
X154850500Y-112918842D01*
X154850500Y-112761158D01*
X154850500Y-112761155D01*
X154850499Y-112761153D01*
X154848338Y-112750288D01*
X154819737Y-112606503D01*
X154767455Y-112480281D01*
X154759397Y-112460827D01*
X154759395Y-112460823D01*
X154759394Y-112460821D01*
X154681207Y-112343807D01*
X154660330Y-112277131D01*
X154678814Y-112209751D01*
X154715417Y-112171816D01*
X154790289Y-112121789D01*
X154901789Y-112010289D01*
X154989394Y-111879179D01*
X155049737Y-111733497D01*
X155080500Y-111578842D01*
X155080500Y-111421158D01*
X155080500Y-111421155D01*
X155080499Y-111421153D01*
X155058493Y-111310521D01*
X155049737Y-111266503D01*
X155049735Y-111266498D01*
X154989397Y-111120827D01*
X154989390Y-111120814D01*
X154901789Y-110989711D01*
X154901786Y-110989707D01*
X154790292Y-110878213D01*
X154790288Y-110878210D01*
X154659185Y-110790609D01*
X154659172Y-110790602D01*
X154513501Y-110730264D01*
X154513491Y-110730261D01*
X154358151Y-110699362D01*
X154296241Y-110666977D01*
X154294662Y-110665426D01*
X153167590Y-109538355D01*
X153167588Y-109538352D01*
X153048717Y-109419481D01*
X153048716Y-109419480D01*
X152961904Y-109369360D01*
X152961904Y-109369359D01*
X152961900Y-109369358D01*
X152911785Y-109340423D01*
X152759057Y-109299499D01*
X152600943Y-109299499D01*
X152593347Y-109299499D01*
X152593331Y-109299500D01*
X151630097Y-109299500D01*
X151563058Y-109279815D01*
X151542416Y-109263181D01*
X150316819Y-108037584D01*
X150283334Y-107976261D01*
X150280500Y-107949903D01*
X150280500Y-107159060D01*
X150280501Y-107159047D01*
X150280501Y-106990944D01*
X150280501Y-106990943D01*
X150239577Y-106838216D01*
X150234103Y-106828735D01*
X150156457Y-106694245D01*
X150158458Y-106693089D01*
X150141314Y-106655247D01*
X150109738Y-106496510D01*
X150109737Y-106496503D01*
X150072335Y-106406206D01*
X150049397Y-106350827D01*
X150049390Y-106350814D01*
X149961789Y-106219711D01*
X149961786Y-106219707D01*
X149850292Y-106108213D01*
X149850288Y-106108210D01*
X149719185Y-106020609D01*
X149719172Y-106020602D01*
X149573501Y-105960264D01*
X149573489Y-105960261D01*
X149418845Y-105929500D01*
X149418842Y-105929500D01*
X149261158Y-105929500D01*
X149261155Y-105929500D01*
X149106510Y-105960261D01*
X149106498Y-105960264D01*
X148960827Y-106020602D01*
X148960814Y-106020609D01*
X148829711Y-106108210D01*
X148829707Y-106108213D01*
X148718213Y-106219707D01*
X148718210Y-106219711D01*
X148630609Y-106350814D01*
X148630602Y-106350827D01*
X148570264Y-106496498D01*
X148570261Y-106496510D01*
X148539500Y-106651153D01*
X148539500Y-106808846D01*
X148570261Y-106963489D01*
X148570264Y-106963501D01*
X148630602Y-107109172D01*
X148630609Y-107109185D01*
X148718210Y-107240288D01*
X148718213Y-107240292D01*
X148829707Y-107351786D01*
X148829711Y-107351789D01*
X148960814Y-107439390D01*
X148960821Y-107439394D01*
X149002952Y-107456845D01*
X149057355Y-107500684D01*
X149079421Y-107566978D01*
X149079500Y-107571406D01*
X149079500Y-108163330D01*
X149079499Y-108163348D01*
X149079499Y-108329054D01*
X149079498Y-108329054D01*
X149102266Y-108414022D01*
X149120423Y-108481785D01*
X149121734Y-108484056D01*
X149121738Y-108484070D01*
X149121742Y-108484069D01*
X149199477Y-108618712D01*
X149199481Y-108618717D01*
X149318349Y-108737585D01*
X149318355Y-108737590D01*
X150845139Y-110264374D01*
X150845149Y-110264385D01*
X150849479Y-110268715D01*
X150849480Y-110268716D01*
X150961284Y-110380520D01*
X150961286Y-110380521D01*
X150961290Y-110380524D01*
X151078533Y-110448213D01*
X151098216Y-110459577D01*
X151210019Y-110489534D01*
X151250942Y-110500500D01*
X151250943Y-110500500D01*
X152379903Y-110500500D01*
X152446942Y-110520185D01*
X152467584Y-110536819D01*
X153445425Y-111514660D01*
X153454487Y-111531255D01*
X153467619Y-111544865D01*
X153478026Y-111574364D01*
X153478910Y-111575983D01*
X153479361Y-111578148D01*
X153501871Y-111691307D01*
X153495644Y-111760899D01*
X153452782Y-111816077D01*
X153386892Y-111839322D01*
X153380254Y-111839500D01*
X149130808Y-111839500D01*
X149063769Y-111819815D01*
X149043127Y-111803181D01*
X144596819Y-107356873D01*
X144563334Y-107295550D01*
X144560500Y-107269192D01*
X144560500Y-103824935D01*
X144580185Y-103757896D01*
X144581366Y-103756090D01*
X144619394Y-103699179D01*
X144679737Y-103553497D01*
X144710500Y-103398842D01*
X144710500Y-103241158D01*
X144710500Y-103241155D01*
X144710499Y-103241153D01*
X144679737Y-103086503D01*
X144676352Y-103078330D01*
X144619397Y-102940827D01*
X144619390Y-102940814D01*
X144531789Y-102809711D01*
X144531786Y-102809707D01*
X144420292Y-102698213D01*
X144420288Y-102698210D01*
X144289185Y-102610609D01*
X144289172Y-102610602D01*
X144143501Y-102550264D01*
X144143489Y-102550261D01*
X143988845Y-102519500D01*
X143988842Y-102519500D01*
X143831158Y-102519500D01*
X143831155Y-102519500D01*
X143676510Y-102550261D01*
X143676498Y-102550264D01*
X143530827Y-102610602D01*
X143530814Y-102610609D01*
X143399711Y-102698210D01*
X143399707Y-102698213D01*
X143288213Y-102809707D01*
X143288210Y-102809711D01*
X143200609Y-102940814D01*
X143200602Y-102940827D01*
X143140264Y-103086498D01*
X143140261Y-103086510D01*
X143109500Y-103241153D01*
X141270500Y-103241153D01*
X141270500Y-103175928D01*
X141245502Y-103050261D01*
X141245501Y-103050260D01*
X141245501Y-103050256D01*
X141196465Y-102931873D01*
X141186036Y-102916265D01*
X141178730Y-102905330D01*
X141178729Y-102905330D01*
X141125277Y-102825331D01*
X141007015Y-102707069D01*
X140973530Y-102645746D01*
X140973093Y-102643652D01*
X140959737Y-102576503D01*
X140924958Y-102492538D01*
X140899397Y-102430827D01*
X140899390Y-102430814D01*
X140811789Y-102299711D01*
X140811786Y-102299707D01*
X140700292Y-102188213D01*
X140700288Y-102188210D01*
X140569185Y-102100609D01*
X140569172Y-102100602D01*
X140423501Y-102040264D01*
X140423489Y-102040261D01*
X140268845Y-102009500D01*
X140268842Y-102009500D01*
X140111158Y-102009500D01*
X140111155Y-102009500D01*
X139956510Y-102040261D01*
X139956498Y-102040264D01*
X139810827Y-102100602D01*
X139810814Y-102100609D01*
X139679711Y-102188210D01*
X139679707Y-102188213D01*
X139568213Y-102299707D01*
X139568210Y-102299711D01*
X139480609Y-102430814D01*
X139480602Y-102430827D01*
X139420264Y-102576498D01*
X139420261Y-102576510D01*
X139389500Y-102731153D01*
X139389500Y-102888846D01*
X139420261Y-103043489D01*
X139420264Y-103043501D01*
X139480602Y-103189172D01*
X139480609Y-103189185D01*
X139568210Y-103320288D01*
X139568213Y-103320292D01*
X139679707Y-103431786D01*
X139679711Y-103431789D01*
X139810814Y-103519390D01*
X139810827Y-103519397D01*
X139892952Y-103553414D01*
X139947356Y-103597255D01*
X139969421Y-103663549D01*
X139969500Y-103667975D01*
X139969500Y-108034069D01*
X139991509Y-108144711D01*
X139994499Y-108159744D01*
X139994500Y-108159748D01*
X139994501Y-108159749D01*
X140043532Y-108278123D01*
X140114726Y-108384673D01*
X140114727Y-108384674D01*
X142367873Y-110637819D01*
X142401358Y-110699142D01*
X142396374Y-110768834D01*
X142354502Y-110824767D01*
X142289038Y-110849184D01*
X142280192Y-110849500D01*
X138474078Y-110849500D01*
X138407039Y-110829815D01*
X138361284Y-110777011D01*
X138351340Y-110707853D01*
X138370976Y-110656609D01*
X138429390Y-110569185D01*
X138429390Y-110569184D01*
X138429394Y-110569179D01*
X138489737Y-110423497D01*
X138520500Y-110268842D01*
X138520500Y-110111158D01*
X138520500Y-110111155D01*
X138520499Y-110111153D01*
X138489738Y-109956510D01*
X138489737Y-109956503D01*
X138462715Y-109891265D01*
X138429397Y-109810827D01*
X138429390Y-109810814D01*
X138341789Y-109679711D01*
X138341786Y-109679707D01*
X138230292Y-109568213D01*
X138230288Y-109568210D01*
X138099185Y-109480609D01*
X138099172Y-109480602D01*
X137953501Y-109420264D01*
X137953489Y-109420261D01*
X137886420Y-109406920D01*
X137824509Y-109374535D01*
X137822930Y-109372984D01*
X136636819Y-108186873D01*
X136603334Y-108125550D01*
X136600500Y-108099192D01*
X136600500Y-104695928D01*
X136575502Y-104570261D01*
X136575501Y-104570260D01*
X136575501Y-104570256D01*
X136526465Y-104451873D01*
X136523963Y-104448129D01*
X136523962Y-104448126D01*
X136455277Y-104345331D01*
X136455271Y-104345324D01*
X134977693Y-102867747D01*
X134977014Y-102867068D01*
X134943529Y-102805745D01*
X134943105Y-102803714D01*
X134939612Y-102786153D01*
X136554500Y-102786153D01*
X136554500Y-102943846D01*
X136585261Y-103098489D01*
X136585264Y-103098501D01*
X136645602Y-103244172D01*
X136645609Y-103244185D01*
X136733210Y-103375288D01*
X136733213Y-103375292D01*
X136844707Y-103486786D01*
X136844711Y-103486789D01*
X136975817Y-103574392D01*
X136975819Y-103574392D01*
X136975821Y-103574394D01*
X137017817Y-103591789D01*
X137022952Y-103593916D01*
X137077356Y-103637756D01*
X137099421Y-103704050D01*
X137099500Y-103708477D01*
X137099500Y-107654071D01*
X137123280Y-107773616D01*
X137123281Y-107773621D01*
X137124498Y-107779741D01*
X137124498Y-107779742D01*
X137168207Y-107885263D01*
X137173535Y-107898127D01*
X137205259Y-107945606D01*
X137244726Y-108004673D01*
X137244727Y-108004674D01*
X137997984Y-108757930D01*
X138031469Y-108819253D01*
X138031920Y-108821420D01*
X138045261Y-108888489D01*
X138045264Y-108888501D01*
X138105602Y-109034172D01*
X138105609Y-109034185D01*
X138193210Y-109165288D01*
X138193213Y-109165292D01*
X138304707Y-109276786D01*
X138304711Y-109276789D01*
X138435814Y-109364390D01*
X138435827Y-109364397D01*
X138570704Y-109420264D01*
X138581503Y-109424737D01*
X138731040Y-109454482D01*
X138736153Y-109455499D01*
X138736156Y-109455500D01*
X138736158Y-109455500D01*
X138893844Y-109455500D01*
X138893845Y-109455499D01*
X139048497Y-109424737D01*
X139194179Y-109364394D01*
X139325289Y-109276789D01*
X139436789Y-109165289D01*
X139524394Y-109034179D01*
X139584737Y-108888497D01*
X139615500Y-108733842D01*
X139615500Y-108576158D01*
X139615500Y-108576155D01*
X139615499Y-108576153D01*
X139584738Y-108421510D01*
X139584737Y-108421503D01*
X139546444Y-108329054D01*
X139524397Y-108275827D01*
X139524390Y-108275814D01*
X139436789Y-108144711D01*
X139436786Y-108144707D01*
X139325292Y-108033213D01*
X139325288Y-108033210D01*
X139194185Y-107945609D01*
X139194172Y-107945602D01*
X139048501Y-107885264D01*
X139048489Y-107885261D01*
X138981420Y-107871920D01*
X138919509Y-107839535D01*
X138917930Y-107837984D01*
X138436819Y-107356873D01*
X138403334Y-107295550D01*
X138400500Y-107269192D01*
X138400500Y-103195928D01*
X138400499Y-103195923D01*
X138375502Y-103070261D01*
X138375501Y-103070260D01*
X138375501Y-103070256D01*
X138326465Y-102951873D01*
X138313998Y-102933215D01*
X138255276Y-102845330D01*
X138172012Y-102762066D01*
X138138529Y-102700746D01*
X138138106Y-102698715D01*
X138124737Y-102631503D01*
X138091086Y-102550261D01*
X138064397Y-102485827D01*
X138064390Y-102485814D01*
X137976789Y-102354711D01*
X137976786Y-102354707D01*
X137865292Y-102243213D01*
X137865288Y-102243210D01*
X137734185Y-102155609D01*
X137734172Y-102155602D01*
X137588501Y-102095264D01*
X137588489Y-102095261D01*
X137433845Y-102064500D01*
X137433842Y-102064500D01*
X137276158Y-102064500D01*
X137276155Y-102064500D01*
X137121510Y-102095261D01*
X137121498Y-102095264D01*
X136975827Y-102155602D01*
X136975814Y-102155609D01*
X136844711Y-102243210D01*
X136844707Y-102243213D01*
X136733213Y-102354707D01*
X136733210Y-102354711D01*
X136645609Y-102485814D01*
X136645602Y-102485827D01*
X136585264Y-102631498D01*
X136585261Y-102631510D01*
X136554500Y-102786153D01*
X134939612Y-102786153D01*
X134929737Y-102736503D01*
X134897951Y-102659764D01*
X134869397Y-102590827D01*
X134869390Y-102590814D01*
X134781789Y-102459711D01*
X134781786Y-102459707D01*
X134670292Y-102348213D01*
X134670288Y-102348210D01*
X134539185Y-102260609D01*
X134539172Y-102260602D01*
X134393501Y-102200264D01*
X134393489Y-102200261D01*
X134238845Y-102169500D01*
X134238842Y-102169500D01*
X134081158Y-102169500D01*
X134081155Y-102169500D01*
X133926510Y-102200261D01*
X133926498Y-102200264D01*
X133780827Y-102260602D01*
X133780814Y-102260609D01*
X133649711Y-102348210D01*
X133649707Y-102348213D01*
X133538213Y-102459707D01*
X133538210Y-102459711D01*
X133450609Y-102590814D01*
X133450602Y-102590827D01*
X133390264Y-102736498D01*
X133390261Y-102736510D01*
X133359500Y-102891153D01*
X133359500Y-103048846D01*
X133390261Y-103203489D01*
X133390264Y-103203501D01*
X133450602Y-103349172D01*
X133450609Y-103349185D01*
X133538210Y-103480288D01*
X133538213Y-103480292D01*
X133649707Y-103591786D01*
X133649711Y-103591789D01*
X133780814Y-103679390D01*
X133780827Y-103679397D01*
X133840346Y-103704050D01*
X133926503Y-103739737D01*
X133993580Y-103753079D01*
X134055490Y-103785463D01*
X134057069Y-103787015D01*
X135263181Y-104993127D01*
X135296666Y-105054450D01*
X135299500Y-105080808D01*
X135299500Y-108484069D01*
X135311912Y-108546464D01*
X135311912Y-108546466D01*
X135321041Y-108592363D01*
X135324499Y-108609744D01*
X135373535Y-108728127D01*
X135444723Y-108834669D01*
X135444726Y-108834673D01*
X135444727Y-108834674D01*
X136902984Y-110292930D01*
X136936469Y-110354253D01*
X136936920Y-110356420D01*
X136950261Y-110423489D01*
X136950264Y-110423501D01*
X137010602Y-110569172D01*
X137010609Y-110569185D01*
X137069024Y-110656609D01*
X137089902Y-110723287D01*
X137071417Y-110790667D01*
X137019438Y-110837357D01*
X136965922Y-110849500D01*
X136430097Y-110849500D01*
X136363058Y-110829815D01*
X136342416Y-110813181D01*
X130216819Y-104687584D01*
X130183334Y-104626261D01*
X130180500Y-104599903D01*
X130180500Y-102523265D01*
X130200185Y-102456226D01*
X130248204Y-102412781D01*
X130292816Y-102390051D01*
X130464792Y-102265104D01*
X130615104Y-102114792D01*
X130615106Y-102114788D01*
X130615109Y-102114786D01*
X130727929Y-101959500D01*
X130740051Y-101942816D01*
X130836557Y-101753412D01*
X130902246Y-101551243D01*
X130935500Y-101341287D01*
X130935500Y-101128713D01*
X130902246Y-100918757D01*
X130836557Y-100716588D01*
X130740051Y-100527184D01*
X130740049Y-100527181D01*
X130740048Y-100527179D01*
X130615111Y-100355216D01*
X130614957Y-100355036D01*
X130614919Y-100354953D01*
X130612241Y-100351266D01*
X130613015Y-100350703D01*
X130586384Y-100291276D01*
X130596818Y-100222190D01*
X130642946Y-100169712D01*
X130709244Y-100150500D01*
X146795270Y-100150500D01*
X146862309Y-100170185D01*
X146882951Y-100186819D01*
X147574824Y-100878692D01*
X147608309Y-100940015D01*
X147609616Y-100985771D01*
X147594500Y-101081207D01*
X147594500Y-101293786D01*
X147610734Y-101396287D01*
X147627754Y-101503743D01*
X147661058Y-101606243D01*
X147693444Y-101705914D01*
X147789951Y-101895320D01*
X147914890Y-102067286D01*
X148065213Y-102217609D01*
X148237179Y-102342548D01*
X148237181Y-102342549D01*
X148237184Y-102342551D01*
X148426588Y-102439057D01*
X148628757Y-102504746D01*
X148838713Y-102538000D01*
X148838714Y-102538000D01*
X149051286Y-102538000D01*
X149051287Y-102538000D01*
X149261243Y-102504746D01*
X149463412Y-102439057D01*
X149652816Y-102342551D01*
X149759407Y-102265109D01*
X149824786Y-102217609D01*
X149824788Y-102217606D01*
X149824792Y-102217604D01*
X149975104Y-102067292D01*
X149975106Y-102067288D01*
X149975109Y-102067286D01*
X150100048Y-101895320D01*
X150100047Y-101895320D01*
X150100051Y-101895316D01*
X150104514Y-101886554D01*
X150152488Y-101835759D01*
X150220308Y-101818963D01*
X150286444Y-101841499D01*
X150325484Y-101886554D01*
X150329591Y-101894615D01*
X150329951Y-101895320D01*
X150454890Y-102067286D01*
X150605213Y-102217609D01*
X150777179Y-102342548D01*
X150777181Y-102342549D01*
X150777184Y-102342551D01*
X150966588Y-102439057D01*
X151168757Y-102504746D01*
X151378713Y-102538000D01*
X151378714Y-102538000D01*
X151591286Y-102538000D01*
X151591287Y-102538000D01*
X151801243Y-102504746D01*
X152003412Y-102439057D01*
X152192816Y-102342551D01*
X152299407Y-102265109D01*
X152364786Y-102217609D01*
X152364788Y-102217606D01*
X152364792Y-102217604D01*
X152515104Y-102067292D01*
X152515106Y-102067288D01*
X152515109Y-102067286D01*
X152640048Y-101895320D01*
X152640047Y-101895320D01*
X152640051Y-101895316D01*
X152644514Y-101886554D01*
X152692488Y-101835759D01*
X152760308Y-101818963D01*
X152826444Y-101841499D01*
X152865484Y-101886554D01*
X152869591Y-101894615D01*
X152869951Y-101895320D01*
X152994890Y-102067286D01*
X153145213Y-102217609D01*
X153317179Y-102342548D01*
X153317181Y-102342549D01*
X153317184Y-102342551D01*
X153506588Y-102439057D01*
X153708757Y-102504746D01*
X153918713Y-102538000D01*
X153918714Y-102538000D01*
X154131286Y-102538000D01*
X154131287Y-102538000D01*
X154341243Y-102504746D01*
X154543412Y-102439057D01*
X154732816Y-102342551D01*
X154839407Y-102265109D01*
X154904786Y-102217609D01*
X154904788Y-102217606D01*
X154904792Y-102217604D01*
X155055104Y-102067292D01*
X155055106Y-102067288D01*
X155055109Y-102067286D01*
X155180048Y-101895320D01*
X155180047Y-101895320D01*
X155180051Y-101895316D01*
X155184514Y-101886554D01*
X155232488Y-101835759D01*
X155300308Y-101818963D01*
X155366444Y-101841499D01*
X155405484Y-101886554D01*
X155409591Y-101894615D01*
X155409951Y-101895320D01*
X155534890Y-102067286D01*
X155685213Y-102217609D01*
X155857179Y-102342548D01*
X155857181Y-102342549D01*
X155857184Y-102342551D01*
X156046588Y-102439057D01*
X156194521Y-102487123D01*
X156252194Y-102526559D01*
X156279393Y-102590918D01*
X156267479Y-102659764D01*
X156225094Y-102708154D01*
X156185329Y-102734724D01*
X155194720Y-103725333D01*
X155164545Y-103770497D01*
X155164543Y-103770500D01*
X155123538Y-103831867D01*
X155123533Y-103831875D01*
X155074499Y-103950255D01*
X155074497Y-103950261D01*
X155049500Y-104075928D01*
X155049500Y-106195064D01*
X155029815Y-106262103D01*
X155028603Y-106263954D01*
X154990608Y-106320817D01*
X154990602Y-106320828D01*
X154930264Y-106466498D01*
X154930261Y-106466510D01*
X154899500Y-106621153D01*
X154899500Y-106778846D01*
X154930261Y-106933489D01*
X154930264Y-106933501D01*
X154990602Y-107079172D01*
X154990609Y-107079185D01*
X155078210Y-107210288D01*
X155078213Y-107210292D01*
X155189707Y-107321786D01*
X155189711Y-107321789D01*
X155320814Y-107409390D01*
X155320827Y-107409397D01*
X155423165Y-107451786D01*
X155466503Y-107469737D01*
X155621153Y-107500499D01*
X155621156Y-107500500D01*
X155621158Y-107500500D01*
X155778844Y-107500500D01*
X155778845Y-107500499D01*
X155933497Y-107469737D01*
X156079179Y-107409394D01*
X156210289Y-107321789D01*
X156321789Y-107210289D01*
X156409394Y-107079179D01*
X156469737Y-106933497D01*
X156500500Y-106778842D01*
X156500500Y-106751153D01*
X162499500Y-106751153D01*
X162499500Y-106908846D01*
X162530261Y-107063489D01*
X162530264Y-107063501D01*
X162590602Y-107209172D01*
X162590609Y-107209185D01*
X162678210Y-107340288D01*
X162678213Y-107340292D01*
X162789707Y-107451786D01*
X162789711Y-107451789D01*
X162920814Y-107539390D01*
X162920827Y-107539397D01*
X163020060Y-107580500D01*
X163066503Y-107599737D01*
X163221153Y-107630499D01*
X163221156Y-107630500D01*
X163221158Y-107630500D01*
X163378844Y-107630500D01*
X163378845Y-107630499D01*
X163533497Y-107599737D01*
X163679179Y-107539394D01*
X163810289Y-107451789D01*
X163921789Y-107340289D01*
X164009394Y-107209179D01*
X164069737Y-107063497D01*
X164100500Y-106908842D01*
X164100500Y-106751158D01*
X164100500Y-106751155D01*
X164100499Y-106751153D01*
X164081422Y-106655247D01*
X164069737Y-106596503D01*
X164069735Y-106596498D01*
X164009397Y-106450827D01*
X164009390Y-106450814D01*
X163921398Y-106319125D01*
X163900520Y-106252447D01*
X163900500Y-106250234D01*
X163900500Y-105639054D01*
X165239498Y-105639054D01*
X165280423Y-105791785D01*
X165309358Y-105841900D01*
X165309359Y-105841904D01*
X165309360Y-105841904D01*
X165359479Y-105928714D01*
X165359481Y-105928717D01*
X165478349Y-106047585D01*
X165478355Y-106047590D01*
X166225425Y-106794660D01*
X166258910Y-106855983D01*
X166259361Y-106858149D01*
X166290261Y-107013491D01*
X166290264Y-107013501D01*
X166350602Y-107159172D01*
X166350609Y-107159185D01*
X166438210Y-107290288D01*
X166438213Y-107290292D01*
X166549707Y-107401786D01*
X166549711Y-107401789D01*
X166680814Y-107489390D01*
X166680827Y-107489397D01*
X166826498Y-107549735D01*
X166826503Y-107549737D01*
X166935440Y-107571406D01*
X166981153Y-107580499D01*
X166981156Y-107580500D01*
X166981158Y-107580500D01*
X167138844Y-107580500D01*
X167138845Y-107580499D01*
X167293497Y-107549737D01*
X167439179Y-107489394D01*
X167570289Y-107401789D01*
X167681789Y-107290289D01*
X167769394Y-107159179D01*
X167829737Y-107013497D01*
X167860500Y-106858842D01*
X167860500Y-106701158D01*
X167860500Y-106701155D01*
X167860499Y-106701153D01*
X167842717Y-106611758D01*
X167829737Y-106546503D01*
X167829735Y-106546498D01*
X167769397Y-106400827D01*
X167769390Y-106400814D01*
X167681789Y-106269711D01*
X167681786Y-106269707D01*
X167570292Y-106158213D01*
X167570288Y-106158210D01*
X167439185Y-106070609D01*
X167439172Y-106070602D01*
X167293502Y-106010264D01*
X167293495Y-106010262D01*
X167288512Y-106009271D01*
X167281819Y-106007746D01*
X167281203Y-106007587D01*
X167139057Y-105969500D01*
X167133131Y-105969500D01*
X167119649Y-105966032D01*
X167095821Y-105951834D01*
X167070450Y-105940608D01*
X167062858Y-105933622D01*
X166476819Y-105347583D01*
X166443334Y-105286260D01*
X166440500Y-105259902D01*
X166440500Y-100964790D01*
X166460185Y-100897751D01*
X166495607Y-100861689D01*
X166570289Y-100811789D01*
X166681789Y-100700289D01*
X166769394Y-100569179D01*
X166829737Y-100423497D01*
X166860500Y-100268842D01*
X166860500Y-100111158D01*
X166860500Y-100111155D01*
X166860499Y-100111153D01*
X166844844Y-100032451D01*
X166829737Y-99956503D01*
X166794012Y-99870254D01*
X166769397Y-99810827D01*
X166769390Y-99810814D01*
X166681789Y-99679711D01*
X166681786Y-99679707D01*
X166570292Y-99568213D01*
X166570288Y-99568210D01*
X166439185Y-99480609D01*
X166439172Y-99480602D01*
X166293501Y-99420264D01*
X166293489Y-99420261D01*
X166138845Y-99389500D01*
X166138842Y-99389500D01*
X165981158Y-99389500D01*
X165981155Y-99389500D01*
X165826510Y-99420261D01*
X165826498Y-99420264D01*
X165680827Y-99480602D01*
X165680814Y-99480609D01*
X165549711Y-99568210D01*
X165549707Y-99568213D01*
X165438213Y-99679707D01*
X165438210Y-99679711D01*
X165350609Y-99810814D01*
X165350602Y-99810827D01*
X165290264Y-99956498D01*
X165290261Y-99956510D01*
X165259500Y-100111153D01*
X165259500Y-100239973D01*
X165256968Y-100259198D01*
X165256037Y-100269074D01*
X165255673Y-100270579D01*
X165239499Y-100330943D01*
X165239499Y-100337573D01*
X165239499Y-100499046D01*
X165239500Y-100499059D01*
X165239500Y-105473330D01*
X165239499Y-105473348D01*
X165239499Y-105639054D01*
X165239498Y-105639054D01*
X163900500Y-105639054D01*
X163900500Y-100993557D01*
X163920185Y-100926518D01*
X163972989Y-100880763D01*
X164003061Y-100872663D01*
X164002868Y-100871689D01*
X164089334Y-100854488D01*
X164163497Y-100839737D01*
X164309179Y-100779394D01*
X164440289Y-100691789D01*
X164551789Y-100580289D01*
X164639394Y-100449179D01*
X164699737Y-100303497D01*
X164700707Y-100298621D01*
X164700708Y-100298618D01*
X164725250Y-100175233D01*
X164730500Y-100148842D01*
X164730500Y-99991158D01*
X164730500Y-99991155D01*
X164730499Y-99991153D01*
X164719517Y-99935943D01*
X164699737Y-99836503D01*
X164685195Y-99801395D01*
X164639397Y-99690827D01*
X164639390Y-99690814D01*
X164551789Y-99559711D01*
X164551786Y-99559707D01*
X164440292Y-99448213D01*
X164440288Y-99448210D01*
X164309185Y-99360609D01*
X164309172Y-99360602D01*
X164163501Y-99300264D01*
X164163489Y-99300261D01*
X164008845Y-99269500D01*
X164008842Y-99269500D01*
X163851158Y-99269500D01*
X163851155Y-99269500D01*
X163696510Y-99300261D01*
X163696498Y-99300264D01*
X163550827Y-99360602D01*
X163550814Y-99360609D01*
X163419711Y-99448210D01*
X163419707Y-99448213D01*
X163308213Y-99559707D01*
X163308210Y-99559711D01*
X163220609Y-99690814D01*
X163220602Y-99690827D01*
X163160264Y-99836498D01*
X163160261Y-99836508D01*
X163136811Y-99954400D01*
X163104426Y-100016311D01*
X163102875Y-100017889D01*
X162819481Y-100301282D01*
X162819479Y-100301285D01*
X162815768Y-100307713D01*
X162775115Y-100378127D01*
X162740423Y-100438215D01*
X162699499Y-100590943D01*
X162699499Y-100590945D01*
X162699499Y-100759046D01*
X162699500Y-100759059D01*
X162699500Y-106250234D01*
X162679815Y-106317273D01*
X162678602Y-106319125D01*
X162590609Y-106450814D01*
X162590602Y-106450827D01*
X162530264Y-106596498D01*
X162530261Y-106596510D01*
X162499500Y-106751153D01*
X156500500Y-106751153D01*
X156500500Y-106621158D01*
X156500500Y-106621155D01*
X156500499Y-106621153D01*
X156485649Y-106546498D01*
X156469737Y-106466503D01*
X156463241Y-106450821D01*
X156409397Y-106320828D01*
X156409396Y-106320827D01*
X156409394Y-106320821D01*
X156371396Y-106263953D01*
X156350520Y-106197276D01*
X156350500Y-106195064D01*
X156350500Y-104460807D01*
X156370185Y-104393768D01*
X156386819Y-104373126D01*
X156833126Y-103926819D01*
X156894449Y-103893334D01*
X156920807Y-103890500D01*
X157394071Y-103890500D01*
X157478615Y-103873682D01*
X157519744Y-103865501D01*
X157638127Y-103816465D01*
X157744669Y-103745277D01*
X157915413Y-103574531D01*
X157976734Y-103541047D01*
X157978818Y-103540612D01*
X158033497Y-103529737D01*
X158179179Y-103469394D01*
X158310289Y-103381789D01*
X158421789Y-103270289D01*
X158509394Y-103139179D01*
X158569737Y-102993497D01*
X158600500Y-102838842D01*
X158600500Y-102681158D01*
X158600363Y-102680471D01*
X158593025Y-102643578D01*
X158591251Y-102634660D01*
X158597478Y-102565070D01*
X158640340Y-102509892D01*
X158706229Y-102486647D01*
X158751184Y-102492537D01*
X158788757Y-102504746D01*
X158998713Y-102538000D01*
X158998714Y-102538000D01*
X159211286Y-102538000D01*
X159211287Y-102538000D01*
X159421243Y-102504746D01*
X159623412Y-102439057D01*
X159812816Y-102342551D01*
X159919407Y-102265109D01*
X159984786Y-102217609D01*
X159984788Y-102217606D01*
X159984792Y-102217604D01*
X160135104Y-102067292D01*
X160135106Y-102067288D01*
X160135109Y-102067286D01*
X160260048Y-101895320D01*
X160260047Y-101895320D01*
X160260051Y-101895316D01*
X160356557Y-101705912D01*
X160422246Y-101503743D01*
X160455500Y-101293787D01*
X160455500Y-101081213D01*
X160422246Y-100871257D01*
X160356557Y-100669088D01*
X160260051Y-100479684D01*
X160260049Y-100479681D01*
X160260048Y-100479679D01*
X160135109Y-100307713D01*
X159984794Y-100157398D01*
X159984788Y-100157393D01*
X159906615Y-100100597D01*
X159863949Y-100045267D01*
X159855500Y-100000279D01*
X159855500Y-99241080D01*
X159853213Y-99229589D01*
X159845695Y-99191789D01*
X159826659Y-99096088D01*
X159780507Y-98984669D01*
X159770084Y-98959505D01*
X159727168Y-98895276D01*
X159727168Y-98895275D01*
X159687950Y-98836581D01*
X157168421Y-96317052D01*
X157168414Y-96317046D01*
X157084223Y-96260792D01*
X157084223Y-96260793D01*
X157045495Y-96234916D01*
X157045492Y-96234914D01*
X157045491Y-96234914D01*
X156933116Y-96188367D01*
X156908913Y-96178342D01*
X156908907Y-96178340D01*
X156763920Y-96149500D01*
X156763918Y-96149500D01*
X126194604Y-96149500D01*
X126147155Y-96140062D01*
X126123497Y-96130263D01*
X126123493Y-96130262D01*
X126123488Y-96130260D01*
X125968845Y-96099500D01*
X125968842Y-96099500D01*
X125811158Y-96099500D01*
X125811155Y-96099500D01*
X125656510Y-96130261D01*
X125650676Y-96132031D01*
X125650471Y-96131358D01*
X125609538Y-96139500D01*
X89462230Y-96139500D01*
X89432789Y-96130855D01*
X89402803Y-96124332D01*
X89397787Y-96120577D01*
X89395191Y-96119815D01*
X89374549Y-96103181D01*
X89348503Y-96077135D01*
X163674500Y-96077135D01*
X163674500Y-97522870D01*
X163674501Y-97522876D01*
X163680908Y-97582483D01*
X163731202Y-97717328D01*
X163731206Y-97717335D01*
X163817452Y-97832544D01*
X163817455Y-97832547D01*
X163932664Y-97918793D01*
X163932671Y-97918797D01*
X164067517Y-97969091D01*
X164067516Y-97969091D01*
X164074444Y-97969835D01*
X164127127Y-97975500D01*
X165572872Y-97975499D01*
X165632483Y-97969091D01*
X165767331Y-97918796D01*
X165882546Y-97832546D01*
X165946241Y-97747459D01*
X166002174Y-97705590D01*
X166071866Y-97700606D01*
X166118392Y-97721453D01*
X166233904Y-97805378D01*
X166287224Y-97832546D01*
X166398764Y-97889379D01*
X166398767Y-97889380D01*
X166486750Y-97917967D01*
X166574736Y-97946555D01*
X166757486Y-97975500D01*
X166757487Y-97975500D01*
X166942513Y-97975500D01*
X166942514Y-97975500D01*
X167125264Y-97946555D01*
X167301235Y-97889379D01*
X167466096Y-97805378D01*
X167615787Y-97696621D01*
X167746621Y-97565787D01*
X167855378Y-97416096D01*
X167939379Y-97251235D01*
X167996555Y-97075264D01*
X168025500Y-96892514D01*
X168025500Y-96707486D01*
X167996555Y-96524736D01*
X167939379Y-96348765D01*
X167939379Y-96348764D01*
X167855377Y-96183903D01*
X167851337Y-96178342D01*
X167746621Y-96034213D01*
X167615787Y-95903379D01*
X167466096Y-95794622D01*
X167412778Y-95767455D01*
X167301235Y-95710620D01*
X167301232Y-95710619D01*
X167125265Y-95653445D01*
X166974082Y-95629500D01*
X166942514Y-95624500D01*
X166757486Y-95624500D01*
X166725918Y-95629500D01*
X166574734Y-95653445D01*
X166398767Y-95710619D01*
X166398764Y-95710620D01*
X166233900Y-95794624D01*
X166118392Y-95878545D01*
X166052586Y-95902025D01*
X165984532Y-95886199D01*
X165946241Y-95852539D01*
X165898513Y-95788783D01*
X165882546Y-95767454D01*
X165882544Y-95767453D01*
X165882544Y-95767452D01*
X165767335Y-95681206D01*
X165767328Y-95681202D01*
X165632482Y-95630908D01*
X165632483Y-95630908D01*
X165572883Y-95624501D01*
X165572881Y-95624500D01*
X165572873Y-95624500D01*
X165572864Y-95624500D01*
X164127129Y-95624500D01*
X164127123Y-95624501D01*
X164067516Y-95630908D01*
X163932671Y-95681202D01*
X163932664Y-95681206D01*
X163817455Y-95767452D01*
X163817452Y-95767455D01*
X163731206Y-95882664D01*
X163731202Y-95882671D01*
X163680908Y-96017517D01*
X163674501Y-96077116D01*
X163674500Y-96077135D01*
X89348503Y-96077135D01*
X89336071Y-96064703D01*
X89309191Y-96024475D01*
X89299394Y-96000821D01*
X89234287Y-95903381D01*
X89211789Y-95869710D01*
X89100292Y-95758213D01*
X89100288Y-95758210D01*
X88969185Y-95670609D01*
X88969172Y-95670602D01*
X88823501Y-95610264D01*
X88823489Y-95610261D01*
X88668845Y-95579500D01*
X88668842Y-95579500D01*
X88511158Y-95579500D01*
X88511155Y-95579500D01*
X88356511Y-95610260D01*
X88356506Y-95610262D01*
X88356504Y-95610262D01*
X88356503Y-95610263D01*
X88332844Y-95620062D01*
X88285396Y-95629500D01*
X69404604Y-95629500D01*
X69357155Y-95620062D01*
X69333497Y-95610263D01*
X69333493Y-95610262D01*
X69333488Y-95610260D01*
X69178845Y-95579500D01*
X69178842Y-95579500D01*
X69021158Y-95579500D01*
X69021155Y-95579500D01*
X68866510Y-95610261D01*
X68866498Y-95610264D01*
X68720827Y-95670602D01*
X68720814Y-95670609D01*
X68589711Y-95758210D01*
X68589707Y-95758213D01*
X68478213Y-95869707D01*
X68478210Y-95869711D01*
X68390609Y-96000814D01*
X68390602Y-96000827D01*
X68330264Y-96146498D01*
X68330261Y-96146510D01*
X68299500Y-96301153D01*
X68299500Y-96458841D01*
X68305958Y-96491310D01*
X68299729Y-96560902D01*
X68256866Y-96616078D01*
X68190976Y-96639322D01*
X68184340Y-96639500D01*
X65004604Y-96639500D01*
X64957155Y-96630062D01*
X64933497Y-96620263D01*
X64933493Y-96620262D01*
X64933488Y-96620260D01*
X64778845Y-96589500D01*
X64778842Y-96589500D01*
X64621158Y-96589500D01*
X64621155Y-96589500D01*
X64466510Y-96620261D01*
X64466498Y-96620264D01*
X64320827Y-96680602D01*
X64320814Y-96680609D01*
X64189711Y-96768210D01*
X64189707Y-96768213D01*
X64078213Y-96879707D01*
X64078210Y-96879711D01*
X63990609Y-97010814D01*
X63990602Y-97010827D01*
X63930264Y-97156498D01*
X63930261Y-97156510D01*
X63899500Y-97311153D01*
X63899500Y-97468841D01*
X63903969Y-97491310D01*
X63897740Y-97560901D01*
X63854877Y-97616078D01*
X63788987Y-97639322D01*
X63782351Y-97639500D01*
X60104604Y-97639500D01*
X60057155Y-97630062D01*
X60033497Y-97620263D01*
X60033493Y-97620262D01*
X60033488Y-97620260D01*
X59878845Y-97589500D01*
X59878842Y-97589500D01*
X59721158Y-97589500D01*
X59721155Y-97589500D01*
X59566510Y-97620261D01*
X59566498Y-97620264D01*
X59420827Y-97680602D01*
X59420814Y-97680609D01*
X59289711Y-97768210D01*
X59289707Y-97768213D01*
X59178213Y-97879707D01*
X59178210Y-97879711D01*
X59090609Y-98010814D01*
X59090602Y-98010827D01*
X59030264Y-98156498D01*
X59030261Y-98156510D01*
X58999500Y-98311153D01*
X58999500Y-98468841D01*
X59005958Y-98501310D01*
X58999729Y-98570902D01*
X58956866Y-98626078D01*
X58890976Y-98649322D01*
X58884340Y-98649500D01*
X56366080Y-98649500D01*
X56221092Y-98678340D01*
X56221082Y-98678343D01*
X56084508Y-98734914D01*
X56084505Y-98734915D01*
X56084505Y-98734916D01*
X56047347Y-98759744D01*
X56047346Y-98759743D01*
X55961585Y-98817046D01*
X55961578Y-98817052D01*
X54757526Y-100021104D01*
X54726141Y-100043907D01*
X54562182Y-100127449D01*
X54390213Y-100252390D01*
X54239890Y-100402713D01*
X54114951Y-100574679D01*
X54018444Y-100764085D01*
X53952753Y-100966260D01*
X53919500Y-101176213D01*
X53919500Y-101388786D01*
X53945230Y-101551243D01*
X53952754Y-101598743D01*
X54003009Y-101753412D01*
X54018444Y-101800914D01*
X54114951Y-101990320D01*
X54239890Y-102162286D01*
X54390213Y-102312609D01*
X54562179Y-102437548D01*
X54562181Y-102437549D01*
X54562184Y-102437551D01*
X54751588Y-102534057D01*
X54953757Y-102599746D01*
X55163713Y-102633000D01*
X55163714Y-102633000D01*
X55376286Y-102633000D01*
X55376287Y-102633000D01*
X55586243Y-102599746D01*
X55788412Y-102534057D01*
X55977816Y-102437551D01*
X56043199Y-102390048D01*
X56149786Y-102312609D01*
X56149788Y-102312606D01*
X56149792Y-102312604D01*
X56300104Y-102162292D01*
X56300106Y-102162288D01*
X56300109Y-102162286D01*
X56425048Y-101990320D01*
X56425047Y-101990320D01*
X56425051Y-101990316D01*
X56429514Y-101981554D01*
X56477488Y-101930759D01*
X56545308Y-101913963D01*
X56611444Y-101936499D01*
X56650486Y-101981556D01*
X56654951Y-101990320D01*
X56779890Y-102162286D01*
X56930213Y-102312609D01*
X57102179Y-102437548D01*
X57102181Y-102437549D01*
X57102184Y-102437551D01*
X57291588Y-102534057D01*
X57493757Y-102599746D01*
X57703713Y-102633000D01*
X57703714Y-102633000D01*
X57916286Y-102633000D01*
X57916287Y-102633000D01*
X58126243Y-102599746D01*
X58328412Y-102534057D01*
X58517816Y-102437551D01*
X58583199Y-102390048D01*
X58689786Y-102312609D01*
X58689788Y-102312606D01*
X58689792Y-102312604D01*
X58840104Y-102162292D01*
X58840106Y-102162288D01*
X58840109Y-102162286D01*
X58965048Y-101990320D01*
X58965047Y-101990320D01*
X58965051Y-101990316D01*
X58969514Y-101981554D01*
X59017488Y-101930759D01*
X59085308Y-101913963D01*
X59151444Y-101936499D01*
X59190486Y-101981556D01*
X59194951Y-101990320D01*
X59319890Y-102162286D01*
X59470213Y-102312609D01*
X59642179Y-102437548D01*
X59642181Y-102437549D01*
X59642184Y-102437551D01*
X59831588Y-102534057D01*
X60033757Y-102599746D01*
X60243713Y-102633000D01*
X60243714Y-102633000D01*
X60456286Y-102633000D01*
X60456287Y-102633000D01*
X60666243Y-102599746D01*
X60868412Y-102534057D01*
X61057816Y-102437551D01*
X61123199Y-102390048D01*
X61229786Y-102312609D01*
X61229788Y-102312606D01*
X61229792Y-102312604D01*
X61380104Y-102162292D01*
X61380106Y-102162288D01*
X61380109Y-102162286D01*
X61505048Y-101990320D01*
X61505047Y-101990320D01*
X61505051Y-101990316D01*
X61509514Y-101981554D01*
X61557488Y-101930759D01*
X61625308Y-101913963D01*
X61691444Y-101936499D01*
X61730486Y-101981556D01*
X61734951Y-101990320D01*
X61859890Y-102162286D01*
X62010213Y-102312609D01*
X62182179Y-102437548D01*
X62182181Y-102437549D01*
X62182184Y-102437551D01*
X62371588Y-102534057D01*
X62573757Y-102599746D01*
X62783713Y-102633000D01*
X62783714Y-102633000D01*
X62996286Y-102633000D01*
X62996287Y-102633000D01*
X63206243Y-102599746D01*
X63408412Y-102534057D01*
X63597816Y-102437551D01*
X63663199Y-102390048D01*
X63769786Y-102312609D01*
X63769788Y-102312606D01*
X63769792Y-102312604D01*
X63920104Y-102162292D01*
X63920106Y-102162288D01*
X63920109Y-102162286D01*
X64045048Y-101990320D01*
X64045047Y-101990320D01*
X64045051Y-101990316D01*
X64049514Y-101981554D01*
X64097488Y-101930759D01*
X64165308Y-101913963D01*
X64231444Y-101936499D01*
X64270486Y-101981556D01*
X64274951Y-101990320D01*
X64399890Y-102162286D01*
X64550213Y-102312609D01*
X64722179Y-102437548D01*
X64722181Y-102437549D01*
X64722184Y-102437551D01*
X64911588Y-102534057D01*
X65113757Y-102599746D01*
X65323713Y-102633000D01*
X65323714Y-102633000D01*
X65536286Y-102633000D01*
X65536287Y-102633000D01*
X65746243Y-102599746D01*
X65948412Y-102534057D01*
X66137816Y-102437551D01*
X66203199Y-102390048D01*
X66309786Y-102312609D01*
X66309788Y-102312606D01*
X66309792Y-102312604D01*
X66460104Y-102162292D01*
X66460106Y-102162288D01*
X66460109Y-102162286D01*
X66585048Y-101990320D01*
X66585047Y-101990320D01*
X66585051Y-101990316D01*
X66681557Y-101800912D01*
X66747246Y-101598743D01*
X66780500Y-101388787D01*
X66780500Y-101176213D01*
X66747246Y-100966257D01*
X66681557Y-100764088D01*
X66585051Y-100574684D01*
X66585049Y-100574681D01*
X66585048Y-100574679D01*
X66460109Y-100402713D01*
X66419577Y-100362181D01*
X66386092Y-100300858D01*
X66391076Y-100231166D01*
X66432948Y-100175233D01*
X66498412Y-100150816D01*
X66507258Y-100150500D01*
X82397770Y-100150500D01*
X82464809Y-100170185D01*
X82485451Y-100186819D01*
X82885374Y-100586742D01*
X83279824Y-100981191D01*
X83313309Y-101042514D01*
X83314616Y-101088270D01*
X83299500Y-101183707D01*
X83299500Y-101183713D01*
X83299500Y-101396287D01*
X83332754Y-101606243D01*
X83380572Y-101753412D01*
X83398444Y-101808414D01*
X83494951Y-101997820D01*
X83619890Y-102169786D01*
X83770213Y-102320109D01*
X83942179Y-102445048D01*
X83942181Y-102445049D01*
X83942184Y-102445051D01*
X84131588Y-102541557D01*
X84333757Y-102607246D01*
X84543713Y-102640500D01*
X84543714Y-102640500D01*
X84756286Y-102640500D01*
X84756287Y-102640500D01*
X84966243Y-102607246D01*
X85168412Y-102541557D01*
X85357816Y-102445051D01*
X85433522Y-102390048D01*
X85529786Y-102320109D01*
X85529788Y-102320106D01*
X85529792Y-102320104D01*
X85680104Y-102169792D01*
X85680106Y-102169788D01*
X85680109Y-102169786D01*
X85805048Y-101997820D01*
X85805047Y-101997820D01*
X85805051Y-101997816D01*
X85809514Y-101989054D01*
X85857488Y-101938259D01*
X85925308Y-101921463D01*
X85991444Y-101943999D01*
X86030486Y-101989056D01*
X86034951Y-101997820D01*
X86159890Y-102169786D01*
X86310213Y-102320109D01*
X86482179Y-102445048D01*
X86482181Y-102445049D01*
X86482184Y-102445051D01*
X86671588Y-102541557D01*
X86873757Y-102607246D01*
X87083713Y-102640500D01*
X87083714Y-102640500D01*
X87296286Y-102640500D01*
X87296287Y-102640500D01*
X87506243Y-102607246D01*
X87708412Y-102541557D01*
X87897816Y-102445051D01*
X87973522Y-102390048D01*
X88069786Y-102320109D01*
X88069788Y-102320106D01*
X88069792Y-102320104D01*
X88220104Y-102169792D01*
X88220106Y-102169788D01*
X88220109Y-102169786D01*
X88345048Y-101997820D01*
X88345047Y-101997820D01*
X88345051Y-101997816D01*
X88349514Y-101989054D01*
X88397488Y-101938259D01*
X88465308Y-101921463D01*
X88531444Y-101943999D01*
X88570486Y-101989056D01*
X88574951Y-101997820D01*
X88699890Y-102169786D01*
X88850213Y-102320109D01*
X89022179Y-102445048D01*
X89022181Y-102445049D01*
X89022184Y-102445051D01*
X89211588Y-102541557D01*
X89413757Y-102607246D01*
X89623713Y-102640500D01*
X89623714Y-102640500D01*
X89836286Y-102640500D01*
X89836287Y-102640500D01*
X90046243Y-102607246D01*
X90248412Y-102541557D01*
X90437816Y-102445051D01*
X90513522Y-102390048D01*
X90609786Y-102320109D01*
X90609788Y-102320106D01*
X90609792Y-102320104D01*
X90760104Y-102169792D01*
X90760106Y-102169788D01*
X90760109Y-102169786D01*
X90885048Y-101997820D01*
X90885047Y-101997820D01*
X90885051Y-101997816D01*
X90889514Y-101989054D01*
X90937488Y-101938259D01*
X91005308Y-101921463D01*
X91071444Y-101943999D01*
X91110486Y-101989056D01*
X91114951Y-101997820D01*
X91239890Y-102169786D01*
X91390213Y-102320109D01*
X91562179Y-102445048D01*
X91562181Y-102445049D01*
X91562184Y-102445051D01*
X91751588Y-102541557D01*
X91953757Y-102607246D01*
X92163713Y-102640500D01*
X92163714Y-102640500D01*
X92376286Y-102640500D01*
X92376287Y-102640500D01*
X92586243Y-102607246D01*
X92788412Y-102541557D01*
X92977816Y-102445051D01*
X93053522Y-102390048D01*
X93149786Y-102320109D01*
X93149788Y-102320106D01*
X93149792Y-102320104D01*
X93300104Y-102169792D01*
X93300106Y-102169788D01*
X93300109Y-102169786D01*
X93425048Y-101997820D01*
X93425047Y-101997820D01*
X93425051Y-101997816D01*
X93429514Y-101989054D01*
X93477488Y-101938259D01*
X93545308Y-101921463D01*
X93611444Y-101943999D01*
X93650486Y-101989056D01*
X93654951Y-101997820D01*
X93779890Y-102169786D01*
X93930213Y-102320109D01*
X94102179Y-102445048D01*
X94102181Y-102445049D01*
X94102184Y-102445051D01*
X94291588Y-102541557D01*
X94493757Y-102607246D01*
X94703713Y-102640500D01*
X94703714Y-102640500D01*
X94916286Y-102640500D01*
X94916287Y-102640500D01*
X95126243Y-102607246D01*
X95328412Y-102541557D01*
X95517816Y-102445051D01*
X95593522Y-102390048D01*
X95689786Y-102320109D01*
X95689788Y-102320106D01*
X95689792Y-102320104D01*
X95840104Y-102169792D01*
X95840106Y-102169788D01*
X95840109Y-102169786D01*
X95965048Y-101997820D01*
X95965047Y-101997820D01*
X95965051Y-101997816D01*
X96061557Y-101808412D01*
X96127246Y-101606243D01*
X96160500Y-101396287D01*
X96160500Y-101183713D01*
X96127246Y-100973757D01*
X96061557Y-100771588D01*
X95965051Y-100582184D01*
X95965049Y-100582181D01*
X95965048Y-100582179D01*
X95840109Y-100410213D01*
X95792077Y-100362181D01*
X95758592Y-100300858D01*
X95763576Y-100231166D01*
X95805448Y-100175233D01*
X95870912Y-100150816D01*
X95879758Y-100150500D01*
X117227770Y-100150500D01*
X117294809Y-100170185D01*
X117315451Y-100186819D01*
X118054824Y-100926192D01*
X118088309Y-100987515D01*
X118089616Y-101033271D01*
X118074500Y-101128707D01*
X118074500Y-101128713D01*
X118074500Y-101341287D01*
X118082023Y-101388786D01*
X118100230Y-101503743D01*
X118107754Y-101551243D01*
X118172870Y-101751650D01*
X118173444Y-101753414D01*
X118269951Y-101942820D01*
X118394890Y-102114786D01*
X118545213Y-102265109D01*
X118717184Y-102390051D01*
X118717184Y-102390052D01*
X118756793Y-102410233D01*
X118807590Y-102458206D01*
X118824500Y-102520718D01*
X118824500Y-103078330D01*
X118824499Y-103078348D01*
X118824499Y-103244054D01*
X118824498Y-103244054D01*
X118824533Y-103244185D01*
X118852668Y-103349185D01*
X118865424Y-103396787D01*
X118879114Y-103420498D01*
X118879115Y-103420500D01*
X118944477Y-103533712D01*
X118944481Y-103533717D01*
X119063349Y-103652585D01*
X119063355Y-103652590D01*
X128864579Y-113453814D01*
X128898064Y-113515137D01*
X128893080Y-113584829D01*
X128851208Y-113640762D01*
X128796297Y-113663968D01*
X128685464Y-113681523D01*
X128490776Y-113744781D01*
X128308386Y-113837715D01*
X128142786Y-113958028D01*
X127998028Y-114102786D01*
X127877715Y-114268386D01*
X127830485Y-114361080D01*
X127782510Y-114411876D01*
X127714689Y-114428671D01*
X127648554Y-114406134D01*
X127609515Y-114361080D01*
X127588314Y-114319471D01*
X127562287Y-114268390D01*
X127494232Y-114174719D01*
X127441971Y-114102786D01*
X127297213Y-113958028D01*
X127131613Y-113837715D01*
X127131612Y-113837714D01*
X127131610Y-113837713D01*
X127071898Y-113807288D01*
X126949223Y-113744781D01*
X126754534Y-113681522D01*
X126579995Y-113653878D01*
X126552352Y-113649500D01*
X126347648Y-113649500D01*
X126323329Y-113653351D01*
X126145465Y-113681522D01*
X125950776Y-113744781D01*
X125768386Y-113837715D01*
X125602786Y-113958028D01*
X125458028Y-114102786D01*
X125337715Y-114268386D01*
X125290485Y-114361080D01*
X125242510Y-114411876D01*
X125174689Y-114428671D01*
X125108554Y-114406134D01*
X125069515Y-114361080D01*
X125048314Y-114319471D01*
X125022287Y-114268390D01*
X124954232Y-114174719D01*
X124901971Y-114102786D01*
X124757213Y-113958028D01*
X124591613Y-113837715D01*
X124591612Y-113837714D01*
X124591610Y-113837713D01*
X124531898Y-113807288D01*
X124409223Y-113744781D01*
X124214534Y-113681522D01*
X124039995Y-113653878D01*
X124012352Y-113649500D01*
X123807648Y-113649500D01*
X123783329Y-113653351D01*
X123605465Y-113681522D01*
X123410776Y-113744781D01*
X123228386Y-113837715D01*
X123062786Y-113958028D01*
X122918028Y-114102786D01*
X122797715Y-114268386D01*
X122704781Y-114450776D01*
X122641522Y-114645465D01*
X122609500Y-114847648D01*
X122609500Y-115052351D01*
X122641522Y-115254534D01*
X122704781Y-115449223D01*
X122756135Y-115550009D01*
X122779226Y-115595328D01*
X122797715Y-115631613D01*
X122918028Y-115797213D01*
X123062786Y-115941971D01*
X123200499Y-116042023D01*
X123228390Y-116062287D01*
X123309499Y-116103614D01*
X123410776Y-116155218D01*
X123410778Y-116155218D01*
X123410781Y-116155220D01*
X123501856Y-116184812D01*
X123605465Y-116218477D01*
X123706557Y-116234488D01*
X123807648Y-116250500D01*
X123807649Y-116250500D01*
X124012351Y-116250500D01*
X124012352Y-116250500D01*
X124214534Y-116218477D01*
X124409219Y-116155220D01*
X124591610Y-116062287D01*
X124720482Y-115968657D01*
X124757213Y-115941971D01*
X124757215Y-115941968D01*
X124757219Y-115941966D01*
X124901966Y-115797219D01*
X124901968Y-115797215D01*
X124901971Y-115797213D01*
X125022284Y-115631614D01*
X125022285Y-115631613D01*
X125022287Y-115631610D01*
X125069516Y-115538917D01*
X125117489Y-115488123D01*
X125185310Y-115471328D01*
X125251445Y-115493865D01*
X125290483Y-115538917D01*
X125319228Y-115595331D01*
X125337715Y-115631614D01*
X125458028Y-115797213D01*
X125458034Y-115797219D01*
X125602781Y-115941966D01*
X125768390Y-116062287D01*
X125781793Y-116069116D01*
X125832589Y-116117088D01*
X125849500Y-116179601D01*
X125849500Y-117583330D01*
X125849499Y-117583348D01*
X125849499Y-117749054D01*
X125849498Y-117749054D01*
X125890423Y-117901785D01*
X125919358Y-117951900D01*
X125919359Y-117951904D01*
X125919360Y-117951904D01*
X125963903Y-118029057D01*
X125969479Y-118038714D01*
X125969481Y-118038717D01*
X126088349Y-118157585D01*
X126088355Y-118157590D01*
X127083181Y-119152416D01*
X127116666Y-119213739D01*
X127119500Y-119240097D01*
X127119500Y-121249733D01*
X127099815Y-121316772D01*
X127047011Y-121362527D01*
X126977853Y-121372471D01*
X126953971Y-121365919D01*
X126953853Y-121366285D01*
X126754536Y-121301523D01*
X126619746Y-121280174D01*
X126552352Y-121269500D01*
X126347648Y-121269500D01*
X126323329Y-121273351D01*
X126145465Y-121301522D01*
X125950776Y-121364781D01*
X125768386Y-121457715D01*
X125602786Y-121578028D01*
X125458028Y-121722786D01*
X125337715Y-121888386D01*
X125290485Y-121981080D01*
X125242510Y-122031876D01*
X125174689Y-122048671D01*
X125108554Y-122026134D01*
X125069515Y-121981080D01*
X125054524Y-121951659D01*
X125022287Y-121888390D01*
X125003249Y-121862186D01*
X124901971Y-121722786D01*
X124757213Y-121578028D01*
X124591613Y-121457715D01*
X124591612Y-121457714D01*
X124591610Y-121457713D01*
X124515041Y-121418699D01*
X124409223Y-121364781D01*
X124214534Y-121301522D01*
X124039995Y-121273878D01*
X124012352Y-121269500D01*
X123807648Y-121269500D01*
X123783329Y-121273351D01*
X123605465Y-121301522D01*
X123410776Y-121364781D01*
X123228386Y-121457715D01*
X123062786Y-121578028D01*
X122918028Y-121722786D01*
X122797715Y-121888386D01*
X122750485Y-121981080D01*
X122702510Y-122031876D01*
X122634689Y-122048671D01*
X122568554Y-122026134D01*
X122529515Y-121981080D01*
X122514524Y-121951659D01*
X122482287Y-121888390D01*
X122463249Y-121862186D01*
X122361971Y-121722786D01*
X122217213Y-121578028D01*
X122051610Y-121457712D01*
X122038200Y-121450879D01*
X121987406Y-121402903D01*
X121970500Y-121340397D01*
X121970500Y-120759060D01*
X121970501Y-120759047D01*
X121970501Y-120590944D01*
X121970501Y-120590943D01*
X121929577Y-120438216D01*
X121897988Y-120383501D01*
X121850524Y-120301290D01*
X121850518Y-120301282D01*
X120787590Y-119238355D01*
X120780521Y-119231286D01*
X120780520Y-119231284D01*
X120761414Y-119212178D01*
X120727932Y-119150857D01*
X120731523Y-119100662D01*
X120732917Y-119081167D01*
X120735333Y-119077940D01*
X120774790Y-119025232D01*
X120828639Y-119005149D01*
X120840253Y-119000817D01*
X120849099Y-119000501D01*
X120919054Y-119000501D01*
X120919057Y-119000501D01*
X121071785Y-118959577D01*
X121122281Y-118930423D01*
X121122282Y-118930423D01*
X121208709Y-118880524D01*
X121208708Y-118880524D01*
X121208716Y-118880520D01*
X121320520Y-118768716D01*
X121320520Y-118768714D01*
X121330724Y-118758511D01*
X121330728Y-118758506D01*
X121648506Y-118440728D01*
X121648511Y-118440724D01*
X121658714Y-118430520D01*
X121658716Y-118430520D01*
X121770520Y-118318716D01*
X121838516Y-118200943D01*
X121849577Y-118181785D01*
X121890500Y-118029057D01*
X121890500Y-117870943D01*
X121890500Y-117459060D01*
X121890501Y-117459047D01*
X121890501Y-117290944D01*
X121884667Y-117269172D01*
X121849577Y-117138216D01*
X121841079Y-117123497D01*
X121770524Y-117001290D01*
X121770518Y-117001282D01*
X121644573Y-116875337D01*
X121611088Y-116814014D01*
X121610637Y-116811847D01*
X121600323Y-116759996D01*
X121579737Y-116656503D01*
X121565141Y-116621264D01*
X121519397Y-116510827D01*
X121519390Y-116510814D01*
X121431789Y-116379711D01*
X121431786Y-116379707D01*
X121320292Y-116268213D01*
X121320288Y-116268210D01*
X121189185Y-116180609D01*
X121189172Y-116180602D01*
X121043501Y-116120264D01*
X121043489Y-116120261D01*
X120888845Y-116089500D01*
X120888842Y-116089500D01*
X120731158Y-116089500D01*
X120731155Y-116089500D01*
X120576510Y-116120261D01*
X120576498Y-116120264D01*
X120430827Y-116180602D01*
X120430814Y-116180609D01*
X120299711Y-116268210D01*
X120299707Y-116268213D01*
X120188213Y-116379707D01*
X120188210Y-116379711D01*
X120100609Y-116510814D01*
X120100602Y-116510827D01*
X120040264Y-116656498D01*
X120040261Y-116656510D01*
X120009500Y-116811153D01*
X120009500Y-116968846D01*
X120040261Y-117123489D01*
X120040264Y-117123501D01*
X120100602Y-117269172D01*
X120100609Y-117269185D01*
X120188210Y-117400288D01*
X120188213Y-117400292D01*
X120299707Y-117511786D01*
X120299711Y-117511789D01*
X120390418Y-117572398D01*
X120435223Y-117626010D01*
X120443930Y-117695335D01*
X120413776Y-117758363D01*
X120354332Y-117795082D01*
X120321527Y-117799500D01*
X104549096Y-117799500D01*
X104482057Y-117779815D01*
X104436302Y-117727011D01*
X104426358Y-117657853D01*
X104455383Y-117594297D01*
X104461415Y-117587819D01*
X106499217Y-115550018D01*
X108672416Y-113376819D01*
X108733739Y-113343334D01*
X108760097Y-113340500D01*
X115009903Y-113340500D01*
X115076942Y-113360185D01*
X115097584Y-113376819D01*
X115476819Y-113756054D01*
X115510304Y-113817377D01*
X115505320Y-113887069D01*
X115463448Y-113943002D01*
X115462023Y-113944053D01*
X115442786Y-113958028D01*
X115298032Y-114102782D01*
X115298028Y-114102787D01*
X115229978Y-114196451D01*
X115174648Y-114239117D01*
X115105035Y-114245096D01*
X115043240Y-114212490D01*
X115011954Y-114162570D01*
X114992144Y-114102787D01*
X114984814Y-114080666D01*
X114892712Y-113931344D01*
X114768656Y-113807288D01*
X114628668Y-113720943D01*
X114619336Y-113715187D01*
X114619331Y-113715185D01*
X114554611Y-113693739D01*
X114452797Y-113660001D01*
X114452795Y-113660000D01*
X114350010Y-113649500D01*
X113149998Y-113649500D01*
X113149981Y-113649501D01*
X113047203Y-113660000D01*
X113047200Y-113660001D01*
X112880668Y-113715185D01*
X112880663Y-113715187D01*
X112731342Y-113807289D01*
X112607289Y-113931342D01*
X112515187Y-114080663D01*
X112515185Y-114080668D01*
X112507858Y-114102781D01*
X112460001Y-114247203D01*
X112460001Y-114247204D01*
X112460000Y-114247204D01*
X112449500Y-114349983D01*
X112449500Y-115550001D01*
X112449501Y-115550018D01*
X112460000Y-115652796D01*
X112460001Y-115652797D01*
X112515185Y-115819331D01*
X112515187Y-115819336D01*
X112515758Y-115820261D01*
X112607288Y-115968656D01*
X112731344Y-116092712D01*
X112880666Y-116184814D01*
X113047203Y-116239999D01*
X113149991Y-116250500D01*
X114350008Y-116250499D01*
X114452797Y-116239999D01*
X114619334Y-116184814D01*
X114768656Y-116092712D01*
X114892712Y-115968656D01*
X114984814Y-115819334D01*
X115011955Y-115737427D01*
X115051726Y-115679984D01*
X115116242Y-115653161D01*
X115185018Y-115665476D01*
X115229977Y-115703547D01*
X115298030Y-115797213D01*
X115298034Y-115797219D01*
X115442786Y-115941971D01*
X115580499Y-116042023D01*
X115608390Y-116062287D01*
X115689499Y-116103614D01*
X115790776Y-116155218D01*
X115790778Y-116155218D01*
X115790781Y-116155220D01*
X115881856Y-116184812D01*
X115985465Y-116218477D01*
X116086557Y-116234488D01*
X116187648Y-116250500D01*
X116187649Y-116250500D01*
X116392351Y-116250500D01*
X116392352Y-116250500D01*
X116594534Y-116218477D01*
X116789219Y-116155220D01*
X116971610Y-116062287D01*
X117100482Y-115968657D01*
X117137213Y-115941971D01*
X117137215Y-115941968D01*
X117137219Y-115941966D01*
X117281966Y-115797219D01*
X117281968Y-115797215D01*
X117281971Y-115797213D01*
X117402284Y-115631614D01*
X117402285Y-115631613D01*
X117402287Y-115631610D01*
X117449516Y-115538917D01*
X117497489Y-115488123D01*
X117565310Y-115471328D01*
X117631445Y-115493865D01*
X117670483Y-115538917D01*
X117699228Y-115595331D01*
X117717715Y-115631614D01*
X117838028Y-115797213D01*
X117982786Y-115941971D01*
X118120499Y-116042023D01*
X118148390Y-116062287D01*
X118229499Y-116103614D01*
X118330776Y-116155218D01*
X118330778Y-116155218D01*
X118330781Y-116155220D01*
X118421856Y-116184812D01*
X118525465Y-116218477D01*
X118626557Y-116234488D01*
X118727648Y-116250500D01*
X118727649Y-116250500D01*
X118932351Y-116250500D01*
X118932352Y-116250500D01*
X119134534Y-116218477D01*
X119329219Y-116155220D01*
X119511610Y-116062287D01*
X119640482Y-115968657D01*
X119677213Y-115941971D01*
X119677215Y-115941968D01*
X119677219Y-115941966D01*
X119821966Y-115797219D01*
X119821968Y-115797215D01*
X119821971Y-115797213D01*
X119890021Y-115703548D01*
X119942287Y-115631610D01*
X120035220Y-115449219D01*
X120098477Y-115254534D01*
X120130500Y-115052352D01*
X120130500Y-114847648D01*
X120098477Y-114645466D01*
X120035220Y-114450781D01*
X120035218Y-114450778D01*
X120035218Y-114450776D01*
X119983865Y-114349991D01*
X119942287Y-114268390D01*
X119874232Y-114174719D01*
X119821971Y-114102786D01*
X119677213Y-113958028D01*
X119511613Y-113837715D01*
X119511612Y-113837714D01*
X119511610Y-113837713D01*
X119451898Y-113807288D01*
X119329223Y-113744781D01*
X119134534Y-113681522D01*
X118959995Y-113653878D01*
X118932352Y-113649500D01*
X118727648Y-113649500D01*
X118703329Y-113653351D01*
X118525465Y-113681522D01*
X118330776Y-113744781D01*
X118148386Y-113837715D01*
X117982786Y-113958028D01*
X117838028Y-114102786D01*
X117717715Y-114268386D01*
X117670485Y-114361080D01*
X117622510Y-114411876D01*
X117554689Y-114428671D01*
X117488554Y-114406134D01*
X117449515Y-114361080D01*
X117428314Y-114319471D01*
X117402287Y-114268390D01*
X117334232Y-114174719D01*
X117281971Y-114102786D01*
X117137213Y-113958028D01*
X116971610Y-113837712D01*
X116958200Y-113830879D01*
X116907406Y-113782903D01*
X116890500Y-113720397D01*
X116890500Y-113640945D01*
X116890500Y-113640943D01*
X116890382Y-113640500D01*
X116849577Y-113488215D01*
X116808152Y-113416465D01*
X116770520Y-113351284D01*
X116658716Y-113239480D01*
X116658715Y-113239479D01*
X116654385Y-113235149D01*
X116654374Y-113235139D01*
X115797590Y-112378355D01*
X115797588Y-112378352D01*
X115678717Y-112259481D01*
X115678716Y-112259480D01*
X115591904Y-112209360D01*
X115591904Y-112209359D01*
X115591900Y-112209358D01*
X115541785Y-112180423D01*
X115389057Y-112139499D01*
X115230943Y-112139499D01*
X115223347Y-112139499D01*
X115223331Y-112139500D01*
X108479096Y-112139500D01*
X108412057Y-112119815D01*
X108366302Y-112067011D01*
X108356358Y-111997853D01*
X108385383Y-111934297D01*
X108391415Y-111927819D01*
X108627927Y-111691307D01*
X108998506Y-111320728D01*
X108998511Y-111320724D01*
X109008714Y-111310520D01*
X109008716Y-111310520D01*
X109120520Y-111198716D01*
X109184567Y-111087782D01*
X109199577Y-111061785D01*
X109240500Y-110909058D01*
X109240500Y-110750943D01*
X109240500Y-109021835D01*
X109260185Y-108954796D01*
X109308206Y-108911350D01*
X109308547Y-108911175D01*
X109374022Y-108877815D01*
X109552365Y-108748242D01*
X109708242Y-108592365D01*
X109837815Y-108414022D01*
X109937895Y-108217606D01*
X110006015Y-108007951D01*
X110040500Y-107790222D01*
X110040500Y-107569778D01*
X110006015Y-107352049D01*
X109959955Y-107210288D01*
X109937896Y-107142396D01*
X109937895Y-107142393D01*
X109897697Y-107063501D01*
X109837815Y-106945978D01*
X109810834Y-106908842D01*
X109708247Y-106767641D01*
X109708243Y-106767636D01*
X109552363Y-106611756D01*
X109552358Y-106611752D01*
X109374025Y-106482187D01*
X109374024Y-106482186D01*
X109374022Y-106482185D01*
X109311096Y-106450122D01*
X109177606Y-106382104D01*
X109177603Y-106382103D01*
X108967952Y-106313985D01*
X108859086Y-106296742D01*
X108750222Y-106279500D01*
X108529778Y-106279500D01*
X108457201Y-106290995D01*
X108312047Y-106313985D01*
X108102396Y-106382103D01*
X108102393Y-106382104D01*
X107905974Y-106482187D01*
X107727641Y-106611752D01*
X107727636Y-106611756D01*
X107571756Y-106767636D01*
X107571752Y-106767641D01*
X107442187Y-106945974D01*
X107342104Y-107142393D01*
X107342103Y-107142396D01*
X107273985Y-107352047D01*
X107242674Y-107549737D01*
X107239500Y-107569778D01*
X107239500Y-107790222D01*
X107251278Y-107864582D01*
X107273985Y-108007952D01*
X107342103Y-108217603D01*
X107342104Y-108217606D01*
X107371767Y-108275821D01*
X107427231Y-108384674D01*
X107442187Y-108414025D01*
X107571752Y-108592358D01*
X107571756Y-108592363D01*
X107727636Y-108748243D01*
X107727641Y-108748247D01*
X107905976Y-108877814D01*
X107971794Y-108911350D01*
X108022591Y-108959324D01*
X108039500Y-109021835D01*
X108039500Y-110529903D01*
X108019815Y-110596942D01*
X108003181Y-110617584D01*
X102877584Y-115743181D01*
X102816261Y-115776666D01*
X102789903Y-115779500D01*
X102049766Y-115779500D01*
X101982727Y-115759815D01*
X101980875Y-115758602D01*
X101849185Y-115670609D01*
X101849172Y-115670602D01*
X101703501Y-115610264D01*
X101703489Y-115610261D01*
X101548845Y-115579500D01*
X101548842Y-115579500D01*
X101391158Y-115579500D01*
X101391155Y-115579500D01*
X101236510Y-115610261D01*
X101236498Y-115610264D01*
X101090827Y-115670602D01*
X101090814Y-115670609D01*
X100959711Y-115758210D01*
X100959707Y-115758213D01*
X100848213Y-115869707D01*
X100848210Y-115869711D01*
X100760609Y-116000814D01*
X100760602Y-116000827D01*
X100700264Y-116146498D01*
X100700261Y-116146510D01*
X100669500Y-116301153D01*
X100669500Y-116458846D01*
X100700261Y-116613489D01*
X100700263Y-116613497D01*
X100706290Y-116628047D01*
X100713759Y-116697517D01*
X100682484Y-116759996D01*
X100622395Y-116795648D01*
X100591729Y-116799500D01*
X100250939Y-116799500D01*
X100213692Y-116809480D01*
X100213693Y-116809481D01*
X100098214Y-116840423D01*
X100098209Y-116840426D01*
X99961290Y-116919475D01*
X99961282Y-116919481D01*
X99894504Y-116986260D01*
X99849480Y-117031284D01*
X99849478Y-117031286D01*
X91732537Y-125148228D01*
X83647584Y-133233181D01*
X83586261Y-133266666D01*
X83559903Y-133269500D01*
X56666670Y-133269500D01*
X56666654Y-133269499D01*
X56659058Y-133269499D01*
X56500943Y-133269499D01*
X56424579Y-133289961D01*
X56348214Y-133310423D01*
X56348209Y-133310426D01*
X56211290Y-133389475D01*
X56211282Y-133389481D01*
X54879481Y-134721282D01*
X54879475Y-134721290D01*
X54839479Y-134790567D01*
X54839479Y-134790568D01*
X54800423Y-134858215D01*
X54759499Y-135010943D01*
X54759499Y-135010945D01*
X54759499Y-135158000D01*
X54739814Y-135225039D01*
X54687010Y-135270794D01*
X54635500Y-135282000D01*
X54462130Y-135282000D01*
X54462123Y-135282001D01*
X54402516Y-135288408D01*
X54267671Y-135338702D01*
X54267664Y-135338706D01*
X54152455Y-135424952D01*
X54152452Y-135424955D01*
X54066206Y-135540164D01*
X54066202Y-135540171D01*
X54015908Y-135675017D01*
X54009501Y-135734616D01*
X54009500Y-135734635D01*
X54009500Y-137530370D01*
X54009501Y-137530376D01*
X54015908Y-137589983D01*
X54066202Y-137724828D01*
X54066206Y-137724835D01*
X54152452Y-137840044D01*
X54152455Y-137840047D01*
X54267664Y-137926293D01*
X54267671Y-137926297D01*
X54402517Y-137976591D01*
X54402516Y-137976591D01*
X54404814Y-137976838D01*
X54462127Y-137983000D01*
X56257872Y-137982999D01*
X56317483Y-137976591D01*
X56452331Y-137926296D01*
X56567546Y-137840046D01*
X56653796Y-137724831D01*
X56702810Y-137593416D01*
X56744681Y-137537484D01*
X56810145Y-137513066D01*
X56878418Y-137527917D01*
X56906673Y-137549069D01*
X57020208Y-137662604D01*
X57098384Y-137719402D01*
X57141051Y-137774731D01*
X57149500Y-137819720D01*
X57149500Y-138023918D01*
X57149500Y-138023920D01*
X57149499Y-138023920D01*
X57178340Y-138168907D01*
X57178343Y-138168917D01*
X57234914Y-138305492D01*
X57267812Y-138354727D01*
X57267813Y-138354730D01*
X57317046Y-138428414D01*
X57317052Y-138428421D01*
X59119791Y-140231158D01*
X59707048Y-140818415D01*
X59707049Y-140818416D01*
X59798023Y-140909390D01*
X59811585Y-140922952D01*
X59934498Y-141005080D01*
X59934511Y-141005087D01*
X60068291Y-141060500D01*
X60071087Y-141061658D01*
X60071091Y-141061658D01*
X60071092Y-141061659D01*
X60216079Y-141090500D01*
X60216082Y-141090500D01*
X90035396Y-141090500D01*
X90082844Y-141099937D01*
X90106503Y-141109737D01*
X90106508Y-141109738D01*
X90106511Y-141109739D01*
X90261153Y-141140499D01*
X90261156Y-141140500D01*
X90261158Y-141140500D01*
X90418844Y-141140500D01*
X90418845Y-141140499D01*
X90573497Y-141109737D01*
X90597150Y-141099938D01*
X90644606Y-141090499D01*
X124366553Y-141090499D01*
X124414001Y-141099936D01*
X124437660Y-141109736D01*
X124437665Y-141109737D01*
X124437668Y-141109738D01*
X124592310Y-141140498D01*
X124592313Y-141140499D01*
X124592315Y-141140499D01*
X124750001Y-141140499D01*
X124750002Y-141140498D01*
X124904654Y-141109736D01*
X125000734Y-141069938D01*
X125048185Y-141060500D01*
X149605396Y-141060500D01*
X149652844Y-141069937D01*
X149676503Y-141079737D01*
X149676508Y-141079738D01*
X149676511Y-141079739D01*
X149831153Y-141110499D01*
X149831156Y-141110500D01*
X149831158Y-141110500D01*
X149988844Y-141110500D01*
X149988845Y-141110499D01*
X150143497Y-141079737D01*
X150289179Y-141019394D01*
X150420289Y-140931789D01*
X150531789Y-140820289D01*
X150619394Y-140689179D01*
X150679737Y-140543497D01*
X150710500Y-140388842D01*
X150710500Y-140264500D01*
X150730185Y-140197461D01*
X150782989Y-140151706D01*
X150834500Y-140140500D01*
X152915396Y-140140500D01*
X152962844Y-140149937D01*
X152986503Y-140159737D01*
X152986508Y-140159738D01*
X152986511Y-140159739D01*
X153141153Y-140190499D01*
X153141156Y-140190500D01*
X153141158Y-140190500D01*
X153298844Y-140190500D01*
X153298845Y-140190499D01*
X153453497Y-140159737D01*
X153566166Y-140113067D01*
X153599172Y-140099397D01*
X153599172Y-140099396D01*
X153599179Y-140099394D01*
X153730289Y-140011789D01*
X153841789Y-139900289D01*
X153929394Y-139769179D01*
X153989737Y-139623497D01*
X154020500Y-139468842D01*
X154020500Y-139384500D01*
X154040185Y-139317461D01*
X154092989Y-139271706D01*
X154144500Y-139260500D01*
X155673920Y-139260500D01*
X155771462Y-139241096D01*
X155818913Y-139231658D01*
X155955495Y-139175084D01*
X156004729Y-139142186D01*
X156078416Y-139092952D01*
X156650140Y-138521228D01*
X157137819Y-138033549D01*
X157199142Y-138000064D01*
X157268834Y-138005048D01*
X157324767Y-138046920D01*
X157349184Y-138112384D01*
X157349500Y-138121230D01*
X157349500Y-139333330D01*
X157349499Y-139333348D01*
X157349499Y-139499054D01*
X157349498Y-139499054D01*
X157390423Y-139651787D01*
X157390424Y-139651788D01*
X157412198Y-139689501D01*
X157469475Y-139788709D01*
X157469481Y-139788717D01*
X157588349Y-139907585D01*
X157588355Y-139907590D01*
X157895425Y-140214660D01*
X157928910Y-140275983D01*
X157929361Y-140278149D01*
X157960261Y-140433491D01*
X157960264Y-140433501D01*
X158020602Y-140579172D01*
X158020609Y-140579185D01*
X158108210Y-140710288D01*
X158108213Y-140710292D01*
X158219707Y-140821786D01*
X158219711Y-140821789D01*
X158350814Y-140909390D01*
X158350827Y-140909397D01*
X158496498Y-140969735D01*
X158496503Y-140969737D01*
X158651153Y-141000499D01*
X158651156Y-141000500D01*
X158651158Y-141000500D01*
X158808844Y-141000500D01*
X158808845Y-141000499D01*
X158963497Y-140969737D01*
X159109179Y-140909394D01*
X159240289Y-140821789D01*
X159351789Y-140710289D01*
X159439394Y-140579179D01*
X159499737Y-140433497D01*
X159530500Y-140278842D01*
X159530500Y-140121158D01*
X159530500Y-140121155D01*
X159530499Y-140121153D01*
X159518805Y-140062365D01*
X159499737Y-139966503D01*
X159472312Y-139900292D01*
X159439397Y-139820827D01*
X159439390Y-139820814D01*
X159351789Y-139689711D01*
X159351786Y-139689707D01*
X159240292Y-139578213D01*
X159240288Y-139578210D01*
X159109185Y-139490609D01*
X159109172Y-139490602D01*
X158963501Y-139430264D01*
X158963491Y-139430261D01*
X158808151Y-139399362D01*
X158791394Y-139390596D01*
X158772916Y-139386577D01*
X158747877Y-139367832D01*
X158746241Y-139366977D01*
X158744662Y-139365426D01*
X158586819Y-139207583D01*
X158553334Y-139146260D01*
X158550500Y-139119902D01*
X158550500Y-137918759D01*
X158570185Y-137851720D01*
X158622989Y-137805965D01*
X158692147Y-137796021D01*
X158712805Y-137800824D01*
X158878757Y-137854746D01*
X159088713Y-137888000D01*
X159088714Y-137888000D01*
X159301286Y-137888000D01*
X159301287Y-137888000D01*
X159511243Y-137854746D01*
X159713412Y-137789057D01*
X159902816Y-137692551D01*
X159924789Y-137676586D01*
X160074786Y-137567609D01*
X160074788Y-137567606D01*
X160074792Y-137567604D01*
X160187819Y-137454577D01*
X160249142Y-137421092D01*
X160318834Y-137426076D01*
X160374767Y-137467948D01*
X160399184Y-137533412D01*
X160399500Y-137542258D01*
X160399500Y-141163330D01*
X160399499Y-141163348D01*
X160399499Y-141329054D01*
X160399498Y-141329054D01*
X160399499Y-141329057D01*
X160440423Y-141481785D01*
X160466081Y-141526226D01*
X160519477Y-141618712D01*
X160519481Y-141618717D01*
X160638349Y-141737585D01*
X160638355Y-141737590D01*
X161223181Y-142322416D01*
X161237884Y-142349343D01*
X161254477Y-142375162D01*
X161255368Y-142381362D01*
X161256666Y-142383739D01*
X161259500Y-142410097D01*
X161259500Y-142514281D01*
X161239815Y-142581320D01*
X161191795Y-142624765D01*
X161152185Y-142644947D01*
X161152184Y-142644948D01*
X160980213Y-142769890D01*
X160829890Y-142920213D01*
X160704949Y-143092182D01*
X160700484Y-143100946D01*
X160652509Y-143151742D01*
X160584688Y-143168536D01*
X160518553Y-143145998D01*
X160479516Y-143100946D01*
X160475050Y-143092182D01*
X160350109Y-142920213D01*
X160199786Y-142769890D01*
X160027820Y-142644951D01*
X159838414Y-142548444D01*
X159838413Y-142548443D01*
X159838412Y-142548443D01*
X159636243Y-142482754D01*
X159636241Y-142482753D01*
X159636240Y-142482753D01*
X159474957Y-142457208D01*
X159426287Y-142449500D01*
X159213713Y-142449500D01*
X159165042Y-142457208D01*
X159003760Y-142482753D01*
X158801585Y-142548444D01*
X158612179Y-142644951D01*
X158440213Y-142769890D01*
X158289890Y-142920213D01*
X158164949Y-143092182D01*
X158160484Y-143100946D01*
X158112509Y-143151742D01*
X158044688Y-143168536D01*
X157978553Y-143145998D01*
X157939516Y-143100946D01*
X157935050Y-143092182D01*
X157810109Y-142920213D01*
X157659786Y-142769890D01*
X157487820Y-142644951D01*
X157298414Y-142548444D01*
X157298413Y-142548443D01*
X157298412Y-142548443D01*
X157096243Y-142482754D01*
X157096241Y-142482753D01*
X157096240Y-142482753D01*
X156934957Y-142457208D01*
X156886287Y-142449500D01*
X156673713Y-142449500D01*
X156625042Y-142457208D01*
X156463760Y-142482753D01*
X156261585Y-142548444D01*
X156072179Y-142644951D01*
X155900213Y-142769890D01*
X155749890Y-142920213D01*
X155624949Y-143092182D01*
X155620484Y-143100946D01*
X155572509Y-143151742D01*
X155504688Y-143168536D01*
X155438553Y-143145998D01*
X155399516Y-143100946D01*
X155395050Y-143092182D01*
X155270109Y-142920213D01*
X155119786Y-142769890D01*
X154947820Y-142644951D01*
X154758414Y-142548444D01*
X154758413Y-142548443D01*
X154758412Y-142548443D01*
X154556243Y-142482754D01*
X154556241Y-142482753D01*
X154556240Y-142482753D01*
X154394957Y-142457208D01*
X154346287Y-142449500D01*
X154133713Y-142449500D01*
X154085042Y-142457208D01*
X153923760Y-142482753D01*
X153721585Y-142548444D01*
X153532179Y-142644951D01*
X153360213Y-142769890D01*
X153209890Y-142920213D01*
X153084951Y-143092179D01*
X152988444Y-143281585D01*
X152922753Y-143483760D01*
X152889500Y-143693713D01*
X152889500Y-143906286D01*
X152921781Y-144110104D01*
X152922754Y-144116243D01*
X152978414Y-144287547D01*
X152988444Y-144318414D01*
X153084951Y-144507820D01*
X153209890Y-144679786D01*
X153360213Y-144830109D01*
X153532179Y-144955048D01*
X153532181Y-144955049D01*
X153532184Y-144955051D01*
X153721588Y-145051557D01*
X153923757Y-145117246D01*
X154133713Y-145150500D01*
X154133714Y-145150500D01*
X154346286Y-145150500D01*
X154346287Y-145150500D01*
X154556243Y-145117246D01*
X154758412Y-145051557D01*
X154947816Y-144955051D01*
X154969789Y-144939086D01*
X155119786Y-144830109D01*
X155119788Y-144830106D01*
X155119792Y-144830104D01*
X155270104Y-144679792D01*
X155270106Y-144679788D01*
X155270109Y-144679786D01*
X155395048Y-144507820D01*
X155395047Y-144507820D01*
X155395051Y-144507816D01*
X155399514Y-144499054D01*
X155447488Y-144448259D01*
X155515308Y-144431463D01*
X155581444Y-144453999D01*
X155620486Y-144499056D01*
X155624951Y-144507820D01*
X155749890Y-144679786D01*
X155900213Y-144830109D01*
X156072179Y-144955048D01*
X156072181Y-144955049D01*
X156072184Y-144955051D01*
X156144275Y-144991783D01*
X156261583Y-145051555D01*
X156261585Y-145051555D01*
X156261588Y-145051557D01*
X156349206Y-145080026D01*
X156463750Y-145117244D01*
X156463751Y-145117244D01*
X156463757Y-145117246D01*
X156547839Y-145130562D01*
X156610970Y-145160490D01*
X156616119Y-145165354D01*
X157615139Y-146164374D01*
X157615149Y-146164385D01*
X157619479Y-146168715D01*
X157619480Y-146168716D01*
X157731284Y-146280520D01*
X157818095Y-146330639D01*
X157868215Y-146359577D01*
X158008164Y-146397076D01*
X158013075Y-146398847D01*
X158037226Y-146416513D01*
X158062781Y-146432090D01*
X158065129Y-146436924D01*
X158069468Y-146440098D01*
X158080235Y-146468022D01*
X158093310Y-146494937D01*
X158092671Y-146500273D01*
X158094606Y-146505289D01*
X158088567Y-146534604D01*
X158085015Y-146564313D01*
X158081593Y-146568456D01*
X158080509Y-146573722D01*
X158059583Y-146595114D01*
X158040530Y-146618191D01*
X158035409Y-146619827D01*
X158031652Y-146623669D01*
X158002489Y-146630351D01*
X157973978Y-146639465D01*
X157971027Y-146639500D01*
X46573388Y-146639500D01*
X46506349Y-146619815D01*
X46460594Y-146567011D01*
X46450650Y-146497853D01*
X46479675Y-146434297D01*
X46496075Y-146418553D01*
X46570028Y-146359577D01*
X46715578Y-146243505D01*
X46930053Y-146029030D01*
X47119166Y-145791890D01*
X47280539Y-145535067D01*
X47412142Y-145261791D01*
X47512320Y-144975498D01*
X47579814Y-144679789D01*
X47590417Y-144585689D01*
X47599190Y-144507820D01*
X47613774Y-144378383D01*
X47613774Y-144075069D01*
X47579814Y-143773663D01*
X47512320Y-143477954D01*
X47412142Y-143191661D01*
X47280539Y-142918385D01*
X47119166Y-142661562D01*
X46930053Y-142424422D01*
X46715578Y-142209947D01*
X46699236Y-142196915D01*
X46680702Y-142182135D01*
X135159500Y-142182135D01*
X135159500Y-143977870D01*
X135159501Y-143977876D01*
X135165908Y-144037483D01*
X135216202Y-144172328D01*
X135216206Y-144172335D01*
X135302452Y-144287544D01*
X135302455Y-144287547D01*
X135417664Y-144373793D01*
X135417671Y-144373797D01*
X135552517Y-144424091D01*
X135552516Y-144424091D01*
X135559444Y-144424835D01*
X135612127Y-144430500D01*
X137407872Y-144430499D01*
X137467483Y-144424091D01*
X137602331Y-144373796D01*
X137717546Y-144287546D01*
X137803796Y-144172331D01*
X137852810Y-144040916D01*
X137894681Y-143984984D01*
X137960145Y-143960566D01*
X138028418Y-143975417D01*
X138056673Y-143996569D01*
X138170213Y-144110109D01*
X138342179Y-144235048D01*
X138342181Y-144235049D01*
X138342184Y-144235051D01*
X138531588Y-144331557D01*
X138733757Y-144397246D01*
X138943713Y-144430500D01*
X138943714Y-144430500D01*
X139156286Y-144430500D01*
X139156287Y-144430500D01*
X139366243Y-144397246D01*
X139568412Y-144331557D01*
X139757816Y-144235051D01*
X139844138Y-144172335D01*
X139929786Y-144110109D01*
X139929788Y-144110106D01*
X139929792Y-144110104D01*
X140080104Y-143959792D01*
X140080106Y-143959788D01*
X140080109Y-143959786D01*
X140205048Y-143787820D01*
X140205047Y-143787820D01*
X140205051Y-143787816D01*
X140209514Y-143779054D01*
X140257488Y-143728259D01*
X140325308Y-143711463D01*
X140391444Y-143733999D01*
X140430486Y-143779056D01*
X140434951Y-143787820D01*
X140559890Y-143959786D01*
X140710213Y-144110109D01*
X140882179Y-144235048D01*
X140882181Y-144235049D01*
X140882184Y-144235051D01*
X141071588Y-144331557D01*
X141273757Y-144397246D01*
X141483713Y-144430500D01*
X141483714Y-144430500D01*
X141696286Y-144430500D01*
X141696287Y-144430500D01*
X141906243Y-144397246D01*
X142108412Y-144331557D01*
X142297816Y-144235051D01*
X142384138Y-144172335D01*
X142469786Y-144110109D01*
X142469788Y-144110106D01*
X142469792Y-144110104D01*
X142620104Y-143959792D01*
X142620106Y-143959788D01*
X142620109Y-143959786D01*
X142745048Y-143787820D01*
X142745047Y-143787820D01*
X142745051Y-143787816D01*
X142749514Y-143779054D01*
X142797488Y-143728259D01*
X142865308Y-143711463D01*
X142931444Y-143733999D01*
X142970486Y-143779056D01*
X142974951Y-143787820D01*
X143099890Y-143959786D01*
X143250213Y-144110109D01*
X143422179Y-144235048D01*
X143422181Y-144235049D01*
X143422184Y-144235051D01*
X143611588Y-144331557D01*
X143813757Y-144397246D01*
X144023713Y-144430500D01*
X144023714Y-144430500D01*
X144236286Y-144430500D01*
X144236287Y-144430500D01*
X144446243Y-144397246D01*
X144648412Y-144331557D01*
X144837816Y-144235051D01*
X144924138Y-144172335D01*
X145009786Y-144110109D01*
X145009788Y-144110106D01*
X145009792Y-144110104D01*
X145160104Y-143959792D01*
X145160106Y-143959788D01*
X145160109Y-143959786D01*
X145285048Y-143787820D01*
X145285047Y-143787820D01*
X145285051Y-143787816D01*
X145381557Y-143598412D01*
X145447246Y-143396243D01*
X145480500Y-143186287D01*
X145480500Y-142973713D01*
X145447246Y-142763757D01*
X145381557Y-142561588D01*
X145285051Y-142372184D01*
X145285049Y-142372181D01*
X145285048Y-142372179D01*
X145160109Y-142200213D01*
X145009786Y-142049890D01*
X144837820Y-141924951D01*
X144648414Y-141828444D01*
X144648413Y-141828443D01*
X144648412Y-141828443D01*
X144446243Y-141762754D01*
X144446241Y-141762753D01*
X144446240Y-141762753D01*
X144284957Y-141737208D01*
X144236287Y-141729500D01*
X144023713Y-141729500D01*
X143975042Y-141737208D01*
X143813760Y-141762753D01*
X143611585Y-141828444D01*
X143422179Y-141924951D01*
X143250213Y-142049890D01*
X143099890Y-142200213D01*
X142974949Y-142372182D01*
X142970484Y-142380946D01*
X142922509Y-142431742D01*
X142854688Y-142448536D01*
X142788553Y-142425998D01*
X142749516Y-142380946D01*
X142745050Y-142372182D01*
X142620109Y-142200213D01*
X142469786Y-142049890D01*
X142297820Y-141924951D01*
X142108414Y-141828444D01*
X142108413Y-141828443D01*
X142108412Y-141828443D01*
X141906243Y-141762754D01*
X141906241Y-141762753D01*
X141906240Y-141762753D01*
X141744957Y-141737208D01*
X141696287Y-141729500D01*
X141483713Y-141729500D01*
X141435042Y-141737208D01*
X141273760Y-141762753D01*
X141071585Y-141828444D01*
X140882179Y-141924951D01*
X140710213Y-142049890D01*
X140559890Y-142200213D01*
X140434949Y-142372182D01*
X140430484Y-142380946D01*
X140382509Y-142431742D01*
X140314688Y-142448536D01*
X140248553Y-142425998D01*
X140209516Y-142380946D01*
X140205050Y-142372182D01*
X140080109Y-142200213D01*
X139929786Y-142049890D01*
X139757820Y-141924951D01*
X139568414Y-141828444D01*
X139568413Y-141828443D01*
X139568412Y-141828443D01*
X139366243Y-141762754D01*
X139366241Y-141762753D01*
X139366240Y-141762753D01*
X139204957Y-141737208D01*
X139156287Y-141729500D01*
X138943713Y-141729500D01*
X138895042Y-141737208D01*
X138733760Y-141762753D01*
X138531585Y-141828444D01*
X138342179Y-141924951D01*
X138170215Y-142049889D01*
X138056673Y-142163431D01*
X137995350Y-142196915D01*
X137925658Y-142191931D01*
X137869725Y-142150059D01*
X137852810Y-142119082D01*
X137803797Y-141987671D01*
X137803793Y-141987664D01*
X137717547Y-141872455D01*
X137717544Y-141872452D01*
X137602335Y-141786206D01*
X137602328Y-141786202D01*
X137467482Y-141735908D01*
X137467483Y-141735908D01*
X137407883Y-141729501D01*
X137407881Y-141729500D01*
X137407873Y-141729500D01*
X137407864Y-141729500D01*
X135612129Y-141729500D01*
X135612123Y-141729501D01*
X135552516Y-141735908D01*
X135417671Y-141786202D01*
X135417664Y-141786206D01*
X135302455Y-141872452D01*
X135302452Y-141872455D01*
X135216206Y-141987664D01*
X135216202Y-141987671D01*
X135165908Y-142122517D01*
X135159501Y-142182116D01*
X135159500Y-142182135D01*
X46680702Y-142182135D01*
X46520162Y-142054108D01*
X46478438Y-142020834D01*
X46242290Y-141872452D01*
X46221612Y-141859459D01*
X45948342Y-141727859D01*
X45662057Y-141627683D01*
X45662045Y-141627679D01*
X45433830Y-141575590D01*
X45366337Y-141560186D01*
X45366334Y-141560185D01*
X45366322Y-141560183D01*
X45064937Y-141526226D01*
X45064931Y-141526226D01*
X44761617Y-141526226D01*
X44761610Y-141526226D01*
X44460225Y-141560183D01*
X44460211Y-141560186D01*
X44164502Y-141627679D01*
X44164490Y-141627683D01*
X43878205Y-141727859D01*
X43604935Y-141859459D01*
X43348111Y-142020833D01*
X43110970Y-142209946D01*
X42896494Y-142424422D01*
X42821447Y-142518529D01*
X42764259Y-142558669D01*
X42694447Y-142561519D01*
X42634177Y-142526174D01*
X42602584Y-142463855D01*
X42600500Y-142441216D01*
X42600500Y-126597648D01*
X85799500Y-126597648D01*
X85799500Y-126802351D01*
X85831522Y-127004534D01*
X85894781Y-127199223D01*
X85936971Y-127282024D01*
X85986206Y-127378653D01*
X85987715Y-127381613D01*
X86108028Y-127547213D01*
X86252786Y-127691971D01*
X86384415Y-127787603D01*
X86418390Y-127812287D01*
X86525415Y-127866819D01*
X86600776Y-127905218D01*
X86600778Y-127905218D01*
X86600781Y-127905220D01*
X86693478Y-127935339D01*
X86795465Y-127968477D01*
X86893612Y-127984022D01*
X86997648Y-128000500D01*
X86997649Y-128000500D01*
X87202351Y-128000500D01*
X87202352Y-128000500D01*
X87404534Y-127968477D01*
X87599219Y-127905220D01*
X87781610Y-127812287D01*
X87910222Y-127718846D01*
X87947213Y-127691971D01*
X87947215Y-127691968D01*
X87947219Y-127691966D01*
X88091966Y-127547219D01*
X88091968Y-127547215D01*
X88091971Y-127547213D01*
X88170077Y-127439707D01*
X88212287Y-127381610D01*
X88305220Y-127199219D01*
X88368477Y-127004534D01*
X88400500Y-126802352D01*
X88400500Y-126597648D01*
X88392282Y-126545760D01*
X88368477Y-126395465D01*
X88326273Y-126265575D01*
X88305220Y-126200781D01*
X88305218Y-126200778D01*
X88305218Y-126200776D01*
X88233181Y-126059397D01*
X88212287Y-126018390D01*
X88178430Y-125971789D01*
X88091971Y-125852786D01*
X87947213Y-125708028D01*
X87781613Y-125587715D01*
X87781612Y-125587714D01*
X87781610Y-125587713D01*
X87724653Y-125558691D01*
X87599223Y-125494781D01*
X87404534Y-125431522D01*
X87229995Y-125403878D01*
X87202352Y-125399500D01*
X86997648Y-125399500D01*
X86973329Y-125403351D01*
X86795465Y-125431522D01*
X86600776Y-125494781D01*
X86418386Y-125587715D01*
X86252786Y-125708028D01*
X86108028Y-125852786D01*
X85987715Y-126018386D01*
X85894781Y-126200776D01*
X85831522Y-126395465D01*
X85799500Y-126597648D01*
X42600500Y-126597648D01*
X42600500Y-113225148D01*
X67289500Y-113225148D01*
X67289500Y-113429851D01*
X67321522Y-113632034D01*
X67384781Y-113826723D01*
X67477715Y-114009113D01*
X67598028Y-114174713D01*
X67742786Y-114319471D01*
X67862070Y-114406134D01*
X67908390Y-114439787D01*
X68024607Y-114499003D01*
X68090776Y-114532718D01*
X68090778Y-114532718D01*
X68090781Y-114532720D01*
X68163310Y-114556286D01*
X68285465Y-114595977D01*
X68386557Y-114611988D01*
X68487648Y-114628000D01*
X68487649Y-114628000D01*
X68692351Y-114628000D01*
X68692352Y-114628000D01*
X68894534Y-114595977D01*
X69089219Y-114532720D01*
X69271610Y-114439787D01*
X69379942Y-114361080D01*
X69437213Y-114319471D01*
X69437215Y-114319468D01*
X69437219Y-114319466D01*
X69581966Y-114174719D01*
X69581968Y-114174715D01*
X69581971Y-114174713D01*
X69650301Y-114080663D01*
X69702287Y-114009110D01*
X69795220Y-113826719D01*
X69858477Y-113632034D01*
X69890500Y-113429852D01*
X69890500Y-113225148D01*
X69877093Y-113140500D01*
X69858477Y-113022965D01*
X69795218Y-112828276D01*
X69761017Y-112761153D01*
X69702287Y-112645890D01*
X69682885Y-112619185D01*
X69581971Y-112480286D01*
X69437213Y-112335528D01*
X69271613Y-112215215D01*
X69271612Y-112215214D01*
X69271610Y-112215213D01*
X69203331Y-112180423D01*
X69089223Y-112122281D01*
X68894534Y-112059022D01*
X68719995Y-112031378D01*
X68692352Y-112027000D01*
X68487648Y-112027000D01*
X68463329Y-112030851D01*
X68285465Y-112059022D01*
X68090776Y-112122281D01*
X67908386Y-112215215D01*
X67742786Y-112335528D01*
X67598028Y-112480286D01*
X67477715Y-112645886D01*
X67384781Y-112828276D01*
X67321522Y-113022965D01*
X67289500Y-113225148D01*
X42600500Y-113225148D01*
X42600500Y-106802135D01*
X55439500Y-106802135D01*
X55439500Y-111497870D01*
X55439501Y-111497876D01*
X55445908Y-111557483D01*
X55496202Y-111692328D01*
X55496206Y-111692335D01*
X55582452Y-111807544D01*
X55582455Y-111807547D01*
X55697664Y-111893793D01*
X55697671Y-111893797D01*
X55832517Y-111944091D01*
X55832516Y-111944091D01*
X55839444Y-111944835D01*
X55892127Y-111950500D01*
X57987872Y-111950499D01*
X58047483Y-111944091D01*
X58182331Y-111893796D01*
X58297546Y-111807546D01*
X58383796Y-111692331D01*
X58434091Y-111557483D01*
X58440500Y-111497873D01*
X58440499Y-106802128D01*
X58434091Y-106742517D01*
X58418663Y-106701153D01*
X58383797Y-106607671D01*
X58383793Y-106607664D01*
X58297547Y-106492455D01*
X58297544Y-106492452D01*
X58182335Y-106406206D01*
X58182328Y-106406202D01*
X58047482Y-106355908D01*
X58047483Y-106355908D01*
X57987883Y-106349501D01*
X57987881Y-106349500D01*
X57987873Y-106349500D01*
X57987864Y-106349500D01*
X55892129Y-106349500D01*
X55892123Y-106349501D01*
X55832516Y-106355908D01*
X55697671Y-106406202D01*
X55697664Y-106406206D01*
X55582455Y-106492452D01*
X55582452Y-106492455D01*
X55496206Y-106607664D01*
X55496202Y-106607671D01*
X55445908Y-106742517D01*
X55442003Y-106778842D01*
X55439501Y-106802123D01*
X55439500Y-106802135D01*
X42600500Y-106802135D01*
X42600500Y-96756758D01*
X42620185Y-96689719D01*
X42672989Y-96643964D01*
X42742147Y-96634020D01*
X42805703Y-96663045D01*
X42821442Y-96679440D01*
X42983221Y-96882304D01*
X43197696Y-97096779D01*
X43434836Y-97285892D01*
X43691659Y-97447265D01*
X43964935Y-97578868D01*
X44137703Y-97639322D01*
X44251216Y-97679042D01*
X44251228Y-97679046D01*
X44546937Y-97746540D01*
X44546946Y-97746541D01*
X44546951Y-97746542D01*
X44739265Y-97768210D01*
X44848337Y-97780499D01*
X44848340Y-97780500D01*
X44848343Y-97780500D01*
X45151660Y-97780500D01*
X45151661Y-97780499D01*
X45305694Y-97763144D01*
X45453048Y-97746542D01*
X45453051Y-97746541D01*
X45453063Y-97746540D01*
X45748772Y-97679046D01*
X46035065Y-97578868D01*
X46308341Y-97447265D01*
X46565164Y-97285892D01*
X46802304Y-97096779D01*
X47016779Y-96882304D01*
X47205892Y-96645164D01*
X47367265Y-96388341D01*
X47498868Y-96115065D01*
X47599046Y-95828772D01*
X47666540Y-95533063D01*
X47667585Y-95523793D01*
X47690283Y-95322335D01*
X47700500Y-95231657D01*
X47700500Y-94928343D01*
X47680227Y-94748412D01*
X47666542Y-94626951D01*
X47666541Y-94626946D01*
X47666540Y-94626937D01*
X47599046Y-94331228D01*
X47585049Y-94291228D01*
X47528624Y-94129974D01*
X47498868Y-94044935D01*
X47367265Y-93771659D01*
X47205892Y-93514836D01*
X47060193Y-93332135D01*
X131319500Y-93332135D01*
X131319500Y-95127870D01*
X131319501Y-95127876D01*
X131325908Y-95187483D01*
X131376202Y-95322328D01*
X131376206Y-95322335D01*
X131462452Y-95437544D01*
X131462455Y-95437547D01*
X131577664Y-95523793D01*
X131577671Y-95523797D01*
X131712517Y-95574091D01*
X131712516Y-95574091D01*
X131719444Y-95574835D01*
X131772127Y-95580500D01*
X133567872Y-95580499D01*
X133627483Y-95574091D01*
X133762331Y-95523796D01*
X133877546Y-95437546D01*
X133963796Y-95322331D01*
X134012810Y-95190916D01*
X134054681Y-95134984D01*
X134120145Y-95110566D01*
X134188418Y-95125417D01*
X134216673Y-95146569D01*
X134330213Y-95260109D01*
X134502179Y-95385048D01*
X134502181Y-95385049D01*
X134502184Y-95385051D01*
X134691588Y-95481557D01*
X134893757Y-95547246D01*
X135103713Y-95580500D01*
X135103714Y-95580500D01*
X135316286Y-95580500D01*
X135316287Y-95580500D01*
X135526243Y-95547246D01*
X135728412Y-95481557D01*
X135917816Y-95385051D01*
X136004138Y-95322335D01*
X136089786Y-95260109D01*
X136089788Y-95260106D01*
X136089792Y-95260104D01*
X136240104Y-95109792D01*
X136240106Y-95109788D01*
X136240109Y-95109786D01*
X136365048Y-94937820D01*
X136365047Y-94937820D01*
X136365051Y-94937816D01*
X136369514Y-94929054D01*
X136417488Y-94878259D01*
X136485308Y-94861463D01*
X136551444Y-94883999D01*
X136590486Y-94929056D01*
X136594951Y-94937820D01*
X136719890Y-95109786D01*
X136870213Y-95260109D01*
X137042179Y-95385048D01*
X137042181Y-95385049D01*
X137042184Y-95385051D01*
X137231588Y-95481557D01*
X137433757Y-95547246D01*
X137643713Y-95580500D01*
X137643714Y-95580500D01*
X137856286Y-95580500D01*
X137856287Y-95580500D01*
X138066243Y-95547246D01*
X138268412Y-95481557D01*
X138457816Y-95385051D01*
X138544138Y-95322335D01*
X138629786Y-95260109D01*
X138629788Y-95260106D01*
X138629792Y-95260104D01*
X138780104Y-95109792D01*
X138780106Y-95109788D01*
X138780109Y-95109786D01*
X138905048Y-94937820D01*
X138905047Y-94937820D01*
X138905051Y-94937816D01*
X138909514Y-94929054D01*
X138957488Y-94878259D01*
X139025308Y-94861463D01*
X139091444Y-94883999D01*
X139130486Y-94929056D01*
X139134951Y-94937820D01*
X139259890Y-95109786D01*
X139410213Y-95260109D01*
X139582179Y-95385048D01*
X139582181Y-95385049D01*
X139582184Y-95385051D01*
X139771588Y-95481557D01*
X139973757Y-95547246D01*
X140183713Y-95580500D01*
X140183714Y-95580500D01*
X140396286Y-95580500D01*
X140396287Y-95580500D01*
X140606243Y-95547246D01*
X140808412Y-95481557D01*
X140997816Y-95385051D01*
X141084138Y-95322335D01*
X141169786Y-95260109D01*
X141169788Y-95260106D01*
X141169792Y-95260104D01*
X141320104Y-95109792D01*
X141320106Y-95109788D01*
X141320109Y-95109786D01*
X141445048Y-94937820D01*
X141445047Y-94937820D01*
X141445051Y-94937816D01*
X141449514Y-94929054D01*
X141497488Y-94878259D01*
X141565308Y-94861463D01*
X141631444Y-94883999D01*
X141670486Y-94929056D01*
X141674951Y-94937820D01*
X141799890Y-95109786D01*
X141950213Y-95260109D01*
X142122179Y-95385048D01*
X142122181Y-95385049D01*
X142122184Y-95385051D01*
X142311588Y-95481557D01*
X142513757Y-95547246D01*
X142723713Y-95580500D01*
X142723714Y-95580500D01*
X142936286Y-95580500D01*
X142936287Y-95580500D01*
X143146243Y-95547246D01*
X143348412Y-95481557D01*
X143537816Y-95385051D01*
X143624138Y-95322335D01*
X143709786Y-95260109D01*
X143709788Y-95260106D01*
X143709792Y-95260104D01*
X143860104Y-95109792D01*
X143860106Y-95109788D01*
X143860109Y-95109786D01*
X143985048Y-94937820D01*
X143985047Y-94937820D01*
X143985051Y-94937816D01*
X144081557Y-94748412D01*
X144147246Y-94546243D01*
X144180500Y-94336287D01*
X144180500Y-94123713D01*
X144147246Y-93913757D01*
X144081557Y-93711588D01*
X143985051Y-93522184D01*
X143985049Y-93522181D01*
X143985048Y-93522179D01*
X143860109Y-93350213D01*
X143709786Y-93199890D01*
X143537820Y-93074951D01*
X143348414Y-92978444D01*
X143348413Y-92978443D01*
X143348412Y-92978443D01*
X143146243Y-92912754D01*
X143146241Y-92912753D01*
X143146240Y-92912753D01*
X142984957Y-92887208D01*
X142936287Y-92879500D01*
X142723713Y-92879500D01*
X142675042Y-92887208D01*
X142513760Y-92912753D01*
X142311585Y-92978444D01*
X142122179Y-93074951D01*
X141950213Y-93199890D01*
X141799890Y-93350213D01*
X141674949Y-93522182D01*
X141670484Y-93530946D01*
X141622509Y-93581742D01*
X141554688Y-93598536D01*
X141488553Y-93575998D01*
X141449516Y-93530946D01*
X141445050Y-93522182D01*
X141320109Y-93350213D01*
X141169786Y-93199890D01*
X140997820Y-93074951D01*
X140808414Y-92978444D01*
X140808413Y-92978443D01*
X140808412Y-92978443D01*
X140606243Y-92912754D01*
X140606241Y-92912753D01*
X140606240Y-92912753D01*
X140444957Y-92887208D01*
X140396287Y-92879500D01*
X140183713Y-92879500D01*
X140135042Y-92887208D01*
X139973760Y-92912753D01*
X139771585Y-92978444D01*
X139582179Y-93074951D01*
X139410213Y-93199890D01*
X139259890Y-93350213D01*
X139134949Y-93522182D01*
X139130484Y-93530946D01*
X139082509Y-93581742D01*
X139014688Y-93598536D01*
X138948553Y-93575998D01*
X138909516Y-93530946D01*
X138905050Y-93522182D01*
X138780109Y-93350213D01*
X138629786Y-93199890D01*
X138457820Y-93074951D01*
X138268414Y-92978444D01*
X138268413Y-92978443D01*
X138268412Y-92978443D01*
X138066243Y-92912754D01*
X138066241Y-92912753D01*
X138066240Y-92912753D01*
X137904957Y-92887208D01*
X137856287Y-92879500D01*
X137643713Y-92879500D01*
X137595042Y-92887208D01*
X137433760Y-92912753D01*
X137231585Y-92978444D01*
X137042179Y-93074951D01*
X136870213Y-93199890D01*
X136719890Y-93350213D01*
X136594949Y-93522182D01*
X136590484Y-93530946D01*
X136542509Y-93581742D01*
X136474688Y-93598536D01*
X136408553Y-93575998D01*
X136369516Y-93530946D01*
X136365050Y-93522182D01*
X136240109Y-93350213D01*
X136089786Y-93199890D01*
X135917820Y-93074951D01*
X135728414Y-92978444D01*
X135728413Y-92978443D01*
X135728412Y-92978443D01*
X135526243Y-92912754D01*
X135526241Y-92912753D01*
X135526240Y-92912753D01*
X135364957Y-92887208D01*
X135316287Y-92879500D01*
X135103713Y-92879500D01*
X135055042Y-92887208D01*
X134893760Y-92912753D01*
X134691585Y-92978444D01*
X134502179Y-93074951D01*
X134330215Y-93199889D01*
X134216673Y-93313431D01*
X134155350Y-93346915D01*
X134085658Y-93341931D01*
X134029725Y-93300059D01*
X134012810Y-93269082D01*
X133963797Y-93137671D01*
X133963793Y-93137664D01*
X133877547Y-93022455D01*
X133877544Y-93022452D01*
X133762335Y-92936206D01*
X133762328Y-92936202D01*
X133627482Y-92885908D01*
X133627483Y-92885908D01*
X133567883Y-92879501D01*
X133567881Y-92879500D01*
X133567873Y-92879500D01*
X133567864Y-92879500D01*
X131772129Y-92879500D01*
X131772123Y-92879501D01*
X131712516Y-92885908D01*
X131577671Y-92936202D01*
X131577664Y-92936206D01*
X131462455Y-93022452D01*
X131462452Y-93022455D01*
X131376206Y-93137664D01*
X131376202Y-93137671D01*
X131325908Y-93272517D01*
X131319501Y-93332116D01*
X131319500Y-93332135D01*
X47060193Y-93332135D01*
X47016779Y-93277696D01*
X46802304Y-93063221D01*
X46565164Y-92874108D01*
X46494160Y-92829493D01*
X46447870Y-92777160D01*
X46437221Y-92708106D01*
X46465596Y-92644258D01*
X46523986Y-92605885D01*
X46560133Y-92600500D01*
X169806207Y-92600500D01*
X169873246Y-92620185D01*
G37*
%TD.AperFunction*%
%TA.AperFunction,Conductor*%
G36*
X120066942Y-120220185D02*
G01*
X120087584Y-120236819D01*
X120733181Y-120882416D01*
X120766666Y-120943739D01*
X120769500Y-120970097D01*
X120769500Y-121340397D01*
X120749815Y-121407436D01*
X120701800Y-121450879D01*
X120688389Y-121457712D01*
X120522786Y-121578028D01*
X120378028Y-121722786D01*
X120257715Y-121888386D01*
X120210485Y-121981080D01*
X120162510Y-122031876D01*
X120094689Y-122048671D01*
X120028554Y-122026134D01*
X119989515Y-121981080D01*
X119974524Y-121951659D01*
X119942287Y-121888390D01*
X119923249Y-121862186D01*
X119821971Y-121722786D01*
X119677213Y-121578028D01*
X119511613Y-121457715D01*
X119511612Y-121457714D01*
X119511610Y-121457713D01*
X119435041Y-121418699D01*
X119329223Y-121364781D01*
X119134534Y-121301522D01*
X118959995Y-121273878D01*
X118932352Y-121269500D01*
X118727648Y-121269500D01*
X118703329Y-121273351D01*
X118525465Y-121301522D01*
X118330776Y-121364781D01*
X118148386Y-121457715D01*
X117982786Y-121578028D01*
X117838028Y-121722786D01*
X117717715Y-121888386D01*
X117670485Y-121981080D01*
X117622510Y-122031876D01*
X117554689Y-122048671D01*
X117488554Y-122026134D01*
X117449515Y-121981080D01*
X117434524Y-121951659D01*
X117402287Y-121888390D01*
X117383249Y-121862186D01*
X117281971Y-121722786D01*
X117137213Y-121578028D01*
X116971613Y-121457715D01*
X116971612Y-121457714D01*
X116971610Y-121457713D01*
X116895041Y-121418699D01*
X116789223Y-121364781D01*
X116594534Y-121301522D01*
X116419995Y-121273878D01*
X116392352Y-121269500D01*
X116187648Y-121269500D01*
X116163329Y-121273351D01*
X115985465Y-121301522D01*
X115790776Y-121364781D01*
X115608386Y-121457715D01*
X115442786Y-121578028D01*
X115298028Y-121722786D01*
X115177715Y-121888386D01*
X115130485Y-121981080D01*
X115082510Y-122031876D01*
X115014689Y-122048671D01*
X114948554Y-122026134D01*
X114909515Y-121981080D01*
X114894524Y-121951659D01*
X114862287Y-121888390D01*
X114843249Y-121862186D01*
X114741971Y-121722786D01*
X114597213Y-121578028D01*
X114431613Y-121457715D01*
X114431612Y-121457714D01*
X114431610Y-121457713D01*
X114355041Y-121418699D01*
X114249223Y-121364781D01*
X114054534Y-121301522D01*
X113879995Y-121273878D01*
X113852352Y-121269500D01*
X113647648Y-121269500D01*
X113623329Y-121273351D01*
X113445465Y-121301522D01*
X113250776Y-121364781D01*
X113068386Y-121457715D01*
X112902786Y-121578028D01*
X112758028Y-121722786D01*
X112637715Y-121888386D01*
X112544781Y-122070776D01*
X112481522Y-122265465D01*
X112449500Y-122467648D01*
X112449500Y-122672351D01*
X112481522Y-122874534D01*
X112544781Y-123069223D01*
X112592813Y-123163489D01*
X112636701Y-123249624D01*
X112637715Y-123251613D01*
X112758028Y-123417213D01*
X112902786Y-123561971D01*
X113057749Y-123674556D01*
X113068390Y-123682287D01*
X113167060Y-123732562D01*
X113250776Y-123775218D01*
X113250778Y-123775218D01*
X113250781Y-123775220D01*
X113299101Y-123790920D01*
X113445465Y-123838477D01*
X113546557Y-123854488D01*
X113647648Y-123870500D01*
X113647649Y-123870500D01*
X113852351Y-123870500D01*
X113852352Y-123870500D01*
X114054534Y-123838477D01*
X114249219Y-123775220D01*
X114431610Y-123682287D01*
X114544506Y-123600264D01*
X114597213Y-123561971D01*
X114597215Y-123561968D01*
X114597219Y-123561966D01*
X114741966Y-123417219D01*
X114741968Y-123417215D01*
X114741971Y-123417213D01*
X114862284Y-123251614D01*
X114862285Y-123251613D01*
X114862287Y-123251610D01*
X114909516Y-123158917D01*
X114957489Y-123108123D01*
X115025310Y-123091328D01*
X115091445Y-123113865D01*
X115130483Y-123158917D01*
X115146272Y-123189903D01*
X115177715Y-123251614D01*
X115298028Y-123417213D01*
X115298034Y-123417219D01*
X115442781Y-123561966D01*
X115608390Y-123682287D01*
X115621793Y-123689116D01*
X115672589Y-123737088D01*
X115689500Y-123799601D01*
X115689500Y-124213330D01*
X115689499Y-124213348D01*
X115689499Y-124379054D01*
X115689498Y-124379054D01*
X115730424Y-124531789D01*
X115730425Y-124531790D01*
X115751455Y-124568214D01*
X115751456Y-124568216D01*
X115809475Y-124668709D01*
X115809481Y-124668717D01*
X115928349Y-124787585D01*
X115928355Y-124787590D01*
X123958181Y-132817416D01*
X123991666Y-132878739D01*
X123994500Y-132905097D01*
X123994500Y-135299281D01*
X123974815Y-135366320D01*
X123926795Y-135409765D01*
X123887185Y-135429947D01*
X123887184Y-135429948D01*
X123715213Y-135554890D01*
X123564890Y-135705213D01*
X123439949Y-135877182D01*
X123435484Y-135885946D01*
X123387509Y-135936742D01*
X123319688Y-135953536D01*
X123253553Y-135930998D01*
X123214516Y-135885946D01*
X123210050Y-135877182D01*
X123085109Y-135705213D01*
X122934786Y-135554890D01*
X122762820Y-135429951D01*
X122573414Y-135333444D01*
X122573413Y-135333443D01*
X122573412Y-135333443D01*
X122371243Y-135267754D01*
X122371241Y-135267753D01*
X122371240Y-135267753D01*
X122209957Y-135242208D01*
X122161287Y-135234500D01*
X121948713Y-135234500D01*
X121900042Y-135242208D01*
X121738760Y-135267753D01*
X121536585Y-135333444D01*
X121347179Y-135429951D01*
X121175215Y-135554889D01*
X121061673Y-135668431D01*
X121000350Y-135701915D01*
X120930658Y-135696931D01*
X120874725Y-135655059D01*
X120857810Y-135624082D01*
X120808797Y-135492671D01*
X120808793Y-135492664D01*
X120722547Y-135377455D01*
X120722544Y-135377452D01*
X120607335Y-135291206D01*
X120607328Y-135291202D01*
X120472482Y-135240908D01*
X120472483Y-135240908D01*
X120412883Y-135234501D01*
X120412881Y-135234500D01*
X120412873Y-135234500D01*
X120412864Y-135234500D01*
X118617129Y-135234500D01*
X118617123Y-135234501D01*
X118557516Y-135240908D01*
X118422671Y-135291202D01*
X118422664Y-135291206D01*
X118307455Y-135377452D01*
X118307452Y-135377455D01*
X118221206Y-135492664D01*
X118221202Y-135492671D01*
X118170908Y-135627517D01*
X118164501Y-135687116D01*
X118164500Y-135687135D01*
X118164500Y-137482870D01*
X118164501Y-137482876D01*
X118170908Y-137542481D01*
X118170909Y-137542483D01*
X118188625Y-137589983D01*
X118189440Y-137592166D01*
X118194424Y-137661858D01*
X118160939Y-137723181D01*
X118099616Y-137756666D01*
X118073258Y-137759500D01*
X95989758Y-137759500D01*
X95922719Y-137739815D01*
X95876964Y-137687011D01*
X95867020Y-137617853D01*
X95896045Y-137554297D01*
X95902077Y-137547819D01*
X95912412Y-137537484D01*
X95930104Y-137519792D01*
X95930106Y-137519788D01*
X95930109Y-137519786D01*
X96055048Y-137347820D01*
X96055047Y-137347820D01*
X96055051Y-137347816D01*
X96151557Y-137158412D01*
X96217246Y-136956243D01*
X96250500Y-136746287D01*
X96250500Y-136533713D01*
X96217246Y-136323757D01*
X96151557Y-136121588D01*
X96055051Y-135932184D01*
X96055049Y-135932181D01*
X96055048Y-135932179D01*
X95930109Y-135760213D01*
X95779786Y-135609890D01*
X95607820Y-135484951D01*
X95418414Y-135388444D01*
X95418413Y-135388443D01*
X95418412Y-135388443D01*
X95216243Y-135322754D01*
X95216241Y-135322753D01*
X95216240Y-135322753D01*
X95054957Y-135297208D01*
X95006287Y-135289500D01*
X94793713Y-135289500D01*
X94745042Y-135297208D01*
X94583760Y-135322753D01*
X94381585Y-135388444D01*
X94192179Y-135484951D01*
X94020213Y-135609890D01*
X93869890Y-135760213D01*
X93744949Y-135932182D01*
X93740484Y-135940946D01*
X93692509Y-135991742D01*
X93624688Y-136008536D01*
X93558553Y-135985998D01*
X93519516Y-135940946D01*
X93515050Y-135932182D01*
X93390109Y-135760213D01*
X93239786Y-135609890D01*
X93067820Y-135484951D01*
X92878414Y-135388444D01*
X92878413Y-135388443D01*
X92878412Y-135388443D01*
X92676243Y-135322754D01*
X92676241Y-135322753D01*
X92676240Y-135322753D01*
X92514957Y-135297208D01*
X92466287Y-135289500D01*
X92253713Y-135289500D01*
X92205042Y-135297208D01*
X92043760Y-135322753D01*
X91841585Y-135388444D01*
X91652179Y-135484951D01*
X91480213Y-135609890D01*
X91329890Y-135760213D01*
X91204949Y-135932182D01*
X91200484Y-135940946D01*
X91152509Y-135991742D01*
X91084688Y-136008536D01*
X91018553Y-135985998D01*
X90979516Y-135940946D01*
X90975050Y-135932182D01*
X90850109Y-135760213D01*
X90699786Y-135609890D01*
X90527820Y-135484951D01*
X90338414Y-135388444D01*
X90338413Y-135388443D01*
X90338412Y-135388443D01*
X90136243Y-135322754D01*
X90136241Y-135322753D01*
X90136240Y-135322753D01*
X89974957Y-135297208D01*
X89926287Y-135289500D01*
X89713713Y-135289500D01*
X89665042Y-135297208D01*
X89503760Y-135322753D01*
X89301585Y-135388444D01*
X89112179Y-135484951D01*
X88940213Y-135609890D01*
X88789890Y-135760213D01*
X88664949Y-135932182D01*
X88660484Y-135940946D01*
X88612509Y-135991742D01*
X88544688Y-136008536D01*
X88478553Y-135985998D01*
X88439516Y-135940946D01*
X88435050Y-135932182D01*
X88310109Y-135760213D01*
X88159786Y-135609890D01*
X87987815Y-135484948D01*
X87987814Y-135484947D01*
X87948205Y-135464765D01*
X87897409Y-135416791D01*
X87880500Y-135354281D01*
X87880500Y-134630097D01*
X87900185Y-134563058D01*
X87916819Y-134542416D01*
X95319458Y-127139778D01*
X107199500Y-127139778D01*
X107199500Y-127360222D01*
X107207848Y-127412926D01*
X107233985Y-127577952D01*
X107302103Y-127787603D01*
X107302104Y-127787606D01*
X107360018Y-127901265D01*
X107394264Y-127968477D01*
X107402187Y-127984025D01*
X107531752Y-128162358D01*
X107531756Y-128162363D01*
X107687636Y-128318243D01*
X107687641Y-128318247D01*
X107810194Y-128407286D01*
X107865978Y-128447815D01*
X107945269Y-128488216D01*
X108062393Y-128547895D01*
X108062396Y-128547896D01*
X108135924Y-128571786D01*
X108272049Y-128616015D01*
X108489778Y-128650500D01*
X108489779Y-128650500D01*
X108710221Y-128650500D01*
X108710222Y-128650500D01*
X108927951Y-128616015D01*
X109137606Y-128547895D01*
X109334022Y-128447815D01*
X109512365Y-128318242D01*
X109668242Y-128162365D01*
X109797815Y-127984022D01*
X109897895Y-127787606D01*
X109966015Y-127577951D01*
X110000500Y-127360222D01*
X110000500Y-127139778D01*
X109966015Y-126922049D01*
X109927123Y-126802351D01*
X109897896Y-126712396D01*
X109897895Y-126712393D01*
X109832218Y-126583497D01*
X109797815Y-126515978D01*
X109754973Y-126457011D01*
X109668247Y-126337641D01*
X109668243Y-126337636D01*
X109512363Y-126181756D01*
X109512358Y-126181752D01*
X109334025Y-126052187D01*
X109334024Y-126052186D01*
X109334022Y-126052185D01*
X109260405Y-126014675D01*
X109137606Y-125952104D01*
X109137603Y-125952103D01*
X108927952Y-125883985D01*
X108819086Y-125866742D01*
X108710222Y-125849500D01*
X108489778Y-125849500D01*
X108421659Y-125860289D01*
X108272047Y-125883985D01*
X108062396Y-125952103D01*
X108062393Y-125952104D01*
X107865974Y-126052187D01*
X107687641Y-126181752D01*
X107687636Y-126181756D01*
X107531756Y-126337636D01*
X107531752Y-126337641D01*
X107402187Y-126515974D01*
X107302104Y-126712393D01*
X107302103Y-126712396D01*
X107233985Y-126922047D01*
X107202674Y-127119736D01*
X107199500Y-127139778D01*
X95319458Y-127139778D01*
X95412011Y-127047225D01*
X102222417Y-120236819D01*
X102283740Y-120203334D01*
X102310098Y-120200500D01*
X119999903Y-120200500D01*
X120066942Y-120220185D01*
G37*
%TD.AperFunction*%
%TA.AperFunction,Conductor*%
G36*
X125792226Y-101870524D02*
G01*
X125804810Y-101869985D01*
X125824674Y-101881581D01*
X125846444Y-101888999D01*
X125855719Y-101899703D01*
X125865151Y-101905209D01*
X125885484Y-101934053D01*
X125887627Y-101938259D01*
X125889951Y-101942820D01*
X126014890Y-102114786D01*
X126165213Y-102265109D01*
X126337184Y-102390051D01*
X126337184Y-102390052D01*
X126376793Y-102410233D01*
X126427590Y-102458206D01*
X126444500Y-102520718D01*
X126444500Y-105068330D01*
X126444499Y-105068348D01*
X126444499Y-105234054D01*
X126444498Y-105234054D01*
X126485423Y-105386785D01*
X126514358Y-105436900D01*
X126514359Y-105436904D01*
X126514360Y-105436904D01*
X126539785Y-105480943D01*
X126564479Y-105523714D01*
X126564481Y-105523717D01*
X126683349Y-105642585D01*
X126683355Y-105642590D01*
X134673181Y-113632416D01*
X134706666Y-113693739D01*
X134709500Y-113720097D01*
X134709500Y-117203330D01*
X134709499Y-117203348D01*
X134709499Y-117369054D01*
X134709498Y-117369054D01*
X134750423Y-117521785D01*
X134779358Y-117571900D01*
X134779359Y-117571904D01*
X134779360Y-117571904D01*
X134829479Y-117658714D01*
X134829481Y-117658717D01*
X134948349Y-117777585D01*
X134948355Y-117777590D01*
X138458449Y-121287684D01*
X138491934Y-121349007D01*
X138486950Y-121418699D01*
X138445078Y-121474632D01*
X138443654Y-121475683D01*
X138302782Y-121578032D01*
X138158028Y-121722786D01*
X138037715Y-121888386D01*
X137990485Y-121981080D01*
X137942510Y-122031876D01*
X137874689Y-122048671D01*
X137808554Y-122026134D01*
X137769515Y-121981080D01*
X137754524Y-121951659D01*
X137722287Y-121888390D01*
X137703249Y-121862186D01*
X137601971Y-121722786D01*
X137457213Y-121578028D01*
X137291610Y-121457712D01*
X137278200Y-121450879D01*
X137227406Y-121402903D01*
X137210500Y-121340397D01*
X137210500Y-120759060D01*
X137210501Y-120759047D01*
X137210501Y-120590944D01*
X137210501Y-120590943D01*
X137169577Y-120438216D01*
X137137988Y-120383501D01*
X137090524Y-120301290D01*
X137090518Y-120301282D01*
X133446819Y-116657583D01*
X133413334Y-116596260D01*
X133410500Y-116569902D01*
X133410500Y-113720941D01*
X133410499Y-113720940D01*
X133408956Y-113715179D01*
X133408955Y-113715178D01*
X133397194Y-113671285D01*
X133369577Y-113568215D01*
X133323389Y-113488216D01*
X133323388Y-113488214D01*
X133290521Y-113431286D01*
X133290520Y-113431284D01*
X133178716Y-113319480D01*
X133178715Y-113319479D01*
X133174385Y-113315149D01*
X133174374Y-113315139D01*
X122601819Y-102742584D01*
X122587115Y-102715656D01*
X122570523Y-102689838D01*
X122569631Y-102683637D01*
X122568334Y-102681261D01*
X122565500Y-102654903D01*
X122565500Y-102520718D01*
X122585185Y-102453679D01*
X122633207Y-102410233D01*
X122672815Y-102390052D01*
X122672815Y-102390051D01*
X122672816Y-102390051D01*
X122769084Y-102320109D01*
X122844786Y-102265109D01*
X122844788Y-102265106D01*
X122844792Y-102265104D01*
X122995104Y-102114792D01*
X122995106Y-102114788D01*
X122995109Y-102114786D01*
X123107929Y-101959500D01*
X123120051Y-101942816D01*
X123124514Y-101934054D01*
X123172488Y-101883259D01*
X123240308Y-101866463D01*
X123306444Y-101888999D01*
X123345484Y-101934054D01*
X123347627Y-101938259D01*
X123349951Y-101942820D01*
X123474890Y-102114786D01*
X123625213Y-102265109D01*
X123797179Y-102390048D01*
X123797181Y-102390049D01*
X123797184Y-102390051D01*
X123986588Y-102486557D01*
X124188757Y-102552246D01*
X124398713Y-102585500D01*
X124398714Y-102585500D01*
X124611286Y-102585500D01*
X124611287Y-102585500D01*
X124821243Y-102552246D01*
X125023412Y-102486557D01*
X125212816Y-102390051D01*
X125261463Y-102354707D01*
X125384786Y-102265109D01*
X125384788Y-102265106D01*
X125384792Y-102265104D01*
X125535104Y-102114792D01*
X125535106Y-102114788D01*
X125535109Y-102114786D01*
X125647929Y-101959500D01*
X125660051Y-101942816D01*
X125664514Y-101934054D01*
X125673160Y-101924900D01*
X125677897Y-101913232D01*
X125696696Y-101899979D01*
X125712488Y-101883259D01*
X125724710Y-101880231D01*
X125735004Y-101872976D01*
X125757985Y-101871991D01*
X125780308Y-101866463D01*
X125792226Y-101870524D01*
G37*
%TD.AperFunction*%
%TD*%
M02*
