%TF.GenerationSoftware,KiCad,Pcbnew,9.0.2*%
%TF.CreationDate,2025-06-20T14:11:32+05:30*%
%TF.ProjectId,clock,636c6f63-6b2e-46b6-9963-61645f706362,rev?*%
%TF.SameCoordinates,Original*%
%TF.FileFunction,Copper,L2,Bot*%
%TF.FilePolarity,Positive*%
%FSLAX46Y46*%
G04 Gerber Fmt 4.6, Leading zero omitted, Abs format (unit mm)*
G04 Created by KiCad (PCBNEW 9.0.2) date 2025-06-20 14:11:32*
%MOMM*%
%LPD*%
G01*
G04 APERTURE LIST*
G04 Aperture macros list*
%AMRoundRect*
0 Rectangle with rounded corners*
0 $1 Rounding radius*
0 $2 $3 $4 $5 $6 $7 $8 $9 X,Y pos of 4 corners*
0 Add a 4 corners polygon primitive as box body*
4,1,4,$2,$3,$4,$5,$6,$7,$8,$9,$2,$3,0*
0 Add four circle primitives for the rounded corners*
1,1,$1+$1,$2,$3*
1,1,$1+$1,$4,$5*
1,1,$1+$1,$6,$7*
1,1,$1+$1,$8,$9*
0 Add four rect primitives between the rounded corners*
20,1,$1+$1,$2,$3,$4,$5,0*
20,1,$1+$1,$4,$5,$6,$7,0*
20,1,$1+$1,$6,$7,$8,$9,0*
20,1,$1+$1,$8,$9,$2,$3,0*%
G04 Aperture macros list end*
%TA.AperFunction,Conductor*%
%ADD10C,0.200000*%
%TD*%
%TA.AperFunction,ComponentPad*%
%ADD11C,1.700000*%
%TD*%
%TA.AperFunction,ComponentPad*%
%ADD12R,1.700000X1.700000*%
%TD*%
%TA.AperFunction,SMDPad,CuDef*%
%ADD13R,5.400000X2.900000*%
%TD*%
%TA.AperFunction,ComponentPad*%
%ADD14R,1.350000X1.350000*%
%TD*%
%TA.AperFunction,ComponentPad*%
%ADD15C,1.350000*%
%TD*%
%TA.AperFunction,ComponentPad*%
%ADD16C,0.700000*%
%TD*%
%TA.AperFunction,ComponentPad*%
%ADD17C,4.400000*%
%TD*%
%TA.AperFunction,ComponentPad*%
%ADD18R,1.800000X1.800000*%
%TD*%
%TA.AperFunction,ComponentPad*%
%ADD19C,1.800000*%
%TD*%
%TA.AperFunction,SMDPad,CuDef*%
%ADD20RoundRect,0.250000X1.050000X0.550000X-1.050000X0.550000X-1.050000X-0.550000X1.050000X-0.550000X0*%
%TD*%
%TA.AperFunction,SMDPad,CuDef*%
%ADD21RoundRect,0.200000X-0.275000X0.200000X-0.275000X-0.200000X0.275000X-0.200000X0.275000X0.200000X0*%
%TD*%
%TA.AperFunction,SMDPad,CuDef*%
%ADD22RoundRect,0.250000X0.250000X0.475000X-0.250000X0.475000X-0.250000X-0.475000X0.250000X-0.475000X0*%
%TD*%
%TA.AperFunction,SMDPad,CuDef*%
%ADD23R,1.800000X1.600000*%
%TD*%
%TA.AperFunction,SMDPad,CuDef*%
%ADD24R,0.900000X1.500000*%
%TD*%
%TA.AperFunction,SMDPad,CuDef*%
%ADD25R,1.500000X0.900000*%
%TD*%
%TA.AperFunction,SMDPad,CuDef*%
%ADD26R,1.050000X1.050000*%
%TD*%
%TA.AperFunction,HeatsinkPad*%
%ADD27C,0.600000*%
%TD*%
%TA.AperFunction,HeatsinkPad*%
%ADD28R,4.200000X4.200000*%
%TD*%
%TA.AperFunction,ComponentPad*%
%ADD29C,2.000000*%
%TD*%
%TA.AperFunction,SMDPad,CuDef*%
%ADD30RoundRect,0.375000X0.625000X0.375000X-0.625000X0.375000X-0.625000X-0.375000X0.625000X-0.375000X0*%
%TD*%
%TA.AperFunction,SMDPad,CuDef*%
%ADD31RoundRect,0.500000X0.500000X1.400000X-0.500000X1.400000X-0.500000X-1.400000X0.500000X-1.400000X0*%
%TD*%
%TA.AperFunction,SMDPad,CuDef*%
%ADD32RoundRect,0.250000X-0.250000X-0.475000X0.250000X-0.475000X0.250000X0.475000X-0.250000X0.475000X0*%
%TD*%
%TA.AperFunction,SMDPad,CuDef*%
%ADD33RoundRect,0.248780X-0.261220X-0.451220X0.261220X-0.451220X0.261220X0.451220X-0.261220X0.451220X0*%
%TD*%
%TA.AperFunction,SMDPad,CuDef*%
%ADD34RoundRect,0.250000X-0.475000X0.250000X-0.475000X-0.250000X0.475000X-0.250000X0.475000X0.250000X0*%
%TD*%
%TA.AperFunction,ComponentPad*%
%ADD35RoundRect,0.250000X-0.550000X0.550000X-0.550000X-0.550000X0.550000X-0.550000X0.550000X0.550000X0*%
%TD*%
%TA.AperFunction,ComponentPad*%
%ADD36C,1.600000*%
%TD*%
%TA.AperFunction,SMDPad,CuDef*%
%ADD37RoundRect,0.250000X0.475000X-0.250000X0.475000X0.250000X-0.475000X0.250000X-0.475000X-0.250000X0*%
%TD*%
%TA.AperFunction,SMDPad,CuDef*%
%ADD38RoundRect,0.248780X0.261220X0.451220X-0.261220X0.451220X-0.261220X-0.451220X0.261220X-0.451220X0*%
%TD*%
%TA.AperFunction,SMDPad,CuDef*%
%ADD39RoundRect,0.248780X-0.451220X0.261220X-0.451220X-0.261220X0.451220X-0.261220X0.451220X0.261220X0*%
%TD*%
%TA.AperFunction,SMDPad,CuDef*%
%ADD40RoundRect,0.250000X2.050000X0.300000X-2.050000X0.300000X-2.050000X-0.300000X2.050000X-0.300000X0*%
%TD*%
%TA.AperFunction,SMDPad,CuDef*%
%ADD41RoundRect,0.250002X4.449998X5.149998X-4.449998X5.149998X-4.449998X-5.149998X4.449998X-5.149998X0*%
%TD*%
%TA.AperFunction,ComponentPad*%
%ADD42R,2.000000X4.600000*%
%TD*%
%TA.AperFunction,ComponentPad*%
%ADD43O,2.000000X4.200000*%
%TD*%
%TA.AperFunction,ComponentPad*%
%ADD44O,4.200000X2.000000*%
%TD*%
%TA.AperFunction,SMDPad,CuDef*%
%ADD45RoundRect,0.250000X-0.337500X-0.475000X0.337500X-0.475000X0.337500X0.475000X-0.337500X0.475000X0*%
%TD*%
%TA.AperFunction,SMDPad,CuDef*%
%ADD46RoundRect,0.218750X-0.256250X0.218750X-0.256250X-0.218750X0.256250X-0.218750X0.256250X0.218750X0*%
%TD*%
%TA.AperFunction,SMDPad,CuDef*%
%ADD47RoundRect,0.250000X0.650000X-1.000000X0.650000X1.000000X-0.650000X1.000000X-0.650000X-1.000000X0*%
%TD*%
%TA.AperFunction,SMDPad,CuDef*%
%ADD48RoundRect,0.250000X-0.650000X1.000000X-0.650000X-1.000000X0.650000X-1.000000X0.650000X1.000000X0*%
%TD*%
%TA.AperFunction,SMDPad,CuDef*%
%ADD49RoundRect,0.150000X-0.587500X-0.150000X0.587500X-0.150000X0.587500X0.150000X-0.587500X0.150000X0*%
%TD*%
%TA.AperFunction,SMDPad,CuDef*%
%ADD50RoundRect,0.150000X0.587500X0.150000X-0.587500X0.150000X-0.587500X-0.150000X0.587500X-0.150000X0*%
%TD*%
%TA.AperFunction,ViaPad*%
%ADD51C,0.600000*%
%TD*%
%TA.AperFunction,Conductor*%
%ADD52C,0.300000*%
%TD*%
%TA.AperFunction,Conductor*%
%ADD53C,0.500000*%
%TD*%
%TA.AperFunction,Conductor*%
%ADD54C,1.000000*%
%TD*%
%TA.AperFunction,Conductor*%
%ADD55C,1.100000*%
%TD*%
G04 APERTURE END LIST*
D10*
%TO.N,3.3V*%
X87130000Y-107750000D02*
X87130000Y-108290000D01*
X87360000Y-108520000D01*
X93120000Y-108520000D01*
X93430000Y-108830000D01*
X93430000Y-109830000D01*
X93130000Y-110130000D01*
X87430000Y-110130000D01*
X87130000Y-110430000D01*
X87130000Y-110940000D01*
X86650000Y-111420000D01*
X85270000Y-111420000D01*
X84730000Y-110880000D01*
X84760000Y-107790000D01*
X85330000Y-107220000D01*
X86600000Y-107220000D01*
X87130000Y-107750000D01*
%TA.AperFunction,Conductor*%
G36*
X87130000Y-107750000D02*
G01*
X87130000Y-108290000D01*
X87360000Y-108520000D01*
X93120000Y-108520000D01*
X93430000Y-108830000D01*
X93430000Y-109830000D01*
X93130000Y-110130000D01*
X87430000Y-110130000D01*
X87130000Y-110430000D01*
X87130000Y-110940000D01*
X86650000Y-111420000D01*
X85270000Y-111420000D01*
X84730000Y-110880000D01*
X84760000Y-107790000D01*
X85330000Y-107220000D01*
X86600000Y-107220000D01*
X87130000Y-107750000D01*
G37*
%TD.AperFunction*%
%TO.N,/pwr_in*%
X62980000Y-112240000D02*
X62980000Y-112250000D01*
X63100000Y-112750000D01*
X67580000Y-112740000D01*
X67850000Y-112470000D01*
X69010000Y-112470000D01*
X69420000Y-112880000D01*
X69420000Y-116690000D01*
X67030000Y-119080000D01*
X66770000Y-119080000D01*
X58370000Y-119080000D01*
X58120000Y-118830000D01*
X58120000Y-118050000D01*
X58380000Y-117790000D01*
X66670000Y-117790000D01*
X68050000Y-116410000D01*
X68050000Y-114370000D01*
X67530000Y-113850000D01*
X63840000Y-113850000D01*
X63130000Y-113850000D01*
X62990000Y-114360000D01*
X62610000Y-114680000D01*
X60440000Y-114680000D01*
X60170000Y-114330000D01*
X60170000Y-112340000D01*
X60570000Y-111950000D01*
X62610000Y-111940000D01*
X62980000Y-112240000D01*
%TA.AperFunction,Conductor*%
G36*
X62980000Y-112240000D02*
G01*
X62980000Y-112250000D01*
X63100000Y-112750000D01*
X67580000Y-112740000D01*
X67850000Y-112470000D01*
X69010000Y-112470000D01*
X69420000Y-112880000D01*
X69420000Y-116690000D01*
X67030000Y-119080000D01*
X66770000Y-119080000D01*
X58370000Y-119080000D01*
X58120000Y-118830000D01*
X58120000Y-118050000D01*
X58380000Y-117790000D01*
X66670000Y-117790000D01*
X68050000Y-116410000D01*
X68050000Y-114370000D01*
X67530000Y-113850000D01*
X63840000Y-113850000D01*
X63130000Y-113850000D01*
X62990000Y-114360000D01*
X62610000Y-114680000D01*
X60440000Y-114680000D01*
X60170000Y-114330000D01*
X60170000Y-112340000D01*
X60570000Y-111950000D01*
X62610000Y-111940000D01*
X62980000Y-112240000D01*
G37*
%TD.AperFunction*%
%TO.N,Net-(D3-A)*%
X58800000Y-106860000D02*
X58800000Y-108420000D01*
X59090000Y-108710000D01*
X60080000Y-108710000D01*
X60230000Y-108560000D01*
X60230000Y-108060000D01*
X60460000Y-107830000D01*
X61970000Y-107830000D01*
X62350000Y-108210000D01*
X62350000Y-110380000D01*
X62000000Y-110730000D01*
X60490000Y-110730000D01*
X60160000Y-110400000D01*
X60160000Y-109950000D01*
X60010000Y-109800000D01*
X59110000Y-109800000D01*
X58800000Y-110110000D01*
X58800000Y-111440000D01*
X58220000Y-112020000D01*
X56240000Y-112040000D01*
X55820000Y-111620000D01*
X55820000Y-106910000D01*
X56120000Y-106610000D01*
X56130000Y-106610000D01*
X58550000Y-106610000D01*
X58800000Y-106860000D01*
%TA.AperFunction,Conductor*%
G36*
X58800000Y-106860000D02*
G01*
X58800000Y-108420000D01*
X59090000Y-108710000D01*
X60080000Y-108710000D01*
X60230000Y-108560000D01*
X60230000Y-108060000D01*
X60460000Y-107830000D01*
X61970000Y-107830000D01*
X62350000Y-108210000D01*
X62350000Y-110380000D01*
X62000000Y-110730000D01*
X60490000Y-110730000D01*
X60160000Y-110400000D01*
X60160000Y-109950000D01*
X60010000Y-109800000D01*
X59110000Y-109800000D01*
X58800000Y-110110000D01*
X58800000Y-111440000D01*
X58220000Y-112020000D01*
X56240000Y-112040000D01*
X55820000Y-111620000D01*
X55820000Y-106910000D01*
X56120000Y-106610000D01*
X56130000Y-106610000D01*
X58550000Y-106610000D01*
X58800000Y-106860000D01*
G37*
%TD.AperFunction*%
%TD*%
D11*
%TO.P,J5,6,Pin_6*%
%TO.N,GND*%
X145370000Y-94230000D03*
%TO.P,J5,5,Pin_5*%
%TO.N,/16*%
X142830000Y-94230000D03*
%TO.P,J5,4,Pin_4*%
%TO.N,/15*%
X140290000Y-94230000D03*
%TO.P,J5,3,Pin_3*%
%TO.N,/14*%
X137750000Y-94230000D03*
%TO.P,J5,2,Pin_2*%
%TO.N,/13*%
X135210000Y-94230000D03*
D12*
%TO.P,J5,1,Pin_1*%
%TO.N,/12*%
X132670000Y-94230000D03*
%TD*%
D13*
%TO.P,L1,2,2*%
%TO.N,+5V*%
X75360000Y-129137500D03*
%TO.P,L1,1,1*%
%TO.N,Net-(U8-OUT)*%
X75360000Y-119237500D03*
%TD*%
D14*
%TO.P,J4,1,Pin_1*%
%TO.N,/SDA*%
X164850000Y-96800000D03*
D15*
%TO.P,J4,2,Pin_2*%
%TO.N,/SCL*%
X166850000Y-96800000D03*
%TD*%
D12*
%TO.P,J2,1,Pin_1*%
%TO.N,/ADC_1*%
X136510000Y-143080000D03*
D11*
%TO.P,J2,2,Pin_2*%
%TO.N,/ADC_2*%
X139050000Y-143080000D03*
%TO.P,J2,3,Pin_3*%
%TO.N,/ADC_3*%
X141590000Y-143080000D03*
%TO.P,J2,4,Pin_4*%
%TO.N,/ADC_4*%
X144130000Y-143080000D03*
%TO.P,J2,5,Pin_5*%
%TO.N,GND*%
X146670000Y-143080000D03*
%TD*%
D16*
%TO.P,REF\u002A\u002A,1*%
%TO.N,N/C*%
X169820000Y-144260000D03*
X170303274Y-143093274D03*
X170303274Y-145426726D03*
X171470000Y-142610000D03*
D17*
X171470000Y-144260000D03*
D16*
X171470000Y-145910000D03*
X172636726Y-143093274D03*
X172636726Y-145426726D03*
X173120000Y-144260000D03*
%TD*%
D12*
%TO.P,U5,1,CC*%
%TO.N,/DIG_3*%
X149035000Y-136537500D03*
D11*
%TO.P,U5,2,E*%
%TO.N,/E*%
X151575000Y-136537500D03*
%TO.P,U5,3,D*%
%TO.N,/D*%
X154115000Y-136537500D03*
%TO.P,U5,4,C*%
%TO.N,/C*%
X156655000Y-136537500D03*
%TO.P,U5,5,CC*%
%TO.N,unconnected-(U5-CC-Pad5)*%
X159195000Y-136537500D03*
%TO.P,U5,6,B*%
%TO.N,/B*%
X159105000Y-101187500D03*
%TO.P,U5,7,A*%
%TO.N,/A*%
X156565000Y-101187500D03*
%TO.P,U5,8,DP*%
%TO.N,unconnected-(U5-DP-Pad8)*%
X154025000Y-101187500D03*
%TO.P,U5,9,F*%
%TO.N,/F*%
X151485000Y-101187500D03*
%TO.P,U5,10,G*%
%TO.N,/G*%
X148945000Y-101187500D03*
%TD*%
D18*
%TO.P,D2,1,K*%
%TO.N,GND*%
X106060000Y-127250000D03*
D19*
%TO.P,D2,2,A*%
%TO.N,/Sec*%
X108600000Y-127250000D03*
%TD*%
D16*
%TO.P,REF\u002A\u002A,1*%
%TO.N,N/C*%
X43350000Y-95080000D03*
X43833274Y-93913274D03*
X43833274Y-96246726D03*
X45000000Y-93430000D03*
D17*
X45000000Y-95080000D03*
D16*
X45000000Y-96730000D03*
X46166726Y-93913274D03*
X46166726Y-96246726D03*
X46650000Y-95080000D03*
%TD*%
D12*
%TO.P,U1,1,CC*%
%TO.N,/DIG_0*%
X55360000Y-136632500D03*
D11*
%TO.P,U1,2,E*%
%TO.N,/E*%
X57900000Y-136632500D03*
%TO.P,U1,3,D*%
%TO.N,/D*%
X60440000Y-136632500D03*
%TO.P,U1,4,C*%
%TO.N,/C*%
X62980000Y-136632500D03*
%TO.P,U1,5,CC*%
%TO.N,unconnected-(U1-CC-Pad5)*%
X65520000Y-136632500D03*
%TO.P,U1,6,B*%
%TO.N,/B*%
X65430000Y-101282500D03*
%TO.P,U1,7,A*%
%TO.N,/A*%
X62890000Y-101282500D03*
%TO.P,U1,8,DP*%
%TO.N,unconnected-(U1-DP-Pad8)*%
X60350000Y-101282500D03*
%TO.P,U1,9,F*%
%TO.N,/F*%
X57810000Y-101282500D03*
%TO.P,U1,10,G*%
%TO.N,/G*%
X55270000Y-101282500D03*
%TD*%
D12*
%TO.P,U2,1,CC*%
%TO.N,/DIG_1*%
X84740000Y-136640000D03*
D11*
%TO.P,U2,2,E*%
%TO.N,/E*%
X87280000Y-136640000D03*
%TO.P,U2,3,D*%
%TO.N,/D*%
X89820000Y-136640000D03*
%TO.P,U2,4,C*%
%TO.N,/C*%
X92360000Y-136640000D03*
%TO.P,U2,5,CC*%
%TO.N,unconnected-(U2-CC-Pad5)*%
X94900000Y-136640000D03*
%TO.P,U2,6,B*%
%TO.N,/B*%
X94810000Y-101290000D03*
%TO.P,U2,7,A*%
%TO.N,/A*%
X92270000Y-101290000D03*
%TO.P,U2,8,DP*%
%TO.N,unconnected-(U2-DP-Pad8)*%
X89730000Y-101290000D03*
%TO.P,U2,9,F*%
%TO.N,/F*%
X87190000Y-101290000D03*
%TO.P,U2,10,G*%
%TO.N,/G*%
X84650000Y-101290000D03*
%TD*%
D18*
%TO.P,D1,1,K*%
%TO.N,GND*%
X106100000Y-107680000D03*
D19*
%TO.P,D1,2,A*%
%TO.N,/Sec*%
X108640000Y-107680000D03*
%TD*%
D12*
%TO.P,U3,1,CC*%
%TO.N,/DIG_2*%
X119515000Y-136585000D03*
D11*
%TO.P,U3,2,E*%
%TO.N,/E*%
X122055000Y-136585000D03*
%TO.P,U3,3,D*%
%TO.N,/D*%
X124595000Y-136585000D03*
%TO.P,U3,4,C*%
%TO.N,/C*%
X127135000Y-136585000D03*
%TO.P,U3,5,CC*%
%TO.N,unconnected-(U3-CC-Pad5)*%
X129675000Y-136585000D03*
%TO.P,U3,6,B*%
%TO.N,/B*%
X129585000Y-101235000D03*
%TO.P,U3,7,A*%
%TO.N,/A*%
X127045000Y-101235000D03*
%TO.P,U3,8,DP*%
%TO.N,unconnected-(U3-DP-Pad8)*%
X124505000Y-101235000D03*
%TO.P,U3,9,F*%
%TO.N,/F*%
X121965000Y-101235000D03*
%TO.P,U3,10,G*%
%TO.N,/G*%
X119425000Y-101235000D03*
%TD*%
D16*
%TO.P,REF\u002A\u002A,1*%
%TO.N,N/C*%
X169780000Y-95040000D03*
X170263274Y-93873274D03*
X170263274Y-96206726D03*
X171430000Y-93390000D03*
D17*
X171430000Y-95040000D03*
D16*
X171430000Y-96690000D03*
X172596726Y-93873274D03*
X172596726Y-96206726D03*
X173080000Y-95040000D03*
%TD*%
%TO.P,REF\u002A\u002A,1*%
%TO.N,N/C*%
X43263274Y-144226726D03*
X43746548Y-143060000D03*
X43746548Y-145393452D03*
X44913274Y-142576726D03*
D17*
X44913274Y-144226726D03*
D16*
X44913274Y-145876726D03*
X46080000Y-143060000D03*
X46080000Y-145393452D03*
X46563274Y-144226726D03*
%TD*%
D12*
%TO.P,J3,1,Pin_1*%
%TO.N,/DTR*%
X164400000Y-143800000D03*
D11*
%TO.P,J3,2,Pin_2*%
%TO.N,/RTS*%
X161860000Y-143800000D03*
%TO.P,J3,3,Pin_3*%
%TO.N,/RXD0*%
X159320000Y-143800000D03*
%TO.P,J3,4,Pin_4*%
%TO.N,/TXD0*%
X156780000Y-143800000D03*
%TO.P,J3,5,Pin_5*%
%TO.N,+5V*%
X154240000Y-143800000D03*
%TO.P,J3,6,Pin_6*%
%TO.N,GND*%
X151700000Y-143800000D03*
%TD*%
D20*
%TO.P,C1,1*%
%TO.N,+5V*%
X87270000Y-116817500D03*
%TO.P,C1,2*%
%TO.N,GND*%
X83670000Y-116817500D03*
%TD*%
D21*
%TO.P,R7,1*%
%TO.N,/SCL*%
X167040000Y-99405000D03*
%TO.P,R7,2*%
%TO.N,3.3V*%
X167040000Y-101055000D03*
%TD*%
D22*
%TO.P,C12,1*%
%TO.N,+5V*%
X126590000Y-125575000D03*
%TO.P,C12,2*%
%TO.N,GND*%
X124690000Y-125575000D03*
%TD*%
D23*
%TO.P,C5,1*%
%TO.N,3.3V*%
X96260000Y-108787500D03*
%TO.P,C5,2*%
%TO.N,GND*%
X96260000Y-111587500D03*
%TD*%
D24*
%TO.P,U4,1,GND*%
%TO.N,GND*%
X169660000Y-125730000D03*
%TO.P,U4,2,VDD*%
%TO.N,3.3V*%
X168390000Y-125730000D03*
%TO.P,U4,3,EN*%
%TO.N,/EN*%
X167120000Y-125730000D03*
%TO.P,U4,4,SENSOR_VP*%
%TO.N,unconnected-(U4-SENSOR_VP-Pad4)*%
X165850000Y-125730000D03*
%TO.P,U4,5,SENSOR_VN*%
%TO.N,unconnected-(U4-SENSOR_VN-Pad5)*%
X164580000Y-125730000D03*
%TO.P,U4,6,IO34*%
%TO.N,/ADC_3*%
X163310000Y-125730000D03*
%TO.P,U4,7,IO35*%
%TO.N,/ADC_4*%
X162040000Y-125730000D03*
%TO.P,U4,8,IO32*%
%TO.N,/ADC_1*%
X160770000Y-125730000D03*
%TO.P,U4,9,IO33*%
%TO.N,/ADC_2*%
X159500000Y-125730000D03*
%TO.P,U4,10,IO25*%
%TO.N,unconnected-(U4-IO25-Pad10)*%
X158230000Y-125730000D03*
%TO.P,U4,11,IO26*%
%TO.N,unconnected-(U4-IO26-Pad11)*%
X156960000Y-125730000D03*
%TO.P,U4,12,IO27*%
%TO.N,unconnected-(U4-IO27-Pad12)*%
X155690000Y-125730000D03*
%TO.P,U4,13,IO14*%
%TO.N,/14*%
X154420000Y-125730000D03*
%TO.P,U4,14,IO12*%
%TO.N,/12*%
X153150000Y-125730000D03*
D25*
%TO.P,U4,15,GND*%
%TO.N,GND*%
X151900000Y-122690000D03*
%TO.P,U4,16,IO13*%
%TO.N,/13*%
X151900000Y-121420000D03*
%TO.P,U4,17,SHD/SD2*%
%TO.N,unconnected-(U4-SHD{slash}SD2-Pad17)*%
X151900000Y-120150000D03*
%TO.P,U4,18,SWP/SD3*%
%TO.N,unconnected-(U4-SWP{slash}SD3-Pad18)*%
X151900000Y-118880000D03*
%TO.P,U4,19,SCS/CMD*%
%TO.N,unconnected-(U4-SCS{slash}CMD-Pad19)*%
X151900000Y-117610000D03*
%TO.P,U4,20,SCK/CLK*%
%TO.N,unconnected-(U4-SCK{slash}CLK-Pad20)*%
X151900000Y-116340000D03*
%TO.P,U4,21,SDO/SD0*%
%TO.N,unconnected-(U4-SDO{slash}SD0-Pad21)*%
X151900000Y-115070000D03*
%TO.P,U4,22,SDI/SD1*%
%TO.N,unconnected-(U4-SDI{slash}SD1-Pad22)*%
X151900000Y-113800000D03*
%TO.P,U4,23,IO15*%
%TO.N,/15*%
X151900000Y-112530000D03*
%TO.P,U4,24,IO2*%
%TO.N,/2*%
X151900000Y-111260000D03*
D24*
%TO.P,U4,25,IO0*%
%TO.N,/IO0*%
X153150000Y-108230000D03*
%TO.P,U4,26,IO4*%
%TO.N,unconnected-(U4-IO4-Pad26)*%
X154420000Y-108230000D03*
%TO.P,U4,27,IO16*%
%TO.N,/16*%
X155690000Y-108230000D03*
%TO.P,U4,28,IO17*%
%TO.N,unconnected-(U4-IO17-Pad28)*%
X156960000Y-108230000D03*
%TO.P,U4,29,IO5*%
%TO.N,/CS*%
X158230000Y-108230000D03*
%TO.P,U4,30,IO18*%
%TO.N,/CLK*%
X159500000Y-108230000D03*
%TO.P,U4,31,IO19*%
%TO.N,unconnected-(U4-IO19-Pad31)*%
X160770000Y-108230000D03*
%TO.P,U4,32,NC*%
%TO.N,unconnected-(U4-NC-Pad32)*%
X162040000Y-108230000D03*
%TO.P,U4,33,IO21*%
%TO.N,/SDA*%
X163310000Y-108230000D03*
%TO.P,U4,34,RXD0/IO3*%
%TO.N,/RXD0*%
X164580000Y-108230000D03*
%TO.P,U4,35,TXD0/IO1*%
%TO.N,/TXD0*%
X165850000Y-108230000D03*
%TO.P,U4,36,IO22*%
%TO.N,/SCL*%
X167120000Y-108230000D03*
%TO.P,U4,37,IO23*%
%TO.N,/MOSI*%
X168390000Y-108230000D03*
%TO.P,U4,38,GND*%
%TO.N,GND*%
X169660000Y-108230000D03*
D26*
%TO.P,U4,39,GND*%
X160795000Y-119185000D03*
D27*
X161557500Y-119185000D03*
D26*
X162320000Y-119185000D03*
D27*
X163082500Y-119185000D03*
D26*
X163845000Y-119185000D03*
D27*
X160795000Y-118422500D03*
X162320000Y-118422500D03*
X163845000Y-118422500D03*
D26*
X160795000Y-117660000D03*
D27*
X161557500Y-117660000D03*
D26*
X162320000Y-117660000D03*
D28*
X162320000Y-117660000D03*
D27*
X163082500Y-117660000D03*
D26*
X163845000Y-117660000D03*
D27*
X160795000Y-116897500D03*
X162320000Y-116897500D03*
X163845000Y-116897500D03*
D26*
X160795000Y-116135000D03*
D27*
X161557500Y-116135000D03*
D26*
X162320000Y-116135000D03*
D27*
X163082500Y-116135000D03*
D26*
X163845000Y-116135000D03*
%TD*%
D19*
%TO.P,SW1,1,1*%
%TO.N,GND*%
X171450000Y-134650000D03*
%TO.P,SW1,2,2*%
%TO.N,/EN*%
X171450000Y-139150000D03*
D29*
%TO.P,SW1,M1,M1*%
%TO.N,unconnected-(SW1-PadM1)*%
X168950000Y-133400000D03*
%TO.P,SW1,M2,M2*%
%TO.N,unconnected-(SW1-PadM2)*%
X168950000Y-140400000D03*
%TD*%
D30*
%TO.P,U7,1,GND*%
%TO.N,GND*%
X92230000Y-107017500D03*
%TO.P,U7,2,VO*%
%TO.N,3.3V*%
X92230000Y-109317500D03*
D31*
X85930000Y-109317500D03*
D30*
%TO.P,U7,3,VI*%
%TO.N,+5V*%
X92230000Y-111617500D03*
%TD*%
D32*
%TO.P,C8,1*%
%TO.N,3.3V*%
X168075000Y-128195000D03*
%TO.P,C8,2*%
%TO.N,GND*%
X169975000Y-128195000D03*
%TD*%
D33*
%TO.P,R3,1*%
%TO.N,/DTR*%
X157980000Y-131800000D03*
%TO.P,R3,2*%
%TO.N,Net-(Q1-B)*%
X159800000Y-131800000D03*
%TD*%
D34*
%TO.P,C2,1*%
%TO.N,+5V*%
X91390000Y-114547500D03*
%TO.P,C2,2*%
%TO.N,GND*%
X91390000Y-116447500D03*
%TD*%
D35*
%TO.P,U6,1,DIN*%
%TO.N,/MOSI*%
X113750000Y-114950000D03*
D36*
%TO.P,U6,2,DIG_0*%
%TO.N,/DIG_0*%
X116290000Y-114950000D03*
%TO.P,U6,3,DIG_4*%
%TO.N,unconnected-(U6-DIG_4-Pad3)*%
X118830000Y-114950000D03*
%TO.P,U6,4,GND*%
%TO.N,GND*%
X121370000Y-114950000D03*
%TO.P,U6,5,DIG_6*%
%TO.N,unconnected-(U6-DIG_6-Pad5)*%
X123910000Y-114950000D03*
%TO.P,U6,6,DIG_2*%
%TO.N,/DIG_2*%
X126450000Y-114950000D03*
%TO.P,U6,7,DIG_3*%
%TO.N,/DIG_3*%
X128990000Y-114950000D03*
%TO.P,U6,8,DIG_7*%
%TO.N,unconnected-(U6-DIG_7-Pad8)*%
X131530000Y-114950000D03*
%TO.P,U6,9,GND*%
%TO.N,GND*%
X134070000Y-114950000D03*
%TO.P,U6,10,DIG_5*%
%TO.N,unconnected-(U6-DIG_5-Pad10)*%
X136610000Y-114950000D03*
%TO.P,U6,11,DIG_1*%
%TO.N,/DIG_1*%
X139150000Y-114950000D03*
%TO.P,U6,12,~{CS}*%
%TO.N,/CS*%
X141690000Y-114950000D03*
%TO.P,U6,13,CLK*%
%TO.N,/CLK*%
X141690000Y-122570000D03*
%TO.P,U6,14,SEG_A*%
%TO.N,/A*%
X139150000Y-122570000D03*
%TO.P,U6,15,SEG_F*%
%TO.N,/F*%
X136610000Y-122570000D03*
%TO.P,U6,16,SEG_B*%
%TO.N,/B*%
X134070000Y-122570000D03*
%TO.P,U6,17,SEG_G*%
%TO.N,/G*%
X131530000Y-122570000D03*
%TO.P,U6,18,ISET*%
%TO.N,Net-(U6-ISET)*%
X128990000Y-122570000D03*
%TO.P,U6,19,V+*%
%TO.N,+5V*%
X126450000Y-122570000D03*
%TO.P,U6,20,SEG_C*%
%TO.N,/C*%
X123910000Y-122570000D03*
%TO.P,U6,21,SEG_E*%
%TO.N,/E*%
X121370000Y-122570000D03*
%TO.P,U6,22,SEG_DP*%
%TO.N,unconnected-(U6-SEG_DP-Pad22)*%
X118830000Y-122570000D03*
%TO.P,U6,23,SEG_D*%
%TO.N,/D*%
X116290000Y-122570000D03*
%TO.P,U6,24,DOUT*%
%TO.N,unconnected-(U6-DOUT-Pad24)*%
X113750000Y-122570000D03*
%TD*%
%TO.P,C3,1*%
%TO.N,/pwr_in*%
X68590000Y-113327500D03*
%TO.P,C3,2*%
%TO.N,GND*%
X68590000Y-110827500D03*
%TD*%
D22*
%TO.P,C11,1*%
%TO.N,/EN*%
X165330000Y-138170000D03*
%TO.P,C11,2*%
%TO.N,GND*%
X163430000Y-138170000D03*
%TD*%
D37*
%TO.P,C4,1*%
%TO.N,/pwr_in*%
X65380000Y-118397500D03*
%TO.P,C4,2*%
%TO.N,GND*%
X65380000Y-116497500D03*
%TD*%
D38*
%TO.P,R2,1*%
%TO.N,/RTS*%
X159750000Y-129370000D03*
%TO.P,R2,2*%
%TO.N,Net-(Q2-B)*%
X157930000Y-129370000D03*
%TD*%
D39*
%TO.P,R1,1*%
%TO.N,Net-(U6-ISET)*%
X129030000Y-125065000D03*
%TO.P,R1,2*%
%TO.N,+5V*%
X129030000Y-126885000D03*
%TD*%
D40*
%TO.P,U8,1,VIN*%
%TO.N,/pwr_in*%
X60470000Y-118447500D03*
%TO.P,U8,2,OUT*%
%TO.N,Net-(U8-OUT)*%
X60470000Y-120147500D03*
%TO.P,U8,3,GND*%
%TO.N,GND*%
X60470000Y-121847500D03*
D41*
X51320000Y-121847500D03*
D40*
%TO.P,U8,4,FB*%
%TO.N,+5V*%
X60470000Y-123547500D03*
%TO.P,U8,5,~{ON}/OFF*%
%TO.N,GND*%
X60470000Y-125247500D03*
%TD*%
D33*
%TO.P,R4,1*%
%TO.N,/EN*%
X163430000Y-135450000D03*
%TO.P,R4,2*%
%TO.N,3.3V*%
X165250000Y-135450000D03*
%TD*%
D22*
%TO.P,C10,1*%
%TO.N,+5V*%
X86750000Y-122100000D03*
%TO.P,C10,2*%
%TO.N,GND*%
X84850000Y-122100000D03*
%TD*%
D42*
%TO.P,J1,1*%
%TO.N,Net-(D3-A)*%
X56940000Y-109150000D03*
D43*
%TO.P,J1,2*%
%TO.N,GND*%
X50640000Y-109150000D03*
D44*
%TO.P,J1,3*%
X54040000Y-104350000D03*
%TD*%
D36*
%TO.P,C9,1*%
%TO.N,+5V*%
X87100000Y-126700000D03*
%TO.P,C9,2*%
%TO.N,GND*%
X84600000Y-126700000D03*
%TD*%
D45*
%TO.P,C7,1*%
%TO.N,3.3V*%
X166962500Y-130800000D03*
%TO.P,C7,2*%
%TO.N,GND*%
X169037500Y-130800000D03*
%TD*%
D46*
%TO.P,D5,1,K*%
%TO.N,/2*%
X148450000Y-108155000D03*
%TO.P,D5,2,A*%
%TO.N,Net-(D5-A)*%
X148450000Y-109730000D03*
%TD*%
D34*
%TO.P,C6,1*%
%TO.N,3.3V*%
X99500000Y-109257500D03*
%TO.P,C6,2*%
%TO.N,GND*%
X99500000Y-111157500D03*
%TD*%
D47*
%TO.P,D3,1,K*%
%TO.N,/pwr_in*%
X61230000Y-113317500D03*
%TO.P,D3,2,A*%
%TO.N,Net-(D3-A)*%
X61230000Y-109317500D03*
%TD*%
D48*
%TO.P,D4,1*%
%TO.N,Net-(U8-OUT)*%
X65800000Y-121557500D03*
%TO.P,D4,2*%
%TO.N,GND*%
X65800000Y-125557500D03*
%TD*%
D21*
%TO.P,R6,1*%
%TO.N,/SDA*%
X164730000Y-99365000D03*
%TO.P,R6,2*%
%TO.N,3.3V*%
X164730000Y-101015000D03*
%TD*%
D49*
%TO.P,Q1,1,B*%
%TO.N,Net-(Q1-B)*%
X162470000Y-131580000D03*
%TO.P,Q1,2,E*%
%TO.N,/RTS*%
X162470000Y-129680000D03*
%TO.P,Q1,3,C*%
%TO.N,/EN*%
X164345000Y-130630000D03*
%TD*%
D50*
%TO.P,Q2,1,B*%
%TO.N,Net-(Q2-B)*%
X155487500Y-129637500D03*
%TO.P,Q2,2,E*%
%TO.N,/DTR*%
X155487500Y-131537500D03*
%TO.P,Q2,3,C*%
%TO.N,/IO0*%
X153612500Y-130587500D03*
%TD*%
D21*
%TO.P,R5,1*%
%TO.N,Net-(D5-A)*%
X148480000Y-111865000D03*
%TO.P,R5,2*%
%TO.N,GND*%
X148480000Y-113515000D03*
%TD*%
D51*
%TO.N,GND*%
X169920000Y-135920000D03*
%TO.N,/2*%
X149340000Y-106730000D03*
X154280000Y-111500000D03*
%TO.N,GND*%
X116120000Y-127430000D03*
%TO.N,/12*%
X144320000Y-122930000D03*
X142020000Y-126350000D03*
X151380000Y-125740000D03*
X138520000Y-112240000D03*
X137720000Y-110190000D03*
X134160000Y-102970000D03*
%TO.N,/13*%
X147650000Y-121530000D03*
X138815000Y-108655000D03*
X137355000Y-102865000D03*
X155210000Y-119680000D03*
%TO.N,/14*%
X154320000Y-124500000D03*
X148660000Y-125350000D03*
X148660000Y-119510000D03*
X140190000Y-102810000D03*
%TO.N,/15*%
X154050000Y-112840000D03*
X143910000Y-103320000D03*
%TO.N,/16*%
X155700000Y-106700000D03*
X157800000Y-102760000D03*
%TO.N,GND*%
X101110000Y-123310000D03*
X162450000Y-138150000D03*
X57520000Y-121847500D03*
X92960000Y-116480000D03*
X169660000Y-124380000D03*
X96260000Y-112990000D03*
X169650000Y-110140000D03*
X81500000Y-116800000D03*
X92240000Y-105300000D03*
X83200000Y-122100000D03*
X65380000Y-115450000D03*
X56620000Y-121847500D03*
X99500000Y-112300000D03*
X134080000Y-106510000D03*
X153440000Y-122690000D03*
X148470000Y-114450000D03*
X67690000Y-125570000D03*
%TO.N,/EN*%
X161960000Y-135690000D03*
X163590000Y-127950000D03*
%TO.N,/RXD0*%
X164580000Y-109950000D03*
%TO.N,/DTR*%
X155500000Y-132530000D03*
X158730000Y-140200000D03*
%TO.N,/TXD0*%
X165850000Y-109940000D03*
%TO.N,/RTS*%
X162900000Y-130600000D03*
%TO.N,/A*%
X64700000Y-97390000D03*
X122700000Y-97770000D03*
X86300000Y-97390000D03*
%TO.N,/F*%
X117660000Y-98570000D03*
X59800000Y-98390000D03*
X83990000Y-98390000D03*
%TO.N,/B*%
X69100000Y-96380000D03*
X88590000Y-96380000D03*
X125890000Y-96900000D03*
%TO.N,/E*%
X90340000Y-140340000D03*
X149910000Y-140310000D03*
X124671157Y-140339999D03*
%TO.N,/D*%
X153220000Y-139390000D03*
X92620000Y-139400000D03*
X128440000Y-139390000D03*
%TO.N,/DIG_2*%
X128370000Y-130620000D03*
%TO.N,/DIG_1*%
X120810000Y-116890000D03*
%TO.N,/Sec*%
X101470000Y-116380000D03*
%TO.N,/CLK*%
X157430000Y-120150000D03*
X145720000Y-127640000D03*
%TO.N,/ADC_4*%
X162040000Y-124400000D03*
X148830000Y-133030000D03*
%TO.N,/ADC_1*%
X144830000Y-130270000D03*
X160770000Y-124320000D03*
%TO.N,/ADC_3*%
X144490000Y-134650000D03*
X163310000Y-124370000D03*
%TO.N,/ADC_2*%
X145700000Y-131760000D03*
X159500000Y-124240000D03*
%TO.N,/SDA*%
X163300000Y-106830000D03*
X163930000Y-100070000D03*
%TO.N,/SCL*%
X166060000Y-100190000D03*
X167060000Y-106780000D03*
%TD*%
D10*
%TO.N,/2*%
X148450000Y-107620000D02*
X149340000Y-106730000D01*
X148450000Y-108155000D02*
X148450000Y-107620000D01*
X154040000Y-111260000D02*
X151900000Y-111260000D01*
X154280000Y-111500000D02*
X154040000Y-111260000D01*
X151920000Y-111280000D02*
X151900000Y-111260000D01*
D52*
%TO.N,/15*%
X153740000Y-112840000D02*
X153430000Y-112530000D01*
X154050000Y-112840000D02*
X153740000Y-112840000D01*
%TO.N,/14*%
X137715000Y-100335000D02*
X137715000Y-94265000D01*
X140190000Y-102810000D02*
X137715000Y-100335000D01*
X137715000Y-94265000D02*
X137750000Y-94230000D01*
%TO.N,/13*%
X135175000Y-94265000D02*
X135210000Y-94230000D01*
X135175000Y-100685000D02*
X135175000Y-94265000D01*
X137355000Y-102865000D02*
X135175000Y-100685000D01*
%TO.N,/12*%
X132635000Y-94265000D02*
X132670000Y-94230000D01*
X132635000Y-101445000D02*
X132635000Y-94265000D01*
X134160000Y-102970000D02*
X132635000Y-101445000D01*
%TO.N,/15*%
X140255000Y-94265000D02*
X140290000Y-94230000D01*
X140255000Y-99665000D02*
X140255000Y-94265000D01*
X143910000Y-103320000D02*
X140255000Y-99665000D01*
%TO.N,/16*%
X142795000Y-94265000D02*
X142830000Y-94230000D01*
X147080000Y-103240000D02*
X142795000Y-98955000D01*
X142795000Y-98955000D02*
X142795000Y-94265000D01*
X157330000Y-103240000D02*
X147080000Y-103240000D01*
X157800000Y-102770000D02*
X157330000Y-103240000D01*
X157800000Y-102760000D02*
X157800000Y-102770000D01*
%TO.N,GND*%
X117975000Y-125575000D02*
X116120000Y-127430000D01*
X124690000Y-125575000D02*
X117975000Y-125575000D01*
%TO.N,/ADC_3*%
X141610000Y-137530000D02*
X141610000Y-143020000D01*
X144490000Y-134650000D02*
X141610000Y-137530000D01*
%TO.N,/ADC_4*%
X144150000Y-136950000D02*
X144150000Y-143020000D01*
X148050000Y-133050000D02*
X144150000Y-136950000D01*
X148810000Y-133050000D02*
X148050000Y-133050000D01*
X148830000Y-133030000D02*
X148810000Y-133050000D01*
%TO.N,/ADC_2*%
X145320000Y-131760000D02*
X139070000Y-138010000D01*
X139070000Y-138010000D02*
X139070000Y-143020000D01*
X145700000Y-131760000D02*
X145320000Y-131760000D01*
%TO.N,/ADC_1*%
X144040000Y-130270000D02*
X136530000Y-137780000D01*
X136530000Y-137780000D02*
X136530000Y-143020000D01*
X144830000Y-130270000D02*
X144040000Y-130270000D01*
D53*
%TO.N,/CS*%
X157050000Y-105650000D02*
X158230000Y-106830000D01*
X158230000Y-106830000D02*
X158230000Y-108230000D01*
X148230000Y-105650000D02*
X157050000Y-105650000D01*
X141700000Y-112180000D02*
X148230000Y-105650000D01*
X141690000Y-114950000D02*
X141700000Y-114940000D01*
X141700000Y-114940000D02*
X141700000Y-112180000D01*
D52*
%TO.N,/14*%
X148660000Y-125350000D02*
X148660000Y-119510000D01*
%TO.N,/12*%
X151390000Y-125730000D02*
X151380000Y-125740000D01*
X153150000Y-125730000D02*
X151390000Y-125730000D01*
%TO.N,/13*%
X153480000Y-121420000D02*
X151900000Y-121420000D01*
X155210000Y-119690000D02*
X153480000Y-121420000D01*
X155210000Y-119680000D02*
X155210000Y-119690000D01*
X142700000Y-118110000D02*
X144180000Y-118110000D01*
X140420000Y-115830000D02*
X142700000Y-118110000D01*
X140420000Y-110260000D02*
X140420000Y-115830000D01*
X144180000Y-118110000D02*
X147620000Y-121550000D01*
X138815000Y-108655000D02*
X140420000Y-110260000D01*
%TO.N,/12*%
X137720000Y-111440000D02*
X137720000Y-110190000D01*
X138520000Y-112240000D02*
X137720000Y-111440000D01*
X142480000Y-121090000D02*
X144320000Y-122930000D01*
X140820000Y-121090000D02*
X142480000Y-121090000D01*
X140390000Y-121520000D02*
X140820000Y-121090000D01*
X140390000Y-123520000D02*
X140390000Y-121520000D01*
X140390000Y-124720000D02*
X140390000Y-123520000D01*
X142020000Y-126350000D02*
X140390000Y-124720000D01*
D53*
%TO.N,/14*%
X154420000Y-124600000D02*
X154320000Y-124500000D01*
X154420000Y-125730000D02*
X154420000Y-124600000D01*
%TO.N,/15*%
X153430000Y-112530000D02*
X151900000Y-112530000D01*
%TO.N,/16*%
X155690000Y-106710000D02*
X155700000Y-106700000D01*
X155690000Y-108230000D02*
X155690000Y-106710000D01*
%TO.N,/B*%
X129585000Y-98615000D02*
X129585000Y-101235000D01*
X129600000Y-98600000D02*
X129585000Y-98615000D01*
X127900000Y-96900000D02*
X129600000Y-98600000D01*
X125890000Y-96900000D02*
X127900000Y-96900000D01*
%TO.N,/A*%
X127030000Y-101220000D02*
X127045000Y-101235000D01*
X127030000Y-99530000D02*
X127030000Y-101220000D01*
X122730000Y-97740000D02*
X125240000Y-97740000D01*
X125240000Y-97740000D02*
X127030000Y-99530000D01*
X122700000Y-97770000D02*
X122730000Y-97740000D01*
%TO.N,/F*%
X120970000Y-98570000D02*
X121965000Y-99565000D01*
X117660000Y-98570000D02*
X120970000Y-98570000D01*
X121965000Y-99565000D02*
X121965000Y-101235000D01*
%TO.N,/MOSI*%
X168390000Y-106290000D02*
X168390000Y-108230000D01*
X166940000Y-104840000D02*
X168390000Y-106290000D01*
X118680000Y-104840000D02*
X166940000Y-104840000D01*
X113750000Y-109770000D02*
X118680000Y-104840000D01*
X113750000Y-114950000D02*
X113750000Y-109770000D01*
%TO.N,GND*%
X94280000Y-116480000D02*
X101110000Y-123310000D01*
X92960000Y-116480000D02*
X94280000Y-116480000D01*
X169430000Y-130800000D02*
X169037500Y-130800000D01*
D10*
X134070000Y-114950000D02*
X134070000Y-106520000D01*
D53*
X169975000Y-128195000D02*
X169975000Y-127355000D01*
D54*
X60470000Y-121847500D02*
X57520000Y-121847500D01*
D53*
X151900000Y-122690000D02*
X153440000Y-122690000D01*
D54*
X67677500Y-125557500D02*
X67690000Y-125570000D01*
D53*
X83670000Y-116817500D02*
X81517500Y-116817500D01*
D10*
X148480000Y-113515000D02*
X148480000Y-114440000D01*
D53*
X169660000Y-127040000D02*
X169660000Y-125730000D01*
D54*
X65490000Y-125247500D02*
X65800000Y-125557500D01*
D10*
X134070000Y-106520000D02*
X134080000Y-106510000D01*
D54*
X56620000Y-121847500D02*
X51320000Y-121847500D01*
D53*
X169975000Y-130255000D02*
X169430000Y-130800000D01*
D10*
X163430000Y-138170000D02*
X162470000Y-138170000D01*
D54*
X60470000Y-125247500D02*
X65490000Y-125247500D01*
D53*
X169660000Y-125730000D02*
X169660000Y-124380000D01*
X92927500Y-116447500D02*
X91390000Y-116447500D01*
X84850000Y-122100000D02*
X83200000Y-122100000D01*
X169660000Y-108230000D02*
X169660000Y-110130000D01*
X99500000Y-111157500D02*
X99500000Y-112300000D01*
X92230000Y-107017500D02*
X92230000Y-105310000D01*
X92960000Y-116480000D02*
X92927500Y-116447500D01*
D54*
X65800000Y-125557500D02*
X67677500Y-125557500D01*
X57520000Y-121847500D02*
X56620000Y-121847500D01*
D53*
X169660000Y-110130000D02*
X169650000Y-110140000D01*
X92230000Y-105310000D02*
X92240000Y-105300000D01*
X96260000Y-111587500D02*
X96260000Y-112990000D01*
D10*
X65380000Y-116497500D02*
X65380000Y-115450000D01*
D53*
X169975000Y-127355000D02*
X169660000Y-127040000D01*
X169975000Y-128195000D02*
X169975000Y-130255000D01*
D10*
X148480000Y-114440000D02*
X148470000Y-114450000D01*
D55*
%TO.N,/pwr_in*%
X68567500Y-113305000D02*
X68590000Y-113327500D01*
X65330000Y-118447500D02*
X65380000Y-118397500D01*
D53*
%TO.N,3.3V*%
X111760000Y-119130000D02*
X142480000Y-119130000D01*
X147600000Y-130070000D02*
X151540000Y-134010000D01*
D54*
X94612500Y-108787500D02*
X96260000Y-108787500D01*
D53*
X164710000Y-134010000D02*
X165250000Y-134550000D01*
X101887500Y-109257500D02*
X111760000Y-119130000D01*
X166960000Y-134060000D02*
X165570000Y-135450000D01*
X165570000Y-135450000D02*
X165250000Y-135450000D01*
X166960000Y-131090000D02*
X166960000Y-134060000D01*
X168390000Y-125730000D02*
X168390000Y-126790000D01*
X167265000Y-129735000D02*
X167015000Y-129985000D01*
D54*
X96260000Y-108787500D02*
X97187500Y-108787500D01*
D53*
X168075000Y-128925000D02*
X167265000Y-129735000D01*
X168075000Y-128195000D02*
X168075000Y-128925000D01*
X168075000Y-127105000D02*
X168075000Y-128195000D01*
X168390000Y-126790000D02*
X168075000Y-127105000D01*
D54*
X94082500Y-109317500D02*
X94612500Y-108787500D01*
D53*
X151540000Y-134010000D02*
X164710000Y-134010000D01*
X99500000Y-109257500D02*
X101887500Y-109257500D01*
X147600000Y-124250000D02*
X147600000Y-130070000D01*
D54*
X97187500Y-108787500D02*
X97657500Y-109257500D01*
D53*
X167015000Y-129985000D02*
X167015000Y-130915000D01*
D54*
X92230000Y-109317500D02*
X94082500Y-109317500D01*
X97657500Y-109257500D02*
X99500000Y-109257500D01*
D53*
X142480000Y-119130000D02*
X147600000Y-124250000D01*
X165250000Y-134550000D02*
X165250000Y-135450000D01*
D10*
%TO.N,/EN*%
X165330000Y-138170000D02*
X165330000Y-137930000D01*
X163310000Y-135330000D02*
X163430000Y-135450000D01*
X165330000Y-138170000D02*
X170470000Y-138170000D01*
X165150000Y-137990000D02*
X165330000Y-138170000D01*
X161970000Y-135690000D02*
X162330000Y-135330000D01*
X165500000Y-129080000D02*
X167120000Y-127460000D01*
X164720000Y-129080000D02*
X165500000Y-129080000D01*
X164345000Y-128705000D02*
X163590000Y-127950000D01*
X170470000Y-138170000D02*
X171450000Y-139150000D01*
X163430000Y-136030000D02*
X163430000Y-135450000D01*
X164345000Y-130630000D02*
X164345000Y-128705000D01*
X162330000Y-135330000D02*
X163310000Y-135330000D01*
X163590000Y-127950000D02*
X164720000Y-129080000D01*
X167120000Y-127460000D02*
X167120000Y-125730000D01*
X161960000Y-135690000D02*
X161970000Y-135690000D01*
X165330000Y-137930000D02*
X163430000Y-136030000D01*
D55*
%TO.N,Net-(U8-OUT)*%
X65800000Y-121557500D02*
X67690000Y-121557500D01*
D54*
X60470000Y-120147500D02*
X64390000Y-120147500D01*
D55*
X67690000Y-121557500D02*
X70010000Y-119237500D01*
X70010000Y-119237500D02*
X75360000Y-119237500D01*
D54*
X64390000Y-120147500D02*
X65800000Y-121557500D01*
D10*
%TO.N,/RXD0*%
X164580000Y-108230000D02*
X164580000Y-109950000D01*
%TO.N,/DTR*%
X156800000Y-131810000D02*
X157970000Y-131810000D01*
X157970000Y-131810000D02*
X157980000Y-131800000D01*
X155500000Y-132530000D02*
X155500000Y-132270000D01*
X164400000Y-142150000D02*
X164400000Y-143800000D01*
X155487500Y-131537500D02*
X156527500Y-131537500D01*
X156527500Y-131537500D02*
X156800000Y-131810000D01*
X155500000Y-132270000D02*
X155487500Y-132257500D01*
X162450000Y-140200000D02*
X164400000Y-142150000D01*
X155487500Y-132257500D02*
X155487500Y-131537500D01*
X158730000Y-140200000D02*
X162450000Y-140200000D01*
%TO.N,/TXD0*%
X165850000Y-108230000D02*
X165850000Y-109940000D01*
%TO.N,/RTS*%
X160840000Y-129370000D02*
X159750000Y-129370000D01*
X161150000Y-129680000D02*
X160840000Y-129370000D01*
X162900000Y-130600000D02*
X162470000Y-130170000D01*
X162470000Y-130170000D02*
X162470000Y-129680000D01*
X162470000Y-129680000D02*
X161150000Y-129680000D01*
%TO.N,Net-(Q1-B)*%
X162470000Y-131580000D02*
X161210000Y-131580000D01*
X161210000Y-131580000D02*
X160990000Y-131800000D01*
X160990000Y-131800000D02*
X159800000Y-131800000D01*
%TO.N,Net-(Q2-B)*%
X155487500Y-129637500D02*
X156392500Y-129637500D01*
X156660000Y-129370000D02*
X157930000Y-129370000D01*
X156392500Y-129637500D02*
X156660000Y-129370000D01*
D53*
%TO.N,Net-(U6-ISET)*%
X129030000Y-122610000D02*
X128990000Y-122570000D01*
X129030000Y-125065000D02*
X129030000Y-122610000D01*
D54*
%TO.N,+5V*%
X86750000Y-122100000D02*
X86750000Y-123970000D01*
D55*
X60470000Y-123547500D02*
X57850000Y-123547500D01*
D54*
X87270000Y-116817500D02*
X87270000Y-115530000D01*
X149940000Y-145550000D02*
X149920000Y-145570000D01*
X87300000Y-119800000D02*
X87300000Y-116847500D01*
D55*
X57850000Y-123547500D02*
X57130000Y-124267500D01*
D54*
X120400000Y-127900000D02*
X125960000Y-127900000D01*
X131275000Y-126885000D02*
X129030000Y-126885000D01*
X87800000Y-122100000D02*
X96500000Y-130800000D01*
X88252500Y-114547500D02*
X91390000Y-114547500D01*
X87100000Y-127800000D02*
X87100000Y-126700000D01*
X154240000Y-144350000D02*
X153040000Y-145550000D01*
D55*
X57130000Y-124267500D02*
X57130000Y-127587500D01*
D54*
X154240000Y-143800000D02*
X154240000Y-144350000D01*
X132980000Y-143690000D02*
X132980000Y-128590000D01*
X87300000Y-116847500D02*
X87270000Y-116817500D01*
X87270000Y-115530000D02*
X88252500Y-114547500D01*
D55*
X91390000Y-114547500D02*
X91440000Y-114547500D01*
D54*
X126590000Y-127270000D02*
X126810000Y-127490000D01*
X91390000Y-114547500D02*
X92230000Y-113707500D01*
X126810000Y-127490000D02*
X128425000Y-127490000D01*
X149920000Y-145570000D02*
X134860000Y-145570000D01*
X92230000Y-113707500D02*
X92230000Y-111617500D01*
X87100000Y-124320000D02*
X87100000Y-126700000D01*
D55*
X58680000Y-129137500D02*
X75360000Y-129137500D01*
D54*
X132980000Y-128590000D02*
X131275000Y-126885000D01*
D53*
X126590000Y-127270000D02*
X126590000Y-125575000D01*
X126590000Y-125575000D02*
X126590000Y-122710000D01*
D54*
X125960000Y-127900000D02*
X126590000Y-127270000D01*
X91342500Y-114500000D02*
X91390000Y-114547500D01*
X85762500Y-129137500D02*
X87100000Y-127800000D01*
X75360000Y-129137500D02*
X85762500Y-129137500D01*
X86750000Y-123970000D02*
X87100000Y-124320000D01*
D53*
X126400000Y-122520000D02*
X126450000Y-122570000D01*
X126590000Y-122710000D02*
X126450000Y-122570000D01*
D54*
X86750000Y-120350000D02*
X87300000Y-119800000D01*
X86750000Y-122100000D02*
X87800000Y-122100000D01*
D55*
X91370000Y-114527500D02*
X91390000Y-114547500D01*
D54*
X86750000Y-122100000D02*
X86750000Y-120350000D01*
X134860000Y-145570000D02*
X132980000Y-143690000D01*
X128425000Y-127490000D02*
X129030000Y-126885000D01*
X153040000Y-145550000D02*
X149940000Y-145550000D01*
X117500000Y-130800000D02*
X120400000Y-127900000D01*
D55*
X57130000Y-127587500D02*
X58680000Y-129137500D01*
D54*
X96500000Y-130800000D02*
X117500000Y-130800000D01*
D10*
%TO.N,Net-(D5-A)*%
X148450000Y-109730000D02*
X148450000Y-111835000D01*
X148450000Y-111835000D02*
X148480000Y-111865000D01*
X148330000Y-111690000D02*
X148155000Y-111865000D01*
D53*
%TO.N,/A*%
X92200000Y-100240000D02*
X92200000Y-101220000D01*
X89350000Y-97390000D02*
X92200000Y-100240000D01*
X86300000Y-97390000D02*
X89350000Y-97390000D01*
X64020000Y-97390000D02*
X62890000Y-98520000D01*
X62890000Y-98520000D02*
X62890000Y-101282500D01*
X64700000Y-97390000D02*
X64020000Y-97390000D01*
X92200000Y-101220000D02*
X92270000Y-101290000D01*
%TO.N,/F*%
X87190000Y-99670000D02*
X87190000Y-101290000D01*
X59800000Y-98390000D02*
X59140000Y-98390000D01*
X85910000Y-98390000D02*
X87190000Y-99670000D01*
X83990000Y-98390000D02*
X85910000Y-98390000D01*
X57810000Y-99720000D02*
X57810000Y-101282500D01*
X59140000Y-98390000D02*
X57810000Y-99720000D01*
%TO.N,/B*%
X69100000Y-96380000D02*
X67720000Y-96380000D01*
X88590000Y-96380000D02*
X91600000Y-96380000D01*
X91600000Y-96380000D02*
X94810000Y-99590000D01*
X67720000Y-96380000D02*
X65430000Y-98670000D01*
X94810000Y-99590000D02*
X94810000Y-101290000D01*
X65430000Y-98670000D02*
X65430000Y-101282500D01*
%TO.N,/E*%
X87280000Y-138340000D02*
X87280000Y-136640000D01*
X151575000Y-136537500D02*
X151575000Y-138645000D01*
X89280000Y-140340000D02*
X87280000Y-138340000D01*
X90340000Y-140340000D02*
X89280000Y-140340000D01*
X124671157Y-140339999D02*
X124029999Y-140339999D01*
X122055000Y-138365000D02*
X122055000Y-136585000D01*
X151575000Y-138645000D02*
X149910000Y-140310000D01*
X124029999Y-140339999D02*
X122055000Y-138365000D01*
%TO.N,/D*%
X91420000Y-139400000D02*
X89820000Y-137800000D01*
X89820000Y-137800000D02*
X89820000Y-136640000D01*
X154115000Y-138495000D02*
X153220000Y-139390000D01*
X92620000Y-139400000D02*
X91420000Y-139400000D01*
X154115000Y-136537500D02*
X154115000Y-138495000D01*
X124595000Y-137915000D02*
X124595000Y-136585000D01*
X126070000Y-139390000D02*
X124595000Y-137915000D01*
X128440000Y-139390000D02*
X126070000Y-139390000D01*
D10*
%TO.N,/DIG_2*%
X124700000Y-129610000D02*
X119520000Y-134790000D01*
X128370000Y-130620000D02*
X127820000Y-130070000D01*
X127810000Y-130070000D02*
X127350000Y-129610000D01*
X127350000Y-129610000D02*
X124700000Y-129610000D01*
X119520000Y-134790000D02*
X119520000Y-136580000D01*
X119520000Y-136580000D02*
X119515000Y-136585000D01*
X127820000Y-130070000D02*
X127810000Y-130070000D01*
%TO.N,/DIG_1*%
X137950000Y-117490000D02*
X139150000Y-116290000D01*
X120810000Y-116890000D02*
X120830000Y-116890000D01*
X120830000Y-116890000D02*
X121430000Y-117490000D01*
X139150000Y-116290000D02*
X139150000Y-114950000D01*
X121430000Y-117490000D02*
X137950000Y-117490000D01*
%TO.N,/Sec*%
X108710000Y-127140000D02*
X108710000Y-122810000D01*
X102280000Y-116380000D02*
X101390000Y-116380000D01*
X108710000Y-122810000D02*
X102280000Y-116380000D01*
X108600000Y-127250000D02*
X108710000Y-127140000D01*
D53*
%TO.N,/CLK*%
X157400000Y-113200000D02*
X157400000Y-120120000D01*
X157400000Y-120120000D02*
X157430000Y-120150000D01*
X159500000Y-111100000D02*
X157400000Y-113200000D01*
X159500000Y-108230000D02*
X159500000Y-111100000D01*
X141690000Y-123610000D02*
X141690000Y-122570000D01*
X145720000Y-127640000D02*
X141690000Y-123610000D01*
%TO.N,/ADC_4*%
X162040000Y-125730000D02*
X162040000Y-124400000D01*
%TO.N,/ADC_1*%
X160770000Y-125730000D02*
X160770000Y-124320000D01*
%TO.N,/ADC_3*%
X163310000Y-125730000D02*
X163310000Y-124370000D01*
%TO.N,/ADC_2*%
X159500000Y-125730000D02*
X159500000Y-124240000D01*
D10*
%TO.N,/SDA*%
X164730000Y-99365000D02*
X164635000Y-99365000D01*
X163310000Y-108230000D02*
X163310000Y-106840000D01*
X163310000Y-106840000D02*
X163300000Y-106830000D01*
X164730000Y-99365000D02*
X164730000Y-96920000D01*
X164730000Y-96920000D02*
X164850000Y-96800000D01*
X164635000Y-99365000D02*
X163930000Y-100070000D01*
%TO.N,/SCL*%
X167040000Y-99405000D02*
X167040000Y-96990000D01*
X166845000Y-99405000D02*
X166060000Y-100190000D01*
X167120000Y-108230000D02*
X167120000Y-106840000D01*
X167040000Y-96990000D02*
X166850000Y-96800000D01*
X167040000Y-99405000D02*
X166845000Y-99405000D01*
X167120000Y-106840000D02*
X167060000Y-106780000D01*
D53*
%TO.N,3.3V*%
X167045000Y-101060000D02*
X167000000Y-101015000D01*
X171240000Y-102730000D02*
X169570000Y-101060000D01*
X169570000Y-101060000D02*
X167045000Y-101060000D01*
X171240000Y-113400000D02*
X171240000Y-102730000D01*
X168390000Y-116250000D02*
X171240000Y-113400000D01*
X168390000Y-125730000D02*
X168390000Y-116250000D01*
X167000000Y-101015000D02*
X164730000Y-101015000D01*
D10*
%TO.N,/IO0*%
X153150000Y-107350000D02*
X153150000Y-108230000D01*
X149770000Y-108130000D02*
X151100000Y-106800000D01*
X151100000Y-106800000D02*
X152600000Y-106800000D01*
X152600000Y-106800000D02*
X153150000Y-107350000D01*
X149770000Y-128330000D02*
X149770000Y-108130000D01*
X152027500Y-130587500D02*
X149770000Y-128330000D01*
X153612500Y-130587500D02*
X152027500Y-130587500D01*
%TD*%
M02*
