%TF.GenerationSoftware,KiCad,Pcbnew,9.0.2*%
%TF.CreationDate,2025-06-20T14:11:32+05:30*%
%TF.ProjectId,clock,636c6f63-6b2e-46b6-9963-61645f706362,rev?*%
%TF.SameCoordinates,Original*%
%TF.FileFunction,Legend,Top*%
%TF.FilePolarity,Positive*%
%FSLAX46Y46*%
G04 Gerber Fmt 4.6, Leading zero omitted, Abs format (unit mm)*
G04 Created by KiCad (PCBNEW 9.0.2) date 2025-06-20 14:11:32*
%MOMM*%
%LPD*%
G01*
G04 APERTURE LIST*
%ADD10C,0.125000*%
%ADD11C,0.150000*%
%ADD12C,0.120000*%
%ADD13C,0.100000*%
G04 APERTURE END LIST*
D10*
G36*
X151498790Y-141746761D02*
G01*
X151494949Y-141775585D01*
X151493661Y-141805043D01*
X151494860Y-141837280D01*
X151498760Y-141875568D01*
X151451568Y-141891229D01*
X151396117Y-141904053D01*
X151339403Y-141912163D01*
X151286666Y-141914769D01*
X151246331Y-141912650D01*
X151209568Y-141906513D01*
X151175949Y-141896597D01*
X151145096Y-141883018D01*
X151115984Y-141865324D01*
X151090872Y-141844809D01*
X151069400Y-141821379D01*
X151051338Y-141794815D01*
X151037153Y-141766017D01*
X151026937Y-141735268D01*
X151020687Y-141702257D01*
X151018548Y-141666618D01*
X151020842Y-141629805D01*
X151027542Y-141595795D01*
X151038495Y-141564186D01*
X151053719Y-141534636D01*
X151072985Y-141507394D01*
X151095580Y-141483450D01*
X151121722Y-141462583D01*
X151151752Y-141444693D01*
X151183254Y-141431342D01*
X151219762Y-141421288D01*
X151262031Y-141414876D01*
X151310907Y-141412606D01*
X151349411Y-141413942D01*
X151383325Y-141417735D01*
X151418798Y-141424802D01*
X151469726Y-141438282D01*
X151498760Y-141446128D01*
X151490997Y-141486081D01*
X151484075Y-141547428D01*
X151462917Y-141547428D01*
X151462917Y-141524805D01*
X151460997Y-141494765D01*
X151457452Y-141485421D01*
X151442508Y-141475080D01*
X151403139Y-141458188D01*
X151373343Y-141449369D01*
X151339930Y-141443844D01*
X151302389Y-141441915D01*
X151261522Y-141444406D01*
X151226520Y-141451439D01*
X151196506Y-141462529D01*
X151170743Y-141477440D01*
X151148668Y-141496198D01*
X151128147Y-141520816D01*
X151112115Y-141548289D01*
X151100416Y-141579019D01*
X151093136Y-141613544D01*
X151090600Y-141652513D01*
X151094071Y-141698720D01*
X151104082Y-141739818D01*
X151120319Y-141776646D01*
X151142868Y-141809867D01*
X151169198Y-141837034D01*
X151198605Y-141857897D01*
X151231507Y-141872933D01*
X151268550Y-141882227D01*
X151310571Y-141885460D01*
X151347068Y-141882949D01*
X151386853Y-141875061D01*
X151430464Y-141861127D01*
X151432509Y-141799792D01*
X151431135Y-141751310D01*
X151429068Y-141745817D01*
X151426189Y-141743066D01*
X151390499Y-141738426D01*
X151350199Y-141735006D01*
X151350199Y-141713513D01*
X151466306Y-141715467D01*
X151522665Y-141713513D01*
X151522665Y-141731099D01*
X151498790Y-141746761D01*
G37*
G36*
X151656632Y-141494488D02*
G01*
X151656632Y-141732717D01*
X151657585Y-141807927D01*
X151659716Y-141846168D01*
X151663535Y-141868005D01*
X151667715Y-141875965D01*
X151676188Y-141879931D01*
X151700352Y-141883750D01*
X151722212Y-141885460D01*
X151722212Y-141906953D01*
X151654923Y-141905000D01*
X151559271Y-141906953D01*
X151559271Y-141885460D01*
X151583879Y-141885460D01*
X151603908Y-141883539D01*
X151612913Y-141879323D01*
X151618064Y-141871261D01*
X151621461Y-141855021D01*
X151624150Y-141813986D01*
X151625217Y-141752775D01*
X151625217Y-141582813D01*
X151624179Y-141488077D01*
X151622220Y-141469906D01*
X151618897Y-141460905D01*
X151613388Y-141454103D01*
X151605403Y-141447746D01*
X151595397Y-141443536D01*
X151580459Y-141441915D01*
X151559271Y-141441915D01*
X151559271Y-141420422D01*
X151625553Y-141422376D01*
X151679500Y-141420422D01*
X151743217Y-141501052D01*
X151805193Y-141579943D01*
X151922033Y-141723710D01*
X152013227Y-141831208D01*
X152013227Y-141611389D01*
X152011253Y-141487233D01*
X152008251Y-141460600D01*
X152003183Y-141454156D01*
X151991453Y-141448501D01*
X151968805Y-141444327D01*
X151943190Y-141441915D01*
X151943190Y-141420422D01*
X152028584Y-141422376D01*
X152110558Y-141420422D01*
X152110558Y-141441915D01*
X152084271Y-141441915D01*
X152064664Y-141444736D01*
X152053386Y-141451867D01*
X152047726Y-141463073D01*
X152045850Y-141490539D01*
X152044643Y-141612488D01*
X152044643Y-141766361D01*
X152045900Y-141831498D01*
X152050108Y-141914769D01*
X151996130Y-141904877D01*
X151981781Y-141894680D01*
X151902188Y-141800586D01*
X151656632Y-141494488D01*
G37*
G36*
X152428358Y-141422276D02*
G01*
X152475640Y-141429337D01*
X152506373Y-141437907D01*
X152534958Y-141450717D01*
X152561705Y-141467896D01*
X152585458Y-141488911D01*
X152604960Y-141513037D01*
X152620476Y-141540589D01*
X152631425Y-141570348D01*
X152638247Y-141603787D01*
X152640626Y-141641523D01*
X152637353Y-141687393D01*
X152627859Y-141728865D01*
X152612395Y-141766635D01*
X152590883Y-141801268D01*
X152562926Y-141833162D01*
X152530551Y-141860004D01*
X152494636Y-141880931D01*
X152454686Y-141896164D01*
X152410032Y-141905620D01*
X152359869Y-141908907D01*
X152317859Y-141907747D01*
X152239640Y-141905000D01*
X152169268Y-141906953D01*
X152169268Y-141889368D01*
X152201050Y-141870653D01*
X152204833Y-141808026D01*
X152206515Y-141686219D01*
X152206515Y-141587545D01*
X152205453Y-141531430D01*
X152270720Y-141531430D01*
X152270720Y-141754943D01*
X152271779Y-141815850D01*
X152274811Y-141870806D01*
X152319682Y-141876058D01*
X152356113Y-141877644D01*
X152403946Y-141874165D01*
X152443767Y-141864424D01*
X152476977Y-141849116D01*
X152504674Y-141828429D01*
X152526798Y-141803512D01*
X152544338Y-141774372D01*
X152557363Y-141740364D01*
X152565619Y-141700628D01*
X152568544Y-141654132D01*
X152566093Y-141613451D01*
X152559184Y-141578717D01*
X152548312Y-141549041D01*
X152533727Y-141523671D01*
X152515421Y-141502029D01*
X152493561Y-141484110D01*
X152467779Y-141469761D01*
X152437454Y-141459018D01*
X152401794Y-141452167D01*
X152359869Y-141449731D01*
X152322465Y-141451376D01*
X152274811Y-141456905D01*
X152271806Y-141490813D01*
X152270720Y-141531430D01*
X152205453Y-141531430D01*
X152205408Y-141529060D01*
X152202424Y-141483101D01*
X152199009Y-141460300D01*
X152196073Y-141453486D01*
X152189527Y-141450275D01*
X152167894Y-141446006D01*
X152140569Y-141441915D01*
X152140569Y-141420422D01*
X152216407Y-141422376D01*
X152308272Y-141421734D01*
X152383072Y-141420422D01*
X152428358Y-141422276D01*
G37*
G36*
X153958212Y-141913028D02*
G01*
X153975645Y-141903106D01*
X153984163Y-141918585D01*
X154006128Y-141956061D01*
X154014907Y-141967800D01*
X154026572Y-141976537D01*
X154045132Y-141984683D01*
X154066392Y-141989739D01*
X154092088Y-141991552D01*
X154120327Y-141989235D01*
X154144052Y-141982701D01*
X154164090Y-141972298D01*
X154181053Y-141957999D01*
X154194412Y-141940417D01*
X154204347Y-141919026D01*
X154210705Y-141893041D01*
X154212988Y-141861462D01*
X154210927Y-141834017D01*
X154205124Y-141810919D01*
X154195939Y-141791412D01*
X154183435Y-141774909D01*
X154167692Y-141761266D01*
X154149756Y-141751519D01*
X154129194Y-141745504D01*
X154105399Y-141743401D01*
X154078470Y-141746240D01*
X154055177Y-141754423D01*
X154034648Y-141768185D01*
X154015915Y-141788831D01*
X154001229Y-141784037D01*
X154004693Y-141720430D01*
X154006023Y-141632332D01*
X154004732Y-141576455D01*
X154001229Y-141531887D01*
X154007030Y-141528468D01*
X154061027Y-141531387D01*
X154117031Y-141532376D01*
X154184671Y-141531378D01*
X154248189Y-141528468D01*
X154252281Y-141531826D01*
X154249197Y-141558082D01*
X154252281Y-141585346D01*
X154248189Y-141589040D01*
X154173390Y-141587086D01*
X154036400Y-141589040D01*
X154033977Y-141625979D01*
X154030935Y-141731922D01*
X154056485Y-141714773D01*
X154079082Y-141704445D01*
X154102962Y-141698589D01*
X154131350Y-141696507D01*
X154162710Y-141699076D01*
X154189732Y-141706400D01*
X154213190Y-141718185D01*
X154233657Y-141734517D01*
X154250440Y-141754672D01*
X154262444Y-141777495D01*
X154269848Y-141803509D01*
X154272431Y-141833435D01*
X154268678Y-141870149D01*
X154257557Y-141904244D01*
X154238787Y-141936454D01*
X154211461Y-141967281D01*
X154179247Y-141992648D01*
X154144852Y-142010418D01*
X154107741Y-142021120D01*
X154067175Y-142024769D01*
X154046725Y-142023711D01*
X154030447Y-142020831D01*
X154014524Y-142015464D01*
X153994085Y-142005627D01*
X153983827Y-141974180D01*
X153958212Y-141913028D01*
G37*
G36*
X154536121Y-142024769D02*
G01*
X154504706Y-141938551D01*
X154382401Y-141631080D01*
X154358051Y-141571237D01*
X154351657Y-141558113D01*
X154344346Y-141554006D01*
X154322317Y-141551915D01*
X154308304Y-141551915D01*
X154308304Y-141530422D01*
X154399498Y-141532376D01*
X154494447Y-141530422D01*
X154494447Y-141551915D01*
X154460620Y-141551915D01*
X154444772Y-141552981D01*
X154438058Y-141555212D01*
X154434280Y-141559326D01*
X154432959Y-141565440D01*
X154434669Y-141575515D01*
X154479060Y-141694522D01*
X154571292Y-141931804D01*
X154661113Y-141705605D01*
X154699569Y-141602008D01*
X154706542Y-141572309D01*
X154704510Y-141563645D01*
X154698731Y-141558368D01*
X154687766Y-141556006D01*
X154673752Y-141554968D01*
X154644382Y-141551915D01*
X154644382Y-141530422D01*
X154719181Y-141532376D01*
X154796393Y-141530422D01*
X154796393Y-141551915D01*
X154782745Y-141551915D01*
X154767936Y-141554082D01*
X154758993Y-141559670D01*
X154751074Y-141572476D01*
X154732523Y-141614594D01*
X154617393Y-141897305D01*
X154588105Y-141973297D01*
X154571292Y-142024769D01*
X154536121Y-142024769D01*
G37*
G36*
X136020092Y-145369392D02*
G01*
X136043295Y-145418607D01*
X136049716Y-145425902D01*
X136056637Y-145430514D01*
X136066500Y-145433168D01*
X136090434Y-145435460D01*
X136090434Y-145456953D01*
X136005712Y-145455000D01*
X135905664Y-145456953D01*
X135905664Y-145435460D01*
X135939461Y-145433415D01*
X135955743Y-145431436D01*
X135960985Y-145429659D01*
X135964862Y-145425359D01*
X135966114Y-145420134D01*
X135964400Y-145411821D01*
X135955856Y-145388138D01*
X135918304Y-145292822D01*
X135720864Y-145292822D01*
X135697661Y-145348326D01*
X135678523Y-145398181D01*
X135674763Y-145415035D01*
X135675939Y-145422040D01*
X135679037Y-145426270D01*
X135685038Y-145428907D01*
X135700714Y-145431705D01*
X135733504Y-145435460D01*
X135733504Y-145456953D01*
X135659742Y-145455000D01*
X135573311Y-145456953D01*
X135573311Y-145435460D01*
X135583569Y-145435124D01*
X135605308Y-145433201D01*
X135614466Y-145430209D01*
X135620876Y-145423928D01*
X135629334Y-145409234D01*
X135678854Y-145303294D01*
X135695599Y-145265467D01*
X135733504Y-145265467D01*
X135905664Y-145265467D01*
X135819599Y-145060608D01*
X135733504Y-145265467D01*
X135695599Y-145265467D01*
X135772796Y-145091078D01*
X135806888Y-145012194D01*
X135824026Y-144968468D01*
X135847260Y-144968468D01*
X136020092Y-145369392D01*
G37*
G36*
X136216891Y-145044488D02*
G01*
X136216891Y-145282717D01*
X136217843Y-145357927D01*
X136219974Y-145396168D01*
X136223793Y-145418005D01*
X136227973Y-145425965D01*
X136236446Y-145429931D01*
X136260610Y-145433750D01*
X136282470Y-145435460D01*
X136282470Y-145456953D01*
X136215181Y-145455000D01*
X136119529Y-145456953D01*
X136119529Y-145435460D01*
X136144137Y-145435460D01*
X136164167Y-145433539D01*
X136173171Y-145429323D01*
X136178322Y-145421261D01*
X136181720Y-145405021D01*
X136184409Y-145363986D01*
X136185475Y-145302775D01*
X136185475Y-145132813D01*
X136184437Y-145038077D01*
X136182478Y-145019906D01*
X136179155Y-145010905D01*
X136173646Y-145004103D01*
X136165661Y-144997746D01*
X136155655Y-144993536D01*
X136140717Y-144991915D01*
X136119529Y-144991915D01*
X136119529Y-144970422D01*
X136185811Y-144972376D01*
X136239758Y-144970422D01*
X136303475Y-145051052D01*
X136365451Y-145129943D01*
X136482291Y-145273710D01*
X136573485Y-145381208D01*
X136573485Y-145161389D01*
X136571511Y-145037233D01*
X136568509Y-145010600D01*
X136563441Y-145004156D01*
X136551711Y-144998501D01*
X136529064Y-144994327D01*
X136503449Y-144991915D01*
X136503449Y-144970422D01*
X136588842Y-144972376D01*
X136670816Y-144970422D01*
X136670816Y-144991915D01*
X136644529Y-144991915D01*
X136624923Y-144994736D01*
X136613644Y-145001867D01*
X136607984Y-145013073D01*
X136606109Y-145040539D01*
X136604901Y-145162488D01*
X136604901Y-145316361D01*
X136606158Y-145381498D01*
X136610366Y-145464769D01*
X136556388Y-145454877D01*
X136542039Y-145444680D01*
X136462446Y-145350586D01*
X136216891Y-145044488D01*
G37*
G36*
X136681379Y-145507756D02*
G01*
X137039317Y-145507756D01*
X137039317Y-145542927D01*
X136681379Y-145542927D01*
X136681379Y-145507756D01*
G37*
G36*
X137093295Y-145456953D02*
G01*
X137093295Y-145437414D01*
X137119948Y-145436376D01*
X137151144Y-145433587D01*
X137167609Y-145428838D01*
X137175086Y-145423340D01*
X137178890Y-145413677D01*
X137182376Y-145386854D01*
X137183818Y-145329001D01*
X137186199Y-145138552D01*
X137185394Y-145052364D01*
X137184153Y-145033223D01*
X137182031Y-145028808D01*
X137178017Y-145027422D01*
X137162294Y-145032887D01*
X137082701Y-145070531D01*
X137065268Y-145079415D01*
X137061886Y-145078088D01*
X137060139Y-145073614D01*
X137057758Y-145040458D01*
X137128827Y-145017111D01*
X137189481Y-144993051D01*
X137240848Y-144968468D01*
X137250740Y-144972895D01*
X137249366Y-145011332D01*
X137245947Y-145207643D01*
X137243565Y-145341671D01*
X137244880Y-145387813D01*
X137247657Y-145408349D01*
X137253420Y-145422617D01*
X137260815Y-145430148D01*
X137273093Y-145433949D01*
X137304382Y-145436345D01*
X137335462Y-145437414D01*
X137335462Y-145456953D01*
X137213859Y-145455000D01*
X137093295Y-145456953D01*
G37*
G36*
X143850092Y-145169392D02*
G01*
X143873295Y-145218607D01*
X143879716Y-145225902D01*
X143886637Y-145230514D01*
X143896500Y-145233168D01*
X143920434Y-145235460D01*
X143920434Y-145256953D01*
X143835712Y-145255000D01*
X143735664Y-145256953D01*
X143735664Y-145235460D01*
X143769461Y-145233415D01*
X143785743Y-145231436D01*
X143790985Y-145229659D01*
X143794862Y-145225359D01*
X143796114Y-145220134D01*
X143794400Y-145211821D01*
X143785856Y-145188138D01*
X143748304Y-145092822D01*
X143550864Y-145092822D01*
X143527661Y-145148326D01*
X143508523Y-145198181D01*
X143504763Y-145215035D01*
X143505939Y-145222040D01*
X143509037Y-145226270D01*
X143515038Y-145228907D01*
X143530714Y-145231705D01*
X143563504Y-145235460D01*
X143563504Y-145256953D01*
X143489742Y-145255000D01*
X143403311Y-145256953D01*
X143403311Y-145235460D01*
X143413569Y-145235124D01*
X143435308Y-145233201D01*
X143444466Y-145230209D01*
X143450876Y-145223928D01*
X143459334Y-145209234D01*
X143508854Y-145103294D01*
X143525599Y-145065467D01*
X143563504Y-145065467D01*
X143735664Y-145065467D01*
X143649599Y-144860608D01*
X143563504Y-145065467D01*
X143525599Y-145065467D01*
X143602796Y-144891078D01*
X143636888Y-144812194D01*
X143654026Y-144768468D01*
X143677260Y-144768468D01*
X143850092Y-145169392D01*
G37*
G36*
X144046891Y-144844488D02*
G01*
X144046891Y-145082717D01*
X144047843Y-145157927D01*
X144049974Y-145196168D01*
X144053793Y-145218005D01*
X144057973Y-145225965D01*
X144066446Y-145229931D01*
X144090610Y-145233750D01*
X144112470Y-145235460D01*
X144112470Y-145256953D01*
X144045181Y-145255000D01*
X143949529Y-145256953D01*
X143949529Y-145235460D01*
X143974137Y-145235460D01*
X143994167Y-145233539D01*
X144003171Y-145229323D01*
X144008322Y-145221261D01*
X144011720Y-145205021D01*
X144014409Y-145163986D01*
X144015475Y-145102775D01*
X144015475Y-144932813D01*
X144014437Y-144838077D01*
X144012478Y-144819906D01*
X144009155Y-144810905D01*
X144003646Y-144804103D01*
X143995661Y-144797746D01*
X143985655Y-144793536D01*
X143970717Y-144791915D01*
X143949529Y-144791915D01*
X143949529Y-144770422D01*
X144015811Y-144772376D01*
X144069758Y-144770422D01*
X144133475Y-144851052D01*
X144195451Y-144929943D01*
X144312291Y-145073710D01*
X144403485Y-145181208D01*
X144403485Y-144961389D01*
X144401511Y-144837233D01*
X144398509Y-144810600D01*
X144393441Y-144804156D01*
X144381711Y-144798501D01*
X144359064Y-144794327D01*
X144333449Y-144791915D01*
X144333449Y-144770422D01*
X144418842Y-144772376D01*
X144500816Y-144770422D01*
X144500816Y-144791915D01*
X144474529Y-144791915D01*
X144454923Y-144794736D01*
X144443644Y-144801867D01*
X144437984Y-144813073D01*
X144436109Y-144840539D01*
X144434901Y-144962488D01*
X144434901Y-145116361D01*
X144436158Y-145181498D01*
X144440366Y-145264769D01*
X144386388Y-145254877D01*
X144372039Y-145244680D01*
X144292446Y-145150586D01*
X144046891Y-144844488D01*
G37*
G36*
X144511379Y-145307756D02*
G01*
X144869317Y-145307756D01*
X144869317Y-145342927D01*
X144511379Y-145342927D01*
X144511379Y-145307756D01*
G37*
G36*
X145121407Y-144772559D02*
G01*
X145118659Y-144910403D01*
X145118659Y-145085006D01*
X145195168Y-145083053D01*
X145193122Y-145104851D01*
X145195168Y-145131901D01*
X145118659Y-145129947D01*
X145120727Y-145204329D01*
X145124124Y-145223004D01*
X145129076Y-145228105D01*
X145139838Y-145232469D01*
X145159997Y-145235368D01*
X145195168Y-145237414D01*
X145195168Y-145256953D01*
X145084495Y-145255000D01*
X144973487Y-145256953D01*
X144973487Y-145237414D01*
X145010398Y-145235338D01*
X145037785Y-145232454D01*
X145046943Y-145229446D01*
X145051847Y-145223975D01*
X145055156Y-145214180D01*
X145057963Y-145191866D01*
X145059247Y-145145579D01*
X145059247Y-145129947D01*
X144872401Y-145131901D01*
X144866264Y-145112117D01*
X144882121Y-145085006D01*
X144911693Y-145085006D01*
X144982066Y-145086960D01*
X145059247Y-145085006D01*
X145059247Y-144842137D01*
X145010926Y-144915119D01*
X144961742Y-144995897D01*
X144911693Y-145085006D01*
X144882121Y-145085006D01*
X144956085Y-144958550D01*
X145064712Y-144787549D01*
X145083966Y-144780819D01*
X145111851Y-144768468D01*
X145121407Y-144772559D01*
G37*
G36*
X146418790Y-145036761D02*
G01*
X146414949Y-145065585D01*
X146413661Y-145095043D01*
X146414860Y-145127280D01*
X146418760Y-145165568D01*
X146371568Y-145181229D01*
X146316117Y-145194053D01*
X146259403Y-145202163D01*
X146206666Y-145204769D01*
X146166331Y-145202650D01*
X146129568Y-145196513D01*
X146095949Y-145186597D01*
X146065096Y-145173018D01*
X146035984Y-145155324D01*
X146010872Y-145134809D01*
X145989400Y-145111379D01*
X145971338Y-145084815D01*
X145957153Y-145056017D01*
X145946937Y-145025268D01*
X145940687Y-144992257D01*
X145938548Y-144956618D01*
X145940842Y-144919805D01*
X145947542Y-144885795D01*
X145958495Y-144854186D01*
X145973719Y-144824636D01*
X145992985Y-144797394D01*
X146015580Y-144773450D01*
X146041722Y-144752583D01*
X146071752Y-144734693D01*
X146103254Y-144721342D01*
X146139762Y-144711288D01*
X146182031Y-144704876D01*
X146230907Y-144702606D01*
X146269411Y-144703942D01*
X146303325Y-144707735D01*
X146338798Y-144714802D01*
X146389726Y-144728282D01*
X146418760Y-144736128D01*
X146410997Y-144776081D01*
X146404075Y-144837428D01*
X146382917Y-144837428D01*
X146382917Y-144814805D01*
X146380997Y-144784765D01*
X146377452Y-144775421D01*
X146362508Y-144765080D01*
X146323139Y-144748188D01*
X146293343Y-144739369D01*
X146259930Y-144733844D01*
X146222389Y-144731915D01*
X146181522Y-144734406D01*
X146146520Y-144741439D01*
X146116506Y-144752529D01*
X146090743Y-144767440D01*
X146068668Y-144786198D01*
X146048147Y-144810816D01*
X146032115Y-144838289D01*
X146020416Y-144869019D01*
X146013136Y-144903544D01*
X146010600Y-144942513D01*
X146014071Y-144988720D01*
X146024082Y-145029818D01*
X146040319Y-145066646D01*
X146062868Y-145099867D01*
X146089198Y-145127034D01*
X146118605Y-145147897D01*
X146151507Y-145162933D01*
X146188550Y-145172227D01*
X146230571Y-145175460D01*
X146267068Y-145172949D01*
X146306853Y-145165061D01*
X146350464Y-145151127D01*
X146352509Y-145089792D01*
X146351135Y-145041310D01*
X146349068Y-145035817D01*
X146346189Y-145033066D01*
X146310499Y-145028426D01*
X146270199Y-145025006D01*
X146270199Y-145003513D01*
X146386306Y-145005467D01*
X146442665Y-145003513D01*
X146442665Y-145021099D01*
X146418790Y-145036761D01*
G37*
G36*
X146576632Y-144784488D02*
G01*
X146576632Y-145022717D01*
X146577585Y-145097927D01*
X146579716Y-145136168D01*
X146583535Y-145158005D01*
X146587715Y-145165965D01*
X146596188Y-145169931D01*
X146620352Y-145173750D01*
X146642212Y-145175460D01*
X146642212Y-145196953D01*
X146574923Y-145195000D01*
X146479271Y-145196953D01*
X146479271Y-145175460D01*
X146503879Y-145175460D01*
X146523908Y-145173539D01*
X146532913Y-145169323D01*
X146538064Y-145161261D01*
X146541461Y-145145021D01*
X146544150Y-145103986D01*
X146545217Y-145042775D01*
X146545217Y-144872813D01*
X146544179Y-144778077D01*
X146542220Y-144759906D01*
X146538897Y-144750905D01*
X146533388Y-144744103D01*
X146525403Y-144737746D01*
X146515397Y-144733536D01*
X146500459Y-144731915D01*
X146479271Y-144731915D01*
X146479271Y-144710422D01*
X146545553Y-144712376D01*
X146599500Y-144710422D01*
X146663217Y-144791052D01*
X146725193Y-144869943D01*
X146842033Y-145013710D01*
X146933227Y-145121208D01*
X146933227Y-144901389D01*
X146931253Y-144777233D01*
X146928251Y-144750600D01*
X146923183Y-144744156D01*
X146911453Y-144738501D01*
X146888805Y-144734327D01*
X146863190Y-144731915D01*
X146863190Y-144710422D01*
X146948584Y-144712376D01*
X147030558Y-144710422D01*
X147030558Y-144731915D01*
X147004271Y-144731915D01*
X146984664Y-144734736D01*
X146973386Y-144741867D01*
X146967726Y-144753073D01*
X146965850Y-144780539D01*
X146964643Y-144902488D01*
X146964643Y-145056361D01*
X146965900Y-145121498D01*
X146970108Y-145204769D01*
X146916130Y-145194877D01*
X146901781Y-145184680D01*
X146822188Y-145090586D01*
X146576632Y-144784488D01*
G37*
G36*
X147348358Y-144712276D02*
G01*
X147395640Y-144719337D01*
X147426373Y-144727907D01*
X147454958Y-144740717D01*
X147481705Y-144757896D01*
X147505458Y-144778911D01*
X147524960Y-144803037D01*
X147540476Y-144830589D01*
X147551425Y-144860348D01*
X147558247Y-144893787D01*
X147560626Y-144931523D01*
X147557353Y-144977393D01*
X147547859Y-145018865D01*
X147532395Y-145056635D01*
X147510883Y-145091268D01*
X147482926Y-145123162D01*
X147450551Y-145150004D01*
X147414636Y-145170931D01*
X147374686Y-145186164D01*
X147330032Y-145195620D01*
X147279869Y-145198907D01*
X147237859Y-145197747D01*
X147159640Y-145195000D01*
X147089268Y-145196953D01*
X147089268Y-145179368D01*
X147121050Y-145160653D01*
X147124833Y-145098026D01*
X147126515Y-144976219D01*
X147126515Y-144877545D01*
X147125453Y-144821430D01*
X147190720Y-144821430D01*
X147190720Y-145044943D01*
X147191779Y-145105850D01*
X147194811Y-145160806D01*
X147239682Y-145166058D01*
X147276113Y-145167644D01*
X147323946Y-145164165D01*
X147363767Y-145154424D01*
X147396977Y-145139116D01*
X147424674Y-145118429D01*
X147446798Y-145093512D01*
X147464338Y-145064372D01*
X147477363Y-145030364D01*
X147485619Y-144990628D01*
X147488544Y-144944132D01*
X147486093Y-144903451D01*
X147479184Y-144868717D01*
X147468312Y-144839041D01*
X147453727Y-144813671D01*
X147435421Y-144792029D01*
X147413561Y-144774110D01*
X147387779Y-144759761D01*
X147357454Y-144749018D01*
X147321794Y-144742167D01*
X147279869Y-144739731D01*
X147242465Y-144741376D01*
X147194811Y-144746905D01*
X147191806Y-144780813D01*
X147190720Y-144821430D01*
X147125453Y-144821430D01*
X147125408Y-144819060D01*
X147122424Y-144773101D01*
X147119009Y-144750300D01*
X147116073Y-144743486D01*
X147109527Y-144740275D01*
X147087894Y-144736006D01*
X147060569Y-144731915D01*
X147060569Y-144710422D01*
X147136407Y-144712376D01*
X147228272Y-144711734D01*
X147303072Y-144710422D01*
X147348358Y-144712276D01*
G37*
G36*
X159169491Y-141699810D02*
G01*
X159252503Y-141812101D01*
X159318082Y-141897372D01*
X159334547Y-141916649D01*
X159341285Y-141922377D01*
X159353253Y-141925460D01*
X159362137Y-141925460D01*
X159362137Y-141946953D01*
X159312617Y-141945000D01*
X159271615Y-141946953D01*
X159150715Y-141783341D01*
X159115806Y-141738802D01*
X159078297Y-141695017D01*
X159081716Y-141683415D01*
X159111086Y-141685125D01*
X159139596Y-141683061D01*
X159163481Y-141677268D01*
X159183535Y-141668141D01*
X159200388Y-141655785D01*
X159214373Y-141640085D01*
X159224361Y-141622106D01*
X159230530Y-141601399D01*
X159232689Y-141577322D01*
X159229421Y-141549197D01*
X159220248Y-141526723D01*
X159205364Y-141508599D01*
X159185708Y-141495455D01*
X159160000Y-141486979D01*
X159126474Y-141483869D01*
X159090850Y-141487225D01*
X159054392Y-141497547D01*
X159051358Y-141552763D01*
X159050300Y-141613654D01*
X159050300Y-141778609D01*
X159052547Y-141887068D01*
X159056101Y-141912332D01*
X159061575Y-141918789D01*
X159072925Y-141923482D01*
X159093684Y-141925460D01*
X159120307Y-141925460D01*
X159120307Y-141946953D01*
X159026365Y-141945000D01*
X158920150Y-141946953D01*
X158920150Y-141925460D01*
X158945765Y-141925460D01*
X158964848Y-141923556D01*
X158975412Y-141919002D01*
X158980600Y-141912637D01*
X158983936Y-141887562D01*
X158986065Y-141777724D01*
X158986065Y-141613226D01*
X158983653Y-141517888D01*
X158979745Y-141494585D01*
X158973951Y-141488471D01*
X158961603Y-141483880D01*
X158938590Y-141481915D01*
X158920150Y-141481915D01*
X158920150Y-141460422D01*
X159017144Y-141462376D01*
X159082052Y-141460422D01*
X159152760Y-141458468D01*
X159192385Y-141460164D01*
X159221526Y-141464608D01*
X159242397Y-141470985D01*
X159261637Y-141480873D01*
X159276944Y-141492916D01*
X159288865Y-141507164D01*
X159297535Y-141523574D01*
X159302878Y-141542250D01*
X159304740Y-141563706D01*
X159302575Y-141587155D01*
X159296178Y-141608945D01*
X159285467Y-141629484D01*
X159270058Y-141649069D01*
X159251802Y-141665368D01*
X159229417Y-141679336D01*
X159202250Y-141690900D01*
X159169491Y-141699810D01*
G37*
G36*
X159573774Y-141703138D02*
G01*
X159522544Y-141616401D01*
X159488398Y-141561976D01*
X159462804Y-141526655D01*
X159443989Y-141505515D01*
X159426326Y-141493453D01*
X159408818Y-141489731D01*
X159387295Y-141491685D01*
X159387295Y-141472145D01*
X159487709Y-141456514D01*
X159503407Y-141470819D01*
X159516224Y-141485487D01*
X159557715Y-141551097D01*
X159615784Y-141648000D01*
X159743523Y-141460422D01*
X159814567Y-141460422D01*
X159814567Y-141479961D01*
X159801256Y-141479961D01*
X159788190Y-141481262D01*
X159779549Y-141484602D01*
X159768994Y-141494942D01*
X159733295Y-141539007D01*
X159666143Y-141626860D01*
X159631507Y-141674653D01*
X159743523Y-141858171D01*
X159775302Y-141907338D01*
X159785716Y-141920392D01*
X159794978Y-141925497D01*
X159808766Y-141927414D01*
X159823115Y-141927414D01*
X159823115Y-141946953D01*
X159762665Y-141945000D01*
X159720320Y-141946953D01*
X159592214Y-141729638D01*
X159562156Y-141771798D01*
X159516041Y-141841715D01*
X159472329Y-141911438D01*
X159451836Y-141946953D01*
X159419748Y-141945000D01*
X159378746Y-141946953D01*
X159378746Y-141927414D01*
X159394103Y-141927414D01*
X159407040Y-141925254D01*
X159417001Y-141919079D01*
X159431657Y-141900893D01*
X159491800Y-141817291D01*
X159573774Y-141703138D01*
G37*
G36*
X141290092Y-145229392D02*
G01*
X141313295Y-145278607D01*
X141319716Y-145285902D01*
X141326637Y-145290514D01*
X141336500Y-145293168D01*
X141360434Y-145295460D01*
X141360434Y-145316953D01*
X141275712Y-145315000D01*
X141175664Y-145316953D01*
X141175664Y-145295460D01*
X141209461Y-145293415D01*
X141225743Y-145291436D01*
X141230985Y-145289659D01*
X141234862Y-145285359D01*
X141236114Y-145280134D01*
X141234400Y-145271821D01*
X141225856Y-145248138D01*
X141188304Y-145152822D01*
X140990864Y-145152822D01*
X140967661Y-145208326D01*
X140948523Y-145258181D01*
X140944763Y-145275035D01*
X140945939Y-145282040D01*
X140949037Y-145286270D01*
X140955038Y-145288907D01*
X140970714Y-145291705D01*
X141003504Y-145295460D01*
X141003504Y-145316953D01*
X140929742Y-145315000D01*
X140843311Y-145316953D01*
X140843311Y-145295460D01*
X140853569Y-145295124D01*
X140875308Y-145293201D01*
X140884466Y-145290209D01*
X140890876Y-145283928D01*
X140899334Y-145269234D01*
X140948854Y-145163294D01*
X140965599Y-145125467D01*
X141003504Y-145125467D01*
X141175664Y-145125467D01*
X141089599Y-144920608D01*
X141003504Y-145125467D01*
X140965599Y-145125467D01*
X141042796Y-144951078D01*
X141076888Y-144872194D01*
X141094026Y-144828468D01*
X141117260Y-144828468D01*
X141290092Y-145229392D01*
G37*
G36*
X141486891Y-144904488D02*
G01*
X141486891Y-145142717D01*
X141487843Y-145217927D01*
X141489974Y-145256168D01*
X141493793Y-145278005D01*
X141497973Y-145285965D01*
X141506446Y-145289931D01*
X141530610Y-145293750D01*
X141552470Y-145295460D01*
X141552470Y-145316953D01*
X141485181Y-145315000D01*
X141389529Y-145316953D01*
X141389529Y-145295460D01*
X141414137Y-145295460D01*
X141434167Y-145293539D01*
X141443171Y-145289323D01*
X141448322Y-145281261D01*
X141451720Y-145265021D01*
X141454409Y-145223986D01*
X141455475Y-145162775D01*
X141455475Y-144992813D01*
X141454437Y-144898077D01*
X141452478Y-144879906D01*
X141449155Y-144870905D01*
X141443646Y-144864103D01*
X141435661Y-144857746D01*
X141425655Y-144853536D01*
X141410717Y-144851915D01*
X141389529Y-144851915D01*
X141389529Y-144830422D01*
X141455811Y-144832376D01*
X141509758Y-144830422D01*
X141573475Y-144911052D01*
X141635451Y-144989943D01*
X141752291Y-145133710D01*
X141843485Y-145241208D01*
X141843485Y-145021389D01*
X141841511Y-144897233D01*
X141838509Y-144870600D01*
X141833441Y-144864156D01*
X141821711Y-144858501D01*
X141799064Y-144854327D01*
X141773449Y-144851915D01*
X141773449Y-144830422D01*
X141858842Y-144832376D01*
X141940816Y-144830422D01*
X141940816Y-144851915D01*
X141914529Y-144851915D01*
X141894923Y-144854736D01*
X141883644Y-144861867D01*
X141877984Y-144873073D01*
X141876109Y-144900539D01*
X141874901Y-145022488D01*
X141874901Y-145176361D01*
X141876158Y-145241498D01*
X141880366Y-145324769D01*
X141826388Y-145314877D01*
X141812039Y-145304680D01*
X141732446Y-145210586D01*
X141486891Y-144904488D01*
G37*
G36*
X141951379Y-145367756D02*
G01*
X142309317Y-145367756D01*
X142309317Y-145402927D01*
X141951379Y-145402927D01*
X141951379Y-145367756D01*
G37*
G36*
X142327086Y-144957428D02*
G01*
X142345526Y-144874813D01*
X142369466Y-144852630D01*
X142397092Y-144837047D01*
X142428150Y-144827802D01*
X142464412Y-144824560D01*
X142493057Y-144826625D01*
X142517271Y-144832444D01*
X142537801Y-144841648D01*
X142555239Y-144854144D01*
X142570100Y-144870066D01*
X142580417Y-144887307D01*
X142586612Y-144906183D01*
X142588731Y-144927172D01*
X142585139Y-144955454D01*
X142574382Y-144981730D01*
X142563357Y-144997592D01*
X142544714Y-145017809D01*
X142515977Y-145043401D01*
X142537833Y-145045481D01*
X142561071Y-145051980D01*
X142581264Y-145061675D01*
X142597273Y-145073751D01*
X142609706Y-145088251D01*
X142618757Y-145105088D01*
X142624337Y-145124312D01*
X142626284Y-145146472D01*
X142622728Y-145179478D01*
X142612093Y-145210682D01*
X142593930Y-145240754D01*
X142567177Y-145270150D01*
X142536042Y-145294151D01*
X142502545Y-145311049D01*
X142466149Y-145321271D01*
X142426127Y-145324769D01*
X142405066Y-145323649D01*
X142384117Y-145320281D01*
X142363448Y-145314731D01*
X142342443Y-145306848D01*
X142332856Y-145263018D01*
X142314782Y-145203747D01*
X142333558Y-145195809D01*
X142355089Y-145241229D01*
X142368241Y-145261541D01*
X142383137Y-145275326D01*
X142402557Y-145286301D01*
X142425054Y-145293020D01*
X142453451Y-145295460D01*
X142478709Y-145293286D01*
X142499986Y-145287136D01*
X142518031Y-145277297D01*
X142533380Y-145263678D01*
X142545412Y-145247090D01*
X142554345Y-145227164D01*
X142560041Y-145203236D01*
X142562078Y-145174468D01*
X142559066Y-145143020D01*
X142550784Y-145118497D01*
X142537807Y-145099364D01*
X142520124Y-145084693D01*
X142499064Y-145075819D01*
X142473601Y-145072711D01*
X142453479Y-145074529D01*
X142431976Y-145080219D01*
X142408724Y-145090296D01*
X142403931Y-145086816D01*
X142410434Y-145047309D01*
X142437423Y-145049263D01*
X142464147Y-145046236D01*
X142486539Y-145037587D01*
X142505566Y-145023374D01*
X142520091Y-145004655D01*
X142528933Y-144982406D01*
X142532036Y-144955596D01*
X142529302Y-144931108D01*
X142521569Y-144911053D01*
X142508986Y-144894444D01*
X142492364Y-144881851D01*
X142472569Y-144874159D01*
X142448688Y-144871454D01*
X142424610Y-144874106D01*
X142401366Y-144882110D01*
X142380800Y-144894070D01*
X142367722Y-144906320D01*
X142363419Y-144914176D01*
X142356120Y-144933736D01*
X142348274Y-144957428D01*
X142327086Y-144957428D01*
G37*
G36*
X138680092Y-145309392D02*
G01*
X138703295Y-145358607D01*
X138709716Y-145365902D01*
X138716637Y-145370514D01*
X138726500Y-145373168D01*
X138750434Y-145375460D01*
X138750434Y-145396953D01*
X138665712Y-145395000D01*
X138565664Y-145396953D01*
X138565664Y-145375460D01*
X138599461Y-145373415D01*
X138615743Y-145371436D01*
X138620985Y-145369659D01*
X138624862Y-145365359D01*
X138626114Y-145360134D01*
X138624400Y-145351821D01*
X138615856Y-145328138D01*
X138578304Y-145232822D01*
X138380864Y-145232822D01*
X138357661Y-145288326D01*
X138338523Y-145338181D01*
X138334763Y-145355035D01*
X138335939Y-145362040D01*
X138339037Y-145366270D01*
X138345038Y-145368907D01*
X138360714Y-145371705D01*
X138393504Y-145375460D01*
X138393504Y-145396953D01*
X138319742Y-145395000D01*
X138233311Y-145396953D01*
X138233311Y-145375460D01*
X138243569Y-145375124D01*
X138265308Y-145373201D01*
X138274466Y-145370209D01*
X138280876Y-145363928D01*
X138289334Y-145349234D01*
X138338854Y-145243294D01*
X138355599Y-145205467D01*
X138393504Y-145205467D01*
X138565664Y-145205467D01*
X138479599Y-145000608D01*
X138393504Y-145205467D01*
X138355599Y-145205467D01*
X138432796Y-145031078D01*
X138466888Y-144952194D01*
X138484026Y-144908468D01*
X138507260Y-144908468D01*
X138680092Y-145309392D01*
G37*
G36*
X138876891Y-144984488D02*
G01*
X138876891Y-145222717D01*
X138877843Y-145297927D01*
X138879974Y-145336168D01*
X138883793Y-145358005D01*
X138887973Y-145365965D01*
X138896446Y-145369931D01*
X138920610Y-145373750D01*
X138942470Y-145375460D01*
X138942470Y-145396953D01*
X138875181Y-145395000D01*
X138779529Y-145396953D01*
X138779529Y-145375460D01*
X138804137Y-145375460D01*
X138824167Y-145373539D01*
X138833171Y-145369323D01*
X138838322Y-145361261D01*
X138841720Y-145345021D01*
X138844409Y-145303986D01*
X138845475Y-145242775D01*
X138845475Y-145072813D01*
X138844437Y-144978077D01*
X138842478Y-144959906D01*
X138839155Y-144950905D01*
X138833646Y-144944103D01*
X138825661Y-144937746D01*
X138815655Y-144933536D01*
X138800717Y-144931915D01*
X138779529Y-144931915D01*
X138779529Y-144910422D01*
X138845811Y-144912376D01*
X138899758Y-144910422D01*
X138963475Y-144991052D01*
X139025451Y-145069943D01*
X139142291Y-145213710D01*
X139233485Y-145321208D01*
X139233485Y-145101389D01*
X139231511Y-144977233D01*
X139228509Y-144950600D01*
X139223441Y-144944156D01*
X139211711Y-144938501D01*
X139189064Y-144934327D01*
X139163449Y-144931915D01*
X139163449Y-144910422D01*
X139248842Y-144912376D01*
X139330816Y-144910422D01*
X139330816Y-144931915D01*
X139304529Y-144931915D01*
X139284923Y-144934736D01*
X139273644Y-144941867D01*
X139267984Y-144953073D01*
X139266109Y-144980539D01*
X139264901Y-145102488D01*
X139264901Y-145256361D01*
X139266158Y-145321498D01*
X139270366Y-145404769D01*
X139216388Y-145394877D01*
X139202039Y-145384680D01*
X139122446Y-145290586D01*
X138876891Y-144984488D01*
G37*
G36*
X139341379Y-145447756D02*
G01*
X139699317Y-145447756D01*
X139699317Y-145482927D01*
X139341379Y-145482927D01*
X139341379Y-145447756D01*
G37*
G36*
X139709240Y-145396953D02*
G01*
X139709240Y-145378269D01*
X139827423Y-145255354D01*
X139871344Y-145206977D01*
X139900140Y-145169891D01*
X139917396Y-145141903D01*
X139930510Y-145112130D01*
X139937809Y-145085330D01*
X139940110Y-145060936D01*
X139936943Y-145031171D01*
X139928029Y-145006925D01*
X139913640Y-144986992D01*
X139894434Y-144971797D01*
X139871411Y-144962531D01*
X139843451Y-144959270D01*
X139815727Y-144961891D01*
X139791550Y-144969437D01*
X139776717Y-144978213D01*
X139767644Y-144988091D01*
X139760494Y-145004419D01*
X139746456Y-145051106D01*
X139725635Y-145051106D01*
X139734369Y-144989594D01*
X139737236Y-144955668D01*
X139764364Y-144932220D01*
X139792557Y-144916741D01*
X139823595Y-144907725D01*
X139859846Y-144904560D01*
X139892726Y-144907132D01*
X139920715Y-144914416D01*
X139944668Y-144926036D01*
X139965237Y-144941990D01*
X139982166Y-144961888D01*
X139994270Y-144984499D01*
X140001738Y-145010358D01*
X140004346Y-145040206D01*
X140000600Y-145074241D01*
X139989106Y-145108412D01*
X139968992Y-145143399D01*
X139943558Y-145175988D01*
X139905122Y-145217829D01*
X139850290Y-145270833D01*
X139784375Y-145338335D01*
X139909061Y-145338335D01*
X139983282Y-145337188D01*
X140027916Y-145334427D01*
X140031335Y-145337450D01*
X140028251Y-145364683D01*
X140031335Y-145394938D01*
X140027916Y-145396953D01*
X139877645Y-145395000D01*
X139709240Y-145396953D01*
G37*
G36*
X163953145Y-141462276D02*
G01*
X164000427Y-141469337D01*
X164031160Y-141477907D01*
X164059745Y-141490717D01*
X164086492Y-141507896D01*
X164110245Y-141528911D01*
X164129747Y-141553037D01*
X164145263Y-141580589D01*
X164156212Y-141610348D01*
X164163034Y-141643787D01*
X164165413Y-141681523D01*
X164162140Y-141727393D01*
X164152647Y-141768865D01*
X164137182Y-141806635D01*
X164115670Y-141841268D01*
X164087713Y-141873162D01*
X164055338Y-141900004D01*
X164019424Y-141920931D01*
X163979473Y-141936164D01*
X163934819Y-141945620D01*
X163884656Y-141948907D01*
X163842646Y-141947747D01*
X163764427Y-141945000D01*
X163694055Y-141946953D01*
X163694055Y-141929368D01*
X163725837Y-141910653D01*
X163729620Y-141848026D01*
X163731302Y-141726219D01*
X163731302Y-141627545D01*
X163730240Y-141571430D01*
X163795507Y-141571430D01*
X163795507Y-141794943D01*
X163796566Y-141855850D01*
X163799598Y-141910806D01*
X163844469Y-141916058D01*
X163880901Y-141917644D01*
X163928733Y-141914165D01*
X163968554Y-141904424D01*
X164001764Y-141889116D01*
X164029461Y-141868429D01*
X164051585Y-141843512D01*
X164069125Y-141814372D01*
X164082150Y-141780364D01*
X164090406Y-141740628D01*
X164093331Y-141694132D01*
X164090880Y-141653451D01*
X164083971Y-141618717D01*
X164073099Y-141589041D01*
X164058514Y-141563671D01*
X164040208Y-141542029D01*
X164018348Y-141524110D01*
X163992566Y-141509761D01*
X163962241Y-141499018D01*
X163926581Y-141492167D01*
X163884656Y-141489731D01*
X163847252Y-141491376D01*
X163799598Y-141496905D01*
X163796593Y-141530813D01*
X163795507Y-141571430D01*
X163730240Y-141571430D01*
X163730195Y-141569060D01*
X163727211Y-141523101D01*
X163723796Y-141500300D01*
X163720860Y-141493486D01*
X163714314Y-141490275D01*
X163692681Y-141486006D01*
X163665356Y-141481915D01*
X163665356Y-141460422D01*
X163741194Y-141462376D01*
X163833060Y-141461734D01*
X163907859Y-141460422D01*
X163953145Y-141462276D01*
G37*
G36*
X164442445Y-141489731D02*
G01*
X164439654Y-141541901D01*
X164438690Y-141598236D01*
X164438690Y-141793966D01*
X164440825Y-141892153D01*
X164444155Y-141914316D01*
X164449279Y-141919603D01*
X164460822Y-141923683D01*
X164483081Y-141925460D01*
X164508696Y-141925460D01*
X164508696Y-141946953D01*
X164406236Y-141945000D01*
X164304448Y-141946953D01*
X164304448Y-141925460D01*
X164333147Y-141925460D01*
X164353483Y-141923566D01*
X164362486Y-141919446D01*
X164367652Y-141911585D01*
X164371035Y-141895937D01*
X164373501Y-141852797D01*
X164374454Y-141792226D01*
X164374454Y-141596160D01*
X164372073Y-141489731D01*
X164337238Y-141489731D01*
X164261333Y-141491272D01*
X164244303Y-141493669D01*
X164238089Y-141501138D01*
X164233068Y-141524169D01*
X164228275Y-141569842D01*
X164206751Y-141569842D01*
X164207453Y-141529909D01*
X164203332Y-141460422D01*
X164420219Y-141462376D01*
X164609111Y-141460422D01*
X164603958Y-141516705D01*
X164601600Y-141569842D01*
X164580412Y-141569842D01*
X164576993Y-141525177D01*
X164573984Y-141504423D01*
X164571192Y-141497760D01*
X164566042Y-141494604D01*
X164554461Y-141492448D01*
X164469098Y-141489731D01*
X164442445Y-141489731D01*
G37*
G36*
X164890112Y-141699810D02*
G01*
X164973124Y-141812101D01*
X165038703Y-141897372D01*
X165055168Y-141916649D01*
X165061906Y-141922377D01*
X165073874Y-141925460D01*
X165082759Y-141925460D01*
X165082759Y-141946953D01*
X165033238Y-141945000D01*
X164992236Y-141946953D01*
X164871336Y-141783341D01*
X164836427Y-141738802D01*
X164798918Y-141695017D01*
X164802337Y-141683415D01*
X164831707Y-141685125D01*
X164860217Y-141683061D01*
X164884102Y-141677268D01*
X164904156Y-141668141D01*
X164921009Y-141655785D01*
X164934995Y-141640085D01*
X164944983Y-141622106D01*
X164951151Y-141601399D01*
X164953310Y-141577322D01*
X164950042Y-141549197D01*
X164940869Y-141526723D01*
X164925985Y-141508599D01*
X164906329Y-141495455D01*
X164880621Y-141486979D01*
X164847095Y-141483869D01*
X164811471Y-141487225D01*
X164775013Y-141497547D01*
X164771979Y-141552763D01*
X164770922Y-141613654D01*
X164770922Y-141778609D01*
X164773168Y-141887068D01*
X164776722Y-141912332D01*
X164782196Y-141918789D01*
X164793547Y-141923482D01*
X164814305Y-141925460D01*
X164840928Y-141925460D01*
X164840928Y-141946953D01*
X164746986Y-141945000D01*
X164640771Y-141946953D01*
X164640771Y-141925460D01*
X164666386Y-141925460D01*
X164685469Y-141923556D01*
X164696033Y-141919002D01*
X164701221Y-141912637D01*
X164704557Y-141887562D01*
X164706686Y-141777724D01*
X164706686Y-141613226D01*
X164704274Y-141517888D01*
X164700366Y-141494585D01*
X164694572Y-141488471D01*
X164682224Y-141483880D01*
X164659211Y-141481915D01*
X164640771Y-141481915D01*
X164640771Y-141460422D01*
X164737766Y-141462376D01*
X164802673Y-141460422D01*
X164873381Y-141458468D01*
X164913006Y-141460164D01*
X164942147Y-141464608D01*
X164963019Y-141470985D01*
X164982258Y-141480873D01*
X164997566Y-141492916D01*
X165009486Y-141507164D01*
X165018156Y-141523574D01*
X165023499Y-141542250D01*
X165025362Y-141563706D01*
X165023196Y-141587155D01*
X165016799Y-141608945D01*
X165006088Y-141629484D01*
X164990679Y-141649069D01*
X164972423Y-141665368D01*
X164950038Y-141679336D01*
X164922871Y-141690900D01*
X164890112Y-141699810D01*
G37*
G36*
X156540715Y-141519731D02*
G01*
X156537923Y-141571901D01*
X156536960Y-141628236D01*
X156536960Y-141823966D01*
X156539094Y-141922153D01*
X156542424Y-141944316D01*
X156547548Y-141949603D01*
X156559091Y-141953683D01*
X156581351Y-141955460D01*
X156606966Y-141955460D01*
X156606966Y-141976953D01*
X156504506Y-141975000D01*
X156402718Y-141976953D01*
X156402718Y-141955460D01*
X156431416Y-141955460D01*
X156451752Y-141953566D01*
X156460756Y-141949446D01*
X156465922Y-141941585D01*
X156469304Y-141925937D01*
X156471771Y-141882797D01*
X156472724Y-141822226D01*
X156472724Y-141626160D01*
X156470342Y-141519731D01*
X156435507Y-141519731D01*
X156359603Y-141521272D01*
X156342573Y-141523669D01*
X156336358Y-141531138D01*
X156331338Y-141554169D01*
X156326544Y-141599842D01*
X156305020Y-141599842D01*
X156305723Y-141559909D01*
X156301601Y-141490422D01*
X156518489Y-141492376D01*
X156707380Y-141490422D01*
X156702228Y-141546705D01*
X156699870Y-141599842D01*
X156678681Y-141599842D01*
X156675262Y-141555177D01*
X156672254Y-141534423D01*
X156669461Y-141527760D01*
X156664312Y-141524604D01*
X156652731Y-141522448D01*
X156567368Y-141519731D01*
X156540715Y-141519731D01*
G37*
G36*
X156925184Y-141733138D02*
G01*
X156873954Y-141646401D01*
X156839807Y-141591976D01*
X156814214Y-141556655D01*
X156795399Y-141535515D01*
X156777735Y-141523453D01*
X156760228Y-141519731D01*
X156738704Y-141521685D01*
X156738704Y-141502145D01*
X156839118Y-141486514D01*
X156854816Y-141500819D01*
X156867634Y-141515487D01*
X156909125Y-141581097D01*
X156967193Y-141678000D01*
X157094932Y-141490422D01*
X157165976Y-141490422D01*
X157165976Y-141509961D01*
X157152665Y-141509961D01*
X157139600Y-141511262D01*
X157130958Y-141514602D01*
X157120403Y-141524942D01*
X157084705Y-141569007D01*
X157017552Y-141656860D01*
X156982916Y-141704653D01*
X157094932Y-141888171D01*
X157126712Y-141937338D01*
X157137125Y-141950392D01*
X157146388Y-141955497D01*
X157160176Y-141957414D01*
X157174525Y-141957414D01*
X157174525Y-141976953D01*
X157114075Y-141975000D01*
X157071729Y-141976953D01*
X156943624Y-141759638D01*
X156913566Y-141801798D01*
X156867451Y-141871715D01*
X156823738Y-141941438D01*
X156803245Y-141976953D01*
X156771158Y-141975000D01*
X156730156Y-141976953D01*
X156730156Y-141957414D01*
X156745512Y-141957414D01*
X156758450Y-141955254D01*
X156768410Y-141949079D01*
X156783067Y-141930893D01*
X156843210Y-141847291D01*
X156925184Y-141733138D01*
G37*
G36*
X161539491Y-141699810D02*
G01*
X161622503Y-141812101D01*
X161688082Y-141897372D01*
X161704547Y-141916649D01*
X161711285Y-141922377D01*
X161723253Y-141925460D01*
X161732137Y-141925460D01*
X161732137Y-141946953D01*
X161682617Y-141945000D01*
X161641615Y-141946953D01*
X161520715Y-141783341D01*
X161485806Y-141738802D01*
X161448297Y-141695017D01*
X161451716Y-141683415D01*
X161481086Y-141685125D01*
X161509596Y-141683061D01*
X161533481Y-141677268D01*
X161553535Y-141668141D01*
X161570388Y-141655785D01*
X161584373Y-141640085D01*
X161594361Y-141622106D01*
X161600530Y-141601399D01*
X161602689Y-141577322D01*
X161599421Y-141549197D01*
X161590248Y-141526723D01*
X161575364Y-141508599D01*
X161555708Y-141495455D01*
X161530000Y-141486979D01*
X161496474Y-141483869D01*
X161460850Y-141487225D01*
X161424392Y-141497547D01*
X161421358Y-141552763D01*
X161420300Y-141613654D01*
X161420300Y-141778609D01*
X161422547Y-141887068D01*
X161426101Y-141912332D01*
X161431575Y-141918789D01*
X161442925Y-141923482D01*
X161463684Y-141925460D01*
X161490307Y-141925460D01*
X161490307Y-141946953D01*
X161396365Y-141945000D01*
X161290150Y-141946953D01*
X161290150Y-141925460D01*
X161315765Y-141925460D01*
X161334848Y-141923556D01*
X161345412Y-141919002D01*
X161350600Y-141912637D01*
X161353936Y-141887562D01*
X161356065Y-141777724D01*
X161356065Y-141613226D01*
X161353653Y-141517888D01*
X161349745Y-141494585D01*
X161343951Y-141488471D01*
X161331603Y-141483880D01*
X161308590Y-141481915D01*
X161290150Y-141481915D01*
X161290150Y-141460422D01*
X161387144Y-141462376D01*
X161452052Y-141460422D01*
X161522760Y-141458468D01*
X161562385Y-141460164D01*
X161591526Y-141464608D01*
X161612397Y-141470985D01*
X161631637Y-141480873D01*
X161646944Y-141492916D01*
X161658865Y-141507164D01*
X161667535Y-141523574D01*
X161672878Y-141542250D01*
X161674740Y-141563706D01*
X161672575Y-141587155D01*
X161666178Y-141608945D01*
X161655467Y-141629484D01*
X161640058Y-141649069D01*
X161621802Y-141665368D01*
X161599417Y-141679336D01*
X161572250Y-141690900D01*
X161539491Y-141699810D01*
G37*
G36*
X162065376Y-141482251D02*
G01*
X162058343Y-141520362D01*
X162055118Y-141575704D01*
X162031549Y-141575704D01*
X162031549Y-141548624D01*
X162029350Y-141524576D01*
X162024374Y-141512751D01*
X162013778Y-141504275D01*
X161986974Y-141492601D01*
X161956105Y-141484614D01*
X161923288Y-141481915D01*
X161887864Y-141485337D01*
X161859754Y-141494816D01*
X161837376Y-141509789D01*
X161820035Y-141530113D01*
X161809712Y-141553623D01*
X161806143Y-141581352D01*
X161809468Y-141607416D01*
X161818935Y-141628674D01*
X161833988Y-141645724D01*
X161853435Y-141657251D01*
X161881265Y-141664366D01*
X161945484Y-141672333D01*
X162010017Y-141681429D01*
X162040616Y-141690529D01*
X162055908Y-141699523D01*
X162069043Y-141711538D01*
X162080214Y-141726921D01*
X162088310Y-141744179D01*
X162093329Y-141763800D01*
X162095082Y-141786272D01*
X162091547Y-141819324D01*
X162081095Y-141849685D01*
X162063450Y-141878088D01*
X162037685Y-141905005D01*
X162007822Y-141926096D01*
X161973026Y-141941576D01*
X161932374Y-141951323D01*
X161884698Y-141954769D01*
X161851918Y-141953119D01*
X161818599Y-141948114D01*
X161785451Y-141939964D01*
X161751494Y-141928513D01*
X161755845Y-141884857D01*
X161757295Y-141823855D01*
X161780528Y-141823855D01*
X161780528Y-141840860D01*
X161781691Y-141870741D01*
X161783948Y-141881618D01*
X161789051Y-141889036D01*
X161800006Y-141898288D01*
X161820141Y-141909768D01*
X161844733Y-141918499D01*
X161871324Y-141923671D01*
X161900757Y-141925460D01*
X161933241Y-141923265D01*
X161960070Y-141917154D01*
X161982217Y-141907630D01*
X162000469Y-141894899D01*
X162015999Y-141878418D01*
X162026849Y-141860263D01*
X162033411Y-141840072D01*
X162035670Y-141817291D01*
X162032525Y-141791333D01*
X162023702Y-141770763D01*
X162009455Y-141754228D01*
X161990241Y-141742431D01*
X161964048Y-141735098D01*
X161910648Y-141728356D01*
X161858394Y-141722646D01*
X161825237Y-141716253D01*
X161805777Y-141709794D01*
X161788659Y-141699967D01*
X161774289Y-141687081D01*
X161762393Y-141670837D01*
X161753949Y-141652458D01*
X161748602Y-141630654D01*
X161746700Y-141604708D01*
X161749827Y-141572168D01*
X161758867Y-141543560D01*
X161773722Y-141518082D01*
X161794847Y-141495196D01*
X161819929Y-141477301D01*
X161849828Y-141464044D01*
X161885485Y-141455613D01*
X161928081Y-141452606D01*
X161962147Y-141454426D01*
X161996530Y-141459933D01*
X162030627Y-141469083D01*
X162065376Y-141482251D01*
G37*
G36*
X162355537Y-141489731D02*
G01*
X162352745Y-141541901D01*
X162351782Y-141598236D01*
X162351782Y-141793966D01*
X162353916Y-141892153D01*
X162357247Y-141914316D01*
X162362370Y-141919603D01*
X162373913Y-141923683D01*
X162396173Y-141925460D01*
X162421788Y-141925460D01*
X162421788Y-141946953D01*
X162319328Y-141945000D01*
X162217540Y-141946953D01*
X162217540Y-141925460D01*
X162246238Y-141925460D01*
X162266574Y-141923566D01*
X162275578Y-141919446D01*
X162280744Y-141911585D01*
X162284126Y-141895937D01*
X162286593Y-141852797D01*
X162287546Y-141792226D01*
X162287546Y-141596160D01*
X162285164Y-141489731D01*
X162250329Y-141489731D01*
X162174425Y-141491272D01*
X162157395Y-141493669D01*
X162151180Y-141501138D01*
X162146160Y-141524169D01*
X162141366Y-141569842D01*
X162119842Y-141569842D01*
X162120545Y-141529909D01*
X162116423Y-141460422D01*
X162333311Y-141462376D01*
X162522202Y-141460422D01*
X162517050Y-141516705D01*
X162514692Y-141569842D01*
X162493504Y-141569842D01*
X162490084Y-141525177D01*
X162487076Y-141504423D01*
X162484283Y-141497760D01*
X162479134Y-141494604D01*
X162467553Y-141492448D01*
X162382190Y-141489731D01*
X162355537Y-141489731D01*
G37*
D11*
X129354819Y-94563333D02*
X130069104Y-94563333D01*
X130069104Y-94563333D02*
X130211961Y-94610952D01*
X130211961Y-94610952D02*
X130307200Y-94706190D01*
X130307200Y-94706190D02*
X130354819Y-94849047D01*
X130354819Y-94849047D02*
X130354819Y-94944285D01*
X129354819Y-93610952D02*
X129354819Y-94087142D01*
X129354819Y-94087142D02*
X129831009Y-94134761D01*
X129831009Y-94134761D02*
X129783390Y-94087142D01*
X129783390Y-94087142D02*
X129735771Y-93991904D01*
X129735771Y-93991904D02*
X129735771Y-93753809D01*
X129735771Y-93753809D02*
X129783390Y-93658571D01*
X129783390Y-93658571D02*
X129831009Y-93610952D01*
X129831009Y-93610952D02*
X129926247Y-93563333D01*
X129926247Y-93563333D02*
X130164342Y-93563333D01*
X130164342Y-93563333D02*
X130259580Y-93610952D01*
X130259580Y-93610952D02*
X130307200Y-93658571D01*
X130307200Y-93658571D02*
X130354819Y-93753809D01*
X130354819Y-93753809D02*
X130354819Y-93991904D01*
X130354819Y-93991904D02*
X130307200Y-94087142D01*
X130307200Y-94087142D02*
X130259580Y-94134761D01*
X162194819Y-97133333D02*
X162909104Y-97133333D01*
X162909104Y-97133333D02*
X163051961Y-97180952D01*
X163051961Y-97180952D02*
X163147200Y-97276190D01*
X163147200Y-97276190D02*
X163194819Y-97419047D01*
X163194819Y-97419047D02*
X163194819Y-97514285D01*
X162528152Y-96228571D02*
X163194819Y-96228571D01*
X162147200Y-96466666D02*
X162861485Y-96704761D01*
X162861485Y-96704761D02*
X162861485Y-96085714D01*
X133584819Y-143413333D02*
X134299104Y-143413333D01*
X134299104Y-143413333D02*
X134441961Y-143460952D01*
X134441961Y-143460952D02*
X134537200Y-143556190D01*
X134537200Y-143556190D02*
X134584819Y-143699047D01*
X134584819Y-143699047D02*
X134584819Y-143794285D01*
X133680057Y-142984761D02*
X133632438Y-142937142D01*
X133632438Y-142937142D02*
X133584819Y-142841904D01*
X133584819Y-142841904D02*
X133584819Y-142603809D01*
X133584819Y-142603809D02*
X133632438Y-142508571D01*
X133632438Y-142508571D02*
X133680057Y-142460952D01*
X133680057Y-142460952D02*
X133775295Y-142413333D01*
X133775295Y-142413333D02*
X133870533Y-142413333D01*
X133870533Y-142413333D02*
X134013390Y-142460952D01*
X134013390Y-142460952D02*
X134584819Y-143032380D01*
X134584819Y-143032380D02*
X134584819Y-142413333D01*
X138119819Y-138039404D02*
X138929342Y-138039404D01*
X138929342Y-138039404D02*
X139024580Y-137991785D01*
X139024580Y-137991785D02*
X139072200Y-137944166D01*
X139072200Y-137944166D02*
X139119819Y-137848928D01*
X139119819Y-137848928D02*
X139119819Y-137658452D01*
X139119819Y-137658452D02*
X139072200Y-137563214D01*
X139072200Y-137563214D02*
X139024580Y-137515595D01*
X139024580Y-137515595D02*
X138929342Y-137467976D01*
X138929342Y-137467976D02*
X138119819Y-137467976D01*
X138119819Y-136515595D02*
X138119819Y-136991785D01*
X138119819Y-136991785D02*
X138596009Y-137039404D01*
X138596009Y-137039404D02*
X138548390Y-136991785D01*
X138548390Y-136991785D02*
X138500771Y-136896547D01*
X138500771Y-136896547D02*
X138500771Y-136658452D01*
X138500771Y-136658452D02*
X138548390Y-136563214D01*
X138548390Y-136563214D02*
X138596009Y-136515595D01*
X138596009Y-136515595D02*
X138691247Y-136467976D01*
X138691247Y-136467976D02*
X138929342Y-136467976D01*
X138929342Y-136467976D02*
X139024580Y-136515595D01*
X139024580Y-136515595D02*
X139072200Y-136563214D01*
X139072200Y-136563214D02*
X139119819Y-136658452D01*
X139119819Y-136658452D02*
X139119819Y-136896547D01*
X139119819Y-136896547D02*
X139072200Y-136991785D01*
X139072200Y-136991785D02*
X139024580Y-137039404D01*
X106591905Y-124744819D02*
X106591905Y-123744819D01*
X106591905Y-123744819D02*
X106830000Y-123744819D01*
X106830000Y-123744819D02*
X106972857Y-123792438D01*
X106972857Y-123792438D02*
X107068095Y-123887676D01*
X107068095Y-123887676D02*
X107115714Y-123982914D01*
X107115714Y-123982914D02*
X107163333Y-124173390D01*
X107163333Y-124173390D02*
X107163333Y-124316247D01*
X107163333Y-124316247D02*
X107115714Y-124506723D01*
X107115714Y-124506723D02*
X107068095Y-124601961D01*
X107068095Y-124601961D02*
X106972857Y-124697200D01*
X106972857Y-124697200D02*
X106830000Y-124744819D01*
X106830000Y-124744819D02*
X106591905Y-124744819D01*
X107544286Y-123840057D02*
X107591905Y-123792438D01*
X107591905Y-123792438D02*
X107687143Y-123744819D01*
X107687143Y-123744819D02*
X107925238Y-123744819D01*
X107925238Y-123744819D02*
X108020476Y-123792438D01*
X108020476Y-123792438D02*
X108068095Y-123840057D01*
X108068095Y-123840057D02*
X108115714Y-123935295D01*
X108115714Y-123935295D02*
X108115714Y-124030533D01*
X108115714Y-124030533D02*
X108068095Y-124173390D01*
X108068095Y-124173390D02*
X107496667Y-124744819D01*
X107496667Y-124744819D02*
X108115714Y-124744819D01*
X44374819Y-139004404D02*
X45184342Y-139004404D01*
X45184342Y-139004404D02*
X45279580Y-138956785D01*
X45279580Y-138956785D02*
X45327200Y-138909166D01*
X45327200Y-138909166D02*
X45374819Y-138813928D01*
X45374819Y-138813928D02*
X45374819Y-138623452D01*
X45374819Y-138623452D02*
X45327200Y-138528214D01*
X45327200Y-138528214D02*
X45279580Y-138480595D01*
X45279580Y-138480595D02*
X45184342Y-138432976D01*
X45184342Y-138432976D02*
X44374819Y-138432976D01*
X45374819Y-137432976D02*
X45374819Y-138004404D01*
X45374819Y-137718690D02*
X44374819Y-137718690D01*
X44374819Y-137718690D02*
X44517676Y-137813928D01*
X44517676Y-137813928D02*
X44612914Y-137909166D01*
X44612914Y-137909166D02*
X44660533Y-138004404D01*
X73754819Y-138941904D02*
X74564342Y-138941904D01*
X74564342Y-138941904D02*
X74659580Y-138894285D01*
X74659580Y-138894285D02*
X74707200Y-138846666D01*
X74707200Y-138846666D02*
X74754819Y-138751428D01*
X74754819Y-138751428D02*
X74754819Y-138560952D01*
X74754819Y-138560952D02*
X74707200Y-138465714D01*
X74707200Y-138465714D02*
X74659580Y-138418095D01*
X74659580Y-138418095D02*
X74564342Y-138370476D01*
X74564342Y-138370476D02*
X73754819Y-138370476D01*
X73850057Y-137941904D02*
X73802438Y-137894285D01*
X73802438Y-137894285D02*
X73754819Y-137799047D01*
X73754819Y-137799047D02*
X73754819Y-137560952D01*
X73754819Y-137560952D02*
X73802438Y-137465714D01*
X73802438Y-137465714D02*
X73850057Y-137418095D01*
X73850057Y-137418095D02*
X73945295Y-137370476D01*
X73945295Y-137370476D02*
X74040533Y-137370476D01*
X74040533Y-137370476D02*
X74183390Y-137418095D01*
X74183390Y-137418095D02*
X74754819Y-137989523D01*
X74754819Y-137989523D02*
X74754819Y-137370476D01*
X106631905Y-105174819D02*
X106631905Y-104174819D01*
X106631905Y-104174819D02*
X106870000Y-104174819D01*
X106870000Y-104174819D02*
X107012857Y-104222438D01*
X107012857Y-104222438D02*
X107108095Y-104317676D01*
X107108095Y-104317676D02*
X107155714Y-104412914D01*
X107155714Y-104412914D02*
X107203333Y-104603390D01*
X107203333Y-104603390D02*
X107203333Y-104746247D01*
X107203333Y-104746247D02*
X107155714Y-104936723D01*
X107155714Y-104936723D02*
X107108095Y-105031961D01*
X107108095Y-105031961D02*
X107012857Y-105127200D01*
X107012857Y-105127200D02*
X106870000Y-105174819D01*
X106870000Y-105174819D02*
X106631905Y-105174819D01*
X108155714Y-105174819D02*
X107584286Y-105174819D01*
X107870000Y-105174819D02*
X107870000Y-104174819D01*
X107870000Y-104174819D02*
X107774762Y-104317676D01*
X107774762Y-104317676D02*
X107679524Y-104412914D01*
X107679524Y-104412914D02*
X107584286Y-104460533D01*
X108864819Y-139276904D02*
X109674342Y-139276904D01*
X109674342Y-139276904D02*
X109769580Y-139229285D01*
X109769580Y-139229285D02*
X109817200Y-139181666D01*
X109817200Y-139181666D02*
X109864819Y-139086428D01*
X109864819Y-139086428D02*
X109864819Y-138895952D01*
X109864819Y-138895952D02*
X109817200Y-138800714D01*
X109817200Y-138800714D02*
X109769580Y-138753095D01*
X109769580Y-138753095D02*
X109674342Y-138705476D01*
X109674342Y-138705476D02*
X108864819Y-138705476D01*
X108864819Y-138324523D02*
X108864819Y-137705476D01*
X108864819Y-137705476D02*
X109245771Y-138038809D01*
X109245771Y-138038809D02*
X109245771Y-137895952D01*
X109245771Y-137895952D02*
X109293390Y-137800714D01*
X109293390Y-137800714D02*
X109341009Y-137753095D01*
X109341009Y-137753095D02*
X109436247Y-137705476D01*
X109436247Y-137705476D02*
X109674342Y-137705476D01*
X109674342Y-137705476D02*
X109769580Y-137753095D01*
X109769580Y-137753095D02*
X109817200Y-137800714D01*
X109817200Y-137800714D02*
X109864819Y-137895952D01*
X109864819Y-137895952D02*
X109864819Y-138181666D01*
X109864819Y-138181666D02*
X109817200Y-138276904D01*
X109817200Y-138276904D02*
X109769580Y-138324523D01*
X166234819Y-144133333D02*
X166949104Y-144133333D01*
X166949104Y-144133333D02*
X167091961Y-144180952D01*
X167091961Y-144180952D02*
X167187200Y-144276190D01*
X167187200Y-144276190D02*
X167234819Y-144419047D01*
X167234819Y-144419047D02*
X167234819Y-144514285D01*
X166234819Y-143752380D02*
X166234819Y-143133333D01*
X166234819Y-143133333D02*
X166615771Y-143466666D01*
X166615771Y-143466666D02*
X166615771Y-143323809D01*
X166615771Y-143323809D02*
X166663390Y-143228571D01*
X166663390Y-143228571D02*
X166711009Y-143180952D01*
X166711009Y-143180952D02*
X166806247Y-143133333D01*
X166806247Y-143133333D02*
X167044342Y-143133333D01*
X167044342Y-143133333D02*
X167139580Y-143180952D01*
X167139580Y-143180952D02*
X167187200Y-143228571D01*
X167187200Y-143228571D02*
X167234819Y-143323809D01*
X167234819Y-143323809D02*
X167234819Y-143609523D01*
X167234819Y-143609523D02*
X167187200Y-143704761D01*
X167187200Y-143704761D02*
X167139580Y-143752380D01*
D12*
%TO.C,J5*%
X133940000Y-92900000D02*
X146700000Y-92900000D01*
X131340000Y-92900000D02*
X132670000Y-92900000D01*
X131340000Y-94230000D02*
X131340000Y-92900000D01*
X146700000Y-95560000D02*
X146700000Y-92900000D01*
X133940000Y-95560000D02*
X133940000Y-92900000D01*
X133940000Y-95560000D02*
X146700000Y-95560000D01*
%TO.C,J4*%
X163740000Y-97910000D02*
X163740000Y-96800000D01*
X164850000Y-97910000D02*
X163740000Y-97910000D01*
X165850000Y-95690000D02*
X167960000Y-95690000D01*
X165850000Y-97910000D02*
X165850000Y-95690000D01*
X165850000Y-97910000D02*
X167960000Y-97910000D01*
X167960000Y-97910000D02*
X167960000Y-95690000D01*
%TO.C,J2*%
X135130000Y-144460000D02*
X135130000Y-143080000D01*
X136510000Y-144460000D02*
X135130000Y-144460000D01*
X137780000Y-141700000D02*
X148050000Y-141700000D01*
X137780000Y-144460000D02*
X137780000Y-141700000D01*
X137780000Y-144460000D02*
X148050000Y-144460000D01*
X148050000Y-144460000D02*
X148050000Y-141700000D01*
D13*
%TO.C,U5*%
X139745000Y-98567500D02*
X168545000Y-98567500D01*
X139745000Y-139377500D02*
X139745000Y-98577500D01*
X168545000Y-98577500D02*
X168545000Y-139377500D01*
X168545000Y-139377500D02*
X139745000Y-139377500D01*
D12*
%TO.C,D2*%
X105770000Y-126014000D02*
X105770000Y-126170000D01*
X105770000Y-128330000D02*
X105770000Y-128486000D01*
X105770000Y-126014484D02*
G75*
G02*
X109001437Y-126170000I1560000J-1235516D01*
G01*
X106289039Y-126170000D02*
G75*
G02*
X108370961Y-126170000I1040961J-1080000D01*
G01*
X108370961Y-128330000D02*
G75*
G02*
X106289039Y-128330000I-1040961J1080000D01*
G01*
X109001437Y-128330000D02*
G75*
G02*
X105770000Y-128485516I-1671437J1080000D01*
G01*
D13*
%TO.C,U1*%
X46070000Y-98662500D02*
X74870000Y-98662500D01*
X46070000Y-139472500D02*
X46070000Y-98672500D01*
X74870000Y-98672500D02*
X74870000Y-139472500D01*
X74870000Y-139472500D02*
X46070000Y-139472500D01*
%TO.C,U2*%
X75450000Y-98670000D02*
X104250000Y-98670000D01*
X75450000Y-139480000D02*
X75450000Y-98680000D01*
X104250000Y-98680000D02*
X104250000Y-139480000D01*
X104250000Y-139480000D02*
X75450000Y-139480000D01*
D12*
%TO.C,D1*%
X105810000Y-106444000D02*
X105810000Y-106600000D01*
X105810000Y-108760000D02*
X105810000Y-108916000D01*
X105810000Y-106444484D02*
G75*
G02*
X109041437Y-106600000I1560000J-1235516D01*
G01*
X106329039Y-106600000D02*
G75*
G02*
X108410961Y-106600000I1040961J-1080000D01*
G01*
X108410961Y-108760000D02*
G75*
G02*
X106329039Y-108760000I-1040961J1080000D01*
G01*
X109041437Y-108760000D02*
G75*
G02*
X105810000Y-108915516I-1671437J1080000D01*
G01*
D13*
%TO.C,U3*%
X110225000Y-98615000D02*
X139025000Y-98615000D01*
X110225000Y-139425000D02*
X110225000Y-98625000D01*
X139025000Y-98625000D02*
X139025000Y-139425000D01*
X139025000Y-139425000D02*
X110225000Y-139425000D01*
D12*
%TO.C,J3*%
X150320000Y-142420000D02*
X150320000Y-145180000D01*
X163130000Y-142420000D02*
X150320000Y-142420000D01*
X163130000Y-142420000D02*
X163130000Y-145180000D01*
X163130000Y-145180000D02*
X150320000Y-145180000D01*
X164400000Y-142420000D02*
X165780000Y-142420000D01*
X165780000Y-142420000D02*
X165780000Y-143800000D01*
%TD*%
M02*
