%TF.GenerationSoftware,KiCad,Pcbnew,9.0.2*%
%TF.CreationDate,2025-06-17T19:12:47+05:30*%
%TF.ProjectId,clock,636c6f63-6b2e-46b6-9963-61645f706362,rev?*%
%TF.SameCoordinates,Original*%
%TF.FileFunction,Soldermask,Bot*%
%TF.FilePolarity,Negative*%
%FSLAX46Y46*%
G04 Gerber Fmt 4.6, Leading zero omitted, Abs format (unit mm)*
G04 Created by KiCad (PCBNEW 9.0.2) date 2025-06-17 19:12:47*
%MOMM*%
%LPD*%
G01*
G04 APERTURE LIST*
G04 Aperture macros list*
%AMRoundRect*
0 Rectangle with rounded corners*
0 $1 Rounding radius*
0 $2 $3 $4 $5 $6 $7 $8 $9 X,Y pos of 4 corners*
0 Add a 4 corners polygon primitive as box body*
4,1,4,$2,$3,$4,$5,$6,$7,$8,$9,$2,$3,0*
0 Add four circle primitives for the rounded corners*
1,1,$1+$1,$2,$3*
1,1,$1+$1,$4,$5*
1,1,$1+$1,$6,$7*
1,1,$1+$1,$8,$9*
0 Add four rect primitives between the rounded corners*
20,1,$1+$1,$2,$3,$4,$5,0*
20,1,$1+$1,$4,$5,$6,$7,0*
20,1,$1+$1,$6,$7,$8,$9,0*
20,1,$1+$1,$8,$9,$2,$3,0*%
G04 Aperture macros list end*
%ADD10C,1.800000*%
%ADD11C,2.000000*%
%ADD12RoundRect,0.250000X-0.337500X-0.475000X0.337500X-0.475000X0.337500X0.475000X-0.337500X0.475000X0*%
%ADD13RoundRect,0.250000X0.250000X0.475000X-0.250000X0.475000X-0.250000X-0.475000X0.250000X-0.475000X0*%
%ADD14R,0.900000X1.500000*%
%ADD15R,1.500000X0.900000*%
%ADD16C,0.600000*%
%ADD17R,4.200000X4.200000*%
%ADD18C,1.700000*%
%ADD19RoundRect,0.250000X-0.600000X0.600000X-0.600000X-0.600000X0.600000X-0.600000X0.600000X0.600000X0*%
%ADD20R,1.800000X1.800000*%
%ADD21R,1.700000X1.700000*%
%ADD22RoundRect,0.250000X1.050000X0.550000X-1.050000X0.550000X-1.050000X-0.550000X1.050000X-0.550000X0*%
%ADD23R,1.800000X1.600000*%
%ADD24RoundRect,0.375000X0.625000X0.375000X-0.625000X0.375000X-0.625000X-0.375000X0.625000X-0.375000X0*%
%ADD25RoundRect,0.500000X0.500000X1.400000X-0.500000X1.400000X-0.500000X-1.400000X0.500000X-1.400000X0*%
%ADD26RoundRect,0.250000X-0.250000X-0.475000X0.250000X-0.475000X0.250000X0.475000X-0.250000X0.475000X0*%
%ADD27RoundRect,0.267317X-0.280683X-0.470683X0.280683X-0.470683X0.280683X0.470683X-0.280683X0.470683X0*%
%ADD28RoundRect,0.250000X-0.475000X0.250000X-0.475000X-0.250000X0.475000X-0.250000X0.475000X0.250000X0*%
%ADD29RoundRect,0.250000X-0.550000X0.550000X-0.550000X-0.550000X0.550000X-0.550000X0.550000X0.550000X0*%
%ADD30C,1.600000*%
%ADD31RoundRect,0.250000X0.475000X-0.250000X0.475000X0.250000X-0.475000X0.250000X-0.475000X-0.250000X0*%
%ADD32RoundRect,0.267317X0.280683X0.470683X-0.280683X0.470683X-0.280683X-0.470683X0.280683X-0.470683X0*%
%ADD33RoundRect,0.267317X-0.470683X0.280683X-0.470683X-0.280683X0.470683X-0.280683X0.470683X0.280683X0*%
%ADD34RoundRect,0.250000X2.050000X0.300000X-2.050000X0.300000X-2.050000X-0.300000X2.050000X-0.300000X0*%
%ADD35RoundRect,0.250002X4.449998X5.149998X-4.449998X5.149998X-4.449998X-5.149998X4.449998X-5.149998X0*%
%ADD36R,2.000000X4.600000*%
%ADD37O,2.000000X4.200000*%
%ADD38O,4.200000X2.000000*%
%ADD39RoundRect,0.250000X0.650000X-1.000000X0.650000X1.000000X-0.650000X1.000000X-0.650000X-1.000000X0*%
%ADD40RoundRect,0.260556X-0.677444X1.027444X-0.677444X-1.027444X0.677444X-1.027444X0.677444X1.027444X0*%
%ADD41R,5.400000X2.900000*%
%ADD42RoundRect,0.150000X-0.587500X-0.150000X0.587500X-0.150000X0.587500X0.150000X-0.587500X0.150000X0*%
%ADD43RoundRect,0.150000X0.587500X0.150000X-0.587500X0.150000X-0.587500X-0.150000X0.587500X-0.150000X0*%
%ADD44C,0.700000*%
%ADD45C,4.400000*%
G04 APERTURE END LIST*
D10*
%TO.C,SW1*%
X170920000Y-134660000D03*
X170920000Y-139160000D03*
D11*
X168420000Y-133410000D03*
X168420000Y-140410000D03*
%TD*%
D12*
%TO.C,C7*%
X166962500Y-130800000D03*
X169037500Y-130800000D03*
%TD*%
D13*
%TO.C,C10*%
X84850000Y-122100000D03*
X86750000Y-122100000D03*
%TD*%
D14*
%TO.C,U4*%
X169660000Y-125730000D03*
X168390000Y-125730000D03*
X167120000Y-125730000D03*
X165850000Y-125730000D03*
X164580000Y-125730000D03*
X163310000Y-125730000D03*
X162040000Y-125730000D03*
X160770000Y-125730000D03*
X159500000Y-125730000D03*
X158230000Y-125730000D03*
X156960000Y-125730000D03*
X155690000Y-125730000D03*
X154420000Y-125730000D03*
X153150000Y-125730000D03*
D15*
X151900000Y-122690000D03*
X151900000Y-121420000D03*
X151900000Y-120150000D03*
X151900000Y-118880000D03*
X151900000Y-117610000D03*
X151900000Y-116340000D03*
X151900000Y-115070000D03*
X151900000Y-113800000D03*
X151900000Y-112530000D03*
X151900000Y-111260000D03*
D14*
X153150000Y-108230000D03*
X154420000Y-108230000D03*
X155690000Y-108230000D03*
X156960000Y-108230000D03*
X158230000Y-108230000D03*
X159500000Y-108230000D03*
X160770000Y-108230000D03*
X162040000Y-108230000D03*
X163310000Y-108230000D03*
X164580000Y-108230000D03*
X165850000Y-108230000D03*
X167120000Y-108230000D03*
X168390000Y-108230000D03*
X169660000Y-108230000D03*
D16*
X161557500Y-119185000D03*
X163082500Y-119185000D03*
X160795000Y-118422500D03*
X162320000Y-118422500D03*
X163845000Y-118422500D03*
X161557500Y-117660000D03*
D17*
X162320000Y-117660000D03*
D16*
X163082500Y-117660000D03*
X160795000Y-116897500D03*
X162320000Y-116897500D03*
X163845000Y-116897500D03*
X161557500Y-116135000D03*
X163082500Y-116135000D03*
%TD*%
D18*
%TO.C,J2*%
X162410000Y-143810000D03*
X162410000Y-141270000D03*
X159870000Y-143810000D03*
X159870000Y-141270000D03*
X157330000Y-143810000D03*
D19*
X157330000Y-141270000D03*
%TD*%
D20*
%TO.C,D2*%
X106060000Y-127250000D03*
D10*
X108600000Y-127250000D03*
%TD*%
D20*
%TO.C,D1*%
X106100000Y-107680000D03*
D10*
X108640000Y-107680000D03*
%TD*%
D21*
%TO.C,U5*%
X149035000Y-136537500D03*
D18*
X151575000Y-136537500D03*
X154115000Y-136537500D03*
X156655000Y-136537500D03*
X159195000Y-136537500D03*
X159105000Y-101187500D03*
X156565000Y-101187500D03*
X154025000Y-101187500D03*
X151485000Y-101187500D03*
X148945000Y-101187500D03*
%TD*%
D21*
%TO.C,U1*%
X55360000Y-136632500D03*
D18*
X57900000Y-136632500D03*
X60440000Y-136632500D03*
X62980000Y-136632500D03*
X65520000Y-136632500D03*
X65430000Y-101282500D03*
X62890000Y-101282500D03*
X60350000Y-101282500D03*
X57810000Y-101282500D03*
X55270000Y-101282500D03*
%TD*%
D21*
%TO.C,U3*%
X119515000Y-136585000D03*
D18*
X122055000Y-136585000D03*
X124595000Y-136585000D03*
X127135000Y-136585000D03*
X129675000Y-136585000D03*
X129585000Y-101235000D03*
X127045000Y-101235000D03*
X124505000Y-101235000D03*
X121965000Y-101235000D03*
X119425000Y-101235000D03*
%TD*%
D22*
%TO.C,C1*%
X87270000Y-116817500D03*
X83670000Y-116817500D03*
%TD*%
D13*
%TO.C,C12*%
X126590000Y-125575000D03*
X124690000Y-125575000D03*
%TD*%
D23*
%TO.C,C5*%
X96260000Y-108787500D03*
X96260000Y-111587500D03*
%TD*%
D24*
%TO.C,U7*%
X92230000Y-107017500D03*
X92230000Y-109317500D03*
D25*
X85930000Y-109317500D03*
D24*
X92230000Y-111617500D03*
%TD*%
D26*
%TO.C,C8*%
X168075000Y-128195000D03*
X169975000Y-128195000D03*
%TD*%
D27*
%TO.C,R3*%
X157980000Y-132270000D03*
X159800000Y-132270000D03*
%TD*%
D28*
%TO.C,C2*%
X91390000Y-114547500D03*
X91390000Y-116447500D03*
%TD*%
D29*
%TO.C,U6*%
X113750000Y-114950000D03*
D30*
X116290000Y-114950000D03*
X118830000Y-114950000D03*
X121370000Y-114950000D03*
X123910000Y-114950000D03*
X126450000Y-114950000D03*
X128990000Y-114950000D03*
X131530000Y-114950000D03*
X134070000Y-114950000D03*
X136610000Y-114950000D03*
X139150000Y-114950000D03*
X141690000Y-114950000D03*
X141690000Y-122570000D03*
X139150000Y-122570000D03*
X136610000Y-122570000D03*
X134070000Y-122570000D03*
X131530000Y-122570000D03*
X128990000Y-122570000D03*
X126450000Y-122570000D03*
X123910000Y-122570000D03*
X121370000Y-122570000D03*
X118830000Y-122570000D03*
X116290000Y-122570000D03*
X113750000Y-122570000D03*
%TD*%
%TO.C,C3*%
X68590000Y-113327500D03*
X68590000Y-110827500D03*
%TD*%
D13*
%TO.C,C11*%
X165330000Y-138170000D03*
X163430000Y-138170000D03*
%TD*%
D31*
%TO.C,C4*%
X65380000Y-118397500D03*
X65380000Y-116497500D03*
%TD*%
D32*
%TO.C,R2*%
X159750000Y-129840000D03*
X157930000Y-129840000D03*
%TD*%
D33*
%TO.C,R1*%
X129030000Y-125065000D03*
X129030000Y-126885000D03*
%TD*%
D34*
%TO.C,U8*%
X60470000Y-118447500D03*
X60470000Y-120147500D03*
X60470000Y-121847500D03*
D35*
X51320000Y-121847500D03*
D34*
X60470000Y-123547500D03*
X60470000Y-125247500D03*
%TD*%
D27*
%TO.C,R4*%
X163430000Y-135450000D03*
X165250000Y-135450000D03*
%TD*%
D36*
%TO.C,J1*%
X58560000Y-109237500D03*
D37*
X52260000Y-109237500D03*
D38*
X55660000Y-104437500D03*
%TD*%
D30*
%TO.C,C9*%
X87100000Y-126700000D03*
X84600000Y-126700000D03*
%TD*%
D28*
%TO.C,C6*%
X99500000Y-109257500D03*
X99500000Y-111157500D03*
%TD*%
D39*
%TO.C,D3*%
X62500000Y-113305000D03*
X62500000Y-109305000D03*
%TD*%
D40*
%TO.C,D4*%
X65800000Y-121557500D03*
X65800000Y-125557500D03*
%TD*%
D41*
%TO.C,L1*%
X75360000Y-119237500D03*
X75360000Y-129137500D03*
%TD*%
D42*
%TO.C,Q1*%
X162470000Y-132050000D03*
X162470000Y-130150000D03*
X164345000Y-131100000D03*
%TD*%
D43*
%TO.C,Q2*%
X155487500Y-130107500D03*
X155487500Y-132007500D03*
X153612500Y-131057500D03*
%TD*%
D44*
%TO.C,REF\u002A\u002A*%
X47100000Y-143740000D03*
X46616726Y-144906726D03*
X46616726Y-142573274D03*
X45450000Y-145390000D03*
D45*
X45450000Y-143740000D03*
D44*
X45450000Y-142090000D03*
X44283274Y-144906726D03*
X44283274Y-142573274D03*
X43800000Y-143740000D03*
%TD*%
%TO.C,REF\u002A\u002A*%
X43750000Y-95940000D03*
X44233274Y-94773274D03*
X44233274Y-97106726D03*
X45400000Y-94290000D03*
D45*
X45400000Y-95940000D03*
D44*
X45400000Y-97590000D03*
X46566726Y-94773274D03*
X46566726Y-97106726D03*
X47050000Y-95940000D03*
%TD*%
%TO.C,REF\u002A\u002A*%
X169430000Y-96220000D03*
X169913274Y-95053274D03*
X169913274Y-97386726D03*
X171080000Y-94570000D03*
D45*
X171080000Y-96220000D03*
D44*
X171080000Y-97870000D03*
X172246726Y-95053274D03*
X172246726Y-97386726D03*
X172730000Y-96220000D03*
%TD*%
%TO.C,REF\u002A\u002A*%
X169440000Y-143900000D03*
X169923274Y-142733274D03*
X169923274Y-145066726D03*
X171090000Y-142250000D03*
D45*
X171090000Y-143900000D03*
D44*
X171090000Y-145550000D03*
X172256726Y-142733274D03*
X172256726Y-145066726D03*
X172740000Y-143900000D03*
%TD*%
D21*
%TO.C,U2*%
X84740000Y-136640000D03*
D18*
X87280000Y-136640000D03*
X89820000Y-136640000D03*
X92360000Y-136640000D03*
X94900000Y-136640000D03*
X94810000Y-101290000D03*
X92270000Y-101290000D03*
X89730000Y-101290000D03*
X87190000Y-101290000D03*
X84650000Y-101290000D03*
%TD*%
M02*
